<?xml version="1.0" standalone="no"?>
<!DOCTYPE svg PUBLIC "-//W3C//DTD SVG 1.1//EN" "http://www.w3.org/Graphics/SVG/1.1/DTD/svg11.dtd" >
<svg>
<metadata>
Created by FontForge 20090622 at Tue Dec 31 05:41:46 2019
 By deploy user
Copyright &#194;&#169; 2018 Monotype Imaging Inc. All rights reserved.
</metadata>
<defs>
<font id="NeuePlak-ExtendedBold" horiz-adv-x="0" >
  <font-face 
    font-family="Neue Plak Extended Bold"
    font-weight="700"
    font-stretch="expanded"
    units-per-em="1000"
    panose-1="2 11 8 5 3 2 2 2 2 4"
    ascent="800"
    descent="-200"
    x-height="496"
    cap-height="706"
    bbox="-943 -223.04 1214 1174"
    underline-thickness="50"
    underline-position="-50"
    unicode-range="U+000D-U+FEFF"
  />
<missing-glyph horiz-adv-x="790" 
d="M54 0h682v706h-682v-706zM214 132v442h362v-442h-362z" />
    <glyph glyph-name=".notdef" horiz-adv-x="790" 
d="M54 0h682v706h-682v-706zM214 132v442h362v-442h-362z" />
    <glyph glyph-name="glyph1" 
 />
    <glyph glyph-name="glyph1" 
 />
    <glyph glyph-name="uni000D" unicode="&#xd;" horiz-adv-x="205" 
 />
    <glyph glyph-name="space" unicode=" " horiz-adv-x="205" 
 />
    <glyph glyph-name="exclam" unicode="!" horiz-adv-x="326" 
d="M101 227h123l21 479h-164zM163 -19q40 1 65 24q24 24 25 65q-1 42 -25 65q-25 24 -65 24q-41 0 -65 -24q-24 -23 -25 -65q1 -41 25 -65q24 -23 65 -24v0z" />
    <glyph glyph-name="quotedbl" unicode="&#x22;" horiz-adv-x="494" 
d="M84 416h110l19 290h-148zM302 416h109l19 290h-148z" />
    <glyph glyph-name="numbersign" unicode="#" horiz-adv-x="886" 
d="M835 425l26 126h-140l36 175h-139l-36 -175h-200l36 175h-139l-36 -175h-135l-26 -126h136l-30 -145h-136l-27 -126h137l-35 -174h138l36 174h200l-35 -174h139l35 174h138l27 126h-139l30 145h139zM527 280h-200l29 145h201z" />
    <glyph glyph-name="dollar" unicode="$" horiz-adv-x="730" 
d="M679 285q-28 57 -90 86q-63 29 -145 46l-41 9v180q37 -6 63 -21q26 -16 38 -43q5 -10 7 -23q3 -12 3 -27h161q0 27 -4 50q-5 23 -14 44q-29 62 -95 97q-65 34 -156 41v82h-82v-81q-93 -6 -160 -40q-68 -34 -96 -95q-8 -18 -12 -38q-4 -19 -4 -41t4 -40q4 -19 11 -35
q23 -49 77 -78q55 -28 136 -47q12 -3 24 -5q11 -3 23 -5v-198q-42 4 -72 21q-30 16 -43 46q-5 12 -8 26q-2 13 -3 29h-167q0 -28 5 -53t15 -47q29 -65 98 -101t171 -43v-81h82v81q100 5 171 39q72 34 102 98q17 38 17 86q0 25 -4 44q-4 20 -12 37v0zM221 501q-3 7 -4 13
q-2 7 -2 15q0 13 5 25q11 25 39 38t69 16v-165q-40 9 -68 23t-39 35v0zM520 156q-12 -25 -44 -39q-31 -13 -74 -16v183q43 -10 75 -25q31 -15 43 -39q6 -13 6 -31q0 -9 -1 -18q-2 -8 -5 -15v0z" />
    <glyph glyph-name="percent" unicode="%" horiz-adv-x="796" 
d="M193 406q59 0 99 21q41 20 59 60q7 16 11 35q3 18 3 39t-3 39q-4 18 -11 34q-18 40 -59 60q-40 21 -99 21t-100 -21q-41 -20 -59 -60q-7 -16 -11 -34q-3 -18 -3 -39t3 -39q4 -19 11 -35q18 -40 59 -60q41 -21 100 -21v0zM59 0l120 -1l557 706l-119 1zM193 491
q-24 0 -39 8t-22 23q-4 7 -5 17q-1 9 -1 22q0 11 1 21q1 9 5 17q7 15 22 23t39 8q22 0 37 -7q14 -7 22 -23q4 -8 5 -18q2 -10 2 -21q0 -13 -2 -22q-1 -10 -5 -17q-14 -31 -59 -31v0zM604 -9q59 0 99 21q41 20 59 60q7 16 11 35q3 18 3 39t-3 39q-4 18 -11 34q-18 40 -59 60
q-40 21 -99 21t-100 -21q-41 -20 -59 -60q-7 -16 -11 -34q-3 -18 -3 -39t3 -39q4 -19 11 -35q18 -40 59 -60q41 -21 100 -21v0zM604 76q-24 0 -39 8t-22 23q-4 7 -5 17q-1 9 -1 22q0 11 1 21q1 9 5 17q7 15 22 23t39 8q22 0 37 -7q14 -7 22 -23q4 -8 5 -18q2 -10 2 -21
q0 -13 -2 -22q-1 -10 -5 -17q-14 -31 -59 -31v0z" />
    <glyph glyph-name="ampersand" unicode="&#x26;" horiz-adv-x="792" 
d="M762 123q-28 0 -53 5q-26 5 -51 15q26 34 51 74q24 40 49 87l-115 55q-21 -41 -42 -77q-22 -36 -44 -65l-143 153q79 35 137 82q59 47 62 121q-2 79 -70 116q-67 37 -173 37q-125 -1 -184 -46q-59 -44 -58 -117q-1 -35 17 -75q17 -40 61 -94q-72 -34 -122 -85
q-51 -51 -53 -130q1 -91 77 -141t211 -51q73 0 131 15t103 44q42 -25 93 -35q50 -11 116 -11v123zM278 564q0 34 26 52t74 18q44 0 68 -17q23 -16 23 -45q-1 -38 -39 -66q-37 -28 -94 -52q-32 37 -45 63q-13 25 -13 47v0zM195 194q1 35 26 62q24 28 64 50l170 -177
q-49 -26 -115 -26q-68 0 -106 24q-38 23 -39 67v0z" />
    <glyph glyph-name="quotesingle" unicode="'" horiz-adv-x="277" 
d="M84 416h110l19 290h-148z" />
    <glyph glyph-name="parenleft" unicode="(" horiz-adv-x="397" 
d="M240 -203h140q-73 110 -115 229q-41 119 -42 264q1 145 42 265q42 119 115 229h-140q-73 -110 -113 -227q-41 -117 -42 -267q1 -149 42 -266q40 -117 113 -227v0z" />
    <glyph glyph-name="parenright" unicode=")" horiz-adv-x="397" 
d="M157 -203q73 110 114 227q40 117 41 266q-1 150 -41 267q-41 117 -114 227h-140q73 -110 115 -229q41 -120 42 -265q-1 -145 -42 -264q-42 -119 -115 -229h140z" />
    <glyph glyph-name="asterisk" unicode="*" horiz-adv-x="431" 
d="M155 353l60 114l60 -114l89 65l-90 92l127 21l-34 105l-115 -57l18 127h-109l17 -127l-114 57l-35 -105l127 -21l-89 -92z" />
    <glyph glyph-name="plus" unicode="+" horiz-adv-x="612" 
d="M562 348h-196v187h-120v-187h-196v-116h196v-188h120v188h196v116z" />
    <glyph glyph-name="comma" unicode="," horiz-adv-x="308" 
d="M38 -177h114l102 337h-144z" />
    <glyph glyph-name="hyphen" unicode="-" horiz-adv-x="446" 
d="M50 226h345v128h-345v-128z" />
    <glyph glyph-name="period" unicode="." horiz-adv-x="334" 
d="M167 -19q40 1 65 24q25 24 26 65q-1 42 -26 65q-25 24 -65 24q-41 0 -65 -24q-24 -23 -25 -65q1 -41 25 -65q25 -23 65 -24v0z" />
    <glyph glyph-name="slash" unicode="/" horiz-adv-x="581" 
d="M21 -50h154l385 776h-153z" />
    <glyph glyph-name="zero" unicode="0" horiz-adv-x="773" 
d="M386 -20q118 1 198 47q79 47 117 133q18 39 27 87t9 106t-9 106t-27 87q-38 86 -117 133q-80 46 -198 47q-119 -1 -198 -47q-79 -47 -117 -133q-17 -39 -26 -87t-9 -106t9 -106t26 -87q38 -86 117 -133q79 -46 198 -47v0zM386 114q-61 0 -101 23q-41 23 -61 67
q-11 27 -16 63q-5 37 -5 86q0 50 5 86t16 63q20 44 61 67q40 23 101 23t101 -23t60 -67q12 -27 17 -63t5 -86q0 -49 -5 -86q-5 -36 -17 -63q-20 -44 -60 -67t-101 -23v0z" />
    <glyph glyph-name="one" unicode="1" horiz-adv-x="398" 
d="M168 0h155v706h-283l-30 -135h158v-571z" />
    <glyph glyph-name="two" unicode="2" horiz-adv-x="656" 
d="M12 0h612v132h-300q53 45 97 87l88 83q51 48 78 93q27 44 27 103q0 30 -5 53q-5 22 -13 40q-36 73 -107 105q-72 31 -164 30q-103 0 -174 -36q-71 -37 -104 -111q-12 -27 -18 -57q-6 -31 -6 -68h158q0 43 13 73q15 34 48 52t81 18q43 0 74 -15q31 -14 44 -43q4 -9 6 -20
t2 -23q1 -36 -25 -73q-26 -36 -84 -92l-328 -328v-3z" />
    <glyph glyph-name="three" unicode="3" horiz-adv-x="681" 
d="M630 276q-16 35 -50 60q-35 24 -90 35q48 13 78 36t45 55q6 15 9 31q3 15 3 34q0 21 -3 39q-4 19 -12 36q-27 60 -96 92q-70 32 -173 32q-109 0 -182 -36q-74 -35 -105 -103q-9 -21 -14 -44t-5 -51h154q1 15 3 28q3 13 8 24q15 34 50 49t85 15q46 0 79 -13q32 -14 45 -42
q7 -17 7 -38q0 -10 -2 -18q-1 -8 -5 -15q-15 -30 -55 -43q-39 -12 -91 -12h-37v-110h35q56 1 98 -12q43 -14 61 -49q4 -9 6 -20q3 -11 3 -24q0 -11 -2 -23q-2 -11 -7 -21q-15 -32 -51 -48q-36 -15 -84 -15q-54 0 -89 19q-35 18 -51 54q-8 18 -12 39q-4 22 -4 48h-156
q0 -43 6 -79q7 -35 20 -65q31 -70 105 -105q74 -36 187 -36q117 0 188 34t98 97q18 38 18 86q0 44 -15 79v0z" />
    <glyph glyph-name="four" unicode="4" horiz-adv-x="732" 
d="M720 284h-115v422h-288l-325 -548v-2h458v-156h155v156h115v128zM237 284l212 373h1v-373h-213z" />
    <glyph glyph-name="five" unicode="5" horiz-adv-x="663" 
d="M331 -20q108 1 179 38t102 105q10 22 16 50q6 27 6 58q0 27 -5 54q-6 26 -17 51q-35 72 -106 103q-72 31 -160 30q-63 0 -124 -12l25 121h322l30 128h-474l-66 -359q36 8 82 12q46 5 95 5q82 1 140 -17q58 -19 81 -66q5 -12 8 -26t3 -30q0 -30 -11 -55q-15 -32 -47 -49
q-33 -17 -81 -17t-80 17q-32 16 -47 50q-15 35 -15 84h-157q0 -40 6 -74q5 -34 18 -62q33 -72 104 -105q72 -34 173 -34v0z" />
    <glyph glyph-name="six" unicode="6" horiz-adv-x="728" 
d="M675 336q-30 66 -98 98q-67 32 -156 32q-73 0 -132 -22t-96 -63q0 71 22 125q21 47 61 72t98 25q38 0 67 -10q30 -11 50 -31q21 -21 29 -52h159q-6 40 -23 73t-43 60q-41 41 -101 62t-135 21q-112 0 -189 -45q-76 -45 -114 -130q-19 -43 -29 -95q-9 -51 -9 -110
q0 -114 35 -192q36 -84 113 -129t197 -45q107 0 183 40q76 39 111 113q10 23 15 48q5 26 5 54q0 59 -20 101v0zM519 176q-16 -35 -53 -53q-38 -18 -90 -18t-91 19q-39 18 -55 54q-5 11 -7 24t-2 27t2 27q2 12 7 24q16 35 55 54q38 19 93 19q51 0 88 -17q37 -18 54 -53
q5 -12 8 -24q2 -13 2 -28t-3 -29t-8 -26v0z" />
    <glyph glyph-name="seven" unicode="7" horiz-adv-x="613" 
d="M79 0h182l359 706h-606v-135h364z" />
    <glyph glyph-name="eight" unicode="8" horiz-adv-x="713" 
d="M660 283q-17 40 -51 65q-35 25 -85 36q41 11 71 32q29 22 43 52q13 30 13 67t-14 67q-28 62 -101 93q-72 31 -179 31q-108 0 -181 -32q-73 -31 -100 -92q-7 -15 -10 -31q-4 -17 -4 -36q0 -37 14 -67t43 -51q29 -22 72 -33q-50 -11 -85 -37t-53 -65q-17 -35 -17 -80
q0 -23 4 -43q5 -20 13 -39q29 -65 105 -102t199 -38q122 1 198 37q76 37 105 103q9 19 13 39t4 43q0 45 -17 81v0zM227 559q14 29 49 44q35 14 81 14t81 -14q35 -15 49 -44q4 -9 5 -18q2 -8 2 -18q0 -11 -2 -20t-5 -17q-15 -30 -50 -43q-35 -14 -80 -14t-80 14
q-36 14 -50 44q-4 8 -5 17q-2 8 -2 18q0 11 2 20q1 9 5 17v0zM503 168q-17 -34 -56 -50q-40 -16 -90 -16t-90 16q-39 16 -56 50q-4 10 -6 20q-2 9 -2 22q0 12 2 22t6 20q17 34 55 49q39 16 90 16q52 0 91 -16t56 -50q4 -10 6 -20t2 -22t-2 -22q-2 -9 -6 -19v0z" />
    <glyph glyph-name="nine" unicode="9" horiz-adv-x="728" 
d="M658 553q-37 84 -113 129q-77 45 -197 45q-107 0 -184 -40q-76 -39 -111 -113q-10 -23 -15 -48q-5 -26 -5 -54q0 -59 20 -101q31 -66 98 -98t156 -32q73 0 132 22t96 63q0 -36 -5 -67q-5 -32 -17 -58q-21 -47 -61 -73q-39 -25 -98 -25q-38 0 -67 11q-30 11 -50 31
q-21 21 -29 51h-159q6 -39 23 -72q17 -34 43 -60q41 -41 101 -62t135 -21q112 0 189 45q76 45 114 130q19 42 29 94q9 52 9 111q0 114 -34 192v0zM498 427q-16 -35 -54 -54q-39 -19 -93 -19q-51 0 -89 17q-37 18 -54 53q-5 12 -7 25q-3 12 -3 27t3 29t8 26q16 35 54 53
q37 18 89 18t91 -18q39 -19 55 -55q10 -22 10 -51q0 -14 -2 -27q-3 -12 -8 -24v0z" />
    <glyph glyph-name="colon" unicode=":" horiz-adv-x="334" 
d="M167 320q40 1 65 25t26 64q-1 42 -26 65q-25 24 -65 24q-41 0 -65 -24q-24 -23 -25 -65q1 -40 25 -64q25 -24 65 -25v0zM167 -19q40 1 65 24q25 24 26 65q-1 42 -26 65q-25 24 -65 24q-41 0 -65 -24q-24 -23 -25 -65q1 -41 25 -65q25 -23 65 -24v0z" />
    <glyph glyph-name="semicolon" unicode=";" horiz-adv-x="355" 
d="M188 320q40 1 65 25q24 24 25 64q-1 42 -25 65q-25 24 -65 24q-41 0 -65 -24q-24 -23 -25 -65q1 -40 25 -64t65 -25v0zM38 -177h114l102 337h-144z" />
    <glyph glyph-name="less" unicode="&#x3c;" horiz-adv-x="612" 
d="M561 521l-511 -157v-149l511 -157v119l-391 112l391 112v120z" />
    <glyph glyph-name="equal" unicode="=" horiz-adv-x="612" 
d="M50 339h512v115h-512v-115zM50 126h512v115h-512v-115z" />
    <glyph glyph-name="greater" unicode="&#x3e;" horiz-adv-x="612" 
d="M50 521v-120l391 -112l-391 -112v-119l512 157v149z" />
    <glyph glyph-name="question" unicode="?" horiz-adv-x="598" 
d="M218 227h170q108 144 144 205q35 61 32 106q-1 89 -68 138q-68 49 -195 50q-98 0 -161 -30q-63 -31 -89 -88q-9 -21 -12 -44q-4 -24 -4 -53h151q0 16 2 28q3 11 8 23q11 25 36 37q26 13 66 13q55 0 80 -22q26 -21 26 -58q3 -34 -34 -93t-152 -212v0zM294 -20q41 1 66 24
q24 24 25 65q-1 42 -25 65q-25 24 -66 24q-40 0 -65 -24q-24 -23 -25 -65q1 -41 25 -65q25 -23 65 -24v0z" />
    <glyph glyph-name="at" unicode="@" horiz-adv-x="962" 
d="M900 483q-48 104 -156 158t-257 54q-155 -1 -261 -57q-105 -57 -153 -163q-19 -40 -29 -87q-11 -47 -11 -102q0 -52 9 -98q9 -45 27 -85q51 -111 166 -170q115 -58 280 -59q51 0 100 6v67q-49 -5 -100 -5q-136 0 -233 48q-98 48 -141 140q-16 34 -23 73q-8 40 -8 88
q0 45 7 84q8 40 24 75q38 87 125 133q86 46 219 46q125 0 214 -44q90 -43 129 -127q12 -27 18 -59t6 -67q0 -29 -4 -54q-5 -26 -15 -49q-15 -35 -44 -59q-29 -23 -75 -32v170q0 35 -4 62t-13 47q-22 48 -75 70t-138 22q-79 0 -136 -21q-57 -22 -81 -70q-5 -12 -9 -26
q-3 -14 -4 -30h135l2 14q2 6 5 13q10 17 32 25t55 8q36 0 59 -9q22 -8 31 -27q4 -9 6 -20q1 -12 1 -28v-5h-101q-91 1 -152 -18q-60 -19 -81 -66q-6 -13 -8 -26q-3 -13 -3 -29t3 -29q2 -13 8 -26q17 -38 59 -58q41 -20 103 -20q58 0 103 17q44 17 72 48v-64h68q97 0 160 36
q62 35 93 102q13 28 19 62q6 33 6 72q0 83 -29 149v0zM582 258q0 -17 -2 -30q-3 -13 -8 -23q-12 -25 -41 -38t-71 -13q-30 0 -51 7t-30 24q-5 11 -5 23q0 7 1 12l4 12q10 19 38 25q28 7 67 6h98v-5z" />
    <glyph glyph-name="A" unicode="A" horiz-adv-x="804" 
d="M641 0h170l-294 706h-230l-294 -706h171l60 152h356zM274 276l127 320h2l128 -320h-257z" />
    <glyph glyph-name="B" unicode="B" horiz-adv-x="706" 
d="M657 281q-17 37 -50 60t-82 34q77 21 102 80q8 16 11 35q4 18 4 40t-4 40q-4 19 -12 36q-23 50 -77 75q-55 25 -135 25h-351v-706h349q89 0 153 28t92 87q8 17 12 38q4 20 4 45t-4 45t-12 38v0zM223 595h122q45 0 77 -10q32 -11 45 -38q4 -9 6 -18q2 -10 2 -22
q0 -13 -2 -23t-6 -18q-12 -27 -43 -38q-31 -12 -78 -12h-123v179zM493 164q-14 -29 -48 -41t-84 -12h-138v193h138q49 0 84 -12q34 -12 48 -42q4 -10 6 -20t2 -23q0 -24 -8 -43v0z" />
    <glyph glyph-name="C" unicode="C" horiz-adv-x="851" 
d="M437 -20q89 0 165 24q75 25 128 72q42 38 65 89q24 50 26 112h-170q-2 -33 -15 -60q-13 -26 -35 -46q-30 -27 -72 -40q-43 -13 -94 -13q-75 0 -129 28t-80 84q-10 24 -16 54q-5 31 -5 69t5 68q6 30 17 55q25 54 78 83t130 29q51 0 92 -13q40 -13 69 -39q23 -20 36 -47
q14 -28 17 -62h170q-2 61 -26 112q-23 52 -66 91q-52 47 -127 72q-75 24 -163 24q-137 -1 -232 -53t-139 -147q-33 -74 -33 -173q0 -98 33 -173q43 -97 138 -148q95 -52 233 -52v0z" />
    <glyph glyph-name="D" unicode="D" horiz-adv-x="817" 
d="M63 0h337q132 0 221 47t131 138q16 35 24 77t8 91t-8 91q-8 41 -24 76q-40 92 -130 139t-222 47h-337v-706zM223 134v438h159q82 0 134 -27q52 -26 76 -79q10 -22 15 -50q5 -29 5 -63t-5 -62t-15 -50q-24 -53 -76 -80t-134 -27h-159z" />
    <glyph glyph-name="E" unicode="E" horiz-adv-x="634" 
d="M63 0h529v128h-369v166h366v125h-366v159h369v128h-529v-706z" />
    <glyph glyph-name="F" unicode="F" horiz-adv-x="539" 
d="M63 0h160v290h283v128h-283v157h285v131h-445v-706z" />
    <glyph glyph-name="G" unicode="G" horiz-adv-x="867" 
d="M448 387v-118h221q-2 -15 -6 -28q-3 -13 -9 -26q-25 -52 -80 -76t-129 -24q-79 0 -135 28q-57 28 -83 86q-11 25 -17 55q-5 30 -5 69q0 40 5 70q6 29 17 54q26 57 82 86q56 28 135 28q51 0 95 -12q43 -13 73 -40q17 -15 29 -36q11 -20 17 -46h171q-7 52 -31 97
q-25 45 -62 78q-53 48 -128 71t-165 23q-139 0 -235 -51q-96 -50 -141 -148q-17 -37 -25 -80q-9 -43 -9 -94t8 -94q9 -43 25 -80q44 -96 140 -147q97 -52 235 -52q131 0 222 48q92 48 135 143q19 42 27 87q9 46 9 100v29h-386z" />
    <glyph glyph-name="H" unicode="H" horiz-adv-x="808" 
d="M63 0h160v289h361v-289h161v706h-161v-285h-361v285h-160v-706z" />
    <glyph glyph-name="I" unicode="I" horiz-adv-x="286" 
d="M63 0h160v706h-160v-706z" />
    <glyph glyph-name="J" unicode="J" horiz-adv-x="379" 
d="M90 -6q126 0 182 58q57 59 56 180v474h-160v-449q1 -68 -25 -96q-26 -29 -88 -28q-12 0 -23 1q-12 1 -23 3v-137q38 -6 81 -6v0z" />
    <glyph glyph-name="K" unicode="K" horiz-adv-x="733" 
d="M739 0l-367 387l325 319h-200l-274 -274v274h-160v-706h160v331l310 -331h206z" />
    <glyph glyph-name="L" unicode="L" horiz-adv-x="483" 
d="M63 0h411v135h-251v571h-160v-706z" />
    <glyph glyph-name="M" unicode="M" horiz-adv-x="994" 
d="M63 0h151v487l247 -487h72l247 487v-487h151v706h-187l-247 -480l-244 480h-190v-706z" />
    <glyph glyph-name="N" unicode="N" horiz-adv-x="824" 
d="M63 0h157v493l365 -493h176v706h-157v-499l-369 499h-172v-706z" />
    <glyph glyph-name="O" unicode="O" horiz-adv-x="873" 
d="M436 -20q137 1 231 51t137 143q18 38 27 84q9 45 9 95t-9 94t-26 82q-43 94 -136 145q-94 51 -232 52q-139 -1 -233 -52q-94 -52 -137 -148q-17 -38 -26 -81q-8 -44 -8 -92q0 -50 9 -94q8 -44 25 -82q43 -95 137 -146q94 -50 232 -51v0zM437 119q-79 0 -132 30
q-53 29 -78 83q-11 25 -17 55q-5 29 -5 66t5 67q6 30 17 55q25 54 78 83t131 29q79 0 132 -29t78 -83q11 -25 17 -55q5 -30 5 -67t-5 -66q-5 -30 -16 -55q-25 -54 -78 -83q-53 -30 -132 -30v0z" />
    <glyph glyph-name="P" unicode="P" horiz-adv-x="681" 
d="M63 0h160v266h180q91 0 152 28q61 29 88 88q19 45 19 104q0 32 -5 58q-4 27 -14 49q-27 59 -88 86t-152 27h-340v-706zM223 389v193h142q50 1 81 -10q31 -10 44 -37q5 -10 8 -23q2 -12 2 -27q0 -14 -2 -26t-7 -22q-13 -27 -44 -38q-31 -10 -81 -10h-143z" />
    <glyph glyph-name="Q" unicode="Q" horiz-adv-x="873" 
d="M805 529q-43 94 -136 145q-94 51 -232 52q-139 -1 -233 -52q-94 -52 -137 -148q-17 -38 -26 -81q-8 -44 -8 -92q0 -50 9 -94q8 -44 25 -82q43 -95 137 -146q94 -50 232 -51q28 0 55 2l103 -154l122 78l-80 110q59 25 101 64q42 40 67 94q18 38 27 84q9 45 9 95t-9 94
t-26 82v0zM647 232q-15 -32 -40 -56q-24 -23 -59 -37l-25 34l-81 -54h-5q-79 0 -132 30q-53 29 -78 83q-11 25 -17 55q-5 29 -5 66t5 67q6 30 17 55q25 54 78 83t131 29q79 0 132 -29t78 -83q11 -25 17 -55q5 -30 5 -67t-5 -66q-5 -30 -16 -55v0z" />
    <glyph glyph-name="R" unicode="R" horiz-adv-x="720" 
d="M527 0h198l-252 277q68 6 113 35t67 79q10 21 15 47q5 27 5 56q0 56 -19 96q-27 58 -86 87q-60 29 -150 29h-355v-706h160v275h64zM223 584h152q48 0 81 -11q32 -12 45 -41q9 -17 9 -44q0 -29 -9 -50q-13 -27 -45 -39q-31 -11 -81 -11h-152v196z" />
    <glyph glyph-name="S" unicode="S" horiz-adv-x="726" 
d="M365 -20q115 0 197 34t116 104q17 38 17 86q0 24 -4 44q-3 20 -11 37q-29 59 -94 89t-148 46q-76 16 -137 32q-60 16 -79 51q-3 6 -4 12q-1 7 -1 14t1 14q1 6 4 13q13 27 50 40q36 13 83 13q52 0 87 -15q35 -16 50 -49q5 -11 8 -24q2 -13 3 -29h166q0 27 -4 50
q-5 23 -14 44q-33 70 -110 105t-183 35q-107 0 -185 -35t-109 -101q-15 -34 -16 -78q0 -22 4 -40q3 -18 10 -34q26 -52 82 -82q57 -30 135 -46q79 -15 146 -32q66 -18 88 -58q7 -13 7 -31q0 -16 -7 -33q-14 -28 -53 -42q-38 -13 -91 -13q-59 0 -99 17q-41 16 -57 52
q-11 24 -11 55h-171q0 -28 5 -53t15 -47q33 -72 114 -108q81 -37 200 -37v0z" />
    <glyph glyph-name="T" unicode="T" horiz-adv-x="571" 
d="M206 0h160v574h196v132h-553v-132h197v-574z" />
    <glyph glyph-name="U" unicode="U" horiz-adv-x="770" 
d="M385 -20q171 0 253 74q82 73 81 224v428h-161v-416q0 -89 -42 -131t-132 -42t-131 42q-42 42 -42 131v416h-160v-428q-1 -150 81 -224t253 -74v0z" />
    <glyph glyph-name="V" unicode="V" horiz-adv-x="784" 
d="M617 706l-224 -535l-224 535h-176l314 -706h172l312 706h-174z" />
    <glyph glyph-name="W" unicode="W" horiz-adv-x="1124" 
d="M962 706l-158 -494l-155 494h-172l-156 -495l-159 495h-169l240 -706h166l164 509l163 -509h167l238 706h-169z" />
    <glyph glyph-name="X" unicode="X" horiz-adv-x="803" 
d="M-5 0h199l208 256l208 -256h198l-308 372l275 334h-194l-179 -220l-178 220h-196l276 -333z" />
    <glyph glyph-name="Y" unicode="Y" horiz-adv-x="706" 
d="M273 0h160v307l279 399h-183l-176 -256l-176 256h-184l280 -399v-307z" />
    <glyph glyph-name="Z" unicode="Z" horiz-adv-x="695" 
d="M10 0h671v132h-392l385 574h-646v-132h374z" />
    <glyph glyph-name="bracketleft" unicode="[" horiz-adv-x="401" 
d="M107 -203h272v114h-139v759h139v114h-272v-987z" />
    <glyph glyph-name="backslash" unicode="\" horiz-adv-x="581" 
d="M560 -50l-386 776h-153l385 -776h154z" />
    <glyph glyph-name="bracketright" unicode="]" horiz-adv-x="401" 
d="M294 -203v987h-272v-114h139v-759h-139v-114h272z" />
    <glyph glyph-name="asciicircum" unicode="^" horiz-adv-x="559" 
d="M536 356l-164 350h-185l-164 -350h148l109 239l108 -239h148z" />
    <glyph glyph-name="underscore" unicode="_" horiz-adv-x="536" 
d="M0 -184h536v127h-536v-127z" />
    <glyph glyph-name="grave" unicode="`" horiz-adv-x="373" 
d="M323 553l-112 163h-161l126 -163h147z" />
    <glyph glyph-name="a" unicode="a" horiz-adv-x="631" 
d="M561 399q-27 60 -90 87t-159 26q-90 1 -155 -24q-66 -26 -93 -85q-12 -28 -15 -65h154q0 13 6 26q12 24 39 34t66 10t67 -11q27 -12 39 -37q5 -10 7 -21t2 -27v-7h-105q-99 2 -176 -19t-108 -84q-12 -27 -13 -66q0 -18 4 -33q3 -16 9 -30q21 -45 71 -66q49 -22 121 -22
q70 0 119 20q49 19 79 56v-61h152v284q0 34 -5 63q-5 28 -16 52v0zM284 93q-31 0 -57 8q-26 9 -37 30q-4 11 -4 24q0 7 1 12q2 6 4 11q12 24 50 31q38 8 88 7h101v-7q0 -16 -2 -28q-3 -13 -8 -23q-15 -32 -51 -49q-36 -16 -85 -16v0z" />
    <glyph glyph-name="b" unicode="b" horiz-adv-x="679" 
d="M631 374q-30 66 -91 102t-146 36q-59 0 -107 -19q-48 -18 -81 -56v269h-152v-706h148v65q33 -40 82 -60t110 -20q85 0 146 36q60 35 91 101q25 54 25 126q0 36 -6 68q-7 32 -19 58v0zM482 176q-16 -36 -51 -54t-82 -18q-64 0 -104 34t-41 102v16q1 68 41 102t104 34
q47 0 82 -17q35 -18 51 -54q13 -28 13 -73q0 -22 -3 -40t-10 -32v0z" />
    <glyph glyph-name="c" unicode="c" horiz-adv-x="651" 
d="M326 -16q74 0 134 19t102 57q60 56 65 141h-164q-2 -19 -9 -35q-8 -17 -21 -29q-18 -16 -45 -23q-27 -8 -61 -8q-47 0 -80 18q-34 17 -50 51q-7 15 -9 33q-3 18 -3 41t3 41q2 18 9 33q16 34 50 51q33 18 80 18q33 0 60 -8q27 -7 45 -23q13 -12 21 -27q7 -16 9 -35h164
q-3 42 -19 76t-46 61q-42 38 -101 57q-60 19 -134 19q-101 0 -173 -37q-73 -37 -106 -109q-23 -51 -23 -118t23 -118q33 -73 107 -110q73 -36 172 -36v0z" />
    <glyph glyph-name="d" unicode="d" horiz-adv-x="680" 
d="M474 706v-269q-33 38 -81 56q-48 19 -108 19q-85 0 -145 -36q-61 -36 -91 -102q-12 -26 -18 -58q-7 -32 -7 -68q1 -72 25 -126q30 -66 91 -101q60 -36 145 -36q61 0 110 20q49 19 82 59v-64h149v706h-152zM475 240q-1 -68 -41 -102t-104 -34q-47 0 -81 18q-35 18 -52 54
q-6 14 -9 32q-4 18 -4 40t4 41q3 18 9 32q17 36 52 54q34 17 81 17q64 0 104 -34t41 -102v-16z" />
    <glyph glyph-name="e" unicode="e" horiz-adv-x="658" 
d="M452 125q-19 -16 -49 -24q-29 -8 -65 -8q-55 0 -94 17t-55 53q-9 19 -12 46h457q0 46 -6 82q-6 37 -20 70q-33 72 -104 112q-71 39 -176 39q-102 0 -175 -37t-106 -110q-11 -25 -17 -54t-6 -63q0 -66 22 -115q33 -73 109 -111q75 -38 182 -38q70 0 131 17t104 55
q23 22 39 49q15 28 20 63h-154q-2 -12 -8 -23q-7 -11 -17 -20v0zM329 405q51 0 87 -17q37 -17 54 -53q4 -8 7 -17q2 -8 4 -18h-302q3 18 10 33q17 37 52 54q36 18 88 18v0z" />
    <glyph glyph-name="f" unicode="f" horiz-adv-x="412" 
d="M97 0h153v378h145v118h-145v30q0 40 23 58t63 18q17 0 33 -2q15 -2 27 -7v121q-16 4 -39 6q-23 3 -48 3q-111 0 -162 -45t-50 -140v-42h-82v-118h82v-378z" />
    <glyph glyph-name="g" unicode="g" horiz-adv-x="675" 
d="M470 496v-63q-32 38 -79 59q-48 20 -110 20q-84 0 -143 -35q-60 -35 -90 -99q-24 -54 -24 -125q0 -72 24 -124q30 -66 90 -100q59 -35 143 -35q61 0 108 20q47 19 79 57v-55q0 -36 -11 -63q-14 -32 -47 -48q-32 -16 -81 -16q-33 0 -60 8t-45 24q-21 20 -24 44h-160
q9 -72 58 -116q40 -36 101 -51q60 -16 133 -16q100 0 168 31t98 97q23 51 23 124v462h-151zM326 111q-46 0 -80 17q-34 18 -49 52q-7 15 -10 32q-3 18 -3 41q0 22 3 39q3 18 10 32q15 35 49 52t80 17q63 0 102 -33q39 -32 40 -99v-17q-1 -67 -40 -100t-102 -33v0z" />
    <glyph glyph-name="h" unicode="h" horiz-adv-x="650" 
d="M388 512q-61 0 -107 -21q-45 -21 -75 -61v276h-152v-706h152v253q0 66 32 103q32 36 95 36q57 0 87 -30q29 -30 29 -94v-268h152v298q-1 105 -56 160q-55 54 -157 54v0z" />
    <glyph glyph-name="i" unicode="i" horiz-adv-x="260" 
d="M131 562q37 1 60 22q22 21 23 57q-1 36 -23 58q-23 21 -60 22q-38 -1 -61 -22q-23 -22 -24 -58q1 -36 24 -57t61 -22v0zM54 0h152v496h-152v-496z" />
    <glyph glyph-name="j" unicode="j" horiz-adv-x="262" 
d="M133 562q37 1 60 22t24 57q-1 36 -24 58q-23 21 -60 22q-38 -1 -61 -22q-23 -22 -24 -58q1 -36 24 -57t61 -22v0zM25 -212q97 -1 141 43q43 43 42 137v528h-151v-515q0 -33 -15 -48q-15 -16 -48 -16h-20l-20 2v-127q17 -2 35 -3t36 -1v0z" />
    <glyph glyph-name="k" unicode="k" horiz-adv-x="592" 
d="M609 0l-263 275l242 221h-199l-183 -173v383h-152v-706h152v224l205 -224h198z" />
    <glyph glyph-name="l" unicode="l" horiz-adv-x="260" 
d="M54 0h152v706h-152v-706z" />
    <glyph glyph-name="m" unicode="m" horiz-adv-x="1009" 
d="M755 512q-65 0 -112 -24t-78 -74q-22 48 -68 73t-112 25q-61 0 -105 -21q-45 -21 -74 -60v65h-152v-496h152v262q0 62 30 96q29 34 87 34q53 0 81 -30q27 -29 27 -90v-272h152v263q0 62 30 95q30 34 88 34q53 0 80 -30q27 -29 27 -90v-272h152v300q-1 103 -54 157
q-53 55 -151 55v0z" />
    <glyph glyph-name="n" unicode="n" horiz-adv-x="650" 
d="M388 512q-61 0 -107 -21q-45 -21 -75 -61v66h-152v-496h152v253q0 66 32 103q32 36 95 36q57 0 87 -30q29 -30 29 -94v-268h152v298q-1 105 -56 160q-55 54 -157 54v0z" />
    <glyph glyph-name="o" unicode="o" horiz-adv-x="666" 
d="M333 -15q107 0 181 39q73 38 106 110q23 50 23 114t-23 115q-33 72 -106 110q-74 39 -181 39t-181 -40q-73 -39 -106 -112q-22 -49 -22 -112q0 -61 22 -112q33 -73 106 -112q74 -39 181 -39v0zM333 104q-50 0 -85 19q-36 19 -52 54q-13 29 -13 71q0 44 13 72q16 35 52 54
q35 18 85 18t85 -18q36 -18 52 -54q13 -28 13 -72q0 -22 -3 -39q-3 -18 -10 -33q-16 -35 -52 -54q-35 -18 -85 -18v0z" />
    <glyph glyph-name="p" unicode="p" horiz-adv-x="679" 
d="M631 374q-31 66 -91 102q-61 36 -146 36q-61 0 -110 -20t-82 -60v64h-148v-699h152v263q33 -37 81 -56t107 -19q85 0 146 36q60 35 91 101q25 54 25 126q0 36 -6 68q-7 32 -19 58v0zM482 176q-16 -36 -51 -53q-35 -18 -82 -18q-64 0 -104 34t-41 101v16q1 68 41 102
t104 34q47 0 82 -17q35 -18 51 -54q13 -28 13 -73q0 -43 -13 -72v0z" />
    <glyph glyph-name="q" unicode="q" horiz-adv-x="680" 
d="M477 496v-63q-33 40 -82 59q-49 20 -110 20q-85 0 -145 -36q-61 -36 -91 -102q-12 -26 -18 -58q-7 -32 -7 -68q1 -72 25 -126q30 -66 91 -101q60 -36 145 -36q60 0 108 19t81 57v-264h152v699h-149zM330 105q-47 0 -81 18q-35 17 -52 53q-12 29 -13 72q0 22 4 41
q3 18 9 32q17 36 52 54q34 17 81 17q64 0 104 -34t41 -102v-16q-1 -67 -41 -101t-104 -34v0z" />
    <glyph glyph-name="r" unicode="r" horiz-adv-x="398" 
d="M54 0h152v334q0 22 3 31t13 13q11 -21 31 -33t47 -12q39 1 63 25q23 23 24 63q0 40 -25 64q-24 24 -67 25q-27 0 -49 -13t-41 -41v40h-151v-496z" />
    <glyph glyph-name="s" unicode="s" horiz-adv-x="556" 
d="M276 -17q85 0 151 24t92 78q12 27 12 62q0 16 -2 29q-3 14 -9 26q-19 42 -64 65t-111 36q-47 8 -89 19q-42 10 -56 33q-4 8 -4 17q0 5 1 9q1 5 3 9q7 15 26 22q20 7 50 7t52 -9q23 -10 33 -31q6 -13 6 -32h147q0 18 -3 34q-4 17 -10 31q-25 52 -84 76q-60 24 -139 24
q-78 0 -139 -23q-60 -24 -85 -75q-6 -13 -9 -27t-3 -30t3 -30q3 -13 8 -25q21 -43 65 -64q43 -21 97 -31q71 -13 107 -23q37 -11 46 -30q2 -5 3 -10t1 -10q0 -6 -1 -11t-3 -9q-8 -16 -31 -24q-24 -7 -57 -7q-36 0 -61 10q-24 11 -35 34q-4 8 -6 18q-2 9 -2 20h-151
q0 -22 4 -41t12 -36q25 -54 86 -80q61 -25 149 -25v0z" />
    <glyph glyph-name="t" unicode="t" horiz-adv-x="427" 
d="M285 -10q29 0 59 3q30 4 58 9v119q-38 -9 -67 -9q-39 0 -60 20q-21 21 -21 67v179h152v118h-152v121h-152v-121h-83v-118h83v-211q0 -91 45 -134t138 -43v0z" />
    <glyph glyph-name="u" unicode="u" horiz-adv-x="650" 
d="M444 496v-253q0 -66 -32 -102q-32 -37 -95 -37q-57 0 -86 30q-30 30 -30 94v268h-152v-298q1 -105 56 -159q55 -55 157 -55q61 0 107 21q45 21 75 61v-66h152v496h-152z" />
    <glyph glyph-name="v" unicode="v" horiz-adv-x="607" 
d="M223 0h160l224 496h-162l-141 -333l-141 333h-163z" />
    <glyph glyph-name="w" unicode="w" horiz-adv-x="928" 
d="M764 496l-113 -324l-114 324h-147l-114 -323l-112 323h-164l197 -496h156l111 317l111 -317h155l198 496h-164z" />
    <glyph glyph-name="x" unicode="x" horiz-adv-x="616" 
d="M-9 0h188l129 153l128 -153h189l-224 252l215 244h-189l-119 -144l-121 144h-189l218 -244z" />
    <glyph glyph-name="y" unicode="y" horiz-adv-x="611" 
d="M451 496l-144 -342l-142 342h-165l226 -491l-101 -208h156l95 203l235 496h-160z" />
    <glyph glyph-name="z" unicode="z" horiz-adv-x="545" 
d="M534 496h-499v-118h248l-277 -378h522v119h-262z" />
    <glyph glyph-name="braceleft" unicode="{" horiz-adv-x="425" 
d="M271 421v156q-1 49 20 73q22 25 81 25h31v109h-77q-91 -1 -135 -47q-45 -46 -45 -122v-163q1 -56 -19 -78q-20 -23 -78 -22v-123q57 1 78 -21q20 -22 19 -78v-164q0 -75 45 -121q44 -47 135 -48h77v109h-31q-59 0 -81 25q-21 25 -20 75v154q0 62 -22 92q-22 31 -70 38
q48 7 70 38t22 93v0z" />
    <glyph glyph-name="bar" unicode="|" horiz-adv-x="370" 
d="M113 -203h144v959h-144v-959z" />
    <glyph glyph-name="braceright" unicode="}" horiz-adv-x="425" 
d="M280 452v163q0 76 -45 122t-136 47h-77v-109h32q59 0 81 -25q21 -24 20 -73v-156q0 -62 21 -93q22 -31 70 -38q-48 -7 -70 -38q-21 -30 -21 -92v-154q1 -50 -20 -75q-22 -25 -81 -25h-32v-109h77q91 1 136 48q45 46 45 121v164q-1 56 19 78t77 21v123q-57 -1 -77 22
q-20 22 -19 78v0z" />
    <glyph glyph-name="asciitilde" unicode="~" horiz-adv-x="612" 
d="M411 182q64 0 99 52q36 52 39 161h-104q-2 -41 -13 -64q-12 -23 -37 -23q-20 1 -37 12q-18 12 -37 27q-24 19 -53 34q-30 15 -67 16q-65 0 -101 -53q-35 -53 -38 -161h105q2 42 15 64q12 23 37 23q18 0 35 -11q16 -10 37 -28q24 -18 53 -33t67 -16v0z" />
    <glyph glyph-name="uni00A0" unicode="&#xa0;" horiz-adv-x="205" 
 />
    <glyph glyph-name="exclamdown" unicode="&#xa1;" horiz-adv-x="326" 
d="M163 337q40 1 65 25q24 24 25 64q-1 42 -25 66q-25 24 -65 24q-41 0 -65 -24t-25 -66q1 -40 25 -64t65 -25v0zM80 -203h165l-21 471h-123z" />
    <glyph glyph-name="cent" unicode="&#xa2;" horiz-adv-x="655" 
d="M468 308q-2 -21 -10 -39q-8 -17 -22 -31q-25 -20 -67 -26v287q20 -3 37 -10t29 -17q29 -25 33 -66h162q-3 42 -19 76t-46 61q-36 32 -84 51q-49 18 -108 23v89h-85v-89q-86 -7 -149 -44q-62 -36 -92 -101q-11 -25 -17 -54q-6 -30 -6 -63q0 -67 23 -118q29 -65 92 -101
t149 -43v-93h85v93q59 5 108 24q49 18 84 50q31 28 47 63t19 78h-163zM197 279q-7 15 -11 34q-3 18 -3 42t3 43q4 18 12 34q12 26 36 43q23 17 57 24v-287q-33 7 -57 23q-24 17 -37 44v0z" />
    <glyph glyph-name="sterling" unicode="&#xa3;" horiz-adv-x="731" 
d="M545 261q0 -25 -4 -44q-3 -20 -10 -36q-15 -33 -50 -47q-35 -15 -93 -15h-103v197h216v86h-216v48q0 28 4 51q4 22 12 39q14 31 43 47q29 15 73 15q42 0 69 -14q28 -14 41 -42q13 -30 14 -75h156q-1 42 -7 75q-7 33 -19 60q-27 63 -90 92q-62 28 -163 28q-105 0 -171 -32
t-95 -96q-14 -31 -21 -69q-6 -38 -6 -85v-42h-99v-86h99v-197h-99v-119h405q100 0 160 29q59 29 85 88q12 27 18 63q6 35 7 81h-156z" />
    <glyph glyph-name="currency" unicode="&#xa4;" horiz-adv-x="665" 
d="M580 249q21 45 21 104q0 57 -21 104q-16 36 -45 65l99 109h-125l-51 -57q-27 11 -59 18q-32 6 -69 6q-35 0 -66 -6t-58 -17l-50 56h-125l97 -106q-30 -29 -48 -67q-21 -46 -21 -105q0 -57 21 -104q9 -19 21 -36t26 -31l-96 -107h125l50 56q54 -23 124 -23q36 0 68 6
q32 7 60 18l52 -57h124l-98 109q27 29 44 65v0zM199 294q-12 25 -12 59q0 35 12 59q15 34 48 54t83 20t83 -20q33 -19 49 -54q12 -24 12 -59q0 -33 -12 -59q-15 -34 -48 -53q-33 -20 -84 -20q-50 0 -83 19t-48 54v0z" />
    <glyph glyph-name="yen" unicode="&#xa5;" horiz-adv-x="700" 
d="M711 706h-181l-180 -249l-175 249h-185l263 -361h-195v-81h208v-39h-208v-82h208v-143h164v143h212v82h-212v39h212v81h-199z" />
    <glyph glyph-name="brokenbar" unicode="&#xa6;" horiz-adv-x="370" 
d="M113 427h144v329h-144v-329zM113 -203h144v330h-144v-330z" />
    <glyph glyph-name="section" unicode="&#xa7;" horiz-adv-x="572" 
d="M426 114q36 11 62 32q27 20 41 50q7 14 10 30t3 35q0 21 -3 39q-4 18 -11 34q-25 51 -77 80t-113 48q-46 15 -82 31q-35 16 -49 44q-6 12 -6 27q0 12 5 24q8 18 29 27t51 9q33 0 56 -11q22 -11 32 -31q3 -8 5 -17t2 -18h149q0 22 -4 39q-3 18 -10 33q-26 55 -86 80
q-61 26 -142 26q-82 0 -143 -25q-62 -26 -87 -78q-6 -16 -9 -32q-4 -16 -4 -34t3 -34q4 -16 9 -29q15 -31 45 -54q29 -22 66 -37q-44 -11 -76 -33q-33 -21 -49 -54q-5 -13 -9 -29t-4 -35q0 -20 4 -37q3 -18 10 -33q26 -50 81 -78q54 -27 116 -47q59 -19 91 -34t43 -39
q4 -7 5 -15q2 -8 2 -17q0 -8 -1 -15q-1 -8 -5 -15q-9 -19 -32 -29q-23 -9 -58 -9q-37 0 -60 12q-23 11 -33 34q-4 9 -6 20q-2 12 -2 23h-154q1 -28 4 -49q4 -20 12 -36q27 -57 90 -81q63 -25 148 -24q90 0 153 25q64 26 90 80q7 14 10 32q4 17 4 37q0 19 -4 36q-3 18 -10 33
q-15 31 -41 53q-26 21 -61 36v0zM390 287q6 -13 6 -31t-6 -32q-12 -23 -38 -35t-64 -12q-39 0 -66 13q-27 12 -39 36q-4 7 -5 15q-2 8 -2 17q0 8 2 16q1 8 5 15q10 23 37 35q26 13 65 13q40 0 67 -13q27 -14 38 -37v0z" />
    <glyph glyph-name="dieresis" unicode="&#xa8;" horiz-adv-x="498" 
d="M132 562q35 1 58 22t24 55q-1 35 -24 57q-23 21 -58 22q-37 -1 -59 -22q-22 -22 -23 -57q1 -34 23 -55t59 -22v0zM366 561q36 1 59 22q22 22 23 56q-1 35 -23 57q-23 21 -59 22q-36 -1 -59 -22q-22 -22 -23 -57q1 -34 23 -56q23 -21 59 -22v0z" />
    <glyph glyph-name="copyright" unicode="&#xa9;" horiz-adv-x="887" 
d="M446 -20q132 1 231 55t143 150q17 36 25 78q9 41 9 90q0 96 -33 169q-46 98 -143 151q-98 52 -233 53q-138 -1 -235 -55q-98 -54 -143 -152q-17 -37 -25 -78q-9 -42 -9 -88q0 -47 9 -89q8 -43 25 -80q44 -95 141 -149t238 -55v0zM443 46q-115 1 -194 44q-79 44 -115 125
q-13 30 -20 65t-7 73t7 73t20 65q37 81 116 125q80 43 195 44q114 0 192 -44q78 -43 115 -123q27 -61 27 -141q0 -38 -6 -72q-7 -34 -20 -64q-36 -81 -115 -125q-78 -44 -195 -45v0zM445 116q58 0 107 15q48 16 82 47q27 24 43 57q15 33 16 74h-129q-1 -14 -5 -25
q-5 -12 -14 -22q-14 -19 -39 -30q-24 -12 -60 -12q-42 0 -71 16t-43 47q-7 15 -10 33q-3 17 -3 38q0 23 3 40q3 18 10 31q14 30 42 46q29 16 70 16q33 0 58 -10q26 -11 42 -31q18 -21 20 -49h128q-1 40 -16 73q-15 32 -43 58q-34 32 -82 47q-49 16 -106 16q-83 0 -144 -32
q-62 -32 -91 -95q-10 -24 -16 -51q-5 -27 -5 -60q0 -32 6 -59q5 -28 15 -51q29 -62 90 -95q61 -32 145 -32v0z" />
    <glyph glyph-name="ordfeminine" unicode="&#xaa;" horiz-adv-x="451" 
d="M401 637q-19 42 -63 61q-45 19 -115 19q-66 0 -112 -17t-65 -57q-5 -11 -8 -23t-3 -26h122q0 11 4 18q7 14 23 20q16 7 39 7q27 0 43 -8q16 -7 23 -20q4 -7 5 -15t1 -19v-5h-74q-81 0 -128 -17t-65 -57q-9 -22 -9 -47q0 -24 9 -43q15 -32 48 -48q33 -15 81 -15
q47 0 81 13q35 13 57 38v-40h121v200q0 24 -4 44q-3 20 -11 37v0zM288 465q-8 -17 -28 -27t-53 -10q-22 0 -37 5t-21 18q-2 4 -3 8t-1 8q0 5 1 9q1 3 3 7q7 15 27 20t50 5h69v-7q0 -21 -7 -36v0z" />
    <glyph glyph-name="guillemotleft" unicode="&#xab;" horiz-adv-x="601" 
d="M181 120h154l-165 165l165 166h-154l-166 -166zM431 120h155l-166 165l166 166h-155l-166 -166z" />
    <glyph glyph-name="logicalnot" unicode="&#xac;" horiz-adv-x="612" 
d="M445 44h117v393h-512v-115h395v-278z" />
    <glyph glyph-name="uni00AD" unicode="&#xad;" horiz-adv-x="446" 
d="M50 226h345v128h-345v-128z" />
    <glyph glyph-name="registered" unicode="&#xae;" horiz-adv-x="502" 
d="M461 604q-25 54 -79 84q-53 30 -131 30q-78 -1 -131 -31q-54 -30 -78 -84q-10 -20 -14 -42q-4 -23 -4 -49t4 -49t14 -43q24 -54 78 -84q53 -30 131 -30t131 30q54 30 79 84q9 20 13 43t4 49t-4 49t-13 43v0zM412 436q-18 -41 -58 -63q-41 -21 -103 -21q-63 0 -103 21
q-40 22 -59 63q-7 17 -11 35q-3 19 -3 41t3 41q4 18 11 35q19 41 59 63q40 21 103 21q62 0 103 -21q40 -22 58 -63q8 -17 11 -35q4 -19 4 -41t-4 -41q-3 -18 -11 -35v0zM364 559q0 35 -23 52q-24 17 -72 17h-127v-232h70v80h36q24 0 34 -10q9 -9 9 -28v-42h71v44q0 24 -8 39
t-29 22q19 7 29 21t10 37v0zM212 526v52h39q22 0 32 -6q10 -7 10 -20q0 -14 -10 -20q-11 -6 -32 -6h-39z" />
    <glyph glyph-name="macron" unicode="&#xaf;" horiz-adv-x="455" 
d="M50 586h355v104h-355v-104z" />
    <glyph glyph-name="degree" unicode="&#xb0;" horiz-adv-x="410" 
d="M205 384q82 1 131 48q50 46 51 122q-1 77 -51 124q-49 47 -131 48q-82 -1 -131 -48q-50 -47 -51 -124q1 -76 51 -122q49 -47 131 -48v0zM205 484q-32 0 -51 19q-19 18 -20 51q1 33 20 53q19 19 51 19t51 -19q20 -20 20 -53t-20 -51q-19 -19 -51 -19v0z" />
    <glyph glyph-name="plusminus" unicode="&#xb1;" horiz-adv-x="612" 
d="M365 420v134h-119v-134h-196v-112h196v-135h119v135h197v112h-197zM50 26h512v111h-512v-111z" />
    <glyph glyph-name="uni00B2" unicode="&#xb2;" horiz-adv-x="427" 
d="M10 438h392v103h-145l48 36l42 35q26 23 39 45q13 23 13 52q0 30 -11 52q-19 40 -65 60q-47 19 -109 19q-66 0 -111 -21t-66 -66q-7 -16 -10 -32t-3 -34h124q0 8 1 15t4 14q8 14 23 22t37 8q20 0 33 -6q14 -6 20 -18q2 -3 3 -7q1 -5 1 -10q0 -16 -12 -33q-13 -17 -43 -43
l-205 -185v-6z" />
    <glyph glyph-name="uni00B3" unicode="&#xb3;" horiz-adv-x="437" 
d="M402 589q-10 20 -29 33t-46 18q23 7 39 20q17 12 25 30q4 8 5 16q2 9 2 18q0 23 -8 41q-19 38 -66 56t-107 18q-61 0 -110 -20t-70 -63q-5 -11 -7 -25q-3 -13 -3 -28h116q0 7 1 12l4 10q7 16 24 22q16 7 39 7q21 0 37 -5q15 -6 21 -17q4 -7 4 -18q0 -9 -3 -16
q-6 -13 -24 -18t-44 -5h-24v-72h23q27 0 47 -5t27 -19q4 -9 4 -19q0 -5 -1 -10t-3 -9q-7 -14 -24 -21q-16 -7 -42 -7q-25 0 -42 8q-17 9 -25 26q-4 8 -5 17t-2 20l-116 -1q0 -43 14 -75q21 -44 69 -64q48 -19 112 -19q67 0 118 18q50 19 69 59q5 10 8 21q2 11 2 23
q0 25 -9 43v0z" />
    <glyph glyph-name="acute" unicode="&#xb4;" horiz-adv-x="373" 
d="M50 553h147l126 163h-162z" />
    <glyph glyph-name="mu" unicode="&#xb5;" horiz-adv-x="654" 
d="M449 496v-252q0 -68 -32 -104t-95 -36q-58 0 -87 31q-29 32 -29 100v261h-152v-699h151v84q0 63 -7 125q36 -22 89 -22t94 21q41 20 68 59v-64h152v496h-152z" />
    <glyph glyph-name="paragraph" unicode="&#xb6;" horiz-adv-x="837" 
d="M361 -203h138v785h105v-785h138v785h85v124h-549q-187 0 -240 -117q-10 -23 -15 -51t-5 -62q0 -33 5 -60t15 -50q53 -118 237 -118h86v-451z" />
    <glyph glyph-name="periodcentered" unicode="&#xb7;" horiz-adv-x="334" 
d="M167 201q40 1 65 25t26 64q-1 42 -26 65q-25 24 -65 24q-41 0 -65 -24q-24 -23 -25 -65q1 -40 25 -64q25 -24 65 -25v0z" />
    <glyph glyph-name="cedilla" unicode="&#xb8;" horiz-adv-x="376" 
d="M210 -15l13 38h-111l-32 -101h70q36 0 53 -8q17 -7 17 -23q0 -19 -18 -26t-48 -7q-24 0 -44 3q-21 4 -42 11l-18 -74q26 -9 55 -13q28 -5 61 -5q73 -1 116 23q43 23 44 82q0 46 -28 72q-28 27 -88 28v0z" />
    <glyph glyph-name="uni00B9" unicode="&#xb9;" horiz-adv-x="286" 
d="M101 438h125v388h-199l-19 -103h93v-285z" />
    <glyph glyph-name="ordmasculine" unicode="&#xba;" horiz-adv-x="475" 
d="M237 345q73 0 127 26q54 27 78 80q17 35 17 81q0 45 -17 80q-24 53 -78 79t-127 26q-72 0 -126 -26t-78 -79q-16 -35 -16 -80q0 -46 16 -81q24 -53 78 -80q54 -26 126 -26v0zM237 439q-30 0 -52 11q-22 12 -32 34q-4 9 -7 21q-2 11 -2 27q0 28 9 46q10 23 32 34
q21 11 52 11q32 0 54 -12q22 -11 32 -33q4 -9 6 -20q2 -12 2 -26q1 -30 -8 -48q-10 -22 -32 -33q-22 -12 -54 -12v0z" />
    <glyph glyph-name="guillemotright" unicode="&#xbb;" horiz-adv-x="601" 
d="M170 120l166 165l-166 166h-155l166 -166l-166 -165h155zM420 120l166 165l-166 166h-155l166 -166l-166 -165h155z" />
    <glyph glyph-name="onequarter" unicode="&#xbc;" horiz-adv-x="930" 
d="M101 318h125v388h-199l-19 -103h93v-285zM84 0h112l515 706h-113zM731 0h122v73h67v96h-67v219h-225l-175 -313v-2h278v-73zM632 169l99 183v-183h-99z" />
    <glyph glyph-name="onehalf" unicode="&#xbd;" horiz-adv-x="909" 
d="M101 318h125v388h-199l-19 -103h93v-285zM84 0h112l515 706h-113zM492 0h392v103h-145l48 36l42 35q26 23 39 45q13 23 13 52q0 30 -11 52q-19 40 -65 60q-47 19 -109 19q-66 0 -111 -21t-66 -66q-7 -16 -10 -32t-3 -34h124q0 8 1 15t4 14q8 14 23 22t37 8q20 0 33 -6
q14 -6 20 -18q2 -3 3 -7q1 -5 1 -10q0 -16 -12 -33q-13 -17 -43 -43l-205 -185v-6z" />
    <glyph glyph-name="threequarters" unicode="&#xbe;" horiz-adv-x="1074" 
d="M401 382q5 10 8 21q2 11 2 23q0 25 -9 43q-10 20 -29 33t-46 18q23 7 39 20q17 12 25 30q4 8 5 16q2 9 2 18q0 23 -8 41q-19 38 -66 56t-107 18q-61 0 -110 -20t-70 -63q-5 -11 -7 -25q-3 -13 -3 -28h116q0 7 1 12l4 10q7 16 24 22q16 7 39 7q21 0 37 -5q15 -6 21 -17
q4 -7 4 -18q0 -9 -3 -16q-6 -13 -24 -18t-44 -5h-24v-72h23q27 0 47 -5t27 -19q4 -9 4 -19q0 -5 -1 -10t-3 -9q-7 -14 -24 -21q-16 -7 -42 -7q-25 0 -42 8q-17 9 -25 26q-4 8 -5 17t-2 20l-116 -1q0 -43 14 -75q21 -44 69 -64q48 -19 112 -19q67 0 118 18q50 19 69 59v0z
M742 706l-514 -706h112l515 706h-113zM997 169v219h-225l-175 -313v-2h278v-73h122v73h67v96h-67zM875 169h-99l99 183v-183z" />
    <glyph glyph-name="questiondown" unicode="&#xbf;" horiz-adv-x="598" 
d="M306 339q40 1 65 25q24 24 25 64q-1 42 -25 65q-25 24 -65 24q-41 0 -65 -24q-24 -23 -25 -65q1 -40 25 -64t65 -25v0zM297 -218q98 0 160 30q63 30 89 87q10 21 13 45q4 23 4 53h-152q0 -16 -2 -28q-2 -11 -7 -22q-11 -26 -36 -39q-26 -13 -66 -13q-56 1 -82 22
q-25 21 -25 56q-3 33 34 89q38 57 153 206h-171q-107 -140 -143 -199q-35 -60 -32 -104q1 -88 69 -135q67 -47 194 -48v0z" />
    <glyph glyph-name="Agrave" unicode="&#xc0;" horiz-adv-x="804" 
d="M516 759l-129 148h-171l142 -148h158zM641 0h170l-294 706h-230l-294 -706h171l60 152h356zM274 276l127 320h2l128 -320h-257z" />
    <glyph glyph-name="Aacute" unicode="&#xc1;" horiz-adv-x="804" 
d="M588 907h-171l-129 -148h158zM641 0h170l-294 706h-230l-294 -706h171l60 152h356zM274 276l127 320h2l128 -320h-257z" />
    <glyph glyph-name="Acircumflex" unicode="&#xc2;" horiz-adv-x="804" 
d="M402 841l76 -82h155l-135 148h-192l-134 -148h155zM641 0h170l-294 706h-230l-294 -706h171l60 152h356zM274 276l127 320h2l128 -320h-257z" />
    <glyph glyph-name="Atilde" unicode="&#xc3;" horiz-adv-x="804" 
d="M323 815q17 0 33 -8q17 -8 39 -22q21 -13 45 -23q25 -10 58 -11q61 0 94 41q33 40 36 117h-101q-4 -29 -15 -44q-12 -15 -33 -15q-17 0 -32 8q-15 7 -34 20q-25 16 -49 26q-23 10 -53 10q-63 0 -96 -41q-34 -40 -39 -118h99q3 29 14 45q12 15 34 15v0zM641 0h170
l-294 706h-230l-294 -706h171l60 152h356zM274 276l127 320h2l128 -320h-257z" />
    <glyph glyph-name="Adieresis" unicode="&#xc4;" horiz-adv-x="804" 
d="M273 760q35 1 58 22q22 21 23 55q-1 34 -23 56q-23 21 -58 22q-36 -1 -58 -22q-22 -22 -23 -56q1 -34 23 -55t58 -22v0zM529 760q35 1 58 22q22 21 23 55q-1 34 -23 56q-23 21 -58 22q-36 -1 -58 -22q-22 -22 -23 -56q1 -34 23 -55t58 -22v0zM641 0h170l-294 706h-230
l-294 -706h171l60 152h356zM274 276l127 320h2l128 -320h-257z" />
    <glyph glyph-name="Aring" unicode="&#xc5;" horiz-adv-x="804" 
d="M402 729q63 1 100 33q38 32 39 90q-1 56 -39 89q-38 32 -100 33q-63 -1 -101 -33t-39 -89q1 -58 39 -90t101 -33v0zM402 904q26 0 41 -14t15 -38t-15 -38t-41 -14q-27 0 -42 14t-15 38t15 38t42 14v0zM641 0h170l-294 706h-230l-294 -706h171l60 152h356zM274 276
l127 320h2l128 -320h-257z" />
    <glyph glyph-name="AE" unicode="&#xc6;" horiz-adv-x="978" 
d="M937 578v128h-625l-319 -706h173l65 154h268l29 -154h409v128h-271l-33 165h300v125h-324l-32 160h360zM281 275l133 316h2l60 -316h-195z" />
    <glyph glyph-name="Ccedilla" unicode="&#xc7;" horiz-adv-x="851" 
d="M651 277q-2 -33 -15 -60q-13 -26 -35 -46q-30 -27 -72 -40q-43 -13 -94 -13q-75 0 -129 28t-80 84q-10 24 -16 54q-5 31 -5 69t5 68q6 30 17 55q25 54 78 83t130 29q51 0 92 -13q40 -13 69 -39q23 -20 36 -47q14 -28 17 -62h170q-2 61 -26 112q-23 52 -66 91
q-52 47 -127 72q-75 24 -163 24q-137 -1 -232 -53t-139 -147q-33 -74 -33 -173q0 -98 33 -173q37 -84 114 -134q76 -50 186 -62l-21 -65h70q36 0 53 -8q17 -7 17 -23q0 -19 -18 -26t-48 -7q-24 0 -44 3q-21 4 -42 11l-18 -74q26 -9 55 -13q28 -5 61 -5q73 -1 116 23
q43 23 44 82q0 44 -26 70q-26 27 -81 30q75 5 138 29t108 65q42 38 65 89q24 50 26 112h-170z" />
    <glyph glyph-name="Egrave" unicode="&#xc8;" horiz-adv-x="634" 
d="M445 759l-129 148h-171l142 -148h158zM63 0h529v128h-369v166h366v125h-366v159h369v128h-529v-706z" />
    <glyph glyph-name="Eacute" unicode="&#xc9;" horiz-adv-x="634" 
d="M217 759h158l142 148h-171zM63 0h529v128h-369v166h366v125h-366v159h369v128h-529v-706z" />
    <glyph glyph-name="Ecircumflex" unicode="&#xca;" horiz-adv-x="634" 
d="M101 759h155l75 82l76 -82h155l-135 148h-192zM63 0h529v128h-369v166h366v125h-366v159h369v128h-529v-706z" />
    <glyph glyph-name="Edieresis" unicode="&#xcb;" horiz-adv-x="634" 
d="M202 760q35 1 58 22q22 21 23 55q-1 34 -23 56q-23 21 -58 22q-36 -1 -58 -22q-22 -22 -23 -56q1 -34 23 -55t58 -22v0zM458 760q35 1 58 22q22 21 23 55q-1 34 -23 56q-23 21 -58 22q-36 -1 -58 -22q-22 -22 -23 -56q1 -34 23 -55t58 -22v0zM63 0h529v128h-369v166h366
v125h-366v159h369v128h-529v-706z" />
    <glyph glyph-name="Igrave" unicode="&#xcc;" horiz-adv-x="286" 
d="M257 759l-129 148h-171l142 -148h158zM63 0h160v706h-160v-706z" />
    <glyph glyph-name="Iacute" unicode="&#xcd;" horiz-adv-x="286" 
d="M29 759h158l142 148h-171zM63 0h160v706h-160v-706z" />
    <glyph glyph-name="Icircumflex" unicode="&#xce;" horiz-adv-x="286" 
d="M-51 759h141l52 80l54 -80h139l-101 148h-185zM63 0h160v706h-160v-706z" />
    <glyph glyph-name="Idieresis" unicode="&#xcf;" horiz-adv-x="286" 
d="M51 762q33 1 54 22q20 21 21 53q-1 34 -21 55q-21 21 -54 22q-33 -1 -53 -22t-21 -55q1 -32 21 -53t53 -22v0zM237 762q33 1 54 22q20 21 21 53q-1 33 -21 55q-21 21 -54 22q-33 -1 -53 -22q-20 -22 -21 -55q1 -32 21 -53t53 -22v0zM63 0h160v706h-160v-706z" />
    <glyph glyph-name="Eth" unicode="&#xd0;" horiz-adv-x="817" 
d="M752 520q-40 92 -130 139t-222 47h-337v-299h-62v-103h62v-304h337q132 0 221 47t131 138q16 35 24 77t8 91t-8 91q-8 41 -24 76v0zM592 241q-24 -53 -76 -80t-134 -27h-159v170h185v103h-185v165h159q82 0 134 -27q52 -26 76 -79q10 -22 15 -50q5 -29 5 -63t-5 -62
t-15 -50v0z" />
    <glyph glyph-name="Ntilde" unicode="&#xd1;" horiz-adv-x="824" 
d="M512 751q61 0 94 41q33 40 36 117h-101q-4 -29 -15 -44q-12 -15 -33 -15q-17 0 -32 8q-15 7 -34 20q-25 16 -49 26q-23 10 -53 10q-63 0 -96 -41q-34 -40 -39 -118h99q3 29 14 45q12 15 34 15q17 0 33 -8q17 -8 39 -22q21 -13 45 -23q25 -10 58 -11v0zM63 0h157v493
l365 -493h176v706h-157v-499l-369 499h-172v-706z" />
    <glyph glyph-name="Ograve" unicode="&#xd2;" horiz-adv-x="873" 
d="M550 759l-129 148h-171l142 -148h158zM436 -20q137 1 231 51t137 143q18 38 27 84q9 45 9 95t-9 94t-26 82q-43 94 -136 145q-94 51 -232 52q-139 -1 -233 -52q-94 -52 -137 -148q-17 -38 -26 -81q-8 -44 -8 -92q0 -50 9 -94q8 -44 25 -82q43 -95 137 -146
q94 -50 232 -51v0zM437 119q-79 0 -132 30q-53 29 -78 83q-11 25 -17 55q-5 29 -5 66t5 67q6 30 17 55q25 54 78 83t131 29q79 0 132 -29t78 -83q11 -25 17 -55q5 -30 5 -67t-5 -66q-5 -30 -16 -55q-25 -54 -78 -83q-53 -30 -132 -30v0z" />
    <glyph glyph-name="Oacute" unicode="&#xd3;" horiz-adv-x="873" 
d="M323 759h158l142 148h-171zM436 -20q137 1 231 51t137 143q18 38 27 84q9 45 9 95t-9 94t-26 82q-43 94 -136 145q-94 51 -232 52q-139 -1 -233 -52q-94 -52 -137 -148q-17 -38 -26 -81q-8 -44 -8 -92q0 -50 9 -94q8 -44 25 -82q43 -95 137 -146q94 -50 232 -51v0z
M437 119q-79 0 -132 30q-53 29 -78 83q-11 25 -17 55q-5 29 -5 66t5 67q6 30 17 55q25 54 78 83t131 29q79 0 132 -29t78 -83q11 -25 17 -55q5 -30 5 -67t-5 -66q-5 -30 -16 -55q-25 -54 -78 -83q-53 -30 -132 -30v0z" />
    <glyph glyph-name="Ocircumflex" unicode="&#xd4;" horiz-adv-x="873" 
d="M206 759h155l75 82l76 -82h155l-135 148h-192zM436 -20q137 1 231 51t137 143q18 38 27 84q9 45 9 95t-9 94t-26 82q-43 94 -136 145q-94 51 -232 52q-139 -1 -233 -52q-94 -52 -137 -148q-17 -38 -26 -81q-8 -44 -8 -92q0 -50 9 -94q8 -44 25 -82q43 -95 137 -146
q94 -50 232 -51v0zM437 119q-79 0 -132 30q-53 29 -78 83q-11 25 -17 55q-5 29 -5 66t5 67q6 30 17 55q25 54 78 83t131 29q79 0 132 -29t78 -83q11 -25 17 -55q5 -30 5 -67t-5 -66q-5 -30 -16 -55q-25 -54 -78 -83q-53 -30 -132 -30v0z" />
    <glyph glyph-name="Otilde" unicode="&#xd5;" horiz-adv-x="873" 
d="M532 751q61 0 94 41q33 40 36 117h-101q-4 -29 -15 -44q-12 -15 -33 -15q-17 0 -32 8q-15 7 -34 20q-25 16 -49 26q-23 10 -53 10q-63 0 -96 -41q-34 -40 -39 -118h99q3 29 14 45q12 15 34 15q17 0 33 -8q17 -8 39 -22q21 -13 45 -23q25 -10 58 -11v0zM436 -20
q137 1 231 51t137 143q18 38 27 84q9 45 9 95t-9 94t-26 82q-43 94 -136 145q-94 51 -232 52q-139 -1 -233 -52q-94 -52 -137 -148q-17 -38 -26 -81q-8 -44 -8 -92q0 -50 9 -94q8 -44 25 -82q43 -95 137 -146q94 -50 232 -51v0zM437 119q-79 0 -132 30q-53 29 -78 83
q-11 25 -17 55q-5 29 -5 66t5 67q6 30 17 55q25 54 78 83t131 29q79 0 132 -29t78 -83q11 -25 17 -55q5 -30 5 -67t-5 -66q-5 -30 -16 -55q-25 -54 -78 -83q-53 -30 -132 -30v0z" />
    <glyph glyph-name="Odieresis" unicode="&#xd6;" horiz-adv-x="873" 
d="M308 760q35 1 58 22q22 21 23 55q-1 34 -23 56q-23 21 -58 22q-36 -1 -58 -22q-22 -22 -23 -56q1 -34 23 -55t58 -22v0zM564 760q35 1 58 22q22 21 23 55q-1 34 -23 56q-23 21 -58 22q-36 -1 -58 -22q-22 -22 -23 -56q1 -34 23 -55t58 -22v0zM436 -20q137 1 231 51
t137 143q18 38 27 84q9 45 9 95t-9 94t-26 82q-43 94 -136 145q-94 51 -232 52q-139 -1 -233 -52q-94 -52 -137 -148q-17 -38 -26 -81q-8 -44 -8 -92q0 -50 9 -94q8 -44 25 -82q43 -95 137 -146q94 -50 232 -51v0zM437 119q-79 0 -132 30q-53 29 -78 83q-11 25 -17 55
q-5 29 -5 66t5 67q6 30 17 55q25 54 78 83t131 29q79 0 132 -29t78 -83q11 -25 17 -55q5 -30 5 -67t-5 -66q-5 -30 -16 -55q-25 -54 -78 -83q-53 -30 -132 -30v0z" />
    <glyph glyph-name="multiply" unicode="&#xd7;" horiz-adv-x="612" 
d="M537 441l-80 79l-151 -151l-151 152l-81 -80l152 -152l-152 -151l81 -80l151 151l151 -151l80 80l-151 152z" />
    <glyph glyph-name="Oslash" unicode="&#xd8;" horiz-adv-x="873" 
d="M765 594l123 112h-133l-54 -51q-50 35 -117 53q-66 18 -147 18q-139 -1 -233 -52q-94 -52 -137 -148q-17 -38 -26 -81q-8 -44 -8 -92q0 -50 9 -94q8 -44 25 -82q16 -36 41 -66l-123 -111h131l56 51q50 -35 117 -53q66 -18 147 -18q137 1 231 51t137 143q18 38 27 84
q9 45 9 95t-9 94t-26 82q-16 36 -40 65v0zM227 475q25 54 78 83t131 29q90 0 147 -38l-350 -328q-3 5 -6 11q-11 25 -17 55q-5 29 -5 66t5 67q6 30 17 55v0zM647 232q-25 -54 -78 -83q-53 -30 -132 -30q-90 0 -146 38l350 328q1 -2 3 -5q1 -3 2 -5q11 -25 17 -55
q5 -30 5 -67t-5 -66q-5 -30 -16 -55v0z" />
    <glyph glyph-name="Ugrave" unicode="&#xd9;" horiz-adv-x="770" 
d="M499 759l-129 148h-171l142 -148h158zM385 -20q171 0 253 74q82 73 81 224v428h-161v-416q0 -89 -42 -131t-132 -42t-131 42q-42 42 -42 131v416h-160v-428q-1 -150 81 -224t253 -74v0z" />
    <glyph glyph-name="Uacute" unicode="&#xda;" horiz-adv-x="770" 
d="M271 759h158l142 148h-171zM385 -20q171 0 253 74q82 73 81 224v428h-161v-416q0 -89 -42 -131t-132 -42t-131 42q-42 42 -42 131v416h-160v-428q-1 -150 81 -224t253 -74v0z" />
    <glyph glyph-name="Ucircumflex" unicode="&#xdb;" horiz-adv-x="770" 
d="M155 759h155l75 82l76 -82h155l-135 148h-192zM385 -20q171 0 253 74q82 73 81 224v428h-161v-416q0 -89 -42 -131t-132 -42t-131 42q-42 42 -42 131v416h-160v-428q-1 -150 81 -224t253 -74v0z" />
    <glyph glyph-name="Udieresis" unicode="&#xdc;" horiz-adv-x="770" 
d="M256 760q35 1 58 22q22 21 23 55q-1 34 -23 56q-23 21 -58 22q-36 -1 -58 -22q-22 -22 -23 -56q1 -34 23 -55t58 -22v0zM512 760q35 1 58 22q22 21 23 55q-1 34 -23 56q-23 21 -58 22q-36 -1 -58 -22q-22 -22 -23 -56q1 -34 23 -55t58 -22v0zM385 -20q171 0 253 74
q82 73 81 224v428h-161v-416q0 -89 -42 -131t-132 -42t-131 42q-42 42 -42 131v416h-160v-428q-1 -150 81 -224t253 -74v0z" />
    <glyph glyph-name="Yacute" unicode="&#xdd;" horiz-adv-x="706" 
d="M240 759h158l142 148h-171zM273 0h160v307l279 399h-183l-176 -256l-176 256h-184l280 -399v-307z" />
    <glyph glyph-name="Thorn" unicode="&#xde;" horiz-adv-x="681" 
d="M63 0h160v116h167q99 0 162 31q62 31 89 93q22 48 22 115q0 34 -5 63q-6 28 -17 53q-53 123 -251 123h-167v112h-160v-706zM223 241v228h131q53 0 87 -13q34 -14 48 -45q5 -11 8 -25t3 -31q0 -16 -3 -30q-3 -15 -8 -26q-14 -31 -48 -44q-33 -14 -87 -14h-131z" />
    <glyph glyph-name="germandbls" unicode="&#xdf;" horiz-adv-x="653" 
d="M612 303q-17 38 -48 63q-31 24 -76 35q35 10 60 29q24 20 38 50q13 27 13 66q0 20 -4 37q-3 18 -10 33q-26 55 -89 83q-64 27 -159 27q-102 0 -167 -32q-64 -32 -93 -96q-12 -26 -17 -57q-6 -31 -6 -68v-473h152v481q0 23 3 42q3 20 9 35q15 31 44 46q29 14 74 14
q37 0 64 -11t39 -36q7 -15 7 -36q0 -9 -1 -18q-2 -9 -5 -17q-13 -28 -47 -41q-33 -13 -86 -13h-44v-104h50q55 0 93 -16q37 -15 53 -49q11 -24 11 -55q1 -31 -11 -54q-15 -33 -53 -47q-38 -13 -96 -13h-25q-13 1 -24 2v-109l41 -2t39 -1q105 0 174 29t97 90q9 20 14 43
q4 24 4 50t-4 50q-5 23 -14 43v0z" />
    <glyph glyph-name="agrave" unicode="&#xe0;" horiz-adv-x="631" 
d="M421 553l-112 163h-161l126 -163h147zM561 399q-27 60 -90 87t-159 26q-90 1 -155 -24q-66 -26 -93 -85q-12 -28 -15 -65h154q0 13 6 26q12 24 39 34t66 10t67 -11q27 -12 39 -37q5 -10 7 -21t2 -27v-7h-105q-99 2 -176 -19t-108 -84q-12 -27 -13 -66q0 -18 4 -33
q3 -16 9 -30q21 -45 71 -66q49 -22 121 -22q70 0 119 20q49 19 79 56v-61h152v284q0 34 -5 63q-5 28 -16 52v0zM284 93q-31 0 -57 8q-26 9 -37 30q-4 11 -4 24q0 7 1 12q2 6 4 11q12 24 50 31q38 8 88 7h101v-7q0 -16 -2 -28q-3 -13 -8 -23q-15 -32 -51 -49q-36 -16 -85 -16
v0z" />
    <glyph glyph-name="aacute" unicode="&#xe1;" horiz-adv-x="631" 
d="M484 716h-162l-111 -163h147zM561 399q-27 60 -90 87t-159 26q-90 1 -155 -24q-66 -26 -93 -85q-12 -28 -15 -65h154q0 13 6 26q12 24 39 34t66 10t67 -11q27 -12 39 -37q5 -10 7 -21t2 -27v-7h-105q-99 2 -176 -19t-108 -84q-12 -27 -13 -66q0 -18 4 -33q3 -16 9 -30
q21 -45 71 -66q49 -22 121 -22q70 0 119 20q49 19 79 56v-61h152v284q0 34 -5 63q-5 28 -16 52v0zM284 93q-31 0 -57 8q-26 9 -37 30q-4 11 -4 24q0 7 1 12q2 6 4 11q12 24 50 31q38 8 88 7h101v-7q0 -16 -2 -28q-3 -13 -8 -23q-15 -32 -51 -49q-36 -16 -85 -16v0z" />
    <glyph glyph-name="acircumflex" unicode="&#xe2;" horiz-adv-x="631" 
d="M316 647l68 -94h141l-116 164h-184l-117 -164h142zM561 399q-27 60 -90 87t-159 26q-90 1 -155 -24q-66 -26 -93 -85q-12 -28 -15 -65h154q0 13 6 26q12 24 39 34t66 10t67 -11q27 -12 39 -37q5 -10 7 -21t2 -27v-7h-105q-99 2 -176 -19t-108 -84q-12 -27 -13 -66
q0 -18 4 -33q3 -16 9 -30q21 -45 71 -66q49 -22 121 -22q70 0 119 20q49 19 79 56v-61h152v284q0 34 -5 63q-5 28 -16 52v0zM284 93q-31 0 -57 8q-26 9 -37 30q-4 11 -4 24q0 7 1 12q2 6 4 11q12 24 50 31q38 8 88 7h101v-7q0 -16 -2 -28q-3 -13 -8 -23q-15 -32 -51 -49
q-36 -16 -85 -16v0z" />
    <glyph glyph-name="atilde" unicode="&#xe3;" horiz-adv-x="631" 
d="M241 625q18 -1 34 -12t34 -26q20 -17 43 -27t54 -10q60 0 90 42q29 42 32 127h-95q-3 -35 -12 -54q-9 -18 -30 -18q-17 0 -31 11q-14 10 -32 25q-25 20 -48 29q-23 10 -51 10q-62 0 -91 -43q-29 -44 -34 -127h94q3 35 12 54q10 19 31 19v0zM561 399q-27 60 -90 87
t-159 26q-90 1 -155 -24q-66 -26 -93 -85q-12 -28 -15 -65h154q0 13 6 26q12 24 39 34t66 10t67 -11q27 -12 39 -37q5 -10 7 -21t2 -27v-7h-105q-99 2 -176 -19t-108 -84q-12 -27 -13 -66q0 -18 4 -33q3 -16 9 -30q21 -45 71 -66q49 -22 121 -22q70 0 119 20q49 19 79 56
v-61h152v284q0 34 -5 63q-5 28 -16 52v0zM284 93q-31 0 -57 8q-26 9 -37 30q-4 11 -4 24q0 7 1 12q2 6 4 11q12 24 50 31q38 8 88 7h101v-7q0 -16 -2 -28q-3 -13 -8 -23q-15 -32 -51 -49q-36 -16 -85 -16v0z" />
    <glyph glyph-name="adieresis" unicode="&#xe4;" horiz-adv-x="631" 
d="M198 562q35 1 58 22t24 55q-1 35 -24 57q-23 21 -58 22q-37 -1 -59 -22q-22 -22 -23 -57q1 -34 23 -55t59 -22v0zM432 561q36 1 59 22q22 22 23 56q-1 35 -23 57q-23 21 -59 22q-36 -1 -59 -22q-22 -22 -23 -57q1 -34 23 -56q23 -21 59 -22v0zM561 399q-27 60 -90 87
t-159 26q-90 1 -155 -24q-66 -26 -93 -85q-12 -28 -15 -65h154q0 13 6 26q12 24 39 34t66 10t67 -11q27 -12 39 -37q5 -10 7 -21t2 -27v-7h-105q-99 2 -176 -19t-108 -84q-12 -27 -13 -66q0 -18 4 -33q3 -16 9 -30q21 -45 71 -66q49 -22 121 -22q70 0 119 20q49 19 79 56
v-61h152v284q0 34 -5 63q-5 28 -16 52v0zM284 93q-31 0 -57 8q-26 9 -37 30q-4 11 -4 24q0 7 1 12q2 6 4 11q12 24 50 31q38 8 88 7h101v-7q0 -16 -2 -28q-3 -13 -8 -23q-15 -32 -51 -49q-36 -16 -85 -16v0z" />
    <glyph glyph-name="aring" unicode="&#xe5;" horiz-adv-x="631" 
d="M316 543q63 1 100 33q38 32 39 90q-1 56 -39 89q-38 32 -100 33q-63 -1 -101 -33t-39 -89q1 -58 39 -90t101 -33v0zM316 718q26 0 41 -14t15 -38t-15 -38t-41 -14q-27 0 -42 14t-15 38t15 38t42 14v0zM561 399q-27 60 -90 87t-159 26q-90 1 -155 -24q-66 -26 -93 -85
q-12 -28 -15 -65h154q0 13 6 26q12 24 39 34t66 10t67 -11q27 -12 39 -37q5 -10 7 -21t2 -27v-7h-105q-99 2 -176 -19t-108 -84q-12 -27 -13 -66q0 -18 4 -33q3 -16 9 -30q21 -45 71 -66q49 -22 121 -22q70 0 119 20q49 19 79 56v-61h152v284q0 34 -5 63q-5 28 -16 52v0z
M284 93q-31 0 -57 8q-26 9 -37 30q-4 11 -4 24q0 7 1 12q2 6 4 11q12 24 50 31q38 8 88 7h101v-7q0 -16 -2 -28q-3 -13 -8 -23q-15 -32 -51 -49q-36 -16 -85 -16v0z" />
    <glyph glyph-name="ae" unicode="&#xe6;" horiz-adv-x="1018" 
d="M810 122q-16 -14 -39 -22t-53 -8q-46 0 -77 18t-46 52q-9 20 -12 47h411q0 45 -6 85q-6 39 -21 73q-31 67 -95 106q-65 38 -163 39q-59 0 -107 -15q-48 -16 -83 -45q-32 32 -83 46t-124 14q-90 1 -155 -24q-66 -26 -93 -85q-12 -28 -15 -65h154q0 7 2 13q1 6 4 13
q12 24 39 34t66 10t67 -11q27 -11 39 -36q5 -10 7 -22q2 -11 2 -29v-5h-105q-100 2 -177 -19t-107 -84q-6 -14 -9 -30q-4 -16 -4 -35q0 -18 4 -33q3 -16 9 -29q21 -46 74 -69q53 -22 129 -22q86 0 144 26q57 26 95 75q35 -49 96 -75q60 -26 143 -26q63 0 118 16q54 16 93 50
q23 22 39 51q15 30 20 67h-158q-2 -14 -7 -25q-6 -12 -16 -21v0zM711 405q44 0 73 -17t44 -48q7 -18 10 -40h-253q3 22 11 40q14 32 43 48q29 17 72 17v0zM430 209q0 -18 -3 -31t-8 -23q-15 -31 -50 -47q-35 -15 -84 -15q-31 0 -57 8t-37 29q-3 7 -4 13q-1 5 -1 12t1 12
q2 6 4 11q13 25 51 32q37 7 87 6h101v-7z" />
    <glyph glyph-name="ccedilla" unicode="&#xe7;" horiz-adv-x="651" 
d="M463 201q-2 -19 -9 -35q-8 -17 -21 -29q-18 -16 -45 -23q-27 -8 -61 -8q-47 0 -80 18q-34 17 -50 51q-7 15 -9 33q-3 18 -3 41t3 41q2 18 9 33q16 34 50 51q33 18 80 18q33 0 60 -8q27 -7 45 -23q13 -12 21 -27q7 -16 9 -35h164q-3 42 -19 76t-46 61q-42 38 -101 57
q-60 19 -134 19q-101 0 -173 -37q-73 -37 -106 -109q-23 -51 -23 -118t23 -118q27 -60 82 -95t129 -46l-22 -70h70q36 0 53 -8q17 -7 17 -23q0 -19 -18 -26t-48 -7q-24 0 -44 3q-21 4 -42 11l-18 -74q26 -9 55 -13q28 -5 61 -5q73 -1 116 23q43 23 44 82q0 46 -28 72
q-28 27 -88 28l2 4q60 5 109 23q49 19 85 51q60 56 65 141h-164z" />
    <glyph glyph-name="egrave" unicode="&#xe8;" horiz-adv-x="658" 
d="M435 553l-112 163h-161l126 -163h147zM452 125q-19 -16 -49 -24q-29 -8 -65 -8q-55 0 -94 17t-55 53q-9 19 -12 46h457q0 46 -6 82q-6 37 -20 70q-33 72 -104 112q-71 39 -176 39q-102 0 -175 -37t-106 -110q-11 -25 -17 -54t-6 -63q0 -66 22 -115q33 -73 109 -111
q75 -38 182 -38q70 0 131 17t104 55q23 22 39 49q15 28 20 63h-154q-2 -12 -8 -23q-7 -11 -17 -20v0zM329 405q51 0 87 -17q37 -17 54 -53q4 -8 7 -17q2 -8 4 -18h-302q3 18 10 33q17 37 52 54q36 18 88 18v0z" />
    <glyph glyph-name="eacute" unicode="&#xe9;" horiz-adv-x="658" 
d="M498 716h-162l-111 -163h147zM452 125q-19 -16 -49 -24q-29 -8 -65 -8q-55 0 -94 17t-55 53q-9 19 -12 46h457q0 46 -6 82q-6 37 -20 70q-33 72 -104 112q-71 39 -176 39q-102 0 -175 -37t-106 -110q-11 -25 -17 -54t-6 -63q0 -66 22 -115q33 -73 109 -111
q75 -38 182 -38q70 0 131 17t104 55q23 22 39 49q15 28 20 63h-154q-2 -12 -8 -23q-7 -11 -17 -20v0zM329 405q51 0 87 -17q37 -17 54 -53q4 -8 7 -17q2 -8 4 -18h-302q3 18 10 33q17 37 52 54q36 18 88 18v0z" />
    <glyph glyph-name="ecircumflex" unicode="&#xea;" horiz-adv-x="658" 
d="M329 647l68 -94h141l-116 164h-184l-117 -164h142zM452 125q-19 -16 -49 -24q-29 -8 -65 -8q-55 0 -94 17t-55 53q-9 19 -12 46h457q0 46 -6 82q-6 37 -20 70q-33 72 -104 112q-71 39 -176 39q-102 0 -175 -37t-106 -110q-11 -25 -17 -54t-6 -63q0 -66 22 -115
q33 -73 109 -111q75 -38 182 -38q70 0 131 17t104 55q23 22 39 49q15 28 20 63h-154q-2 -12 -8 -23q-7 -11 -17 -20v0zM329 405q51 0 87 -17q37 -17 54 -53q4 -8 7 -17q2 -8 4 -18h-302q3 18 10 33q17 37 52 54q36 18 88 18v0z" />
    <glyph glyph-name="edieresis" unicode="&#xeb;" horiz-adv-x="658" 
d="M212 562q35 1 58 22t24 55q-1 35 -24 57q-23 21 -58 22q-37 -1 -59 -22q-22 -22 -23 -57q1 -34 23 -55t59 -22v0zM446 561q36 1 59 22q22 22 23 56q-1 35 -23 57q-23 21 -59 22q-36 -1 -59 -22q-22 -22 -23 -57q1 -34 23 -56q23 -21 59 -22v0zM452 125q-19 -16 -49 -24
q-29 -8 -65 -8q-55 0 -94 17t-55 53q-9 19 -12 46h457q0 46 -6 82q-6 37 -20 70q-33 72 -104 112q-71 39 -176 39q-102 0 -175 -37t-106 -110q-11 -25 -17 -54t-6 -63q0 -66 22 -115q33 -73 109 -111q75 -38 182 -38q70 0 131 17t104 55q23 22 39 49q15 28 20 63h-154
q-2 -12 -8 -23q-7 -11 -17 -20v0zM329 405q51 0 87 -17q37 -17 54 -53q4 -8 7 -17q2 -8 4 -18h-302q3 18 10 33q17 37 52 54q36 18 88 18v0z" />
    <glyph glyph-name="igrave" unicode="&#xec;" horiz-adv-x="260" 
d="M224 553l-96 163h-159l112 -163h143zM54 0h152v496h-152v-496z" />
    <glyph glyph-name="iacute" unicode="&#xed;" horiz-adv-x="260" 
d="M36 553h143l112 163h-159zM54 0h152v496h-152v-496z" />
    <glyph glyph-name="icircumflex" unicode="&#xee;" horiz-adv-x="260" 
d="M-38 553h121l48 93l47 -93h121l-89 164h-158zM54 0h152v496h-152v-496z" />
    <glyph glyph-name="idieresis" unicode="&#xef;" horiz-adv-x="260" 
d="M42 564q34 1 54 21t20 54t-20 55t-54 22q-33 -1 -53 -22t-21 -55q1 -34 21 -54t53 -21v0zM218 563q33 1 53 22q20 20 20 54t-20 55t-53 22q-33 -1 -53 -22t-21 -55q1 -34 21 -54q20 -21 53 -22v0zM54 0h152v496h-152v-496z" />
    <glyph glyph-name="eth" unicode="&#xf0;" horiz-adv-x="676" 
d="M609 434q-17 39 -43 78q-26 38 -60 77l84 21v94l-154 -39l-42 41h-186v-2l80 -77l-181 -46v-93l253 64q27 -31 49 -59q22 -29 37 -57q-62 39 -155 39q-90 0 -153 -36q-63 -35 -92 -100q-22 -48 -22 -110q0 -31 5 -57q5 -27 15 -50q32 -69 106 -103q73 -35 177 -35
q114 0 189 38q75 37 107 110q24 53 24 125q0 50 -9 92t-29 85v0zM473 170q-16 -35 -53 -53q-36 -17 -86 -17q-49 0 -85 17q-36 18 -53 53q-5 13 -8 29q-3 15 -3 34q0 39 12 66q17 35 52 53q36 18 85 18q50 0 86 -18q35 -18 52 -53q7 -13 9 -29q3 -17 3 -36t-2 -35
q-3 -16 -9 -29v0z" />
    <glyph glyph-name="ntilde" unicode="&#xf1;" horiz-adv-x="650" 
d="M254 625q18 -1 34 -12t34 -26q20 -17 43 -27t54 -10q60 0 90 42q29 42 32 127h-95q-3 -35 -12 -54q-9 -18 -30 -18q-17 0 -31 11q-14 10 -32 25q-25 20 -48 29q-23 10 -51 10q-62 0 -91 -43q-29 -44 -34 -127h94q3 35 12 54q10 19 31 19v0zM388 512q-61 0 -107 -21
q-45 -21 -75 -61v66h-152v-496h152v253q0 66 32 103q32 36 95 36q57 0 87 -30q29 -30 29 -94v-268h152v298q-1 105 -56 160q-55 54 -157 54v0z" />
    <glyph glyph-name="ograve" unicode="&#xf2;" horiz-adv-x="666" 
d="M438 553l-112 163h-161l126 -163h147zM333 -15q107 0 181 39q73 38 106 110q23 50 23 114t-23 115q-33 72 -106 110q-74 39 -181 39t-181 -40q-73 -39 -106 -112q-22 -49 -22 -112q0 -61 22 -112q33 -73 106 -112q74 -39 181 -39v0zM333 104q-50 0 -85 19q-36 19 -52 54
q-13 29 -13 71q0 44 13 72q16 35 52 54q35 18 85 18t85 -18q36 -18 52 -54q13 -28 13 -72q0 -22 -3 -39q-3 -18 -10 -33q-16 -35 -52 -54q-35 -18 -85 -18v0z" />
    <glyph glyph-name="oacute" unicode="&#xf3;" horiz-adv-x="666" 
d="M229 553h147l126 163h-162zM333 -15q107 0 181 39q73 38 106 110q23 50 23 114t-23 115q-33 72 -106 110q-74 39 -181 39t-181 -40q-73 -39 -106 -112q-22 -49 -22 -112q0 -61 22 -112q33 -73 106 -112q74 -39 181 -39v0zM333 104q-50 0 -85 19q-36 19 -52 54
q-13 29 -13 71q0 44 13 72q16 35 52 54q35 18 85 18t85 -18q36 -18 52 -54q13 -28 13 -72q0 -22 -3 -39q-3 -18 -10 -33q-16 -35 -52 -54q-35 -18 -85 -18v0z" />
    <glyph glyph-name="ocircumflex" unicode="&#xf4;" horiz-adv-x="666" 
d="M125 553h142l66 94l68 -94h141l-116 164h-184zM333 -15q107 0 181 39q73 38 106 110q23 50 23 114t-23 115q-33 72 -106 110q-74 39 -181 39t-181 -40q-73 -39 -106 -112q-22 -49 -22 -112q0 -61 22 -112q33 -73 106 -112q74 -39 181 -39v0zM333 104q-50 0 -85 19
q-36 19 -52 54q-13 29 -13 71q0 44 13 72q16 35 52 54q35 18 85 18t85 -18q36 -18 52 -54q13 -28 13 -72q0 -22 -3 -39q-3 -18 -10 -33q-16 -35 -52 -54q-35 -18 -85 -18v0z" />
    <glyph glyph-name="otilde" unicode="&#xf5;" horiz-adv-x="666" 
d="M423 550q60 0 90 42q29 42 32 127h-95q-3 -35 -12 -54q-9 -18 -30 -18q-17 0 -31 11q-14 10 -32 25q-25 20 -48 29q-23 10 -51 10q-62 0 -91 -43q-29 -44 -34 -127h94q3 35 12 54q10 19 31 19q18 -1 34 -12t34 -26q20 -17 43 -27t54 -10v0zM333 -15q107 0 181 39
q73 38 106 110q23 50 23 114t-23 115q-33 72 -106 110q-74 39 -181 39t-181 -40q-73 -39 -106 -112q-22 -49 -22 -112q0 -61 22 -112q33 -73 106 -112q74 -39 181 -39v0zM333 104q-50 0 -85 19q-36 19 -52 54q-13 29 -13 71q0 44 13 72q16 35 52 54q35 18 85 18t85 -18
q36 -18 52 -54q13 -28 13 -72q0 -22 -3 -39q-3 -18 -10 -33q-16 -35 -52 -54q-35 -18 -85 -18v0z" />
    <glyph glyph-name="odieresis" unicode="&#xf6;" horiz-adv-x="666" 
d="M215 562q35 1 58 22t24 55q-1 35 -24 57q-23 21 -58 22q-37 -1 -59 -22q-22 -22 -23 -57q1 -34 23 -55t59 -22v0zM449 561q36 1 59 22q22 22 23 56q-1 35 -23 57q-23 21 -59 22q-36 -1 -59 -22q-22 -22 -23 -57q1 -34 23 -56q23 -21 59 -22v0zM333 -15q107 0 181 39
q73 38 106 110q23 50 23 114t-23 115q-33 72 -106 110q-74 39 -181 39t-181 -40q-73 -39 -106 -112q-22 -49 -22 -112q0 -61 22 -112q33 -73 106 -112q74 -39 181 -39v0zM333 104q-50 0 -85 19q-36 19 -52 54q-13 29 -13 71q0 44 13 72q16 35 52 54q35 18 85 18t85 -18
q36 -18 52 -54q13 -28 13 -72q0 -22 -3 -39q-3 -18 -10 -33q-16 -35 -52 -54q-35 -18 -85 -18v0z" />
    <glyph glyph-name="divide" unicode="&#xf7;" horiz-adv-x="612" 
d="M306 421q34 0 55 21q21 20 22 54q-1 34 -22 54t-55 20q-35 0 -56 -20t-22 -54q1 -34 22 -54q21 -21 56 -21v0zM50 232h512v115h-512v-115zM306 9q34 1 55 21t22 54q-1 34 -22 54q-21 21 -55 21q-35 0 -56 -21q-21 -20 -22 -54q1 -34 22 -54t56 -21v0z" />
    <glyph glyph-name="oslash" unicode="&#xf8;" horiz-adv-x="666" 
d="M580 423l79 73h-113l-27 -26q-37 20 -84 31q-46 11 -102 11q-107 0 -181 -40q-73 -39 -106 -112q-22 -49 -22 -112q0 -61 22 -112q15 -35 41 -62l-81 -74h111l30 27q75 -42 186 -42q107 0 181 39q73 38 106 110q23 50 23 114t-23 115q-8 17 -18 32t-22 28v0zM196 320
q16 35 52 54q35 18 85 18q23 0 44 -4t38 -12l-216 -204q-1 2 -3 5q-13 29 -13 71q0 44 13 72v0zM470 176q-16 -35 -52 -54q-35 -18 -85 -18q-23 0 -44 4q-20 5 -37 13l216 204l2 -5q13 -28 13 -72q0 -22 -3 -39q-3 -18 -10 -33v0z" />
    <glyph glyph-name="ugrave" unicode="&#xf9;" horiz-adv-x="650" 
d="M428 553l-112 163h-161l126 -163h147zM444 496v-253q0 -66 -32 -102q-32 -37 -95 -37q-57 0 -86 30q-30 30 -30 94v268h-152v-298q1 -105 56 -159q55 -55 157 -55q61 0 107 21q45 21 75 61v-66h152v496h-152z" />
    <glyph glyph-name="uacute" unicode="&#xfa;" horiz-adv-x="650" 
d="M491 716h-162l-111 -163h147zM444 496v-253q0 -66 -32 -102q-32 -37 -95 -37q-57 0 -86 30q-30 30 -30 94v268h-152v-298q1 -105 56 -159q55 -55 157 -55q61 0 107 21q45 21 75 61v-66h152v496h-152z" />
    <glyph glyph-name="ucircumflex" unicode="&#xfb;" horiz-adv-x="650" 
d="M323 647l68 -94h141l-116 164h-184l-117 -164h142zM444 496v-253q0 -66 -32 -102q-32 -37 -95 -37q-57 0 -86 30q-30 30 -30 94v268h-152v-298q1 -105 56 -159q55 -55 157 -55q61 0 107 21q45 21 75 61v-66h152v496h-152z" />
    <glyph glyph-name="udieresis" unicode="&#xfc;" horiz-adv-x="650" 
d="M205 562q35 1 58 22t24 55q-1 35 -24 57q-23 21 -58 22q-37 -1 -59 -22q-22 -22 -23 -57q1 -34 23 -55t59 -22v0zM439 561q36 1 59 22q22 22 23 56q-1 35 -23 57q-23 21 -59 22q-36 -1 -59 -22q-22 -22 -23 -57q1 -34 23 -56q23 -21 59 -22v0zM444 496v-253
q0 -66 -32 -102q-32 -37 -95 -37q-57 0 -86 30q-30 30 -30 94v268h-152v-298q1 -105 56 -159q55 -55 157 -55q61 0 107 21q45 21 75 61v-66h152v496h-152z" />
    <glyph glyph-name="yacute" unicode="&#xfd;" horiz-adv-x="611" 
d="M475 716h-162l-111 -163h147zM451 496l-144 -342l-142 342h-165l226 -491l-101 -208h156l95 203l235 496h-160z" />
    <glyph glyph-name="thorn" unicode="&#xfe;" horiz-adv-x="679" 
d="M631 374q-30 66 -91 101q-61 36 -146 36q-59 0 -107 -19q-48 -18 -81 -56v270h-152v-909h152v263q33 -37 81 -56t107 -19q85 0 146 36q61 35 91 101q25 54 25 126t-25 126v0zM482 175q-16 -35 -51 -53q-35 -17 -82 -17q-64 0 -104 34t-41 101v16q1 68 41 101
q40 34 104 34q47 0 82 -17q35 -18 51 -53q13 -28 13 -73t-13 -73v0z" />
    <glyph glyph-name="ydieresis" unicode="&#xff;" horiz-adv-x="611" 
d="M188 562q35 1 58 22t24 55q-1 35 -24 57q-23 21 -58 22q-37 -1 -59 -22q-22 -22 -23 -57q1 -34 23 -55t59 -22v0zM422 561q36 1 59 22q22 22 23 56q-1 35 -23 57q-23 21 -59 22q-36 -1 -59 -22q-22 -22 -23 -57q1 -34 23 -56q23 -21 59 -22v0zM451 496l-144 -342
l-142 342h-165l226 -491l-101 -208h156l95 203l235 496h-160z" />
    <glyph glyph-name="Amacron" unicode="&#x100;" horiz-adv-x="804" 
d="M582 886h-360v-106h360v106zM641 0h170l-294 706h-230l-294 -706h171l60 152h356zM274 276l127 320h2l128 -320h-257z" />
    <glyph glyph-name="amacron" unicode="&#x101;" horiz-adv-x="631" 
d="M493 690h-355v-104h355v104zM561 399q-27 60 -90 87t-159 26q-90 1 -155 -24q-66 -26 -93 -85q-12 -28 -15 -65h154q0 13 6 26q12 24 39 34t66 10t67 -11q27 -12 39 -37q5 -10 7 -21t2 -27v-7h-105q-99 2 -176 -19t-108 -84q-12 -27 -13 -66q0 -18 4 -33q3 -16 9 -30
q21 -45 71 -66q49 -22 121 -22q70 0 119 20q49 19 79 56v-61h152v284q0 34 -5 63q-5 28 -16 52v0zM284 93q-31 0 -57 8q-26 9 -37 30q-4 11 -4 24q0 7 1 12q2 6 4 11q12 24 50 31q38 8 88 7h101v-7q0 -16 -2 -28q-3 -13 -8 -23q-15 -32 -51 -49q-36 -16 -85 -16v0z" />
    <glyph glyph-name="Abreve" unicode="&#x102;" horiz-adv-x="804" 
d="M404 755q96 0 146 40q49 39 53 112h-109q-6 -34 -27 -50t-63 -16t-64 16t-26 50h-112q4 -73 55 -112q50 -40 147 -40v0zM641 0h170l-294 706h-230l-294 -706h171l60 152h356zM274 276l127 320h2l128 -320h-257z" />
    <glyph glyph-name="abreve" unicode="&#x103;" horiz-adv-x="631" 
d="M316 546q97 0 146 44q49 43 53 127h-109q-5 -43 -26 -63q-20 -20 -64 -20q-42 0 -63 20t-26 63h-110q5 -84 55 -127q49 -44 144 -44v0zM561 399q-27 60 -90 87t-159 26q-90 1 -155 -24q-66 -26 -93 -85q-12 -28 -15 -65h154q0 13 6 26q12 24 39 34t66 10t67 -11
q27 -12 39 -37q5 -10 7 -21t2 -27v-7h-105q-99 2 -176 -19t-108 -84q-12 -27 -13 -66q0 -18 4 -33q3 -16 9 -30q21 -45 71 -66q49 -22 121 -22q70 0 119 20q49 19 79 56v-61h152v284q0 34 -5 63q-5 28 -16 52v0zM284 93q-31 0 -57 8q-26 9 -37 30q-4 11 -4 24q0 7 1 12
q2 6 4 11q12 24 50 31q38 8 88 7h101v-7q0 -16 -2 -28q-3 -13 -8 -23q-15 -32 -51 -49q-36 -16 -85 -16v0z" />
    <glyph glyph-name="Aogonek" unicode="&#x104;" horiz-adv-x="804" 
d="M767 -131q-23 0 -36 9q-14 9 -14 28q0 26 24 48t70 46l-294 706h-230l-294 -706h171l60 152h356l61 -152h45q-43 -22 -68 -51q-26 -29 -27 -70q1 -49 39 -73t96 -24q51 1 87 13v82q-11 -4 -23 -6q-11 -2 -23 -2v0zM274 276l127 320h2l128 -320h-257z" />
    <glyph glyph-name="aogonek" unicode="&#x105;" horiz-adv-x="631" 
d="M538 -131q-23 0 -36 9q-14 9 -14 28q0 26 24 48t70 46v284q0 34 -5 63q-5 28 -16 52q-27 60 -90 87t-159 26q-90 1 -155 -24q-66 -26 -93 -85q-12 -28 -15 -65h154q0 13 6 26q12 24 39 34t66 10t67 -11q27 -12 39 -37q5 -10 7 -21t2 -27v-7h-105q-99 2 -176 -19t-108 -84
q-12 -27 -13 -66q0 -18 4 -33q3 -16 9 -30q21 -45 71 -66q49 -22 121 -22q70 0 119 20q49 19 79 56v-61h27q-43 -22 -68 -51q-26 -29 -27 -70q1 -49 39 -73t96 -24q51 1 87 13v82q-11 -4 -23 -6q-11 -2 -23 -2v0zM284 93q-31 0 -57 8q-26 9 -37 30q-4 11 -4 24q0 7 1 12
q2 6 4 11q12 24 50 31q38 8 88 7h101v-7q0 -16 -2 -28q-3 -13 -8 -23q-15 -32 -51 -49q-36 -16 -85 -16v0z" />
    <glyph glyph-name="Cacute" unicode="&#x106;" horiz-adv-x="851" 
d="M323 759h158l142 148h-171zM437 -20q89 0 165 24q75 25 128 72q42 38 65 89q24 50 26 112h-170q-2 -33 -15 -60q-13 -26 -35 -46q-30 -27 -72 -40q-43 -13 -94 -13q-75 0 -129 28t-80 84q-10 24 -16 54q-5 31 -5 69t5 68q6 30 17 55q25 54 78 83t130 29q51 0 92 -13
q40 -13 69 -39q23 -20 36 -47q14 -28 17 -62h170q-2 61 -26 112q-23 52 -66 91q-52 47 -127 72q-75 24 -163 24q-137 -1 -232 -53t-139 -147q-33 -74 -33 -173q0 -98 33 -173q43 -97 138 -148q95 -52 233 -52v0z" />
    <glyph glyph-name="cacute" unicode="&#x107;" horiz-adv-x="651" 
d="M224 553h147l126 163h-162zM326 -16q74 0 134 19t102 57q60 56 65 141h-164q-2 -19 -9 -35q-8 -17 -21 -29q-18 -16 -45 -23q-27 -8 -61 -8q-47 0 -80 18q-34 17 -50 51q-7 15 -9 33q-3 18 -3 41t3 41q2 18 9 33q16 34 50 51q33 18 80 18q33 0 60 -8q27 -7 45 -23
q13 -12 21 -27q7 -16 9 -35h164q-3 42 -19 76t-46 61q-42 38 -101 57q-60 19 -134 19q-101 0 -173 -37q-73 -37 -106 -109q-23 -51 -23 -118t23 -118q33 -73 107 -110q73 -36 172 -36v0z" />
    <glyph glyph-name="Ccircumflex" unicode="&#x108;" horiz-adv-x="851" 
d="M207 759h155l75 82l76 -82h155l-135 148h-192zM437 -20q89 0 165 24q75 25 128 72q42 38 65 89q24 50 26 112h-170q-2 -33 -15 -60q-13 -26 -35 -46q-30 -27 -72 -40q-43 -13 -94 -13q-75 0 -129 28t-80 84q-10 24 -16 54q-5 31 -5 69t5 68q6 30 17 55q25 54 78 83
t130 29q51 0 92 -13q40 -13 69 -39q23 -20 36 -47q14 -28 17 -62h170q-2 61 -26 112q-23 52 -66 91q-52 47 -127 72q-75 24 -163 24q-137 -1 -232 -53t-139 -147q-33 -74 -33 -173q0 -98 33 -173q43 -97 138 -148q95 -52 233 -52v0z" />
    <glyph glyph-name="ccircumflex" unicode="&#x109;" horiz-adv-x="651" 
d="M120 553h142l66 94l68 -94h141l-116 164h-184zM326 -16q74 0 134 19t102 57q60 56 65 141h-164q-2 -19 -9 -35q-8 -17 -21 -29q-18 -16 -45 -23q-27 -8 -61 -8q-47 0 -80 18q-34 17 -50 51q-7 15 -9 33q-3 18 -3 41t3 41q2 18 9 33q16 34 50 51q33 18 80 18q33 0 60 -8
q27 -7 45 -23q13 -12 21 -27q7 -16 9 -35h164q-3 42 -19 76t-46 61q-42 38 -101 57q-60 19 -134 19q-101 0 -173 -37q-73 -37 -106 -109q-23 -51 -23 -118t23 -118q33 -73 107 -110q73 -36 172 -36v0z" />
    <glyph glyph-name="Cdotaccent" unicode="&#x10a;" horiz-adv-x="851" 
d="M437 760q37 1 61 23q23 23 24 58q-1 36 -24 59q-24 22 -61 23q-38 -1 -62 -23q-23 -23 -24 -59q1 -35 24 -58q24 -22 62 -23v0zM437 -20q89 0 165 24q75 25 128 72q42 38 65 89q24 50 26 112h-170q-2 -33 -15 -60q-13 -26 -35 -46q-30 -27 -72 -40q-43 -13 -94 -13
q-75 0 -129 28t-80 84q-10 24 -16 54q-5 31 -5 69t5 68q6 30 17 55q25 54 78 83t130 29q51 0 92 -13q40 -13 69 -39q23 -20 36 -47q14 -28 17 -62h170q-2 61 -26 112q-23 52 -66 91q-52 47 -127 72q-75 24 -163 24q-137 -1 -232 -53t-139 -147q-33 -74 -33 -173
q0 -98 33 -173q43 -97 138 -148q95 -52 233 -52v0z" />
    <glyph glyph-name="cdotaccent" unicode="&#x10b;" horiz-adv-x="651" 
d="M328 562q37 1 61 22q23 22 24 58q-1 36 -24 58q-24 22 -61 23q-37 -1 -60 -23t-24 -58q1 -36 24 -58q23 -21 60 -22v0zM326 -16q74 0 134 19t102 57q60 56 65 141h-164q-2 -19 -9 -35q-8 -17 -21 -29q-18 -16 -45 -23q-27 -8 -61 -8q-47 0 -80 18q-34 17 -50 51
q-7 15 -9 33q-3 18 -3 41t3 41q2 18 9 33q16 34 50 51q33 18 80 18q33 0 60 -8q27 -7 45 -23q13 -12 21 -27q7 -16 9 -35h164q-3 42 -19 76t-46 61q-42 38 -101 57q-60 19 -134 19q-101 0 -173 -37q-73 -37 -106 -109q-23 -51 -23 -118t23 -118q33 -73 107 -110
q73 -36 172 -36v0z" />
    <glyph glyph-name="Ccaron" unicode="&#x10c;" horiz-adv-x="851" 
d="M667 907h-155l-75 -82l-76 82h-155l135 -148h192zM437 -20q89 0 165 24q75 25 128 72q42 38 65 89q24 50 26 112h-170q-2 -33 -15 -60q-13 -26 -35 -46q-30 -27 -72 -40q-43 -13 -94 -13q-75 0 -129 28t-80 84q-10 24 -16 54q-5 31 -5 69t5 68q6 30 17 55q25 54 78 83
t130 29q51 0 92 -13q40 -13 69 -39q23 -20 36 -47q14 -28 17 -62h170q-2 61 -26 112q-23 52 -66 91q-52 47 -127 72q-75 24 -163 24q-137 -1 -232 -53t-139 -147q-33 -74 -33 -173q0 -98 33 -173q43 -97 138 -148q95 -52 233 -52v0z" />
    <glyph glyph-name="ccaron" unicode="&#x10d;" horiz-adv-x="651" 
d="M537 718h-142l-66 -95l-68 95h-141l116 -164h184zM326 -16q74 0 134 19t102 57q60 56 65 141h-164q-2 -19 -9 -35q-8 -17 -21 -29q-18 -16 -45 -23q-27 -8 -61 -8q-47 0 -80 18q-34 17 -50 51q-7 15 -9 33q-3 18 -3 41t3 41q2 18 9 33q16 34 50 51q33 18 80 18
q33 0 60 -8q27 -7 45 -23q13 -12 21 -27q7 -16 9 -35h164q-3 42 -19 76t-46 61q-42 38 -101 57q-60 19 -134 19q-101 0 -173 -37q-73 -37 -106 -109q-23 -51 -23 -118t23 -118q33 -73 107 -110q73 -36 172 -36v0z" />
    <glyph glyph-name="Dcaron" unicode="&#x10e;" horiz-adv-x="817" 
d="M624 907h-155l-75 -82l-76 82h-155l135 -148h192zM63 0h337q132 0 221 47t131 138q16 35 24 77t8 91t-8 91q-8 41 -24 76q-40 92 -130 139t-222 47h-337v-706zM223 134v438h159q82 0 134 -27q52 -26 76 -79q10 -22 15 -50q5 -29 5 -63t-5 -62t-15 -50q-24 -53 -76 -80
t-134 -27h-159z" />
    <glyph glyph-name="dcaron" unicode="&#x10f;" horiz-adv-x="812" 
d="M474 437q-33 38 -81 56q-48 19 -108 19q-85 0 -145 -36q-61 -36 -91 -102q-12 -26 -18 -58q-7 -32 -7 -68q1 -72 25 -126q30 -66 91 -101q60 -36 145 -36q61 0 110 20q49 19 82 59v-64h149v706h-152v-269zM687 706l-30 -172h122l51 172h-143zM475 240q-1 -68 -41 -102
t-104 -34q-47 0 -81 18q-35 18 -52 54q-6 14 -9 32q-4 18 -4 40t4 41q3 18 9 32q17 36 52 54q34 17 81 17q64 0 104 -34t41 -102v-16z" />
    <glyph glyph-name="Dcroat" unicode="&#x110;" horiz-adv-x="817" 
d="M752 520q-40 92 -130 139t-222 47h-337v-299h-62v-103h62v-304h337q132 0 221 47t131 138q16 35 24 77t8 91t-8 91q-8 41 -24 76v0zM592 241q-24 -53 -76 -80t-134 -27h-159v170h185v103h-185v165h159q82 0 134 -27q52 -26 76 -79q10 -22 15 -50q5 -29 5 -63t-5 -62
t-15 -50v0z" />
    <glyph glyph-name="dcroat" unicode="&#x111;" horiz-adv-x="680" 
d="M680 652h-54v54h-152v-54h-196v-87h196v-128q-33 38 -81 56q-48 19 -108 19q-85 0 -145 -36q-61 -36 -91 -102q-12 -26 -18 -58q-7 -32 -7 -68q1 -72 25 -126q30 -66 91 -101q60 -36 145 -36q61 0 110 20q49 19 82 59v-64h149v565h54v87zM475 240q-1 -68 -41 -102
t-104 -34q-47 0 -81 18q-35 18 -52 54q-6 14 -9 32q-4 18 -4 40t4 41q3 18 9 32q17 36 52 54q34 17 81 17q64 0 104 -34t41 -102v-16z" />
    <glyph glyph-name="Emacron" unicode="&#x112;" horiz-adv-x="634" 
d="M151 780h360v106h-360v-106zM63 0h529v128h-369v166h366v125h-366v159h369v128h-529v-706z" />
    <glyph glyph-name="emacron" unicode="&#x113;" horiz-adv-x="658" 
d="M507 690h-355v-104h355v104zM452 125q-19 -16 -49 -24q-29 -8 -65 -8q-55 0 -94 17t-55 53q-9 19 -12 46h457q0 46 -6 82q-6 37 -20 70q-33 72 -104 112q-71 39 -176 39q-102 0 -175 -37t-106 -110q-11 -25 -17 -54t-6 -63q0 -66 22 -115q33 -73 109 -111q75 -38 182 -38
q70 0 131 17t104 55q23 22 39 49q15 28 20 63h-154q-2 -12 -8 -23q-7 -11 -17 -20v0zM329 405q51 0 87 -17q37 -17 54 -53q4 -8 7 -17q2 -8 4 -18h-302q3 18 10 33q17 37 52 54q36 18 88 18v0z" />
    <glyph glyph-name="Ebreve" unicode="&#x114;" horiz-adv-x="634" 
d="M333 755q96 0 146 40q49 39 53 112h-109q-6 -34 -27 -50t-63 -16t-64 16t-26 50h-112q4 -73 55 -112q50 -40 147 -40v0zM63 0h529v128h-369v166h366v125h-366v159h369v128h-529v-706z" />
    <glyph glyph-name="ebreve" unicode="&#x115;" horiz-adv-x="658" 
d="M330 546q97 0 146 44q49 43 53 127h-109q-5 -43 -26 -63q-20 -20 -64 -20q-42 0 -63 20t-26 63h-110q5 -84 55 -127q49 -44 144 -44v0zM452 125q-19 -16 -49 -24q-29 -8 -65 -8q-55 0 -94 17t-55 53q-9 19 -12 46h457q0 46 -6 82q-6 37 -20 70q-33 72 -104 112
q-71 39 -176 39q-102 0 -175 -37t-106 -110q-11 -25 -17 -54t-6 -63q0 -66 22 -115q33 -73 109 -111q75 -38 182 -38q70 0 131 17t104 55q23 22 39 49q15 28 20 63h-154q-2 -12 -8 -23q-7 -11 -17 -20v0zM329 405q51 0 87 -17q37 -17 54 -53q4 -8 7 -17q2 -8 4 -18h-302
q3 18 10 33q17 37 52 54q36 18 88 18v0z" />
    <glyph glyph-name="Edotaccent" unicode="&#x116;" horiz-adv-x="634" 
d="M331 760q37 1 61 23q23 23 24 58q-1 36 -24 59q-24 22 -61 23q-38 -1 -62 -23q-23 -23 -24 -59q1 -35 24 -58q24 -22 62 -23v0zM63 0h529v128h-369v166h366v125h-366v159h369v128h-529v-706z" />
    <glyph glyph-name="edotaccent" unicode="&#x117;" horiz-adv-x="658" 
d="M329 562q37 1 61 22q23 22 24 58q-1 36 -24 58q-24 22 -61 23q-37 -1 -60 -23t-24 -58q1 -36 24 -58q23 -21 60 -22v0zM452 125q-19 -16 -49 -24q-29 -8 -65 -8q-55 0 -94 17t-55 53q-9 19 -12 46h457q0 46 -6 82q-6 37 -20 70q-33 72 -104 112q-71 39 -176 39
q-102 0 -175 -37t-106 -110q-11 -25 -17 -54t-6 -63q0 -66 22 -115q33 -73 109 -111q75 -38 182 -38q70 0 131 17t104 55q23 22 39 49q15 28 20 63h-154q-2 -12 -8 -23q-7 -11 -17 -20v0zM329 405q51 0 87 -17q37 -17 54 -53q4 -8 7 -17q2 -8 4 -18h-302q3 18 10 33
q17 37 52 54q36 18 88 18v0z" />
    <glyph glyph-name="Eogonek" unicode="&#x118;" horiz-adv-x="634" 
d="M549 -131q-23 0 -36 9q-14 9 -14 28q0 26 24 48t70 46h-1v128h-369v166h366v125h-366v159h369v128h-529v-706h405q-43 -22 -68 -51q-26 -29 -27 -70q1 -49 39 -73t96 -24q51 1 87 13v82q-11 -4 -23 -6q-11 -2 -23 -2v0z" />
    <glyph glyph-name="eogonek" unicode="&#x119;" horiz-adv-x="658" 
d="M452 125q-19 -16 -49 -24q-29 -8 -65 -8q-55 0 -94 17t-55 53q-9 19 -12 46h457q0 46 -6 82q-6 37 -20 70q-33 72 -104 112q-71 39 -176 39q-102 0 -175 -37t-106 -110q-11 -25 -17 -54t-6 -63q0 -66 22 -115q33 -73 109 -111q75 -38 182 -38h13t13 1q-26 -20 -41 -45
t-15 -56q1 -50 39 -76t98 -26q24 0 46 3q21 4 39 9v81q-11 -4 -23 -6q-11 -2 -23 -2q-23 0 -36 11q-14 10 -14 31q0 26 22 50q22 23 63 52q54 40 81 77q26 37 32 80h-154q-2 -12 -8 -23q-7 -11 -17 -20v0zM329 405q51 0 87 -17q37 -17 54 -53q4 -8 7 -17q2 -8 4 -18h-302
q3 18 10 33q17 37 52 54q36 18 88 18v0z" />
    <glyph glyph-name="Ecaron" unicode="&#x11a;" horiz-adv-x="634" 
d="M561 907h-155l-75 -82l-76 82h-155l135 -148h192zM63 0h529v128h-369v166h366v125h-366v159h369v128h-529v-706z" />
    <glyph glyph-name="ecaron" unicode="&#x11b;" horiz-adv-x="658" 
d="M421 554l117 164h-142l-66 -95l-68 95h-141l116 -164h184zM452 125q-19 -16 -49 -24q-29 -8 -65 -8q-55 0 -94 17t-55 53q-9 19 -12 46h457q0 46 -6 82q-6 37 -20 70q-33 72 -104 112q-71 39 -176 39q-102 0 -175 -37t-106 -110q-11 -25 -17 -54t-6 -63q0 -66 22 -115
q33 -73 109 -111q75 -38 182 -38q70 0 131 17t104 55q23 22 39 49q15 28 20 63h-154q-2 -12 -8 -23q-7 -11 -17 -20v0zM329 405q51 0 87 -17q37 -17 54 -53q4 -8 7 -17q2 -8 4 -18h-302q3 18 10 33q17 37 52 54q36 18 88 18v0z" />
    <glyph glyph-name="Gcircumflex" unicode="&#x11c;" horiz-adv-x="867" 
d="M441 841l76 -82h155l-135 148h-192l-134 -148h155zM448 387v-118h221q-2 -15 -6 -28q-3 -13 -9 -26q-25 -52 -80 -76t-129 -24q-79 0 -135 28q-57 28 -83 86q-11 25 -17 55q-5 30 -5 69q0 40 5 70q6 29 17 54q26 57 82 86q56 28 135 28q51 0 95 -12q43 -13 73 -40
q17 -15 29 -36q11 -20 17 -46h171q-7 52 -31 97q-25 45 -62 78q-53 48 -128 71t-165 23q-139 0 -235 -51q-96 -50 -141 -148q-17 -37 -25 -80q-9 -43 -9 -94t8 -94q9 -43 25 -80q44 -96 140 -147q97 -52 235 -52q131 0 222 48q92 48 135 143q19 42 27 87q9 46 9 100v29h-386
z" />
    <glyph glyph-name="gcircumflex" unicode="&#x11d;" horiz-adv-x="675" 
d="M332 647l68 -94h141l-116 164h-184l-117 -164h142zM470 496v-63q-32 38 -79 59q-48 20 -110 20q-84 0 -143 -35q-60 -35 -90 -99q-24 -54 -24 -125q0 -72 24 -124q30 -66 90 -100q59 -35 143 -35q61 0 108 20q47 19 79 57v-55q0 -36 -11 -63q-14 -32 -47 -48
q-32 -16 -81 -16q-33 0 -60 8t-45 24q-21 20 -24 44h-160q9 -72 58 -116q40 -36 101 -51q60 -16 133 -16q100 0 168 31t98 97q23 51 23 124v462h-151zM326 111q-46 0 -80 17q-34 18 -49 52q-7 15 -10 32q-3 18 -3 41q0 22 3 39q3 18 10 32q15 35 49 52t80 17q63 0 102 -33
q39 -32 40 -99v-17q-1 -67 -40 -100t-102 -33v0z" />
    <glyph glyph-name="Gbreve" unicode="&#x11e;" horiz-adv-x="867" 
d="M443 755q96 0 146 40q49 39 53 112h-109q-6 -34 -27 -50t-63 -16t-64 16t-26 50h-112q4 -73 55 -112q50 -40 147 -40v0zM448 387v-118h221q-2 -15 -6 -28q-3 -13 -9 -26q-25 -52 -80 -76t-129 -24q-79 0 -135 28q-57 28 -83 86q-11 25 -17 55q-5 30 -5 69q0 40 5 70
q6 29 17 54q26 57 82 86q56 28 135 28q51 0 95 -12q43 -13 73 -40q17 -15 29 -36q11 -20 17 -46h171q-7 52 -31 97q-25 45 -62 78q-53 48 -128 71t-165 23q-139 0 -235 -51q-96 -50 -141 -148q-17 -37 -25 -80q-9 -43 -9 -94t8 -94q9 -43 25 -80q44 -96 140 -147
q97 -52 235 -52q131 0 222 48q92 48 135 143q19 42 27 87q9 46 9 100v29h-386z" />
    <glyph glyph-name="gbreve" unicode="&#x11f;" horiz-adv-x="675" 
d="M332 546q97 0 146 44q49 43 53 127h-109q-5 -43 -26 -63q-20 -20 -64 -20q-42 0 -63 20t-26 63h-110q5 -84 55 -127q49 -44 144 -44v0zM470 496v-63q-32 38 -79 59q-48 20 -110 20q-84 0 -143 -35q-60 -35 -90 -99q-24 -54 -24 -125q0 -72 24 -124q30 -66 90 -100
q59 -35 143 -35q61 0 108 20q47 19 79 57v-55q0 -36 -11 -63q-14 -32 -47 -48q-32 -16 -81 -16q-33 0 -60 8t-45 24q-21 20 -24 44h-160q9 -72 58 -116q40 -36 101 -51q60 -16 133 -16q100 0 168 31t98 97q23 51 23 124v462h-151zM326 111q-46 0 -80 17q-34 18 -49 52
q-7 15 -10 32q-3 18 -3 41q0 22 3 39q3 18 10 32q15 35 49 52t80 17q63 0 102 -33q39 -32 40 -99v-17q-1 -67 -40 -100t-102 -33v0z" />
    <glyph glyph-name="Gdotaccent" unicode="&#x120;" horiz-adv-x="867" 
d="M441 760q37 1 61 23q23 23 24 58q-1 36 -24 59q-24 22 -61 23q-38 -1 -62 -23q-23 -23 -24 -59q1 -35 24 -58q24 -22 62 -23v0zM448 387v-118h221q-2 -15 -6 -28q-3 -13 -9 -26q-25 -52 -80 -76t-129 -24q-79 0 -135 28q-57 28 -83 86q-11 25 -17 55q-5 30 -5 69
q0 40 5 70q6 29 17 54q26 57 82 86q56 28 135 28q51 0 95 -12q43 -13 73 -40q17 -15 29 -36q11 -20 17 -46h171q-7 52 -31 97q-25 45 -62 78q-53 48 -128 71t-165 23q-139 0 -235 -51q-96 -50 -141 -148q-17 -37 -25 -80q-9 -43 -9 -94t8 -94q9 -43 25 -80q44 -96 140 -147
q97 -52 235 -52q131 0 222 48q92 48 135 143q19 42 27 87q9 46 9 100v29h-386z" />
    <glyph glyph-name="gdotaccent" unicode="&#x121;" horiz-adv-x="675" 
d="M332 562q37 1 61 22q23 22 24 58q-1 36 -24 58q-24 22 -61 23q-37 -1 -60 -23t-24 -58q1 -36 24 -58q23 -21 60 -22v0zM470 496v-63q-32 38 -79 59q-48 20 -110 20q-84 0 -143 -35q-60 -35 -90 -99q-24 -54 -24 -125q0 -72 24 -124q30 -66 90 -100q59 -35 143 -35
q61 0 108 20q47 19 79 57v-55q0 -36 -11 -63q-14 -32 -47 -48q-32 -16 -81 -16q-33 0 -60 8t-45 24q-21 20 -24 44h-160q9 -72 58 -116q40 -36 101 -51q60 -16 133 -16q100 0 168 31t98 97q23 51 23 124v462h-151zM326 111q-46 0 -80 17q-34 18 -49 52q-7 15 -10 32
q-3 18 -3 41q0 22 3 39q3 18 10 32q15 35 49 52t80 17q63 0 102 -33q39 -32 40 -99v-17q-1 -67 -40 -100t-102 -33v0z" />
    <glyph glyph-name="uni0122" unicode="&#x122;" horiz-adv-x="867" 
d="M448 387v-118h221q-2 -15 -6 -28q-3 -13 -9 -26q-25 -52 -80 -76t-129 -24q-79 0 -135 28q-57 28 -83 86q-11 25 -17 55q-5 30 -5 69q0 40 5 70q6 29 17 54q26 57 82 86q56 28 135 28q51 0 95 -12q43 -13 73 -40q17 -15 29 -36q11 -20 17 -46h171q-7 52 -31 97
q-25 45 -62 78q-53 48 -128 71t-165 23q-139 0 -235 -51q-96 -50 -141 -148q-17 -37 -25 -80q-9 -43 -9 -94t8 -94q9 -43 25 -80q44 -96 140 -147q97 -52 235 -52q131 0 222 48q92 48 135 143q19 42 27 87q9 46 9 100v29h-386zM333 -203h137l52 150h-156z" />
    <glyph glyph-name="uni0123" unicode="&#x123;" horiz-adv-x="675" 
d="M418 713h-137l-52 -149h156zM470 496v-63q-32 38 -79 59q-48 20 -110 20q-84 0 -143 -35q-60 -35 -90 -99q-24 -54 -24 -125q0 -72 24 -124q30 -66 90 -100q59 -35 143 -35q61 0 108 20q47 19 79 57v-55q0 -36 -11 -63q-14 -32 -47 -48q-32 -16 -81 -16q-33 0 -60 8
t-45 24q-21 20 -24 44h-160q9 -72 58 -116q40 -36 101 -51q60 -16 133 -16q100 0 168 31t98 97q23 51 23 124v462h-151zM326 111q-46 0 -80 17q-34 18 -49 52q-7 15 -10 32q-3 18 -3 41q0 22 3 39q3 18 10 32q15 35 49 52t80 17q63 0 102 -33q39 -32 40 -99v-17
q-1 -67 -40 -100t-102 -33v0z" />
    <glyph glyph-name="Hcircumflex" unicode="&#x124;" horiz-adv-x="808" 
d="M174 759h155l75 82l76 -82h155l-135 148h-192zM63 0h160v289h361v-289h161v706h-161v-285h-361v285h-160v-706z" />
    <glyph glyph-name="hcircumflex" unicode="&#x125;" horiz-adv-x="650" 
d="M324 841l76 -82h155l-135 148h-192l-134 -148h155zM388 512q-61 0 -107 -21q-45 -21 -75 -61v276h-152v-706h152v253q0 66 32 103q32 36 95 36q57 0 87 -30q29 -30 29 -94v-268h152v298q-1 105 -56 160q-55 54 -157 54v0z" />
    <glyph glyph-name="Hbar" unicode="&#x126;" horiz-adv-x="808" 
d="M584 706v-94h-361v94h-160v-706h160v289h361v-289h161v706h-161zM223 421v99h361v-99h-361z" />
    <glyph glyph-name="hbar" unicode="&#x127;" horiz-adv-x="650" 
d="M388 512q-61 0 -107 -21q-45 -21 -75 -61v135h195v87h-195v54h-152v-54h-55v-87h55v-565h152v253q0 66 32 103q32 36 95 36q57 0 87 -30q29 -30 29 -94v-268h152v298q-1 105 -56 160q-55 54 -157 54v0z" />
    <glyph glyph-name="Itilde" unicode="&#x128;" horiz-adv-x="286" 
d="M208 756q56 1 82 40t28 110h-87q-1 -29 -7 -44q-7 -16 -25 -16q-10 0 -19 7q-10 6 -22 18q-16 16 -35 26q-20 11 -49 11q-58 -1 -83 -41q-26 -40 -29 -108h87q1 27 8 43q6 15 22 15q12 0 23 -7q10 -7 24 -19q15 -15 34 -25t48 -10v0zM63 0h160v706h-160v-706z" />
    <glyph glyph-name="itilde" unicode="&#x129;" horiz-adv-x="260" 
d="M194 550q53 0 76 41t24 128h-87q-1 -37 -6 -54q-4 -17 -19 -17q-10 0 -18 8t-17 21q-15 21 -33 33q-19 12 -48 12q-54 0 -77 -41t-24 -129h87q1 38 6 55t19 17q10 0 18 -8q8 -7 18 -20q15 -21 33 -33q18 -13 48 -13v0zM54 0h152v496h-152v-496z" />
    <glyph glyph-name="Imacron" unicode="&#x12a;" horiz-adv-x="286" 
d="M-6 779h297v104h-297v-104zM63 0h160v706h-160v-706z" />
    <glyph glyph-name="imacron" unicode="&#x12b;" horiz-adv-x="260" 
d="M-12 586h283v104h-283v-104zM54 0h152v496h-152v-496z" />
    <glyph glyph-name="Ibreve" unicode="&#x12c;" horiz-adv-x="286" 
d="M143 753q83 0 125 40q43 39 45 114h-110q-3 -35 -17 -51q-13 -16 -42 -16q-30 0 -44 16q-14 15 -17 51h-110q2 -75 45 -114q43 -40 125 -40v0zM63 0h160v706h-160v-706z" />
    <glyph glyph-name="ibreve" unicode="&#x12d;" horiz-adv-x="260" 
d="M131 545q78 0 119 44q41 43 43 128h-103q-2 -46 -16 -66q-13 -19 -43 -19q-30 -1 -44 19q-13 19 -14 66h-104q2 -85 43 -128q41 -44 119 -44v0zM54 0h152v496h-152v-496z" />
    <glyph glyph-name="Iogonek" unicode="&#x12e;" horiz-adv-x="286" 
d="M193 -131q-18 0 -28 8q-11 8 -11 25q0 27 18 51q18 23 52 47h-1v706h-160v-706h38q-32 -23 -52 -53q-20 -29 -21 -71q1 -47 36 -70q35 -24 89 -24q22 0 41 3q19 4 36 9v83q-9 -4 -18 -6t-19 -2v0z" />
    <glyph glyph-name="iogonek" unicode="&#x12f;" horiz-adv-x="260" 
d="M130 562q37 1 60 22t24 57q-1 36 -24 58q-23 21 -60 22q-37 -1 -60 -22q-23 -22 -24 -58q1 -36 24 -57t60 -22v0zM136 -98q0 27 18 51q18 23 52 47v496h-152v-496h29q-32 -23 -52 -53q-20 -29 -21 -71q1 -47 36 -70q35 -24 89 -24q22 0 41 3q19 4 36 9v83q-9 -4 -18 -6
t-19 -2q-18 0 -28 8q-11 8 -11 25v0z" />
    <glyph glyph-name="Idotaccent" unicode="&#x130;" horiz-adv-x="286" 
d="M143 760q37 1 61 23q23 23 24 58q-1 36 -24 59q-24 22 -61 23q-38 -1 -62 -23q-23 -23 -24 -59q1 -35 24 -58q24 -22 62 -23v0zM63 0h160v706h-160v-706z" />
    <glyph glyph-name="dotlessi" unicode="&#x131;" horiz-adv-x="260" 
d="M54 0h152v496h-152v-496z" />
    <glyph glyph-name="IJ" unicode="&#x132;" horiz-adv-x="665" 
d="M63 0h160v706h-160v-706zM376 -6q126 0 182 58q57 59 56 180v474h-160v-449q1 -68 -25 -96q-26 -29 -88 -28q-12 0 -23 1q-12 1 -23 3v-137q38 -6 81 -6v0z" />
    <glyph glyph-name="ij" unicode="&#x133;" horiz-adv-x="522" 
d="M131 562q37 1 60 22q22 21 23 57q-1 36 -23 58q-23 21 -60 22q-38 -1 -61 -22q-23 -22 -24 -58q1 -36 24 -57t61 -22v0zM393 562q37 1 60 22t24 57q-1 36 -24 58q-23 21 -60 22q-38 -1 -61 -22q-23 -22 -24 -58q1 -36 24 -57t61 -22v0zM54 0h152v496h-152v-496zM285 -212
q97 -1 141 43q43 43 42 137v528h-151v-515q0 -33 -15 -48q-15 -16 -48 -16h-20l-20 2v-127q17 -2 35 -3t36 -1v0z" />
    <glyph glyph-name="Jcircumflex" unicode="&#x134;" horiz-adv-x="379" 
d="M56 759h141l52 80l54 -80h139l-101 148h-185zM90 -6q126 0 182 58q57 59 56 180v474h-160v-449q1 -68 -25 -96q-26 -29 -88 -28q-12 0 -23 1q-12 1 -23 3v-137q38 -6 81 -6v0z" />
    <glyph glyph-name="jcircumflex" unicode="&#x135;" horiz-adv-x="262" 
d="M-36 553h121l48 93l47 -93h121l-89 164h-158zM25 -212q97 -1 141 43q43 43 42 137v528h-151v-515q0 -33 -15 -48q-15 -16 -48 -16h-20l-20 2v-127q17 -2 35 -3t36 -1v0z" />
    <glyph glyph-name="uni0136" unicode="&#x136;" horiz-adv-x="733" 
d="M372 387l325 319h-200l-274 -274v274h-160v-706h160v331l310 -331h206zM259 -203h137l52 150h-156z" />
    <glyph glyph-name="uni0137" unicode="&#x137;" horiz-adv-x="592" 
d="M346 275l242 221h-199l-183 -173v383h-152v-706h152v224l205 -224h198zM195 -203h137l52 150h-156z" />
    <glyph glyph-name="kgreenlandic" unicode="&#x138;" horiz-adv-x="594" 
d="M611 0l-266 275l243 221h-199l-183 -173v173h-152v-496h152v224l205 -224h200z" />
    <glyph glyph-name="Lacute" unicode="&#x139;" horiz-adv-x="483" 
d="M39 759h158l142 148h-171zM63 0h411v135h-251v571h-160v-706z" />
    <glyph glyph-name="lacute" unicode="&#x13a;" horiz-adv-x="260" 
d="M16 759h158l142 148h-171zM54 0h152v706h-152v-706z" />
    <glyph glyph-name="uni013B" unicode="&#x13b;" horiz-adv-x="483" 
d="M63 0h411v135h-251v571h-160v-706zM163 -203h137l52 150h-156z" />
    <glyph glyph-name="uni013C" unicode="&#x13c;" horiz-adv-x="260" 
d="M54 0h152v706h-152v-706zM22 -203h137l52 150h-156z" />
    <glyph glyph-name="Lcaron" unicode="&#x13d;" horiz-adv-x="483" 
d="M63 0h411v135h-251v571h-160v-706zM272 534h122l51 172h-143z" />
    <glyph glyph-name="lcaron" unicode="&#x13e;" horiz-adv-x="392" 
d="M54 0h152v706h-152v-706zM237 534h122l51 172h-143z" />
    <glyph glyph-name="Ldot" unicode="&#x13f;" horiz-adv-x="556" 
d="M63 0h411v135h-251v571h-160v-706zM421 324q40 1 65 25q24 24 25 64q-1 42 -25 65q-25 24 -65 24q-41 0 -66 -24q-24 -23 -25 -65q1 -40 25 -64q25 -24 66 -25v0z" />
    <glyph glyph-name="ldot" unicode="&#x140;" horiz-adv-x="456" 
d="M54 0h152v706h-152v-706zM358 281q40 1 65 25q24 24 25 64q-1 42 -25 65q-25 24 -65 24q-41 0 -65 -24q-24 -23 -25 -65q1 -40 25 -64q25 -24 65 -25v0z" />
    <glyph glyph-name="Lslash" unicode="&#x141;" horiz-adv-x="483" 
d="M223 135v216l154 90v114l-154 -90v241h-160v-313l-65 -39v-112l65 38v-280h411v135h-251z" />
    <glyph glyph-name="lslash" unicode="&#x142;" horiz-adv-x="280" 
d="M284 525l-71 -47v228h-152v-305l-66 -44v-118l66 44v-283h152v358l71 49v118z" />
    <glyph glyph-name="Nacute" unicode="&#x143;" horiz-adv-x="824" 
d="M302 759h158l142 148h-171zM63 0h157v493l365 -493h176v706h-157v-499l-369 499h-172v-706z" />
    <glyph glyph-name="nacute" unicode="&#x144;" horiz-adv-x="650" 
d="M497 716h-162l-111 -163h147zM388 512q-61 0 -107 -21q-45 -21 -75 -61v66h-152v-496h152v253q0 66 32 103q32 36 95 36q57 0 87 -30q29 -30 29 -94v-268h152v298q-1 105 -56 160q-55 54 -157 54v0z" />
    <glyph glyph-name="uni0145" unicode="&#x145;" horiz-adv-x="824" 
d="M63 0h157v493l365 -493h176v706h-157v-499l-369 499h-172v-706zM293 -203h137l52 150h-156z" />
    <glyph glyph-name="uni0146" unicode="&#x146;" horiz-adv-x="650" 
d="M388 512q-61 0 -107 -21q-45 -21 -75 -61v66h-152v-496h152v253q0 66 32 103q32 36 95 36q57 0 87 -30q29 -30 29 -94v-268h152v298q-1 105 -56 160q-55 54 -157 54v0zM220 -203h137l52 150h-156z" />
    <glyph glyph-name="Ncaron" unicode="&#x147;" horiz-adv-x="824" 
d="M646 907h-155l-75 -82l-76 82h-155l135 -148h192zM63 0h157v493l365 -493h176v706h-157v-499l-369 499h-172v-706z" />
    <glyph glyph-name="ncaron" unicode="&#x148;" horiz-adv-x="650" 
d="M420 554l117 164h-142l-66 -95l-68 95h-141l116 -164h184zM388 512q-61 0 -107 -21q-45 -21 -75 -61v66h-152v-496h152v253q0 66 32 103q32 36 95 36q57 0 87 -30q29 -30 29 -94v-268h152v298q-1 105 -56 160q-55 54 -157 54v0z" />
    <glyph glyph-name="napostrophe" unicode="&#x149;" horiz-adv-x="839" 
d="M100 706l-71 -290h117l112 290h-158zM577 512q-61 0 -107 -21q-45 -21 -75 -61v66h-152v-496h152v253q0 66 32 103q32 36 95 36q57 0 87 -30q29 -30 29 -94v-268h152v298q-1 105 -56 160q-55 54 -157 54v0z" />
    <glyph glyph-name="Eng" unicode="&#x14a;" horiz-adv-x="824" 
d="M604 706v-467l-369 467h-172v-706h157v493l384 -485v-25q0 -31 -16 -46q-16 -16 -50 -16q-16 0 -38 3v-127q19 -2 37 -3t37 -1q98 0 143 42q45 43 44 135v736h-157z" />
    <glyph glyph-name="eng" unicode="&#x14b;" horiz-adv-x="650" 
d="M387 512q-61 0 -106 -21t-75 -61v66h-152v-496h152v253q0 66 32 103q32 36 95 36q57 0 87 -30q29 -30 29 -94v-282q0 -33 -15 -48q-15 -16 -48 -16h-19l-20 2v-127q33 -5 71 -5q96 0 140 43q44 44 43 137v326q-1 105 -56 160q-55 54 -158 54v0z" />
    <glyph glyph-name="Omacron" unicode="&#x14c;" horiz-adv-x="873" 
d="M257 780h360v106h-360v-106zM436 -20q137 1 231 51t137 143q18 38 27 84q9 45 9 95t-9 94t-26 82q-43 94 -136 145q-94 51 -232 52q-139 -1 -233 -52q-94 -52 -137 -148q-17 -38 -26 -81q-8 -44 -8 -92q0 -50 9 -94q8 -44 25 -82q43 -95 137 -146q94 -50 232 -51v0z
M437 119q-79 0 -132 30q-53 29 -78 83q-11 25 -17 55q-5 29 -5 66t5 67q6 30 17 55q25 54 78 83t131 29q79 0 132 -29t78 -83q11 -25 17 -55q5 -30 5 -67t-5 -66q-5 -30 -16 -55q-25 -54 -78 -83q-53 -30 -132 -30v0z" />
    <glyph glyph-name="omacron" unicode="&#x14d;" horiz-adv-x="666" 
d="M156 586h355v104h-355v-104zM333 -15q107 0 181 39q73 38 106 110q23 50 23 114t-23 115q-33 72 -106 110q-74 39 -181 39t-181 -40q-73 -39 -106 -112q-22 -49 -22 -112q0 -61 22 -112q33 -73 106 -112q74 -39 181 -39v0zM333 104q-50 0 -85 19q-36 19 -52 54
q-13 29 -13 71q0 44 13 72q16 35 52 54q35 18 85 18t85 -18q36 -18 52 -54q13 -28 13 -72q0 -22 -3 -39q-3 -18 -10 -33q-16 -35 -52 -54q-35 -18 -85 -18v0z" />
    <glyph glyph-name="Obreve" unicode="&#x14e;" horiz-adv-x="873" 
d="M438 755q96 0 146 40q49 39 53 112h-109q-6 -34 -27 -50t-63 -16t-64 16t-26 50h-112q4 -73 55 -112q50 -40 147 -40v0zM436 -20q137 1 231 51t137 143q18 38 27 84q9 45 9 95t-9 94t-26 82q-43 94 -136 145q-94 51 -232 52q-139 -1 -233 -52q-94 -52 -137 -148
q-17 -38 -26 -81q-8 -44 -8 -92q0 -50 9 -94q8 -44 25 -82q43 -95 137 -146q94 -50 232 -51v0zM437 119q-79 0 -132 30q-53 29 -78 83q-11 25 -17 55q-5 29 -5 66t5 67q6 30 17 55q25 54 78 83t131 29q79 0 132 -29t78 -83q11 -25 17 -55q5 -30 5 -67t-5 -66q-5 -30 -16 -55
q-25 -54 -78 -83q-53 -30 -132 -30v0z" />
    <glyph glyph-name="obreve" unicode="&#x14f;" horiz-adv-x="666" 
d="M334 546q97 0 146 44q49 43 53 127h-109q-5 -43 -26 -63q-20 -20 -64 -20q-42 0 -63 20t-26 63h-110q5 -84 55 -127q49 -44 144 -44v0zM333 -15q107 0 181 39q73 38 106 110q23 50 23 114t-23 115q-33 72 -106 110q-74 39 -181 39t-181 -40q-73 -39 -106 -112
q-22 -49 -22 -112q0 -61 22 -112q33 -73 106 -112q74 -39 181 -39v0zM333 104q-50 0 -85 19q-36 19 -52 54q-13 29 -13 71q0 44 13 72q16 35 52 54q35 18 85 18t85 -18q36 -18 52 -54q13 -28 13 -72q0 -22 -3 -39q-3 -18 -10 -33q-16 -35 -52 -54q-35 -18 -85 -18v0z" />
    <glyph glyph-name="Ohungarumlaut" unicode="&#x150;" horiz-adv-x="873" 
d="M249 759h125l139 148h-143zM455 759h125l139 148h-143zM436 -20q137 1 231 51t137 143q18 38 27 84q9 45 9 95t-9 94t-26 82q-43 94 -136 145q-94 51 -232 52q-139 -1 -233 -52q-94 -52 -137 -148q-17 -38 -26 -81q-8 -44 -8 -92q0 -50 9 -94q8 -44 25 -82
q43 -95 137 -146q94 -50 232 -51v0zM437 119q-79 0 -132 30q-53 29 -78 83q-11 25 -17 55q-5 29 -5 66t5 67q6 30 17 55q25 54 78 83t131 29q79 0 132 -29t78 -83q11 -25 17 -55q5 -30 5 -67t-5 -66q-5 -30 -16 -55q-25 -54 -78 -83q-53 -30 -132 -30v0z" />
    <glyph glyph-name="ohungarumlaut" unicode="&#x151;" horiz-adv-x="666" 
d="M144 553h124l133 164h-142zM354 553h123l133 164h-141zM333 -15q107 0 181 39q73 38 106 110q23 50 23 114t-23 115q-33 72 -106 110q-74 39 -181 39t-181 -40q-73 -39 -106 -112q-22 -49 -22 -112q0 -61 22 -112q33 -73 106 -112q74 -39 181 -39v0zM333 104
q-50 0 -85 19q-36 19 -52 54q-13 29 -13 71q0 44 13 72q16 35 52 54q35 18 85 18t85 -18q36 -18 52 -54q13 -28 13 -72q0 -22 -3 -39q-3 -18 -10 -33q-16 -35 -52 -54q-35 -18 -85 -18v0z" />
    <glyph glyph-name="OE" unicode="&#x152;" horiz-adv-x="1209" 
d="M1168 578v128h-546v-28q-39 21 -88 32q-48 11 -109 11q-132 0 -223 -49q-92 -49 -134 -142q-18 -38 -26 -83q-9 -45 -9 -94q0 -50 9 -95t26 -83q42 -93 133 -141q91 -49 222 -49q62 0 112 12q50 11 89 33v-30h544v128h-369v166h366v125h-366v159h369zM424 118
q-72 0 -122 28q-50 29 -74 82q-12 25 -17 56q-6 30 -6 69t5 70q6 31 17 56q24 53 74 80q50 28 123 28t123 -27q50 -28 74 -81q12 -26 17 -56q5 -31 5 -70t-5 -69t-16 -56q-24 -53 -74 -81q-50 -29 -124 -29v0z" />
    <glyph glyph-name="oe" unicode="&#x153;" horiz-adv-x="1027" 
d="M822 128q-15 -17 -39 -26q-24 -10 -57 -10q-45 0 -76 19q-31 18 -46 52q-9 19 -12 46h411q0 46 -6 85q-7 39 -21 73q-31 67 -96 106q-64 38 -162 39q-65 0 -116 -18q-52 -19 -87 -54q-35 35 -87 54q-52 18 -118 18q-97 0 -164 -37q-67 -38 -98 -107q-24 -52 -24 -120
q0 -67 24 -120q31 -69 98 -106t164 -37q66 0 118 19q52 18 87 53q37 -35 91 -54t124 -19q65 0 122 17q56 18 94 56q21 21 35 49t19 62h-158q-2 -11 -7 -21q-5 -11 -13 -19v0zM720 406q43 0 72 -17q30 -17 44 -48q8 -18 11 -41h-254q2 12 5 22q3 9 7 19q14 32 43 48
q29 17 72 17v0zM420 166q-13 -29 -41 -45q-28 -17 -69 -17t-69 17q-27 16 -41 46q-7 17 -11 37q-3 21 -3 44t3 44q4 21 11 37q14 30 41 47q28 16 69 16t69 -16q28 -17 41 -46q8 -17 12 -37q3 -21 3 -45q0 -23 -3 -44q-4 -21 -12 -38v0z" />
    <glyph glyph-name="Racute" unicode="&#x154;" horiz-adv-x="720" 
d="M534 907h-171l-129 -148h158zM527 0h198l-252 277q68 6 113 35t67 79q10 21 15 47q5 27 5 56q0 56 -19 96q-27 58 -86 87q-60 29 -150 29h-355v-706h160v275h64zM223 584h152q48 0 81 -11q32 -12 45 -41q9 -17 9 -44q0 -29 -9 -50q-13 -27 -45 -39q-31 -11 -81 -11h-152
v196z" />
    <glyph glyph-name="racute" unicode="&#x155;" horiz-adv-x="398" 
d="M108 553h147l126 163h-162zM54 0h152v334q0 22 3 31t13 13q11 -21 31 -33t47 -12q39 1 63 25q23 23 24 63q0 40 -25 64q-24 24 -67 25q-27 0 -49 -13t-41 -41v40h-151v-496z" />
    <glyph glyph-name="uni0156" unicode="&#x156;" horiz-adv-x="720" 
d="M473 277q68 6 113 35t67 79q10 21 15 47q5 27 5 56q0 56 -19 96q-27 58 -86 87q-60 29 -150 29h-355v-706h160v275h64l240 -275h198zM223 584h152q48 0 81 -11q32 -12 45 -41q9 -17 9 -44q0 -29 -9 -50q-13 -27 -45 -39q-31 -11 -81 -11h-152v196zM260 -203h137l52 150
h-156z" />
    <glyph glyph-name="uni0157" unicode="&#x157;" horiz-adv-x="398" 
d="M54 0h152v334q0 22 3 31t13 13q11 -21 31 -33t47 -12q39 1 63 25q23 23 24 63q0 40 -25 64q-24 24 -67 25q-27 0 -49 -13t-41 -41v40h-151v-496zM17 -203h137l52 150h-156z" />
    <glyph glyph-name="Rcaron" unicode="&#x158;" horiz-adv-x="720" 
d="M444 759l134 148h-155l-75 -82l-76 82h-155l135 -148h192zM527 0h198l-252 277q68 6 113 35t67 79q10 21 15 47q5 27 5 56q0 56 -19 96q-27 58 -86 87q-60 29 -150 29h-355v-706h160v275h64zM223 584h152q48 0 81 -11q32 -12 45 -41q9 -17 9 -44q0 -29 -9 -50
q-13 -27 -45 -39q-31 -11 -81 -11h-152v196z" />
    <glyph glyph-name="rcaron" unicode="&#x159;" horiz-adv-x="398" 
d="M421 718h-142l-66 -95l-68 95h-141l116 -164h184zM54 0h152v334q0 22 3 31t13 13q11 -21 31 -33t47 -12q39 1 63 25q23 23 24 63q0 40 -25 64q-24 24 -67 25q-27 0 -49 -13t-41 -41v40h-151v-496z" />
    <glyph glyph-name="Sacute" unicode="&#x15a;" horiz-adv-x="726" 
d="M244 759h158l142 148h-172zM365 -20q115 0 197 34t116 104q17 38 17 86q0 24 -4 44q-3 20 -11 37q-29 59 -94 89t-148 46q-76 16 -137 32q-60 16 -79 51q-3 6 -4 12q-1 7 -1 14t1 14q1 6 4 13q13 27 50 40q36 13 83 13q52 0 87 -15q35 -16 50 -49q5 -11 8 -24
q2 -13 3 -29h166q0 27 -4 50q-5 23 -14 44q-33 70 -110 105t-183 35q-107 0 -185 -35t-109 -101q-15 -34 -16 -78q0 -22 4 -40q3 -18 10 -34q26 -52 82 -82q57 -30 135 -46q79 -15 146 -32q66 -18 88 -58q7 -13 7 -31q0 -16 -7 -33q-14 -28 -53 -42q-38 -13 -91 -13
q-59 0 -99 17q-41 16 -57 52q-11 24 -11 55h-171q0 -28 5 -53t15 -47q33 -72 114 -108q81 -37 200 -37v0z" />
    <glyph glyph-name="sacute" unicode="&#x15b;" horiz-adv-x="556" 
d="M176 553h147l126 163h-162zM276 -17q85 0 151 24t92 78q12 27 12 62q0 16 -2 29q-3 14 -9 26q-19 42 -64 65t-111 36q-47 8 -89 19q-42 10 -56 33q-4 8 -4 17q0 5 1 9q1 5 3 9q7 15 26 22q20 7 50 7t52 -9q23 -10 33 -31q6 -13 6 -32h147q0 18 -3 34q-4 17 -10 31
q-25 52 -84 76q-60 24 -139 24q-78 0 -139 -23q-60 -24 -85 -75q-6 -13 -9 -27t-3 -30t3 -30q3 -13 8 -25q21 -43 65 -64q43 -21 97 -31q71 -13 107 -23q37 -11 46 -30q2 -5 3 -10t1 -10q0 -6 -1 -11t-3 -9q-8 -16 -31 -24q-24 -7 -57 -7q-36 0 -61 10q-24 11 -35 34
q-4 8 -6 18q-2 9 -2 20h-151q0 -22 4 -41t12 -36q25 -54 86 -80q61 -25 149 -25v0z" />
    <glyph glyph-name="Scircumflex" unicode="&#x15c;" horiz-adv-x="726" 
d="M131 759h154l75 82l76 -82h155l-135 148h-192zM365 -20q115 0 197 34t116 104q17 38 17 86q0 24 -4 44q-3 20 -11 37q-29 59 -94 89t-148 46q-76 16 -137 32q-60 16 -79 51q-3 6 -4 12q-1 7 -1 14t1 14q1 6 4 13q13 27 50 40q36 13 83 13q52 0 87 -15q35 -16 50 -49
q5 -11 8 -24q2 -13 3 -29h166q0 27 -4 50q-5 23 -14 44q-33 70 -110 105t-183 35q-107 0 -185 -35t-109 -101q-15 -34 -16 -78q0 -22 4 -40q3 -18 10 -34q26 -52 82 -82q57 -30 135 -46q79 -15 146 -32q66 -18 88 -58q7 -13 7 -31q0 -16 -7 -33q-14 -28 -53 -42
q-38 -13 -91 -13q-59 0 -99 17q-41 16 -57 52q-11 24 -11 55h-171q0 -28 5 -53t15 -47q33 -72 114 -108q81 -37 200 -37v0z" />
    <glyph glyph-name="scircumflex" unicode="&#x15d;" horiz-adv-x="556" 
d="M72 553h142l66 94l68 -94h141l-116 164h-184zM276 -17q85 0 151 24t92 78q12 27 12 62q0 16 -2 29q-3 14 -9 26q-19 42 -64 65t-111 36q-47 8 -89 19q-42 10 -56 33q-4 8 -4 17q0 5 1 9q1 5 3 9q7 15 26 22q20 7 50 7t52 -9q23 -10 33 -31q6 -13 6 -32h147q0 18 -3 34
q-4 17 -10 31q-25 52 -84 76q-60 24 -139 24q-78 0 -139 -23q-60 -24 -85 -75q-6 -13 -9 -27t-3 -30t3 -30q3 -13 8 -25q21 -43 65 -64q43 -21 97 -31q71 -13 107 -23q37 -11 46 -30q2 -5 3 -10t1 -10q0 -6 -1 -11t-3 -9q-8 -16 -31 -24q-24 -7 -57 -7q-36 0 -61 10
q-24 11 -35 34q-4 8 -6 18q-2 9 -2 20h-151q0 -22 4 -41t12 -36q25 -54 86 -80q61 -25 149 -25v0z" />
    <glyph glyph-name="Scedilla" unicode="&#x15e;" horiz-adv-x="726" 
d="M680 285q-29 59 -94 89t-148 46q-76 16 -137 32q-60 16 -79 51q-3 6 -4 12q-1 7 -1 14t1 14q1 6 4 13q13 27 50 40q36 13 83 13q52 0 87 -15q35 -16 50 -49q5 -11 8 -24q2 -13 3 -29h166q0 27 -4 50q-5 23 -14 44q-33 70 -110 105t-183 35q-107 0 -185 -35t-109 -101
q-15 -34 -16 -78q0 -22 4 -40q3 -18 10 -34q26 -52 82 -82q57 -30 135 -46q79 -15 146 -32q66 -18 88 -58q7 -13 7 -31q0 -16 -7 -33q-14 -28 -53 -42q-38 -13 -91 -13q-59 0 -99 17q-41 16 -57 52q-11 24 -11 55h-171q0 -28 5 -53t15 -47q27 -61 90 -96q62 -35 153 -45
l-21 -65h70q36 0 53 -8q17 -7 17 -23q0 -19 -18 -26t-48 -7q-24 0 -44 3q-21 4 -42 11l-18 -74q27 -9 55 -13q29 -5 62 -5q72 -1 115 23q43 23 44 82q0 44 -25 70q-26 27 -80 30q97 6 166 40q69 33 98 96q17 38 17 86q0 24 -4 44q-3 20 -11 37v0z" />
    <glyph glyph-name="scedilla" unicode="&#x15f;" horiz-adv-x="556" 
d="M520 202q-19 42 -64 65t-111 36q-47 8 -89 19q-42 10 -56 33q-4 8 -4 17q0 5 1 9q1 5 3 9q7 15 26 22q20 7 50 7t52 -9q23 -10 33 -31q6 -13 6 -32h147q0 18 -3 34q-4 17 -10 31q-25 52 -84 76q-60 24 -139 24q-78 0 -139 -23q-60 -24 -85 -75q-6 -13 -9 -27t-3 -30
t3 -30q3 -13 8 -25q21 -43 65 -64q43 -21 97 -31q71 -13 107 -23q37 -11 46 -30q2 -5 3 -10t1 -10q0 -6 -1 -11t-3 -9q-8 -16 -31 -24q-24 -7 -57 -7q-36 0 -61 10q-24 11 -35 34q-4 8 -6 18q-2 9 -2 20h-151q0 -22 4 -41t12 -36q21 -44 65 -69t107 -32l-21 -68h70
q36 0 53 -8q17 -7 17 -23q0 -19 -18 -26t-48 -7q-24 0 -44 3q-21 4 -42 11l-18 -74q26 -9 55 -13q28 -5 61 -5q73 -1 116 23q43 23 44 82q0 46 -28 72q-28 27 -88 28l1 3q69 5 122 29q52 25 74 71q12 27 12 62q0 16 -2 29q-3 14 -9 26v0z" />
    <glyph glyph-name="Scaron" unicode="&#x160;" horiz-adv-x="726" 
d="M589 907h-154l-75 -82l-76 82h-155l135 -148h192zM365 -20q115 0 197 34t116 104q17 38 17 86q0 24 -4 44q-3 20 -11 37q-29 59 -94 89t-148 46q-76 16 -137 32q-60 16 -79 51q-3 6 -4 12q-1 7 -1 14t1 14q1 6 4 13q13 27 50 40q36 13 83 13q52 0 87 -15q35 -16 50 -49
q5 -11 8 -24q2 -13 3 -29h166q0 27 -4 50q-5 23 -14 44q-33 70 -110 105t-183 35q-107 0 -185 -35t-109 -101q-15 -34 -16 -78q0 -22 4 -40q3 -18 10 -34q26 -52 82 -82q57 -30 135 -46q79 -15 146 -32q66 -18 88 -58q7 -13 7 -31q0 -16 -7 -33q-14 -28 -53 -42
q-38 -13 -91 -13q-59 0 -99 17q-41 16 -57 52q-11 24 -11 55h-171q0 -28 5 -53t15 -47q33 -72 114 -108q81 -37 200 -37v0z" />
    <glyph glyph-name="scaron" unicode="&#x161;" horiz-adv-x="556" 
d="M489 718h-142l-66 -95l-68 95h-141l116 -164h184zM276 -17q85 0 151 24t92 78q12 27 12 62q0 16 -2 29q-3 14 -9 26q-19 42 -64 65t-111 36q-47 8 -89 19q-42 10 -56 33q-4 8 -4 17q0 5 1 9q1 5 3 9q7 15 26 22q20 7 50 7t52 -9q23 -10 33 -31q6 -13 6 -32h147
q0 18 -3 34q-4 17 -10 31q-25 52 -84 76q-60 24 -139 24q-78 0 -139 -23q-60 -24 -85 -75q-6 -13 -9 -27t-3 -30t3 -30q3 -13 8 -25q21 -43 65 -64q43 -21 97 -31q71 -13 107 -23q37 -11 46 -30q2 -5 3 -10t1 -10q0 -6 -1 -11t-3 -9q-8 -16 -31 -24q-24 -7 -57 -7
q-36 0 -61 10q-24 11 -35 34q-4 8 -6 18q-2 9 -2 20h-151q0 -22 4 -41t12 -36q25 -54 86 -80q61 -25 149 -25v0z" />
    <glyph glyph-name="uni0162" unicode="&#x162;" horiz-adv-x="571" 
d="M366 0v574h196v132h-553v-132h197v-574h13l-25 -78h70q36 0 53 -8q17 -7 17 -23q0 -19 -18 -26t-48 -7q-24 0 -44 3q-21 4 -42 11l-18 -74q26 -9 55 -13q28 -5 61 -5q73 -1 116 23q43 23 44 82q0 46 -28 72q-28 27 -88 28l5 15h37z" />
    <glyph glyph-name="uni0163" unicode="&#x163;" horiz-adv-x="427" 
d="M298 -15l2 5q26 1 52 4t50 8v119q-38 -9 -67 -9q-39 0 -60 20q-21 21 -21 67v179h152v118h-152v121h-152v-121h-83v-118h83v-211q0 -65 23 -105q23 -41 69 -58l-26 -82h70q36 0 53 -8q17 -7 17 -23q0 -19 -18 -26t-48 -7q-24 0 -44 3q-21 4 -42 11l-18 -74q26 -9 55 -13
q28 -5 61 -5q73 -1 116 23q43 23 44 82q0 46 -28 72q-28 27 -88 28v0z" />
    <glyph glyph-name="Tcaron" unicode="&#x164;" horiz-adv-x="571" 
d="M516 907h-155l-75 -82l-76 82h-155l135 -148h192zM206 0h160v574h196v132h-553v-132h197v-574z" />
    <glyph glyph-name="tcaron" unicode="&#x165;" horiz-adv-x="482" 
d="M295 534h122l51 172h-143zM285 -10q29 0 59 3q30 4 58 9v119q-38 -9 -67 -9q-39 0 -60 20q-21 21 -21 67v179h152v118h-152v121h-152v-121h-83v-118h83v-211q0 -91 45 -134t138 -43v0z" />
    <glyph glyph-name="Tbar" unicode="&#x166;" horiz-adv-x="571" 
d="M562 574v132h-553v-132h197v-147h-141v-100h141v-327h160v327h139v100h-139v147h196z" />
    <glyph glyph-name="tbar" unicode="&#x167;" horiz-adv-x="427" 
d="M406 378v118h-152v121h-152v-121h-83v-118h83v-71h-83v-89h83v-51q0 -91 45 -134t138 -43q29 0 59 3q30 4 58 9v119q-38 -9 -67 -9q-39 0 -60 20q-21 21 -21 67v19h151v89h-151v71h152z" />
    <glyph glyph-name="Utilde" unicode="&#x168;" horiz-adv-x="770" 
d="M480 751q61 0 94 41q33 40 36 117h-101q-4 -29 -15 -44q-12 -15 -33 -15q-17 0 -32 8q-15 7 -34 20q-25 16 -49 26q-23 10 -53 10q-63 0 -96 -41q-34 -40 -39 -118h99q3 29 14 45q12 15 34 15q17 0 33 -8q17 -8 39 -22q21 -13 45 -23q25 -10 58 -11v0zM385 -20
q171 0 253 74q82 73 81 224v428h-161v-416q0 -89 -42 -131t-132 -42t-131 42q-42 42 -42 131v416h-160v-428q-1 -150 81 -224t253 -74v0z" />
    <glyph glyph-name="utilde" unicode="&#x169;" horiz-adv-x="650" 
d="M248 625q18 -1 34 -12t34 -26q20 -17 43 -27t54 -10q60 0 90 42q29 42 32 127h-95q-3 -35 -12 -54q-9 -18 -30 -18q-17 0 -31 11q-14 10 -32 25q-25 20 -48 29q-23 10 -51 10q-62 0 -91 -43q-29 -44 -34 -127h94q3 35 12 54q10 19 31 19v0zM444 496v-253q0 -66 -32 -102
q-32 -37 -95 -37q-57 0 -86 30q-30 30 -30 94v268h-152v-298q1 -105 56 -159q55 -55 157 -55q61 0 107 21q45 21 75 61v-66h152v496h-152z" />
    <glyph glyph-name="Umacron" unicode="&#x16a;" horiz-adv-x="770" 
d="M205 780h360v106h-360v-106zM385 -20q171 0 253 74q82 73 81 224v428h-161v-416q0 -89 -42 -131t-132 -42t-131 42q-42 42 -42 131v416h-160v-428q-1 -150 81 -224t253 -74v0z" />
    <glyph glyph-name="umacron" unicode="&#x16b;" horiz-adv-x="650" 
d="M501 690h-355v-104h355v104zM444 496v-253q0 -66 -32 -102q-32 -37 -95 -37q-57 0 -86 30q-30 30 -30 94v268h-152v-298q1 -105 56 -159q55 -55 157 -55q61 0 107 21q45 21 75 61v-66h152v496h-152z" />
    <glyph glyph-name="Ubreve" unicode="&#x16c;" horiz-adv-x="770" 
d="M386 755q96 0 146 40q49 39 53 112h-109q-6 -34 -27 -50t-63 -16t-64 16t-26 50h-112q4 -73 55 -112q50 -40 147 -40v0zM385 -20q171 0 253 74q82 73 81 224v428h-161v-416q0 -89 -42 -131t-132 -42t-131 42q-42 42 -42 131v416h-160v-428q-1 -150 81 -224t253 -74v0z
" />
    <glyph glyph-name="ubreve" unicode="&#x16d;" horiz-adv-x="650" 
d="M323 546q97 0 146 44q49 43 53 127h-109q-5 -43 -26 -63q-20 -20 -64 -20q-42 0 -63 20t-26 63h-110q5 -84 55 -127q49 -44 144 -44v0zM444 496v-253q0 -66 -32 -102q-32 -37 -95 -37q-57 0 -86 30q-30 30 -30 94v268h-152v-298q1 -105 56 -159q55 -55 157 -55
q61 0 107 21q45 21 75 61v-66h152v496h-152z" />
    <glyph glyph-name="Uring" unicode="&#x16e;" horiz-adv-x="770" 
d="M385 729q63 1 100 33q38 32 39 90q-1 56 -39 89q-38 32 -100 33q-63 -1 -101 -33t-39 -89q1 -58 39 -90t101 -33v0zM385 800q-27 0 -42 14t-15 38t15 38t42 14q26 0 41 -14t15 -38t-15 -38t-41 -14v0zM385 -20q171 0 253 74q82 73 81 224v428h-161v-416q0 -89 -42 -131
t-132 -42t-131 42q-42 42 -42 131v416h-160v-428q-1 -150 81 -224t253 -74v0z" />
    <glyph glyph-name="uring" unicode="&#x16f;" horiz-adv-x="650" 
d="M323 543q63 1 100 33q38 32 39 90q-1 56 -39 89q-38 32 -100 33q-63 -1 -101 -33t-39 -89q1 -58 39 -90t101 -33v0zM323 718q26 0 41 -14t15 -38t-15 -38t-41 -14q-27 0 -42 14t-15 38t15 38t42 14v0zM444 496v-253q0 -66 -32 -102q-32 -37 -95 -37q-57 0 -86 30
q-30 30 -30 94v268h-152v-298q1 -105 56 -159q55 -55 157 -55q61 0 107 21q45 21 75 61v-66h152v496h-152z" />
    <glyph glyph-name="Uhungarumlaut" unicode="&#x170;" horiz-adv-x="770" 
d="M198 759h125l139 148h-143zM404 759h125l139 148h-143zM385 -20q171 0 253 74q82 73 81 224v428h-161v-416q0 -89 -42 -131t-132 -42t-131 42q-42 42 -42 131v416h-160v-428q-1 -150 81 -224t253 -74v0z" />
    <glyph glyph-name="uhungarumlaut" unicode="&#x171;" horiz-adv-x="650" 
d="M391 717h-142l-115 -164h124zM467 553l133 164h-141l-115 -164h123zM444 243q0 -66 -32 -102q-32 -37 -95 -37q-57 0 -86 30q-30 30 -30 94v268h-152v-298q1 -105 56 -159q55 -55 157 -55q61 0 107 21q45 21 75 61v-66h152v496h-152v-253z" />
    <glyph glyph-name="Uogonek" unicode="&#x172;" horiz-adv-x="770" 
d="M558 706v-416q0 -89 -42 -131t-132 -42t-131 42q-42 42 -42 131v416h-160v-428q-1 -150 81 -224t253 -74h23q-24 -19 -37 -42q-14 -24 -14 -53q1 -52 39 -77q39 -26 99 -26q24 0 45 3q21 4 40 9v81q-11 -4 -23 -6t-24 -2q-23 0 -36 10t-13 31q0 27 23 52q24 24 70 51
q65 36 103 98q38 61 39 169v428h-161z" />
    <glyph glyph-name="uogonek" unicode="&#x173;" horiz-adv-x="650" 
d="M553 -131q-23 0 -36 9q-14 9 -14 28q0 26 24 48t70 46h-1v496h-152v-253q0 -66 -32 -102q-32 -37 -95 -37q-57 0 -86 30q-30 30 -30 94v268h-152v-298q1 -105 56 -159q55 -55 157 -55q61 0 107 21q45 21 75 61v-66h28q-43 -22 -68 -51q-26 -29 -27 -70q1 -49 39 -73
t96 -24q51 1 87 13v82q-11 -4 -23 -6q-11 -2 -23 -2v0z" />
    <glyph glyph-name="Wcircumflex" unicode="&#x174;" horiz-adv-x="1124" 
d="M563 841l76 -82h155l-135 148h-192l-134 -148h155zM962 706l-158 -494l-155 494h-172l-156 -495l-159 495h-169l240 -706h166l164 509l163 -509h167l238 706h-169z" />
    <glyph glyph-name="wcircumflex" unicode="&#x175;" horiz-adv-x="928" 
d="M462 647l68 -94h141l-116 164h-184l-117 -164h142zM764 496l-113 -324l-114 324h-147l-114 -323l-112 323h-164l197 -496h156l111 317l111 -317h155l198 496h-164z" />
    <glyph glyph-name="Ycircumflex" unicode="&#x176;" horiz-adv-x="706" 
d="M124 759h155l75 82l76 -82h155l-135 148h-192zM273 0h160v307l279 399h-183l-176 -256l-176 256h-184l280 -399v-307z" />
    <glyph glyph-name="ycircumflex" unicode="&#x177;" horiz-adv-x="611" 
d="M306 647l68 -94h141l-116 164h-184l-117 -164h142zM451 496l-144 -342l-142 342h-165l226 -491l-101 -208h156l95 203l235 496h-160z" />
    <glyph glyph-name="Ydieresis" unicode="&#x178;" horiz-adv-x="706" 
d="M225 760q35 1 58 22q22 21 23 55q-1 34 -23 56q-23 21 -58 22q-36 -1 -58 -22q-22 -22 -23 -56q1 -34 23 -55t58 -22v0zM481 760q35 1 58 22q22 21 23 55q-1 34 -23 56q-23 21 -58 22q-36 -1 -58 -22q-22 -22 -23 -56q1 -34 23 -55t58 -22v0zM273 0h160v307l279 399h-183
l-176 -256l-176 256h-184l280 -399v-307z" />
    <glyph glyph-name="Zacute" unicode="&#x179;" horiz-adv-x="695" 
d="M229 759h158l142 148h-171zM10 0h671v132h-392l385 574h-646v-132h374z" />
    <glyph glyph-name="zacute" unicode="&#x17a;" horiz-adv-x="545" 
d="M447 716h-162l-111 -163h147zM534 496h-499v-118h248l-277 -378h522v119h-262z" />
    <glyph glyph-name="Zdotaccent" unicode="&#x17b;" horiz-adv-x="695" 
d="M343 760q37 1 61 23q23 23 24 58q-1 36 -24 59q-24 22 -61 23q-38 -1 -62 -23q-23 -23 -24 -59q1 -35 24 -58q24 -22 62 -23v0zM10 0h671v132h-392l385 574h-646v-132h374z" />
    <glyph glyph-name="zdotaccent" unicode="&#x17c;" horiz-adv-x="545" 
d="M278 562q37 1 61 22q23 22 24 58q-1 36 -24 58q-24 22 -61 23q-37 -1 -60 -23t-24 -58q1 -36 24 -58q23 -21 60 -22v0zM534 496h-499v-118h248l-277 -378h522v119h-262z" />
    <glyph glyph-name="Zcaron" unicode="&#x17d;" horiz-adv-x="695" 
d="M573 907h-155l-75 -82l-76 82h-155l135 -148h192zM10 0h671v132h-392l385 574h-646v-132h374z" />
    <glyph glyph-name="zcaron" unicode="&#x17e;" horiz-adv-x="545" 
d="M370 554l117 164h-142l-66 -95l-68 95h-141l116 -164h184zM534 496h-499v-118h248l-277 -378h522v119h-262z" />
    <glyph glyph-name="uni018F" unicode="&#x18f;" horiz-adv-x="867" 
d="M800 527q-45 98 -141 148q-96 51 -235 51q-90 0 -164 -23q-75 -23 -128 -71q-37 -33 -62 -78t-31 -97h170q6 26 17 46q12 21 29 36q30 27 74 40q43 12 94 12q79 0 135 -28q56 -29 82 -86q9 -19 14 -41q6 -22 7 -49h-628v-29q0 -54 9 -100q8 -45 27 -87q43 -95 135 -143
q91 -48 222 -48q138 0 235 52q96 51 140 147q17 37 25 80t8 94t-9 94q-8 43 -25 80v0zM422 115q-74 0 -129 24t-80 76q-5 13 -9 26q-3 13 -5 28h455l-6 -20l-8 -20q-26 -58 -82 -86q-57 -28 -136 -28v0z" />
    <glyph glyph-name="florin" unicode="&#x192;" horiz-adv-x="478" 
d="M105 -10q110 0 160 48q51 48 50 148v165h146v86h-146v75q0 46 21 67q22 22 65 22q17 0 33 -3q15 -2 27 -6v122q-16 4 -40 6q-23 3 -49 3q-110 0 -160 -48q-51 -48 -50 -148v-90h-142v-86h142v-152q0 -43 -23 -64q-22 -22 -64 -22q-17 0 -32 3q-15 2 -27 6v-122
q17 -5 40 -7q23 -3 49 -3v0z" />
    <glyph glyph-name="Aringacute" unicode="&#x1fa;" horiz-adv-x="804" 
d="M588 1174h-171l-129 -148h158zM402 729q63 1 100 33q38 32 39 90q-1 56 -39 89q-38 32 -100 33q-63 -1 -101 -33t-39 -89q1 -58 39 -90t101 -33v0zM402 904q26 0 41 -14t15 -38t-15 -38t-41 -14q-27 0 -42 14t-15 38t15 38t42 14v0zM641 0h170l-294 706h-230l-294 -706
h171l60 152h356zM274 276l127 320h2l128 -320h-257z" />
    <glyph glyph-name="aringacute" unicode="&#x1fb;" horiz-adv-x="631" 
d="M484 1008h-162l-111 -163h147zM316 543q63 1 100 33q38 32 39 90q-1 56 -39 89q-38 32 -100 33q-63 -1 -101 -33t-39 -89q1 -58 39 -90t101 -33v0zM316 718q26 0 41 -14t15 -38t-15 -38t-41 -14q-27 0 -42 14t-15 38t15 38t42 14v0zM561 399q-27 60 -90 87t-159 26
q-90 1 -155 -24q-66 -26 -93 -85q-12 -28 -15 -65h154q0 13 6 26q12 24 39 34t66 10t67 -11q27 -12 39 -37q5 -10 7 -21t2 -27v-7h-105q-99 2 -176 -19t-108 -84q-12 -27 -13 -66q0 -18 4 -33q3 -16 9 -30q21 -45 71 -66q49 -22 121 -22q70 0 119 20q49 19 79 56v-61h152
v284q0 34 -5 63q-5 28 -16 52v0zM284 93q-31 0 -57 8q-26 9 -37 30q-4 11 -4 24q0 7 1 12q2 6 4 11q12 24 50 31q38 8 88 7h101v-7q0 -16 -2 -28q-3 -13 -8 -23q-15 -32 -51 -49q-36 -16 -85 -16v0z" />
    <glyph glyph-name="AEacute" unicode="&#x1fc;" horiz-adv-x="978" 
d="M709 907h-171l-129 -148h158zM937 578v128h-625l-319 -706h173l65 154h268l29 -154h409v128h-271l-33 165h300v125h-324l-32 160h360zM281 275l133 316h2l60 -316h-195z" />
    <glyph glyph-name="aeacute" unicode="&#x1fd;" horiz-adv-x="1018" 
d="M699 716h-162l-111 -163h147zM810 122q-16 -14 -39 -22t-53 -8q-46 0 -77 18t-46 52q-9 20 -12 47h411q0 45 -6 85q-6 39 -21 73q-31 67 -95 106q-65 38 -163 39q-59 0 -107 -15q-48 -16 -83 -45q-32 32 -83 46t-124 14q-90 1 -155 -24q-66 -26 -93 -85q-12 -28 -15 -65
h154q0 7 2 13q1 6 4 13q12 24 39 34t66 10t67 -11q27 -11 39 -36q5 -10 7 -22q2 -11 2 -29v-5h-105q-100 2 -177 -19t-107 -84q-6 -14 -9 -30q-4 -16 -4 -35q0 -18 4 -33q3 -16 9 -29q21 -46 74 -69q53 -22 129 -22q86 0 144 26q57 26 95 75q35 -49 96 -75q60 -26 143 -26
q63 0 118 16q54 16 93 50q23 22 39 51q15 30 20 67h-158q-2 -14 -7 -25q-6 -12 -16 -21v0zM711 405q44 0 73 -17t44 -48q7 -18 10 -40h-253q3 22 11 40q14 32 43 48q29 17 72 17v0zM430 209q0 -18 -3 -31t-8 -23q-15 -31 -50 -47q-35 -15 -84 -15q-31 0 -57 8t-37 29
q-3 7 -4 13q-1 5 -1 12t1 12q2 6 4 11q13 25 51 32q37 7 87 6h101v-7z" />
    <glyph glyph-name="Oslashacute" unicode="&#x1fe;" horiz-adv-x="873" 
d="M623 907h-171l-129 -148h158zM765 594l123 112h-133l-54 -51q-50 35 -117 53q-66 18 -147 18q-139 -1 -233 -52q-94 -52 -137 -148q-17 -38 -26 -81q-8 -44 -8 -92q0 -50 9 -94q8 -44 25 -82q16 -36 41 -66l-123 -111h131l56 51q50 -35 117 -53q66 -18 147 -18
q137 1 231 51t137 143q18 38 27 84q9 45 9 95t-9 94t-26 82q-16 36 -40 65v0zM227 475q25 54 78 83t131 29q90 0 147 -38l-350 -328q-3 5 -6 11q-11 25 -17 55q-5 29 -5 66t5 67q6 30 17 55v0zM647 232q-25 -54 -78 -83q-53 -30 -132 -30q-90 0 -146 38l350 328q1 -2 3 -5
q1 -3 2 -5q11 -25 17 -55q5 -30 5 -67t-5 -66q-5 -30 -16 -55v0z" />
    <glyph glyph-name="oslashacute" unicode="&#x1ff;" horiz-adv-x="666" 
d="M502 716h-162l-111 -163h147zM580 423l79 73h-113l-27 -26q-37 20 -84 31q-46 11 -102 11q-107 0 -181 -40q-73 -39 -106 -112q-22 -49 -22 -112q0 -61 22 -112q15 -35 41 -62l-81 -74h111l30 27q75 -42 186 -42q107 0 181 39q73 38 106 110q23 50 23 114t-23 115
q-8 17 -18 32t-22 28v0zM196 320q16 35 52 54q35 18 85 18q23 0 44 -4t38 -12l-216 -204q-1 2 -3 5q-13 29 -13 71q0 44 13 72v0zM470 176q-16 -35 -52 -54q-35 -18 -85 -18q-23 0 -44 4q-20 5 -37 13l216 204l2 -5q13 -28 13 -72q0 -22 -3 -39q-3 -18 -10 -33v0z" />
    <glyph glyph-name="uni0218" unicode="&#x218;" horiz-adv-x="726" 
d="M365 -20q115 0 197 34t116 104q17 38 17 86q0 24 -4 44q-3 20 -11 37q-29 59 -94 89t-148 46q-76 16 -137 32q-60 16 -79 51q-3 6 -4 12q-1 7 -1 14t1 14q1 6 4 13q13 27 50 40q36 13 83 13q52 0 87 -15q35 -16 50 -49q5 -11 8 -24q2 -13 3 -29h166q0 27 -4 50
q-5 23 -14 44q-33 70 -110 105t-183 35q-107 0 -185 -35t-109 -101q-15 -34 -16 -78q0 -22 4 -40q3 -18 10 -34q26 -52 82 -82q57 -30 135 -46q79 -15 146 -32q66 -18 88 -58q7 -13 7 -31q0 -16 -7 -33q-14 -28 -53 -42q-38 -13 -91 -13q-59 0 -99 17q-41 16 -57 52
q-11 24 -11 55h-171q0 -28 5 -53t15 -47q33 -72 114 -108q81 -37 200 -37v0zM262 -206h137l52 150h-157z" />
    <glyph glyph-name="uni0219" unicode="&#x219;" horiz-adv-x="556" 
d="M276 -17q85 0 151 24t92 78q12 27 12 62q0 16 -2 29q-3 14 -9 26q-19 42 -64 65t-111 36q-47 8 -89 19q-42 10 -56 33q-4 8 -4 17q0 5 1 9q1 5 3 9q7 15 26 22q20 7 50 7t52 -9q23 -10 33 -31q6 -13 6 -32h147q0 18 -3 34q-4 17 -10 31q-25 52 -84 76q-60 24 -139 24
q-78 0 -139 -23q-60 -24 -85 -75q-6 -13 -9 -27t-3 -30t3 -30q3 -13 8 -25q21 -43 65 -64q43 -21 97 -31q71 -13 107 -23q37 -11 46 -30q2 -5 3 -10t1 -10q0 -6 -1 -11t-3 -9q-8 -16 -31 -24q-24 -7 -57 -7q-36 0 -61 10q-24 11 -35 34q-4 8 -6 18q-2 9 -2 20h-151
q0 -22 4 -41t12 -36q25 -54 86 -80q61 -25 149 -25v0zM175 -206h137l52 150h-156z" />
    <glyph glyph-name="uni021A" unicode="&#x21a;" horiz-adv-x="571" 
d="M206 0h160v574h196v132h-553v-132h197v-574zM177 -203h137l52 150h-156z" />
    <glyph glyph-name="uni021B" unicode="&#x21b;" horiz-adv-x="427" 
d="M285 -10q29 0 59 3q30 4 58 9v119q-38 -9 -67 -9q-39 0 -60 20q-21 21 -21 67v179h152v118h-152v121h-152v-121h-83v-118h83v-211q0 -91 45 -134t138 -43v0zM151 -203h137l52 150h-156z" />
    <glyph glyph-name="uni0237" unicode="&#x237;" horiz-adv-x="262" 
d="M25 -212q97 -1 141 43q43 43 42 137v528h-151v-515q0 -33 -15 -48q-15 -16 -48 -16h-20l-20 2v-127q17 -2 35 -3t36 -1v0z" />
    <glyph glyph-name="uni0259" unicode="&#x259;" horiz-adv-x="658" 
d="M612 363q-33 73 -109 111q-75 38 -182 38q-70 0 -131 -17t-104 -55q-23 -22 -38 -49q-16 -28 -21 -63h154q2 12 8 23q7 11 17 20q19 16 49 24q29 8 65 8q55 0 94 -17t55 -53q9 -19 12 -46h-457q0 -46 6 -82q6 -37 20 -70q33 -72 104 -111q71 -40 176 -40q102 0 175 37
t106 110q11 25 17 54t6 63q0 66 -22 115v0zM329 91q-51 0 -87 17q-37 17 -54 53q-4 8 -7 17q-2 8 -4 18h302q-3 -18 -10 -33q-17 -37 -52 -54q-36 -18 -88 -18v0z" />
    <glyph glyph-name="circumflex" unicode="&#x2c6;" horiz-adv-x="517" 
d="M50 553h142l66 94l68 -94h141l-116 164h-184z" />
    <glyph glyph-name="caron" unicode="&#x2c7;" horiz-adv-x="517" 
d="M467 718h-142l-66 -95l-68 95h-141l116 -164h184z" />
    <glyph glyph-name="uni02C9" unicode="&#x2c9;" horiz-adv-x="455" 
d="M50 586h355v104h-355v-104z" />
    <glyph glyph-name="breve" unicode="&#x2d8;" horiz-adv-x="498" 
d="M249 546q97 0 146 44q49 43 53 127h-109q-5 -43 -26 -63q-20 -20 -64 -20q-42 0 -63 20t-26 63h-110q5 -84 55 -127q49 -44 144 -44v0z" />
    <glyph glyph-name="dotaccent" unicode="&#x2d9;" horiz-adv-x="269" 
d="M134 562q37 1 61 22q23 22 24 58q-1 36 -24 58q-24 22 -61 23q-37 -1 -60 -23t-24 -58q1 -36 24 -58q23 -21 60 -22v0z" />
    <glyph glyph-name="ring" unicode="&#x2da;" horiz-adv-x="379" 
d="M190 543q63 1 100 33q38 32 39 90q-1 56 -39 89q-38 32 -100 33q-63 -1 -101 -33t-39 -89q1 -58 39 -90t101 -33v0zM190 614q-27 0 -42 14t-15 38t15 38t42 14q26 0 41 -14t15 -38t-15 -38t-41 -14v0z" />
    <glyph glyph-name="ogonek" unicode="&#x2db;" horiz-adv-x="323" 
d="M185 -218q51 1 87 13v82q-11 -4 -23 -6q-11 -2 -23 -2q-23 0 -36 9q-14 9 -14 28q0 26 24 48t70 46l-116 5q-46 -23 -74 -53q-29 -30 -30 -73q1 -49 39 -73t96 -24v0z" />
    <glyph glyph-name="tilde" unicode="&#x2dc;" horiz-adv-x="524" 
d="M352 550q60 0 90 42q29 42 32 127h-95q-3 -35 -12 -54q-9 -18 -30 -18q-17 0 -31 11q-14 10 -32 25q-25 20 -48 29q-23 10 -51 10q-62 0 -91 -43q-29 -44 -34 -127h94q3 35 12 54q10 19 31 19q18 -1 34 -12t34 -26q20 -17 43 -27t54 -10v0z" />
    <glyph glyph-name="hungarumlaut" unicode="&#x2dd;" horiz-adv-x="566" 
d="M50 553h124l133 164h-142zM260 553h123l133 164h-141z" />
    <glyph glyph-name="gravecomb" unicode="&#x300;" 
d="M-50 553l-112 163h-161l126 -163h147z" />
    <glyph glyph-name="acutecomb" unicode="&#x301;" 
d="M-323 553h147l126 163h-162z" />
    <glyph glyph-name="uni0302" unicode="&#x302;" 
d="M-467 553h142l66 94l68 -94h141l-116 164h-184z" />
    <glyph glyph-name="tildecomb" unicode="&#x303;" 
d="M-172 550q60 0 90 42q29 42 32 127h-95q-3 -35 -12 -54q-9 -18 -30 -18q-17 0 -31 11q-14 10 -32 25q-25 20 -48 29q-23 10 -51 10q-62 0 -91 -43q-29 -44 -34 -127h94q3 35 12 54q10 19 31 19q18 -1 34 -12t34 -26q20 -17 43 -27t54 -10v0z" />
    <glyph glyph-name="uni0304" unicode="&#x304;" 
d="M-405 586h355v104h-355v-104z" />
    <glyph glyph-name="uni0306" unicode="&#x306;" 
d="M-249 546q97 0 146 44q49 43 53 127h-109q-5 -43 -26 -63q-20 -20 -64 -20q-42 0 -63 20t-26 63h-110q5 -84 55 -127q49 -44 144 -44v0z" />
    <glyph glyph-name="uni0307" unicode="&#x307;" 
d="M-135 562q37 1 61 22q23 22 24 58q-1 36 -24 58q-24 22 -61 23q-37 -1 -60 -23t-24 -58q1 -36 24 -58q23 -21 60 -22v0z" />
    <glyph glyph-name="uni0308" unicode="&#x308;" 
d="M-366 562q35 1 58 22t24 55q-1 35 -24 57q-23 21 -58 22q-37 -1 -59 -22q-22 -22 -23 -57q1 -34 23 -55t59 -22v0zM-132 561q36 1 59 22q22 22 23 56q-1 35 -23 57q-23 21 -59 22q-36 -1 -59 -22q-22 -22 -23 -57q1 -34 23 -56q23 -21 59 -22v0z" />
    <glyph glyph-name="uni030A" unicode="&#x30a;" 
d="M-189 543q63 1 100 33q38 32 39 90q-1 56 -39 89q-38 32 -100 33q-63 -1 -101 -33t-39 -89q1 -58 39 -90t101 -33v0zM-189 614q-27 0 -42 14t-15 38t15 38t42 14q26 0 41 -14t15 -38t-15 -38t-41 -14v0z" />
    <glyph glyph-name="uni030B" unicode="&#x30b;" 
d="M-516 553h124l133 164h-142zM-306 553h123l133 164h-141z" />
    <glyph glyph-name="uni030C" unicode="&#x30c;" 
d="M-50 718h-142l-66 -95l-68 95h-141l116 -164h184z" />
    <glyph glyph-name="uni0312" unicode="&#x312;" 
d="M-50 713h-137l-52 -149h156z" />
    <glyph glyph-name="uni0326" unicode="&#x326;" 
d="M-239 -203h137l52 150h-156z" />
    <glyph glyph-name="uni0327" unicode="&#x327;" 
d="M-166 -15l13 38h-111l-32 -101h70q36 0 53 -8q17 -7 17 -23q0 -19 -18 -26t-48 -7q-24 0 -44 3q-21 4 -42 11l-18 -74q26 -9 55 -13q28 -5 61 -5q73 -1 116 23q43 23 44 82q0 46 -28 72q-28 27 -88 28v0z" />
    <glyph glyph-name="uni0328" unicode="&#x328;" 
d="M-138 -218q51 1 87 13v82q-11 -4 -23 -6q-11 -2 -23 -2q-23 0 -36 9q-14 9 -14 28q0 26 24 48t70 46l-116 5q-46 -23 -74 -53q-29 -30 -30 -73q1 -49 39 -73t96 -24v0z" />
    <glyph glyph-name="uni0335" unicode="&#x335;" 
d="M-436 258h386v89h-386v-89z" />
    <glyph glyph-name="uni0336" unicode="&#x336;" 
d="M-432 582h432v92h-432v-92z" />
    <glyph glyph-name="uni0337" unicode="&#x337;" 
d="M-144 428v26l-144 -97v-118l144 96v-28l144 100v118z" />
    <glyph glyph-name="uni0338" unicode="&#x338;" 
d="M-693 0h111l65 58l1 -2l321 303l2 -4l153 141h-113l-70 -68l-2 3l-322 -303l-2 4z" />
    <glyph glyph-name="uni0394" unicode="&#x394;" horiz-adv-x="804" 
d="M517 706h-230l-294 -706h818zM214 125l187 469h2l188 -469h-377z" />
    <glyph glyph-name="uni03A9" unicode="&#x3a9;" horiz-adv-x="791" 
d="M734 315q12 27 18 57q6 31 6 66q0 36 -6 66q-6 31 -18 57q-38 81 -125 123t-213 42q-127 0 -214 -42t-125 -123q-11 -27 -18 -57q-6 -30 -6 -66q0 -70 24 -123q23 -50 64 -84q41 -35 100 -54v-56h-162v-121h286v273q-49 8 -83 31q-35 23 -51 58q-7 17 -11 36t-4 41t4 39
q3 17 10 32q21 44 69 68t117 24t117 -24t69 -68q6 -15 10 -32q3 -17 3 -39t-4 -41q-3 -19 -11 -36q-16 -35 -50 -58t-83 -31v-273h285v121h-162v55q59 20 100 55q42 34 64 84v0z" />
    <glyph glyph-name="uni03BC" unicode="&#x3bc;" horiz-adv-x="654" 
d="M449 496v-252q0 -68 -32 -104t-95 -36q-58 0 -87 31q-29 32 -29 100v261h-152v-699h151v84q0 63 -7 125q36 -22 89 -22t94 21q41 20 68 59v-64h152v496h-152z" />
    <glyph glyph-name="pi" unicode="&#x3c0;" horiz-adv-x="811" 
d="M695 -10q33 0 66 4v119q-9 -1 -16 -1q-39 0 -60 20q-21 21 -21 67v179h97v118h-711v-118h97v-378h152v378h213v-211q0 -91 45 -134q46 -43 138 -43v0z" />
    <glyph glyph-name="Wgrave" unicode="&#x1e80;" horiz-adv-x="1124" 
d="M677 759l-129 148h-171l142 -148h158zM962 706l-158 -494l-155 494h-172l-156 -495l-159 495h-169l240 -706h166l164 509l163 -509h167l238 706h-169z" />
    <glyph glyph-name="wgrave" unicode="&#x1e81;" horiz-adv-x="928" 
d="M568 553l-112 163h-161l126 -163h147zM764 496l-113 -324l-114 324h-147l-114 -323l-112 323h-164l197 -496h156l111 317l111 -317h155l198 496h-164z" />
    <glyph glyph-name="Wacute" unicode="&#x1e82;" horiz-adv-x="1124" 
d="M749 907h-171l-129 -148h158zM962 706l-158 -494l-155 494h-172l-156 -495l-159 495h-169l240 -706h166l164 509l163 -509h167l238 706h-169z" />
    <glyph glyph-name="wacute" unicode="&#x1e83;" horiz-adv-x="928" 
d="M631 716h-162l-111 -163h147zM764 496l-113 -324l-114 324h-147l-114 -323l-112 323h-164l197 -496h156l111 317l111 -317h155l198 496h-164z" />
    <glyph glyph-name="Wdieresis" unicode="&#x1e84;" horiz-adv-x="1124" 
d="M435 760q35 1 58 22q22 21 23 55q-1 34 -23 56q-23 21 -58 22q-36 -1 -58 -22q-22 -22 -23 -56q1 -34 23 -55t58 -22v0zM691 760q35 1 58 22q22 21 23 55q-1 34 -23 56q-23 21 -58 22q-36 -1 -58 -22q-22 -22 -23 -56q1 -34 23 -55t58 -22v0zM962 706l-158 -494l-155 494
h-172l-156 -495l-159 495h-169l240 -706h166l164 509l163 -509h167l238 706h-169z" />
    <glyph glyph-name="wdieresis" unicode="&#x1e85;" horiz-adv-x="928" 
d="M345 562q35 1 58 22t24 55q-1 35 -24 57q-23 21 -58 22q-37 -1 -59 -22q-22 -22 -23 -57q1 -34 23 -55t59 -22v0zM579 561q36 1 59 22q22 22 23 56q-1 35 -23 57q-23 21 -59 22q-36 -1 -59 -22q-22 -22 -23 -57q1 -34 23 -56q23 -21 59 -22v0zM764 496l-113 -324
l-114 324h-147l-114 -323l-112 323h-164l197 -496h156l111 317l111 -317h155l198 496h-164z" />
    <glyph glyph-name="uni1E9E" unicode="&#x1e9e;" horiz-adv-x="774" 
d="M725 316q-19 44 -58 71q-38 27 -96 37l142 277l-2 5h-648v-706h160v574h264l-123 -243v-2q12 1 28 1q15 1 28 1q55 0 93 -12q38 -13 53 -45q9 -19 9 -44t-9 -45q-14 -30 -52 -43q-38 -14 -97 -14q-27 0 -53 2q-26 3 -48 7v-132q28 -4 60 -7q32 -2 67 -2q110 0 181 31
q71 32 100 96q19 42 19 98q0 54 -18 95v0z" />
    <glyph glyph-name="Ygrave" unicode="&#x1ef2;" horiz-adv-x="706" 
d="M468 759l-129 148h-171l142 -148h158zM273 0h160v307l279 399h-183l-176 -256l-176 256h-184l280 -399v-307z" />
    <glyph glyph-name="ygrave" unicode="&#x1ef3;" horiz-adv-x="611" 
d="M411 553l-112 163h-161l126 -163h147zM451 496l-144 -342l-142 342h-165l226 -491l-101 -208h156l95 203l235 496h-160z" />
    <glyph glyph-name="uni2009" unicode="&#x2009;" horiz-adv-x="82" 
 />
    <glyph glyph-name="uni2011" unicode="&#x2011;" horiz-adv-x="446" 
d="M50 226h345v128h-345v-128z" />
    <glyph glyph-name="endash" unicode="&#x2013;" horiz-adv-x="637" 
d="M50 224h536v127h-536v-127z" />
    <glyph glyph-name="emdash" unicode="&#x2014;" horiz-adv-x="1264" 
d="M50 224h1164v127h-1164v-127z" />
    <glyph glyph-name="quoteleft" unicode="&#x2018;" horiz-adv-x="287" 
d="M258 706h-117l-112 -290h158z" />
    <glyph glyph-name="quoteright" unicode="&#x2019;" horiz-adv-x="287" 
d="M29 416h117l112 290h-158z" />
    <glyph glyph-name="quotesinglbase" unicode="&#x201a;" horiz-adv-x="287" 
d="M29 -144h117l112 290h-158z" />
    <glyph glyph-name="quotedblleft" unicode="&#x201c;" horiz-adv-x="508" 
d="M258 706h-117l-112 -290h158zM479 706h-117l-112 -290h158z" />
    <glyph glyph-name="quotedblright" unicode="&#x201d;" horiz-adv-x="508" 
d="M29 416h117l112 290h-158zM250 416h117l112 290h-158z" />
    <glyph glyph-name="quotedblbase" unicode="&#x201e;" horiz-adv-x="508" 
d="M29 -144h117l112 290h-158zM250 -144h117l112 290h-158z" />
    <glyph glyph-name="dagger" unicode="&#x2020;" horiz-adv-x="480" 
d="M464 544h-145v162h-158v-162h-144v-129h144v-415h158v415h145v129z" />
    <glyph glyph-name="daggerdbl" unicode="&#x2021;" horiz-adv-x="480" 
d="M464 437v132h-145v137h-158v-137h-144v-132h144v-168h-144v-131h144v-138h158v138h145v131h-145v168h145z" />
    <glyph glyph-name="bullet" unicode="&#x2022;" horiz-adv-x="489" 
d="M245 212q65 1 104 40q39 40 40 106q-1 67 -40 105t-104 39q-67 -1 -105 -39q-39 -38 -40 -105q1 -66 40 -106q40 -39 105 -40v0z" />
    <glyph glyph-name="ellipsis" unicode="&#x2026;" horiz-adv-x="846" 
d="M167 -19q40 1 65 24q25 24 26 65q-1 42 -26 65q-25 24 -65 24q-41 0 -65 -24q-24 -23 -25 -65q1 -41 25 -65q25 -23 65 -24v0zM423 -19q40 1 65 24q24 24 25 65q-1 42 -25 65q-25 24 -65 24q-41 0 -65 -24q-24 -23 -25 -65q1 -41 25 -65q24 -23 65 -24v0zM679 -19
q41 1 66 24q24 24 25 65q-1 42 -25 65q-25 24 -66 24t-65 -24q-24 -23 -25 -65q1 -41 25 -65q25 -23 65 -24v0z" />
    <glyph glyph-name="perthousand" unicode="&#x2030;" horiz-adv-x="1181" 
d="M193 406q59 0 99 21q41 20 59 60q7 16 11 35q3 18 3 39t-3 39q-4 18 -11 34q-18 40 -59 60q-40 21 -99 21t-100 -21q-41 -20 -59 -60q-7 -16 -11 -34q-3 -18 -3 -39t3 -39q4 -19 11 -35q18 -40 59 -60q41 -21 100 -21v0zM59 0l120 -1l557 706l-119 1zM193 491
q-24 0 -39 8t-22 23q-4 7 -5 17q-1 9 -1 22q0 11 1 21q1 9 5 17q7 15 22 23t39 8q22 0 37 -7q14 -7 22 -23q4 -8 5 -18q2 -10 2 -21q0 -13 -2 -22q-1 -10 -5 -17q-14 -31 -59 -31v0zM604 -9q59 0 99 21q41 20 59 60q7 16 11 35q3 18 3 39t-3 39q-4 18 -11 34q-18 40 -59 60
q-40 21 -99 21t-100 -21q-41 -20 -59 -60q-7 -16 -11 -34q-3 -18 -3 -39t3 -39q4 -19 11 -35q18 -40 59 -60q41 -21 100 -21v0zM989 -9q59 0 99 21q41 20 59 60q7 16 11 35q3 18 3 39t-3 39q-4 18 -11 34q-18 40 -59 60q-40 21 -99 21t-100 -21q-41 -20 -59 -60
q-7 -16 -11 -34q-3 -18 -3 -39t3 -39q4 -19 11 -35q18 -40 59 -60q41 -21 100 -21v0zM604 76q-24 0 -39 8t-22 23q-4 7 -5 17q-1 9 -1 22q0 11 1 21q1 9 5 17q7 15 22 23t39 8q22 0 37 -7q14 -7 22 -23q4 -8 5 -18q2 -10 2 -21q0 -13 -2 -22q-1 -10 -5 -17q-14 -31 -59 -31
v0zM989 76q-24 0 -39 8t-22 23q-4 7 -5 17q-1 9 -1 22q0 11 1 21q1 9 5 17q7 15 22 23t39 8q22 0 37 -7q14 -7 22 -23q4 -8 5 -18q2 -10 2 -21q0 -13 -2 -22q-1 -10 -5 -17q-14 -31 -59 -31v0z" />
    <glyph glyph-name="guilsinglleft" unicode="&#x2039;" horiz-adv-x="351" 
d="M181 120h154l-165 165l165 166h-154l-166 -166z" />
    <glyph glyph-name="guilsinglright" unicode="&#x203a;" horiz-adv-x="351" 
d="M170 120l166 165l-166 166h-155l166 -166l-166 -165h155z" />
    <glyph glyph-name="fraction" unicode="&#x2044;" horiz-adv-x="223" 
d="M-202 0h112l515 706h-113z" />
    <glyph glyph-name="uni2070" unicode="&#x2070;" horiz-adv-x="494" 
d="M247 425q75 0 126 27q50 26 72 76q10 22 15 48q5 25 5 56t-5 57q-5 25 -15 47q-22 50 -72 76q-51 27 -126 27q-74 0 -124 -27q-51 -26 -74 -76q-10 -22 -15 -47q-5 -26 -5 -57t5 -56q5 -26 15 -48q23 -50 74 -76q50 -27 124 -27v0zM247 526q-29 0 -48 10q-18 11 -27 31
q-5 11 -8 26q-2 15 -2 39t2 39q3 15 8 26q9 20 27 30q19 10 48 10q30 0 49 -10q18 -10 28 -30q5 -11 7 -26t2 -39t-2 -39t-7 -26q-10 -20 -28 -31q-19 -10 -49 -10v0z" />
    <glyph glyph-name="uni2074" unicode="&#x2074;" horiz-adv-x="471" 
d="M272 438h122v73h67v96h-67v219h-225l-175 -313v-2h278v-73zM173 607l99 183v-183h-99z" />
    <glyph glyph-name="uni2075" unicode="&#x2075;" horiz-adv-x="427" 
d="M212 426q66 0 113 22t67 64q11 24 11 55q0 30 -11 53q-16 36 -56 56q-40 19 -99 19q-17 0 -36 -1q-20 -2 -34 -5l11 50h188l15 87h-299l-41 -206q21 3 45 5q23 2 47 2q50 1 88 -8q38 -8 52 -32q3 -6 5 -12q1 -5 1 -12q0 -6 -1 -11t-3 -10q-7 -13 -23 -20q-17 -7 -40 -7
t-40 8q-16 7 -23 22q-3 7 -4 15q-2 8 -2 18l-120 -1q0 -19 4 -36q3 -17 9 -31q20 -43 66 -63q45 -21 110 -21v0z" />
    <glyph glyph-name="uni2076" unicode="&#x2076;" horiz-adv-x="473" 
d="M436 617q-17 37 -58 56q-41 18 -97 18q-39 0 -73 -9q-33 -10 -56 -29q0 32 10 54q11 23 32 35t52 12q38 0 58 -18q5 -5 8 -10t4 -12h122q-5 22 -14 40q-10 18 -23 32q-28 28 -69 40q-41 13 -90 13q-74 0 -123 -27q-50 -27 -73 -79q-10 -23 -15 -50t-5 -56q0 -58 18 -100
q46 -101 199 -101q73 0 122 22q50 22 71 66q5 12 8 25t3 28q0 14 -3 27q-3 12 -8 23v0zM311 541q-8 -16 -26 -22q-18 -7 -42 -7q-23 0 -41 7q-19 7 -27 22q-4 10 -4 22t4 21q7 16 26 23q18 8 43 8q24 0 42 -7t25 -23q2 -5 3 -10t1 -12q0 -12 -4 -22v0z" />
    <glyph glyph-name="uni2077" unicode="&#x2077;" horiz-adv-x="391" 
d="M38 438h142l216 388h-385v-103h189z" />
    <glyph glyph-name="uni2078" unicode="&#x2078;" horiz-adv-x="448" 
d="M414 596q-9 20 -27 35q-19 14 -45 20q42 12 57 44q3 8 5 16q2 9 2 19q0 21 -8 37q-17 37 -64 54q-47 18 -110 18q-64 0 -111 -18q-46 -17 -63 -54q-4 -8 -6 -17q-2 -10 -2 -20q0 -19 7 -34q7 -16 21 -27q15 -11 36 -18q-26 -6 -44 -20q-18 -15 -27 -35q-4 -10 -7 -20
q-2 -10 -2 -23q0 -25 9 -46q20 -41 70 -62q50 -20 119 -20t119 20q50 21 70 62q9 21 9 46q0 13 -2 23t-6 20v0zM162 737q6 13 23 19t39 6t38 -6q17 -5 23 -18q3 -7 3 -17q0 -9 -3 -16q-6 -13 -23 -19q-16 -6 -38 -6t-39 6q-16 6 -22 19q-2 3 -3 7t-1 9q0 9 3 16v0zM293 541
q-7 -15 -26 -21q-19 -7 -43 -7t-43 7t-26 22q-2 4 -3 8t-1 9q0 10 4 19q7 15 26 22q19 6 43 6t43 -7t26 -22q2 -4 3 -9q1 -4 1 -9t-1 -9q-1 -5 -3 -9v0z" />
    <glyph glyph-name="uni2079" unicode="&#x2079;" horiz-adv-x="473" 
d="M429 737q-46 101 -199 101q-73 0 -122 -22q-50 -22 -71 -66q-5 -12 -8 -25t-3 -28q0 -14 3 -26q3 -13 8 -24q17 -37 58 -56q41 -18 97 -18q39 0 73 9q33 10 56 29q0 -31 -10 -54q-11 -23 -32 -35t-52 -12q-38 0 -58 18q-4 5 -7 10t-5 12h-122q5 -22 14 -40q10 -18 23 -32
q28 -28 69 -40q41 -13 90 -13q74 0 123 27q50 27 73 79q10 23 15 50t5 56q0 58 -18 100v0zM298 680q-7 -16 -25 -23q-19 -8 -44 -8q-24 0 -42 7t-25 23q-2 5 -3 10t-1 12q0 12 4 22q8 16 26 22q18 7 42 7q23 0 42 -7q18 -7 26 -22q4 -10 4 -22t-4 -21v0z" />
    <glyph glyph-name="uni207A" unicode="&#x207a;" horiz-adv-x="369" 
d="M339 673h-113v98h-84v-98h-112v-80h112v-99h84v99h113v80z" />
    <glyph glyph-name="uni207B" unicode="&#x207b;" horiz-adv-x="369" 
d="M30 591h309v82h-309v-82z" />
    <glyph glyph-name="uni207C" unicode="&#x207c;" horiz-adv-x="367" 
d="M30 655h307v73h-307v-73zM30 538h307v72h-307v-72z" />
    <glyph glyph-name="uni207D" unicode="&#x207d;" horiz-adv-x="251" 
d="M142 359h99q-43 62 -68 128q-25 65 -25 145t25 146t68 127h-99q-43 -62 -67 -126t-24 -147t24 -147t67 -126v0z" />
    <glyph glyph-name="uni207E" unicode="&#x207e;" horiz-adv-x="251" 
d="M109 359q43 62 67 126t24 147t-24 147t-67 126h-99q43 -61 68 -127t25 -146t-25 -145q-25 -66 -68 -128h99z" />
    <glyph glyph-name="uni207F" unicode="&#x207f;" horiz-adv-x="461" 
d="M280 718q-40 0 -71 -14t-53 -39v41h-121v-350h121v182q0 42 22 65q21 22 61 22q69 0 69 -80v-189h122v213q0 73 -38 111t-112 38v0z" />
    <glyph glyph-name="uni2080" unicode="&#x2080;" horiz-adv-x="494" 
d="M247 -133q75 0 126 27q50 26 72 76q10 22 15 48q5 25 5 56t-5 57q-5 25 -15 47q-22 50 -72 76q-51 27 -126 27q-74 0 -124 -27q-51 -26 -74 -76q-10 -22 -15 -47q-5 -26 -5 -57t5 -56q5 -26 15 -48q23 -50 74 -76q50 -27 124 -27v0zM247 -32q-29 0 -48 10q-18 11 -27 31
q-5 11 -8 26q-2 15 -2 39t2 39q3 15 8 26q9 20 27 30q19 10 48 10q30 0 49 -10q18 -10 28 -30q5 -11 7 -26t2 -39t-2 -39t-7 -26q-10 -20 -28 -31q-19 -10 -49 -10v0z" />
    <glyph glyph-name="uni2081" unicode="&#x2081;" horiz-adv-x="286" 
d="M101 -120h125v388h-199l-19 -103h93v-285z" />
    <glyph glyph-name="uni2082" unicode="&#x2082;" horiz-adv-x="427" 
d="M10 -120h392v103h-145l48 36l42 35q26 23 39 45q13 23 13 52q0 30 -11 52q-19 40 -65 60q-47 19 -109 19q-66 0 -111 -21t-66 -66q-7 -16 -10 -32t-3 -34h124q0 8 1 15t4 14q8 14 23 22t37 8q20 0 33 -6q14 -6 20 -18q2 -3 3 -7q1 -5 1 -10q0 -16 -12 -33
q-13 -17 -43 -43l-205 -185v-6z" />
    <glyph glyph-name="uni2083" unicode="&#x2083;" horiz-adv-x="437" 
d="M402 31q-10 20 -29 33t-46 18q23 7 39 20q17 12 25 30q4 8 5 16q2 9 2 18q0 23 -8 41q-19 38 -66 56t-107 18q-61 0 -110 -20t-70 -63q-5 -11 -7 -25q-3 -13 -3 -28h116q0 7 1 12l4 10q7 16 24 22q16 7 39 7q21 0 37 -5q15 -6 21 -17q4 -7 4 -18q0 -9 -3 -16
q-6 -13 -24 -18t-44 -5h-24v-72h23q27 0 47 -5t27 -19q4 -9 4 -19q0 -5 -1 -10t-3 -9q-7 -14 -24 -21q-16 -7 -42 -7q-25 0 -42 8q-17 9 -25 26q-4 8 -5 17t-2 20l-116 -1q0 -43 14 -75q21 -44 69 -64q48 -19 112 -19q67 0 118 18q50 19 69 59q5 10 8 21q2 11 2 23
q0 25 -9 43v0z" />
    <glyph glyph-name="uni2084" unicode="&#x2084;" horiz-adv-x="471" 
d="M272 -120h122v73h67v96h-67v219h-225l-175 -313v-2h278v-73zM173 49l99 183v-183h-99z" />
    <glyph glyph-name="uni2085" unicode="&#x2085;" horiz-adv-x="427" 
d="M212 -132q66 0 113 22t67 64q11 24 11 55q0 30 -11 53q-16 36 -56 56q-40 19 -99 19q-17 0 -36 -1q-20 -2 -34 -5l11 50h188l15 87h-299l-41 -206q21 3 45 5q23 2 47 2q50 1 88 -8q38 -8 52 -32q3 -6 5 -12q1 -5 1 -12q0 -6 -1 -11t-3 -10q-7 -13 -23 -20q-17 -7 -40 -7
t-40 8q-16 7 -23 22q-3 7 -4 15q-2 8 -2 18l-120 -1q0 -19 4 -36q3 -17 9 -31q20 -43 66 -63q45 -21 110 -21v0z" />
    <glyph glyph-name="uni2086" unicode="&#x2086;" horiz-adv-x="473" 
d="M436 59q-17 37 -58 56q-41 18 -97 18q-39 0 -73 -9q-33 -10 -56 -29q0 32 10 54q11 23 32 35t52 12q38 0 58 -18q5 -5 8 -10t4 -12h122q-5 22 -14 40q-10 18 -23 32q-28 28 -69 40q-41 13 -90 13q-74 0 -123 -27q-50 -27 -73 -79q-10 -23 -15 -50t-5 -56q0 -58 18 -100
q46 -101 199 -101q73 0 122 22q50 22 71 66q5 12 8 25t3 28q0 14 -3 27q-3 12 -8 23v0zM311 -17q-8 -16 -26 -22q-18 -7 -42 -7q-23 0 -41 7q-19 7 -27 22q-4 10 -4 22t4 21q7 16 26 23q18 8 43 8q24 0 42 -7t25 -23q2 -5 3 -10t1 -12q0 -12 -4 -22v0z" />
    <glyph glyph-name="uni2087" unicode="&#x2087;" horiz-adv-x="391" 
d="M38 -120h142l216 388h-385v-103h189z" />
    <glyph glyph-name="uni2088" unicode="&#x2088;" horiz-adv-x="448" 
d="M414 38q-9 20 -27 35q-19 14 -45 20q42 12 57 44q3 8 5 16q2 9 2 19q0 21 -8 37q-17 37 -64 54q-47 18 -110 18q-64 0 -111 -18q-46 -17 -63 -54q-4 -8 -6 -17q-2 -10 -2 -20q0 -19 7 -34q7 -16 21 -27q15 -11 36 -18q-26 -6 -44 -20q-18 -15 -27 -35q-4 -10 -7 -20
q-2 -10 -2 -23q0 -25 9 -46q20 -41 70 -62q50 -20 119 -20t119 20q50 21 70 62q9 21 9 46q0 13 -2 23t-6 20v0zM162 179q6 13 23 19t39 6t38 -6q17 -5 23 -18q3 -7 3 -17q0 -9 -3 -16q-6 -13 -23 -19q-16 -6 -38 -6t-39 6q-16 6 -22 19q-2 3 -3 7t-1 9q0 9 3 16v0zM293 -17
q-7 -15 -26 -21q-19 -7 -43 -7t-43 7t-26 22q-2 4 -3 8t-1 9q0 10 4 19q7 15 26 22q19 6 43 6t43 -7t26 -22q2 -4 3 -9q1 -4 1 -9t-1 -9q-1 -5 -3 -9v0z" />
    <glyph glyph-name="uni2089" unicode="&#x2089;" horiz-adv-x="473" 
d="M429 179q-46 101 -199 101q-73 0 -123 -22t-70 -66q-5 -12 -8 -25t-3 -28q0 -14 2 -26q3 -13 8 -24q18 -37 59 -56q42 -18 97 -18q39 0 73 9q33 10 56 29q0 -31 -10 -54q-11 -23 -32 -35t-52 -12q-38 0 -58 18l-8 10q-3 5 -5 12h-121q5 -22 14 -40t23 -32q28 -28 69 -40
q41 -13 90 -13q74 0 123 27t73 79q10 23 14 50q5 27 5 56q0 58 -17 100v0zM298 122q-7 -16 -26 -23q-19 -8 -43 -8t-42 7t-25 23l-4 10q-1 5 -1 12q0 12 5 22q8 16 26 22q18 7 42 7q22 0 41 -7t27 -22q4 -10 4 -22t-4 -21v0z" />
    <glyph glyph-name="uni208A" unicode="&#x208a;" horiz-adv-x="369" 
d="M339 115h-113v98h-84v-98h-112v-80h112v-99h84v99h113v80z" />
    <glyph glyph-name="uni208B" unicode="&#x208b;" horiz-adv-x="369" 
d="M30 33h309v82h-309v-82z" />
    <glyph glyph-name="uni208C" unicode="&#x208c;" horiz-adv-x="367" 
d="M30 97h307v73h-307v-73zM30 -20h307v72h-307v-72z" />
    <glyph glyph-name="uni208D" unicode="&#x208d;" horiz-adv-x="251" 
d="M142 -199h99q-43 62 -68 128q-25 65 -25 145t25 146t68 127h-99q-43 -62 -67 -126t-24 -147t24 -147t67 -126v0z" />
    <glyph glyph-name="uni208E" unicode="&#x208e;" horiz-adv-x="251" 
d="M109 -199q43 62 67 126t24 147t-24 147t-67 126h-99q43 -61 68 -127t25 -146t-25 -145q-25 -66 -68 -128h99z" />
    <glyph glyph-name="uni2099" unicode="&#x2099;" horiz-adv-x="461" 
d="M280 181q-40 0 -71 -14t-53 -39v41h-121v-350h121v182q0 42 22 65q21 22 61 22q69 0 69 -81v-188h122v213q0 73 -38 111t-112 38v0z" />
    <glyph glyph-name="Euro" unicode="&#x20ac;" horiz-adv-x="901" 
d="M701 277q-2 -33 -15 -60q-13 -26 -35 -46q-30 -27 -72 -40q-43 -13 -94 -13q-75 0 -129 28t-80 84q-4 9 -7 19h279v83h-293v21q0 14 1 27h292v83h-276q1 3 2 7q1 3 3 6q25 54 78 83t130 29q51 0 92 -13q40 -13 69 -39q23 -20 36 -47q14 -28 17 -62h170q-3 61 -26 112
q-23 52 -66 91q-52 47 -127 72q-75 24 -163 24q-137 -1 -232 -53t-139 -147q-13 -30 -21 -63h-69v-83h58q-1 -13 -1 -27v-21h-57v-83h68q7 -36 22 -69q43 -97 138 -148q95 -52 233 -52q89 0 165 24q75 25 128 72q42 38 65 89q24 50 26 112h-170z" />
    <glyph glyph-name="uni20B9" unicode="&#x20b9;" horiz-adv-x="720" 
d="M580 361q14 30 18 68h109v84h-109q-5 38 -17 66q-6 12 -13 23t-16 20h154v84h-656v-107h238q59 0 93 -14t48 -45q6 -12 9 -27h-387v-84h387q-3 -15 -9 -28q-14 -31 -49 -45q-36 -14 -96 -14h-193l336 -342h198l-246 248q77 5 128 32q50 27 73 81v0z" />
    <glyph glyph-name="uni20BA" unicode="&#x20ba;" horiz-adv-x="703" 
d="M529 320q0 -31 -5 -57q-4 -26 -14 -46q-19 -43 -61 -64t-109 -21h-58v171l229 88v88l-229 -90v54l229 89v88l-229 -90v176h-159v-229l-97 -38v-88l97 38v-53l-97 -38v-87l97 37v-248h239q117 0 188 37t103 109q31 72 32 174h-156z" />
    <glyph glyph-name="uni20BC" unicode="&#x20bc;" horiz-adv-x="953" 
d="M831 518q-39 56 -106 85q-67 28 -168 28v75h-161v-75q-98 0 -164 -27t-105 -80q-34 -41 -49 -99t-15 -133v-292h160v297q0 45 8 81q7 36 26 62q21 31 55 48t84 17v-505h161v505q49 0 84 -17q34 -16 54 -47q19 -26 27 -62t8 -82v-297h160v292q0 73 -13 129q-14 56 -46 97
v0z" />
    <glyph glyph-name="uni2113" unicode="&#x2113;" horiz-adv-x="534" 
d="M229 192q144 27 208 102q65 75 64 201q1 111 -50 165t-164 54q-112 1 -164 -64q-53 -66 -52 -210v-157q-13 -1 -27 -1h-28v-107q30 0 58 1q13 -96 73 -141q61 -45 168 -45q37 0 76 7t73 20v118q-58 -24 -117 -24q-51 -1 -80 18q-28 19 -38 63v0zM223 487q0 69 16 96
t47 26q31 1 47 -23t16 -91q1 -78 -27 -124q-27 -47 -99 -68v184z" />
    <glyph glyph-name="uni2117" unicode="&#x2117;" horiz-adv-x="887" 
d="M446 -20q132 1 231 55t143 150q17 36 25 78q9 41 9 90q0 96 -33 169q-46 98 -143 151q-98 52 -233 53q-138 -1 -235 -55q-98 -54 -143 -152q-17 -37 -25 -78q-9 -42 -9 -88q0 -47 9 -89q8 -43 25 -80q44 -95 141 -149t238 -55v0zM443 46q-115 1 -194 44q-79 44 -115 125
q-13 30 -20 65t-7 73t7 73t20 65q37 81 116 125q80 43 195 44q114 0 192 -44q78 -43 115 -123q27 -61 27 -141q0 -38 -6 -72q-7 -34 -20 -64q-36 -81 -115 -125q-78 -44 -195 -45v0zM276 129h120v149h93q61 0 100 19q38 19 54 57q7 16 10 34q3 17 3 39t-3 40t-10 34
q-16 38 -54 57q-39 20 -100 20h-213v-449zM396 367v121h65q27 0 44 -7q16 -7 23 -22q3 -7 4 -14q1 -8 1 -18q0 -9 -1 -17q-1 -7 -4 -14q-7 -15 -23 -22q-17 -7 -44 -7h-65z" />
    <glyph glyph-name="trademark" unicode="&#x2122;" horiz-adv-x="775" 
d="M92 396h98v231h87v79h-271v-79h86v-231zM305 396h92v189l102 -189h45l102 189v-189h91v310h-111l-104 -193l-103 193h-114v-310z" />
    <glyph glyph-name="Omega" unicode="&#x2126;" horiz-adv-x="791" 
d="M734 315q12 27 18 57q6 31 6 66q0 36 -6 66q-6 31 -18 57q-38 81 -125 123t-213 42q-127 0 -214 -42t-125 -123q-11 -27 -18 -57q-6 -30 -6 -66q0 -70 24 -123q23 -50 64 -84q41 -35 100 -54v-56h-162v-121h286v273q-49 8 -83 31q-35 23 -51 58q-7 17 -11 36t-4 41t4 39
q3 17 10 32q21 44 69 68t117 24t117 -24t69 -68q6 -15 10 -32q3 -17 3 -39t-4 -41q-3 -19 -11 -36q-16 -35 -50 -58t-83 -31v-273h285v121h-162v55q59 20 100 55q42 34 64 84v0z" />
    <glyph glyph-name="estimated" unicode="&#x212e;" horiz-adv-x="839" 
d="M419 -11q88 0 170 37q81 36 139 105h-57q-46 -55 -111 -88q-65 -32 -141 -33q-67 0 -129 28q-63 27 -111 78v197q0 5 2 8t8 3h608q-4 153 -112 249q-108 95 -266 98q-160 -3 -267 -97q-108 -94 -112 -244q5 -154 115 -246q110 -93 264 -95v0zM189 347q-6 0 -8 3
q-2 2 -2 8v185q44 51 107 79q62 28 133 28q68 0 131 -28t109 -80v-184q0 -6 -2 -8q-2 -3 -7 -3h-461z" />
    <glyph glyph-name="partialdiff" unicode="&#x2202;" horiz-adv-x="731" 
d="M658 555q-36 80 -111 125t-188 46q-74 0 -133 -21q-60 -22 -101 -63q-53 -52 -67 -132h161q4 17 12 31q8 13 19 24q19 20 46 30t62 10q57 0 95 -25t58 -70q12 -28 17 -60t5 -69v-6q-35 42 -92 65q-58 23 -135 23q-92 0 -158 -33t-95 -97q-20 -42 -20 -99q0 -59 21 -104
q34 -73 109 -111q74 -39 180 -39q117 0 197 45q79 45 118 133q36 81 36 199q0 56 -9 106t-27 92v0zM496 176q-15 -34 -52 -53q-37 -20 -91 -20q-53 0 -88 19q-36 18 -51 51q-12 25 -12 56q0 15 3 28t8 25q16 35 52 52q36 18 88 18q54 0 91 -19q37 -18 52 -53q6 -12 9 -25
q2 -13 2 -28q1 -28 -11 -51v0z" />
    <glyph glyph-name="Delta" unicode="&#x2206;" horiz-adv-x="804" 
d="M517 706h-230l-294 -706h818zM214 125l187 469h2l188 -469h-377z" />
    <glyph glyph-name="product" unicode="&#x220f;" horiz-adv-x="811" 
d="M63 -203h164v771h357v-771h164v909h-685v-909z" />
    <glyph glyph-name="summation" unicode="&#x2211;" horiz-adv-x="661" 
d="M13 -203h646v132h-370l225 347l-211 299h330v131h-611l303 -430z" />
    <glyph glyph-name="minus" unicode="&#x2212;" horiz-adv-x="612" 
d="M50 232h512v115h-512v-115z" />
    <glyph glyph-name="uni2215" unicode="&#x2215;" horiz-adv-x="612" 
d="M68 0h131l344 706h-130z" />
    <glyph glyph-name="uni2219" unicode="&#x2219;" horiz-adv-x="612" 
d="M319 177q53 1 85 32q32 32 33 85q-1 54 -33 85q-32 30 -85 31q-53 -1 -85 -31q-31 -31 -32 -85q1 -53 33 -85q31 -31 84 -32v0z" />
    <glyph glyph-name="radical" unicode="&#x221a;" horiz-adv-x="760" 
d="M607 706l-222 -755l-162 421l-213 -53v-144l117 33l168 -420h186l285 918h-159z" />
    <glyph glyph-name="infinity" unicode="&#x221e;" horiz-adv-x="915" 
d="M871 348q-24 53 -73 84t-123 32q-78 -1 -130 -36q-51 -35 -88 -85q-43 57 -96 89q-53 31 -121 32q-74 -1 -123 -32q-50 -31 -73 -84q-10 -22 -15 -47q-5 -26 -5 -54t5 -53q5 -26 15 -48q23 -53 72 -84q50 -31 124 -32q78 1 129 36q51 34 88 85q37 -51 88 -85
q52 -35 130 -36q73 1 122 32q50 31 74 84q20 44 20 101q0 28 -5 54q-5 25 -15 47v0zM252 153q-32 0 -52 14q-21 13 -30 35q-4 10 -7 21q-2 11 -2 24t2 24q2 12 7 22q9 21 29 35q21 13 53 13q42 0 71 -25q29 -24 60 -69q-30 -45 -60 -69q-31 -25 -71 -25v0zM745 202
q-11 -23 -32 -36q-22 -13 -51 -13q-42 0 -71 25q-29 24 -60 69q26 40 56 67q31 26 75 27q30 0 51 -13q21 -12 32 -35q9 -19 9 -46t-9 -45v0z" />
    <glyph glyph-name="integral" unicode="&#x222b;" horiz-adv-x="505" 
d="M86 -208q88 -1 139 39q52 40 69 140l85 543q7 36 24 51q16 15 44 15q12 0 30 -3l28 129q-19 3 -36 5q-18 1 -37 1q-88 1 -139 -40q-52 -41 -69 -140l-85 -546q-6 -34 -23 -49q-18 -16 -50 -16h-17q-9 1 -21 2l-28 -126q22 -3 43 -4q22 -1 43 -1v0z" />
    <glyph glyph-name="approxequal" unicode="&#x2248;" horiz-adv-x="612" 
d="M410 312q63 0 97 41q33 41 37 126h-99q-2 -29 -15 -45q-14 -15 -40 -15q-21 0 -38 8q-18 8 -37 20q-24 13 -51 23q-28 10 -64 11q-63 0 -96 -41q-33 -42 -37 -126h98q2 30 16 46q14 15 40 15q21 0 39 -8t36 -19q22 -13 50 -24q27 -11 64 -12v0zM410 98q63 0 97 41
q33 41 37 126h-99q-2 -29 -15 -45q-14 -16 -40 -16q-21 0 -38 8q-18 8 -37 20q-24 14 -51 24q-28 11 -64 11q-63 0 -96 -41q-33 -42 -37 -126h98q2 29 16 45q14 15 40 15q21 0 39 -8q18 -7 36 -18q22 -13 50 -24q27 -11 64 -12v0z" />
    <glyph glyph-name="notequal" unicode="&#x2260;" horiz-adv-x="612" 
d="M562 339v115h-107l68 106h-93l-69 -106h-311v-115h244l-64 -98h-180v-115h112l-69 -106h95l69 106h305v115h-238l64 98h174z" />
    <glyph glyph-name="lessequal" unicode="&#x2264;" horiz-adv-x="612" 
d="M553 553l-511 -110v-165l511 -110v116l-423 76l423 77v116zM42 26h511v112h-511v-112z" />
    <glyph glyph-name="greaterequal" unicode="&#x2265;" horiz-adv-x="612" 
d="M50 553v-116l423 -77l-423 -76v-116l512 110v165zM50 26h512v112h-512v-112z" />
    <glyph glyph-name="lozenge" unicode="&#x25ca;" horiz-adv-x="654" 
d="M243 -203h167l224 455l-224 454h-167l-223 -454zM327 -61l-147 313l147 312l147 -312z" />
    <glyph glyph-name="uniFB00" unicode="&#xfb00;" horiz-adv-x="832" 
d="M97 0h153v378h145v118h-145v30q0 40 23 58t63 18q17 0 33 -2q15 -2 27 -7v121q-16 4 -39 6q-23 3 -48 3q-111 0 -162 -45t-50 -140v-42h-82v-118h82v-378zM516 0h153v378h145v118h-145v30q0 40 23 58t63 18q17 0 33 -2q15 -2 27 -7v121q-16 4 -39 6q-23 3 -48 3
q-111 0 -162 -45t-50 -140v-42h-82v-118h82v-378z" />
    <glyph glyph-name="uniFB01" unicode="&#xfb01;" horiz-adv-x="672" 
d="M97 0h153v378h145v118h-145v30q0 40 23 58t63 18q17 0 33 -2q15 -2 27 -7v121q-16 4 -39 6q-23 3 -48 3q-111 0 -162 -45t-50 -140v-42h-82v-118h82v-378zM543 562q37 1 60 22q22 21 23 57q-1 36 -23 58q-23 21 -60 22q-38 -1 -61 -22q-23 -22 -24 -58q1 -36 24 -57
t61 -22v0zM466 0h152v496h-152v-496z" />
    <glyph glyph-name="uniFB02" unicode="&#xfb02;" horiz-adv-x="672" 
d="M97 0h153v378h145v118h-145v30q0 40 23 58t63 18q17 0 33 -2q15 -2 27 -7v121q-16 4 -39 6q-23 3 -48 3q-111 0 -162 -45t-50 -140v-42h-82v-118h82v-378zM466 0h152v706h-152v-706z" />
    <glyph glyph-name="uniFB03" unicode="&#xfb03;" horiz-adv-x="1091" 
d="M97 0h153v378h145v118h-145v30q0 40 23 58t63 18q17 0 33 -2q15 -2 27 -7v121q-16 4 -39 6q-23 3 -48 3q-111 0 -162 -45t-50 -140v-42h-82v-118h82v-378zM516 0h153v378h145v118h-145v30q0 40 23 58t63 18q17 0 33 -2q15 -2 27 -7v121q-16 4 -39 6q-23 3 -48 3
q-111 0 -162 -45t-50 -140v-42h-82v-118h82v-378zM963 562q37 1 60 22q22 21 23 57q-1 36 -23 58q-23 21 -60 22q-38 -1 -61 -22q-23 -22 -24 -58q1 -36 24 -57t61 -22v0zM886 0h152v496h-152v-496z" />
    <glyph glyph-name="uniFB04" unicode="&#xfb04;" horiz-adv-x="1091" 
d="M97 0h153v378h145v118h-145v30q0 40 23 58t63 18q17 0 33 -2q15 -2 27 -7v121q-16 4 -39 6q-23 3 -48 3q-111 0 -162 -45t-50 -140v-42h-82v-118h82v-378zM516 0h153v378h145v118h-145v30q0 40 23 58t63 18q17 0 33 -2q15 -2 27 -7v121q-16 4 -39 6q-23 3 -48 3
q-111 0 -162 -45t-50 -140v-42h-82v-118h82v-378zM886 0h152v706h-152v-706z" />
    <glyph glyph-name="uniFEFF" unicode="&#xfeff;" 
 />
    <glyph glyph-name="glyph143" horiz-adv-x="379" 
d="M137 759h158l142 148h-171zM90 -6q126 0 182 58q57 59 56 180v474h-160v-449q1 -68 -25 -96q-26 -29 -88 -28q-12 0 -23 1q-12 1 -23 3v-137q38 -6 81 -6v0z" />
    <glyph glyph-name="glyph203" horiz-adv-x="911" 
d="M63 0h151v523l207 -284h70l206 284v-523h152v706h-183l-210 -287l-210 287h-183v-706z" />
    <glyph glyph-name="glyph204" horiz-adv-x="873" 
d="M804 174q18 38 27 84q9 45 9 95t-9 94t-26 82q-43 94 -136 145q-94 51 -232 52q-139 -1 -233 -52q-94 -52 -137 -148q-17 -38 -26 -81q-8 -44 -8 -92q0 -50 9 -94q8 -44 25 -82q43 -95 137 -146q94 -50 232 -51q36 0 68 4l102 -170l141 74l-89 138q50 25 87 62
q36 37 59 86v0zM647 232q-25 -54 -78 -83q-53 -30 -132 -30t-132 30q-53 29 -78 83q-11 25 -17 55q-5 29 -5 66t5 67q6 30 17 55q25 54 78 83t131 29q79 0 132 -29t78 -83q11 -25 17 -55q5 -30 5 -67t-5 -66q-5 -30 -16 -55v0z" />
    <glyph glyph-name="glyph205" horiz-adv-x="716" 
d="M558 336q33 13 57 34t37 51q8 17 13 37q4 20 4 44q0 53 -18 90q-26 58 -86 86q-61 28 -153 28h-349v-706h160v274h141q73 0 102 -28q29 -29 28 -85v-161h161v171q1 65 -21 107q-21 41 -76 58v0zM223 390v199h150q48 0 80 -12t45 -40q4 -9 6 -19q2 -11 2 -24q0 -14 -2 -27
q-2 -12 -6 -23q-13 -28 -44 -41t-82 -13h-149z" />
    <glyph glyph-name="glyph206" horiz-adv-x="716" 
d="M547 907h-171l-129 -148h158zM558 336q33 13 57 34t37 51q8 17 13 37q4 20 4 44q0 53 -18 90q-26 58 -86 86q-61 28 -153 28h-349v-706h160v274h141q73 0 102 -28q29 -29 28 -85v-161h161v171q1 65 -21 107q-21 41 -76 58v0zM223 390v199h150q48 0 80 -12t45 -40
q4 -9 6 -19q2 -11 2 -24q0 -14 -2 -27q-2 -12 -6 -23q-13 -28 -44 -41t-82 -13h-149z" />
    <glyph glyph-name="glyph207" horiz-adv-x="716" 
d="M457 759l134 148h-155l-75 -82l-76 82h-155l135 -148h192zM558 336q33 13 57 34t37 51q8 17 13 37q4 20 4 44q0 53 -18 90q-26 58 -86 86q-61 28 -153 28h-349v-706h160v274h141q73 0 102 -28q29 -29 28 -85v-161h161v171q1 65 -21 107q-21 41 -76 58v0zM223 390v199h150
q48 0 80 -12t45 -40q4 -9 6 -19q2 -11 2 -24q0 -14 -2 -27q-2 -12 -6 -23q-13 -28 -44 -41t-82 -13h-149z" />
    <glyph glyph-name="glyph208" horiz-adv-x="716" 
d="M558 336q33 13 57 34t37 51q8 17 13 37q4 20 4 44q0 53 -18 90q-26 58 -86 86q-61 28 -153 28h-349v-706h160v274h141q73 0 102 -28q29 -29 28 -85v-161h161v171q1 65 -21 107q-21 41 -76 58v0zM223 390v199h150q48 0 80 -12t45 -40q4 -9 6 -19q2 -11 2 -24q0 -14 -2 -27
q-2 -12 -6 -23q-13 -28 -44 -41t-82 -13h-149zM253 -203h137l52 150h-156z" />
    <glyph glyph-name="glyph209" horiz-adv-x="873" 
d="M766 593l94 100l-109 92l-93 -105q-46 23 -101 34q-55 12 -120 12q-139 -1 -233 -52q-94 -52 -137 -148q-17 -38 -26 -81q-8 -44 -8 -92q0 -50 9 -94q8 -44 25 -82q15 -35 39 -64l-92 -100l108 -93l93 106q45 -23 101 -34q55 -12 120 -12q137 1 231 51t137 143
q18 38 27 84q9 45 9 95t-9 94t-26 82q-15 34 -39 64v0zM647 232q-25 -54 -78 -83q-53 -30 -132 -30t-132 30q-53 29 -78 83q-11 25 -17 55q-5 29 -5 66t5 67q6 30 17 55q25 54 78 83t131 29q79 0 132 -29t78 -83q11 -25 17 -55q5 -30 5 -67t-5 -66q-5 -30 -16 -55v0z" />
    <glyph glyph-name="glyph251" horiz-adv-x="260" 
d="M130 562q37 1 60 22t24 57q-1 36 -24 58q-23 21 -60 22q-37 -1 -60 -22q-23 -22 -24 -58q1 -36 24 -57t60 -22v0zM54 0h152v496h-152v-496z" />
    <glyph glyph-name="glyph258" horiz-adv-x="262" 
d="M38 553h143l112 163h-159zM25 -212q97 -1 141 43q43 43 42 137v528h-151v-515q0 -33 -15 -48q-15 -16 -48 -16h-20l-20 2v-127q17 -2 35 -3t36 -1v0z" />
    <glyph glyph-name="glyph319" horiz-adv-x="666" 
d="M620 363q-9 19 -20 36q-12 17 -27 32l61 74l-105 77l-65 -88q-59 18 -131 18q-107 0 -181 -40q-73 -39 -106 -112q-22 -49 -22 -112q0 -61 22 -112q18 -40 49 -70l-63 -77l103 -76l69 90q57 -18 129 -18q107 0 181 39q73 38 106 110q23 50 23 114t-23 115v0zM470 176
q-16 -35 -52 -54q-35 -18 -85 -18t-85 19q-36 19 -52 54q-13 29 -13 71q0 44 13 72q16 35 52 54q35 18 85 18t85 -18q36 -18 52 -54q13 -28 13 -72q0 -22 -3 -39q-3 -18 -10 -33v0z" />
    <glyph glyph-name="glyph320" horiz-adv-x="426" 
d="M356 505q-55 -1 -92 -21t-59 -54v66h-151v-496h152v216q0 78 36 119t109 41q16 0 33 -2t30 -5v128q-14 4 -29 6t-29 2v0z" />
    <glyph glyph-name="glyph321" horiz-adv-x="426" 
d="M392 716h-159l-96 -163h143zM356 505q-55 -1 -92 -21t-59 -54v66h-151v-496h152v216q0 78 36 119t109 41q16 0 33 -2t30 -5v128q-14 4 -29 6t-29 2v0z" />
    <glyph glyph-name="glyph322" horiz-adv-x="426" 
d="M308 553l89 164h-121l-47 -94l-48 94h-121l90 -164h158zM356 505q-55 -1 -92 -21t-59 -54v66h-151v-496h152v216q0 78 36 119t109 41q16 0 33 -2t30 -5v128q-14 4 -29 6t-29 2v0z" />
    <glyph glyph-name="glyph323" horiz-adv-x="426" 
d="M356 505q-55 -1 -92 -21t-59 -54v66h-151v-496h152v216q0 78 36 119t109 41q16 0 33 -2t30 -5v128q-14 4 -29 6t-29 2v0zM18 -203h137l52 150h-156z" />
    <glyph glyph-name="glyph327" horiz-adv-x="672" 
d="M97 0h153v378h145v118h-145v30q0 40 23 58t63 18q17 0 33 -2q15 -2 27 -7v121q-16 4 -39 6q-23 3 -48 3q-111 0 -162 -45t-50 -140v-42h-82v-118h82v-378zM543 562q37 1 60 22q22 21 23 57q-1 36 -23 58q-23 21 -60 22q-38 -1 -61 -22q-23 -22 -24 -58q1 -36 24 -57
t61 -22v0zM466 0h152v496h-152v-496z" />
    <glyph glyph-name="glyph328" horiz-adv-x="672" 
d="M97 0h153v378h145v118h-145v30q0 40 23 58t63 18q17 0 33 -2q15 -2 27 -7v121q-16 4 -39 6q-23 3 -48 3q-111 0 -162 -45t-50 -140v-42h-82v-118h82v-378zM466 0h152v706h-152v-706z" />
    <glyph glyph-name="glyph339" horiz-adv-x="707" 
d="M353 -20q104 0 175 44q72 43 109 125q37 84 37 204t-37 204q-37 82 -109 125q-71 44 -175 44t-176 -44q-72 -43 -108 -125q-37 -84 -37 -204t37 -204q36 -82 108 -125q72 -44 176 -44v0zM353 109q-51 1 -83 23q-32 21 -48 58q-13 29 -18 70q-5 40 -5 93t5 94q5 40 18 69
q16 37 48 59q32 21 83 22q51 -1 83 -22q32 -22 49 -59q13 -29 17 -69q5 -41 5 -94t-5 -93q-4 -41 -17 -70q-17 -37 -49 -58q-32 -22 -83 -23v0z" />
    <glyph glyph-name="glyph340" horiz-adv-x="707" 
d="M313 0h155v706h-291l-30 -135h166v-571z" />
    <glyph glyph-name="glyph341" horiz-adv-x="707" 
d="M33 0h612v132h-301q53 45 97 87l88 83q52 48 79 93q27 44 27 103q0 30 -5 53q-6 22 -14 40q-35 73 -107 105q-72 31 -164 30q-102 0 -173 -36q-71 -37 -105 -111q-12 -27 -17 -57q-6 -31 -6 -68h157q0 43 13 73q16 34 49 52t81 18q42 0 73 -15q31 -14 44 -43q9 -18 9 -43
q1 -36 -25 -73q-26 -36 -84 -92l-328 -328v-3z" />
    <glyph glyph-name="glyph342" horiz-adv-x="707" 
d="M644 276q-16 35 -50 60q-35 24 -90 35q48 13 78 36q31 23 45 55q6 15 10 31q3 15 3 34q0 21 -4 39q-3 19 -11 36q-28 60 -97 92t-172 32q-109 0 -183 -36q-74 -35 -105 -103q-10 -21 -14 -44q-5 -23 -5 -51h155q0 15 3 28q2 13 7 24q15 34 50 49t85 15q46 0 79 -13
q32 -14 45 -42q4 -9 5 -18q2 -10 2 -20t-2 -17q-1 -8 -5 -16q-15 -30 -54 -43q-40 -12 -91 -12h-37v-110h35q56 1 98 -12q43 -14 60 -49q9 -18 9 -43q0 -12 -2 -24q-2 -11 -7 -21q-15 -32 -50 -48q-36 -15 -84 -15q-108 1 -141 73q-7 18 -11 39q-4 22 -5 48h-156
q0 -43 6 -79q7 -35 20 -65q31 -70 104 -105q74 -36 188 -36q117 0 188 34t98 97q18 38 18 86q0 44 -15 79v0z" />
    <glyph glyph-name="glyph343" horiz-adv-x="707" 
d="M689 284h-106v422h-280l-302 -548v-2h429v-156h153v156h106v128zM228 284l200 373h2v-373h-202z" />
    <glyph glyph-name="glyph344" horiz-adv-x="707" 
d="M353 -20q108 1 179 38t101 105q11 22 16 50q6 27 6 58q0 27 -5 54q-5 26 -16 51q-35 72 -106 103q-72 31 -160 30q-63 0 -124 -12l25 121h322l30 128h-474l-67 -359q37 8 83 12q46 5 95 5q82 1 140 -17q58 -19 81 -66q5 -12 8 -26q2 -14 2 -30q0 -30 -10 -55
q-15 -32 -48 -49q-32 -17 -81 -17q-47 0 -79 17q-32 16 -47 50q-15 35 -15 84h-158q0 -79 25 -136q33 -72 104 -105q71 -34 173 -34v0z" />
    <glyph glyph-name="glyph345" horiz-adv-x="707" 
d="M662 336q-30 65 -95 98q-65 32 -154 32q-72 0 -129 -22q-58 -22 -94 -64q0 36 6 69q5 32 17 59q19 45 58 70q38 25 96 25q35 0 64 -10t49 -30q11 -11 18 -24q8 -13 12 -29h156q-7 40 -24 73q-17 34 -43 61q-41 40 -99 61t-130 21q-113 -1 -187 -46q-75 -45 -112 -127
q-19 -44 -29 -96q-9 -52 -9 -111q0 -58 9 -107q9 -48 26 -88q37 -84 113 -127q76 -44 196 -44q99 0 174 39q76 39 110 113q21 46 21 103q0 59 -20 101v0zM506 176q-16 -35 -52 -53t-86 -18t-87 18q-38 19 -54 54q-5 11 -8 25q-2 13 -2 27t2 27q3 13 8 24q16 35 53 54t89 19
q50 0 86 -18q36 -17 52 -52q10 -22 10 -52q0 -16 -2 -30q-3 -14 -9 -25v0z" />
    <glyph glyph-name="glyph346" horiz-adv-x="707" 
d="M143 0h182l362 706h-634v-135h391z" />
    <glyph glyph-name="glyph347" horiz-adv-x="707" 
d="M657 283q-17 39 -52 65q-35 25 -85 36q42 11 71 32q29 22 43 52t14 67t-14 67q-29 62 -101 93q-73 31 -179 31q-109 0 -181 -32q-73 -31 -100 -92q-7 -15 -10 -31q-4 -17 -4 -36t3 -35q4 -17 11 -32q14 -30 43 -51q29 -22 71 -33q-50 -11 -85 -37t-53 -65
q-16 -35 -16 -80q0 -23 4 -43t13 -39q29 -65 105 -102t198 -38q122 1 199 37q76 37 105 103q8 19 13 39q4 20 4 43q0 45 -17 81v0zM224 559q14 29 48 44q35 14 81 14q47 0 82 -14q34 -15 48 -44q4 -9 5 -18q2 -8 2 -18q0 -11 -2 -20q-1 -9 -5 -17q-14 -30 -49 -43
q-36 -14 -80 -14q-45 0 -80 14q-36 14 -51 44q-6 16 -6 35q0 11 2 20q1 9 5 17v0zM499 168q-17 -34 -56 -50q-40 -16 -89 -16q-50 0 -90 16q-39 16 -56 50q-4 10 -6 20q-2 9 -2 22q0 12 2 22t6 20q16 34 55 49q38 16 90 16t91 -16t55 -50q5 -10 7 -20t2 -22t-2 -22
q-2 -9 -7 -19v0z" />
    <glyph glyph-name="glyph348" horiz-adv-x="707" 
d="M638 555q-37 84 -112 127q-76 44 -196 44q-99 0 -174 -39q-76 -39 -111 -113q-10 -23 -15 -48q-5 -26 -5 -55q0 -59 20 -101q29 -65 95 -98q65 -32 154 -32q72 0 130 22q57 22 93 64q0 -36 -5 -68q-6 -33 -18 -60q-19 -45 -58 -70t-97 -25q-34 0 -63 10t-49 30
q-11 11 -18 24q-8 13 -12 29h-156q6 -40 23 -73q17 -34 44 -61q40 -40 99 -61q58 -21 130 -21q112 1 187 46q74 45 112 127q19 44 28 96t9 111q0 58 -8 107q-9 48 -27 88v0zM480 426q-16 -35 -53 -54t-89 -19q-51 0 -87 18q-36 17 -51 52q-10 22 -10 52q0 16 2 30q3 14 8 25
q16 35 53 53q36 18 86 18t87 -18q38 -19 54 -54q5 -11 8 -24q2 -14 2 -28t-2 -27q-3 -13 -8 -24v0z" />
    <glyph glyph-name="glyph359" horiz-adv-x="494" 
d="M247 -13q75 0 126 27q50 26 72 76q10 22 15 48q5 25 5 56t-5 57q-5 25 -15 47q-22 50 -72 76q-51 27 -126 27q-74 0 -124 -27q-51 -26 -74 -76q-10 -22 -15 -47q-5 -26 -5 -57t5 -56q5 -26 15 -48q23 -50 74 -76q50 -27 124 -27v0zM247 88q-29 0 -48 10q-18 11 -27 31
q-5 11 -8 26q-2 15 -2 39t2 39q3 15 8 26q9 20 27 30q19 10 48 10q30 0 49 -10q18 -10 28 -30q5 -11 7 -26t2 -39t-2 -39t-7 -26q-10 -20 -28 -31q-19 -10 -49 -10v0z" />
    <glyph glyph-name="glyph360" horiz-adv-x="286" 
d="M101 0h125v388h-199l-19 -103h93v-285z" />
    <glyph glyph-name="glyph361" horiz-adv-x="427" 
d="M10 0h392v103h-145l48 36l42 35q26 23 39 45q13 23 13 52q0 30 -11 52q-19 40 -65 60q-47 19 -109 19q-66 0 -111 -21t-66 -66q-7 -16 -10 -32t-3 -34h124q0 8 1 15t4 14q8 14 23 22t37 8q20 0 33 -6q14 -6 20 -18q2 -3 3 -7q1 -5 1 -10q0 -16 -12 -33q-13 -17 -43 -43
l-205 -185v-6z" />
    <glyph glyph-name="glyph362" horiz-adv-x="437" 
d="M402 151q-10 20 -29 33t-46 18q23 7 39 20q17 12 25 30q4 8 5 16q2 9 2 18q0 23 -8 41q-19 38 -66 56t-107 18q-61 0 -110 -20t-70 -63q-5 -11 -7 -25q-3 -13 -3 -28h116q0 7 1 12l4 10q7 16 24 22q16 7 39 7q21 0 37 -5q15 -6 21 -17q4 -7 4 -18q0 -9 -3 -16
q-6 -13 -24 -18t-44 -5h-24v-72h23q27 0 47 -5t27 -19q4 -9 4 -19q0 -5 -1 -10t-3 -9q-7 -14 -24 -21q-16 -7 -42 -7q-25 0 -42 8q-17 9 -25 26q-4 8 -5 17t-2 20l-116 -1q0 -43 14 -75q21 -44 69 -64q48 -19 112 -19q67 0 118 18q50 19 69 59q5 10 8 21q2 11 2 23
q0 25 -9 43v0z" />
    <glyph glyph-name="glyph363" horiz-adv-x="471" 
d="M272 0h122v73h67v96h-67v219h-225l-175 -313v-2h278v-73zM173 169l99 183v-183h-99z" />
    <glyph glyph-name="glyph364" horiz-adv-x="427" 
d="M212 -12q66 0 113 22t67 64q11 24 11 55q0 30 -11 53q-16 36 -56 56q-40 19 -99 19q-17 0 -36 -1q-20 -2 -34 -5l11 50h188l15 87h-299l-41 -206q21 3 45 5q23 2 47 2q50 1 88 -8q38 -8 52 -32q3 -6 5 -12q1 -5 1 -12q0 -6 -1 -11t-3 -10q-7 -13 -23 -20q-17 -7 -40 -7
t-40 8q-16 7 -23 22q-3 7 -4 15q-2 8 -2 18l-120 -1q0 -19 4 -36q3 -17 9 -31q20 -43 66 -63q45 -21 110 -21v0z" />
    <glyph glyph-name="glyph365" horiz-adv-x="473" 
d="M436 179q-17 37 -58 56q-41 18 -97 18q-39 0 -73 -9q-33 -10 -56 -29q0 32 10 54q11 23 32 35t52 12q38 0 58 -18q5 -5 8 -10t4 -12h122q-5 22 -14 40q-10 18 -23 32q-28 28 -69 40q-41 13 -90 13q-74 0 -123 -27q-50 -27 -73 -79q-10 -23 -15 -50t-5 -56q0 -58 18 -100
q46 -101 199 -101q73 0 122 22q50 22 71 66q5 12 8 25t3 28q0 14 -3 27q-3 12 -8 23v0zM311 103q-8 -16 -26 -22q-18 -7 -42 -7q-23 0 -41 7q-19 7 -27 22q-4 10 -4 22t4 21q7 16 26 23q18 8 43 8q24 0 42 -7t25 -23q2 -5 3 -10t1 -12q0 -12 -4 -22v0z" />
    <glyph glyph-name="glyph366" horiz-adv-x="391" 
d="M38 0h142l216 388h-385v-103h189z" />
    <glyph glyph-name="glyph367" horiz-adv-x="448" 
d="M414 158q-9 20 -27 35q-19 14 -45 20q42 12 57 44q3 8 5 16q2 9 2 19q0 21 -8 37q-17 37 -64 54q-47 18 -110 18q-64 0 -111 -18q-46 -17 -63 -54q-4 -8 -6 -17q-2 -10 -2 -20q0 -19 7 -34q7 -16 21 -27q15 -11 36 -18q-26 -6 -44 -20q-18 -15 -27 -35q-4 -10 -7 -20
q-2 -10 -2 -23q0 -25 9 -46q20 -41 70 -62q50 -20 119 -20t119 20q50 21 70 62q9 21 9 46q0 13 -2 23t-6 20v0zM162 299q6 13 23 19t39 6t38 -6q17 -5 23 -18q3 -7 3 -17q0 -9 -3 -16q-6 -13 -23 -19q-16 -6 -38 -6t-39 6q-16 6 -22 19q-2 3 -3 7t-1 9q0 9 3 16v0zM293 103
q-7 -15 -26 -21q-19 -7 -43 -7t-43 7t-26 22q-2 4 -3 8t-1 9q0 10 4 19q7 15 26 22q19 6 43 6t43 -7t26 -22q2 -4 3 -9q1 -4 1 -9t-1 -9q-1 -5 -3 -9v0z" />
    <glyph glyph-name="glyph368" horiz-adv-x="473" 
d="M429 299q-46 101 -199 101q-73 0 -122 -22q-50 -22 -71 -66q-5 -12 -8 -25t-3 -28q0 -14 3 -26q3 -13 8 -24q17 -37 58 -56q41 -18 97 -18q39 0 73 9q33 10 56 29q0 -31 -10 -54q-11 -23 -32 -35t-52 -12q-38 0 -58 18q-4 5 -7 10t-5 12h-122q5 -22 14 -40q10 -18 23 -32
q28 -28 69 -40q41 -13 90 -13q74 0 123 27q50 27 73 79q10 23 15 50t5 56q0 58 -18 100v0zM298 242q-7 -16 -25 -23q-19 -8 -44 -8q-24 0 -42 7t-25 23q-2 5 -3 10t-1 12q0 12 4 22q8 16 26 22q18 7 42 7q23 0 42 -7q18 -7 26 -22q4 -10 4 -22t-4 -21v0z" />
    <glyph glyph-name="glyph369" horiz-adv-x="494" 
d="M247 305q75 0 126 27q50 26 72 76q10 22 15 48q5 25 5 56t-5 57q-5 25 -15 47q-22 50 -72 76q-51 27 -126 27q-74 0 -124 -27q-51 -26 -74 -76q-10 -22 -15 -47q-5 -26 -5 -57t5 -56q5 -26 15 -48q23 -50 74 -76q50 -27 124 -27v0zM247 406q-29 0 -48 10q-18 11 -27 31
q-5 11 -8 26q-2 15 -2 39t2 39q3 15 8 26q9 20 27 30q19 10 48 10q30 0 49 -10q18 -10 28 -30q5 -11 7 -26t2 -39t-2 -39t-7 -26q-10 -20 -28 -31q-19 -10 -49 -10v0z" />
    <glyph glyph-name="glyph370" horiz-adv-x="286" 
d="M101 318h125v388h-199l-19 -103h93v-285z" />
    <glyph glyph-name="glyph371" horiz-adv-x="427" 
d="M10 318h392v103h-145l48 36l42 35q26 23 39 45q13 23 13 52q0 30 -11 52q-19 40 -65 60q-47 19 -109 19q-66 0 -111 -21t-66 -66q-7 -16 -10 -32t-3 -34h124q0 8 1 15t4 14q8 14 23 22t37 8q20 0 33 -6q14 -6 20 -18q2 -3 3 -7q1 -5 1 -10q0 -16 -12 -33q-13 -17 -43 -43
l-205 -185v-6z" />
    <glyph glyph-name="glyph372" horiz-adv-x="437" 
d="M402 469q-10 20 -29 33t-46 18q23 7 39 20q17 12 25 30q4 8 5 16q2 9 2 18q0 23 -8 41q-19 38 -66 56t-107 18q-61 0 -110 -20t-70 -63q-5 -11 -7 -25q-3 -13 -3 -28h116q0 7 1 12l4 10q7 16 24 22q16 7 39 7q21 0 37 -5q15 -6 21 -17q4 -7 4 -18q0 -9 -3 -16
q-6 -13 -24 -18t-44 -5h-24v-72h23q27 0 47 -5t27 -19q4 -9 4 -19q0 -5 -1 -10t-3 -9q-7 -14 -24 -21q-16 -7 -42 -7q-25 0 -42 8q-17 9 -25 26q-4 8 -5 17t-2 20l-116 -1q0 -43 14 -75q21 -44 69 -64q48 -19 112 -19q67 0 118 18q50 19 69 59q5 10 8 21q2 11 2 23
q0 25 -9 43v0z" />
    <glyph glyph-name="glyph373" horiz-adv-x="471" 
d="M272 318h122v73h67v96h-67v219h-225l-175 -313v-2h278v-73zM173 487l99 183v-183h-99z" />
    <glyph glyph-name="glyph374" horiz-adv-x="427" 
d="M212 306q66 0 113 22t67 64q11 24 11 55q0 30 -11 53q-16 36 -56 56q-40 19 -99 19q-17 0 -36 -1q-20 -2 -34 -5l11 50h188l15 87h-299l-41 -206q21 3 45 5q23 2 47 2q50 1 88 -8q38 -8 52 -32q3 -6 5 -12q1 -5 1 -12q0 -6 -1 -11t-3 -10q-7 -13 -23 -20q-17 -7 -40 -7
t-40 8q-16 7 -23 22q-3 7 -4 15q-2 8 -2 18l-120 -1q0 -19 4 -36q3 -17 9 -31q20 -43 66 -63q45 -21 110 -21v0z" />
    <glyph glyph-name="glyph375" horiz-adv-x="473" 
d="M436 497q-17 37 -58 56q-41 18 -97 18q-39 0 -73 -9q-33 -10 -56 -29q0 32 10 54q11 23 32 35t52 12q38 0 58 -18q5 -5 8 -10t4 -12h122q-5 22 -14 40q-10 18 -23 32q-28 28 -69 40q-41 13 -90 13q-74 0 -123 -27q-50 -27 -73 -79q-10 -23 -15 -50t-5 -56q0 -58 18 -100
q46 -101 199 -101q73 0 122 22q50 22 71 66q5 12 8 25t3 28q0 14 -3 27q-3 12 -8 23v0zM311 421q-8 -16 -26 -22q-18 -7 -42 -7q-23 0 -41 7q-19 7 -27 22q-4 10 -4 22t4 21q7 16 26 23q18 8 43 8q24 0 42 -7t25 -23q2 -5 3 -10t1 -12q0 -12 -4 -22v0z" />
    <glyph glyph-name="glyph376" horiz-adv-x="391" 
d="M38 318h142l216 388h-385v-103h189z" />
    <glyph glyph-name="glyph377" horiz-adv-x="448" 
d="M414 476q-9 20 -27 35q-19 14 -45 20q42 12 57 44q3 8 5 16q2 9 2 19q0 21 -8 37q-17 37 -64 54q-47 18 -110 18q-64 0 -111 -18q-46 -17 -63 -54q-4 -8 -6 -17q-2 -10 -2 -20q0 -19 7 -34q7 -16 21 -27q15 -11 36 -18q-26 -6 -44 -20q-18 -15 -27 -35q-4 -10 -7 -20
q-2 -10 -2 -23q0 -25 9 -46q20 -41 70 -62q50 -20 119 -20t119 20q50 21 70 62q9 21 9 46q0 13 -2 23t-6 20v0zM162 617q6 13 23 19t39 6t38 -6q17 -5 23 -18q3 -7 3 -17q0 -9 -3 -16q-6 -13 -23 -19q-16 -6 -38 -6t-39 6q-16 6 -22 19q-2 3 -3 7t-1 9q0 9 3 16v0zM293 421
q-7 -15 -26 -21q-19 -7 -43 -7t-43 7t-26 22q-2 4 -3 8t-1 9q0 10 4 19q7 15 26 22q19 6 43 6t43 -7t26 -22q2 -4 3 -9q1 -4 1 -9t-1 -9q-1 -5 -3 -9v0z" />
    <glyph glyph-name="glyph378" horiz-adv-x="473" 
d="M429 617q-46 101 -199 101q-73 0 -122 -22q-50 -22 -71 -66q-5 -12 -8 -25t-3 -28q0 -14 3 -26q3 -13 8 -24q17 -37 58 -56q41 -18 97 -18q39 0 73 9q33 10 56 29q0 -31 -10 -54q-11 -23 -32 -35t-52 -12q-38 0 -58 18q-4 5 -7 10t-5 12h-122q5 -22 14 -40q10 -18 23 -32
q28 -28 69 -40q41 -13 90 -13q74 0 123 27q50 27 73 79q10 23 15 50t5 56q0 58 -18 100v0zM298 560q-7 -16 -25 -23q-19 -8 -44 -8q-24 0 -42 7t-25 23q-2 5 -3 10t-1 12q0 12 4 22q8 16 26 22q18 7 42 7q23 0 42 -7q18 -7 26 -22q4 -10 4 -22t-4 -21v0z" />
    <glyph glyph-name="glyph398" horiz-adv-x="334" 
d="M167 434q40 1 65 24q25 24 26 65q-1 41 -26 65t-65 24q-41 0 -65 -24t-25 -65q1 -41 25 -65q25 -23 65 -24v0zM167 94q40 1 65 25t26 65q-1 41 -26 65t-65 24q-41 0 -65 -24t-25 -65q1 -41 25 -65q25 -24 65 -25v0z" />
    <glyph glyph-name="glyph399" horiz-adv-x="355" 
d="M188 434q40 1 65 24q24 24 25 65q-1 41 -25 65q-25 24 -65 24q-41 0 -65 -24t-25 -65q1 -41 25 -65q24 -23 65 -24v0zM38 -63h114l102 336h-144z" />
    <glyph glyph-name="glyph400" horiz-adv-x="326" 
d="M163 721q-40 0 -65 -24q-24 -24 -25 -65q1 -42 25 -65q25 -24 65 -24q41 0 65 24q24 23 25 65q-1 41 -25 65t-65 24v0zM225 475h-123l-21 -479h164z" />
    <glyph glyph-name="glyph401" horiz-adv-x="598" 
d="M304 727q-41 0 -66 -24q-24 -24 -25 -65q1 -42 25 -65q25 -24 66 -24t65 24q24 23 25 65q-1 41 -25 65q-25 24 -65 24v0zM380 480h-170q-107 -144 -143 -205t-33 -106q1 -89 69 -138q67 -49 194 -50q98 0 161 31q63 30 89 87q10 21 13 44q3 24 3 53h-151q0 -16 -2 -28
q-2 -11 -8 -23q-11 -25 -36 -37q-26 -13 -66 -13q-55 0 -80 22q-26 21 -26 58q-3 34 34 93t152 212v0z" />
    <glyph glyph-name="glyph402" horiz-adv-x="334" 
d="M167 280q40 1 65 25t26 65q-1 41 -26 65t-65 24q-41 0 -65 -24t-25 -65q1 -41 25 -65q25 -24 65 -25v0z" />
    <glyph glyph-name="glyph403" horiz-adv-x="72" 
d="M-62 324q40 1 65 25q24 24 25 64q-1 42 -25 65q-25 24 -65 24q-41 0 -66 -24q-24 -23 -25 -65q1 -40 25 -64q25 -24 66 -25v0z" />
    <glyph glyph-name="glyph404" horiz-adv-x="581" 
d="M21 -50h154l400 806h-153z" />
    <glyph glyph-name="glyph405" horiz-adv-x="196" 
d="M98 281q40 1 65 25q24 24 25 64q-1 42 -25 65q-25 24 -65 24q-41 0 -65 -24q-24 -23 -25 -65q1 -40 25 -64q25 -24 65 -25v0z" />
    <glyph glyph-name="glyph410" horiz-adv-x="398" 
d="M240 -144h141q-73 110 -115 229q-41 120 -42 268q1 147 42 268q42 121 115 231h-141q-73 -110 -113 -229q-41 -118 -42 -270q1 -152 42 -269q40 -118 113 -228v0z" />
    <glyph glyph-name="glyph411" horiz-adv-x="398" 
d="M158 -144q73 110 114 228q40 117 41 269q-1 152 -41 270q-41 119 -114 229h-141q73 -110 115 -231q41 -121 42 -268q-1 -148 -42 -268q-42 -119 -115 -229h141z" />
    <glyph glyph-name="glyph412" horiz-adv-x="425" 
d="M271 484v158q-1 50 20 74q22 25 81 25h31v109h-77q-91 -1 -135 -48q-45 -46 -45 -121v-166q1 -56 -19 -78q-20 -23 -78 -22v-123q57 1 78 -21q20 -22 19 -78v-167q0 -75 45 -121q44 -46 135 -47h77v109h-31q-59 0 -81 25q-21 25 -20 74v157q0 62 -22 92q-22 31 -70 38
q48 7 70 38t22 93v0z" />
    <glyph glyph-name="glyph413" horiz-adv-x="425" 
d="M280 515v166q0 75 -45 121q-45 47 -136 48h-77v-109h32q59 0 81 -25q21 -24 20 -74v-158q0 -62 21 -93q22 -31 70 -38q-48 -7 -70 -38q-21 -30 -21 -92v-157q1 -49 -20 -74q-22 -25 -81 -25h-32v-109h77q91 1 136 47t45 121v167q-1 56 19 78t77 21v123q-57 -1 -77 22
q-20 22 -19 78v0z" />
    <glyph glyph-name="glyph414" horiz-adv-x="401" 
d="M107 -144h272v114h-139v767h139v115h-272v-996z" />
    <glyph glyph-name="glyph415" horiz-adv-x="401" 
d="M294 -144v996h-272v-115h139v-767h-139v-114h272z" />
    <glyph glyph-name="glyph420" horiz-adv-x="446" 
d="M50 306h345v127h-345v-127z" />
    <glyph glyph-name="glyph421" horiz-adv-x="446" 
d="M50 306h345v127h-345v-127z" />
    <glyph glyph-name="glyph422" horiz-adv-x="637" 
d="M50 304h536v127h-536v-127z" />
    <glyph glyph-name="glyph423" horiz-adv-x="1264" 
d="M50 304h1164v127h-1164v-127z" />
    <glyph glyph-name="glyph434" horiz-adv-x="601" 
d="M181 199h154l-165 166l165 166h-154l-166 -166zM431 199h155l-166 166l166 166h-155l-166 -166z" />
    <glyph glyph-name="glyph435" horiz-adv-x="601" 
d="M170 199l166 166l-166 166h-155l166 -166l-166 -166h155zM420 199l166 166l-166 166h-155l166 -166l-166 -166h155z" />
    <glyph glyph-name="glyph436" horiz-adv-x="351" 
d="M181 199h154l-165 166l165 166h-154l-166 -166z" />
    <glyph glyph-name="glyph437" horiz-adv-x="351" 
d="M170 199l166 166l-166 166h-155l166 -166l-166 -166h155z" />
    <glyph glyph-name="glyph450" horiz-adv-x="651" 
d="M463 306q-2 -19 -9 -35q-8 -17 -21 -29q-18 -16 -45 -24t-61 -8q-47 0 -80 18q-34 17 -50 52q-7 15 -9 33q-3 17 -3 41q0 23 3 41q2 18 9 33q16 34 50 51q33 18 80 18q33 0 60 -8t45 -23q13 -12 21 -27q7 -16 9 -36h164q-5 84 -65 138q-33 29 -76 48q-44 18 -97 24v93
h-116v-92q-81 -9 -139 -45t-86 -98q-23 -51 -23 -118t23 -118q29 -63 87 -98q59 -36 138 -45v-92h116v93q53 6 97 24q44 19 77 48q60 56 65 141h-164z" />
    <glyph glyph-name="glyph451" horiz-adv-x="732" 
d="M683 285q-29 59 -94 89t-148 46q-76 16 -137 32q-60 16 -79 51q-3 6 -4 12q-1 7 -1 14t1 14q1 6 4 13q13 27 50 40q36 13 83 13q52 0 87 -15q35 -16 50 -49q5 -11 8 -24q2 -13 3 -29h167q-1 27 -5 50t-14 44q-27 59 -87 93q-59 34 -142 43v97h-122v-96q-86 -8 -148 -42
t-88 -91q-15 -34 -16 -78q0 -22 4 -40q3 -18 10 -34q26 -52 82 -82q57 -30 135 -46q79 -15 146 -32q67 -18 89 -58q6 -13 6 -31q0 -16 -7 -33q-14 -28 -52 -42q-39 -13 -92 -13q-59 0 -99 17q-40 16 -57 52q-5 12 -8 26q-2 13 -3 29h-171q0 -28 5 -53t15 -47q28 -62 92 -97
q64 -36 158 -45v-99h122v98q93 7 160 41t95 95q17 38 17 86q0 24 -4 44q-3 20 -11 37v0z" />
    <glyph glyph-name="glyph492" horiz-adv-x="838" 
d="M362 -203h138v788h105v-788h138v788h86v121h-547q-95 0 -156 -29q-61 -30 -88 -89q-20 -45 -20 -111q0 -33 5 -60q5 -28 16 -52q26 -60 86 -89q59 -30 152 -30h85v-449zM293 368q-46 0 -76 13t-44 41q-11 22 -11 55t11 55q13 28 43 41t77 13h69v-218h-69z" />
    <glyph glyph-name="glyph499" 
d="M-155 534h122l51 172h-143z" />
    <glyph glyph-name="glyph526" 
d="M-407 304h407v103h-407v-103z" />
    <glyph glyph-name="glyph527" 
d="M-490 282h440v100h-440v-100z" />
    <glyph glyph-name="glyph528" horiz-adv-x="273" 
d="M50 534h122l51 172h-143z" />
    <glyph glyph-name="glyph529" 
d="M-387 760q35 1 58 22q22 21 23 55q-1 34 -23 56q-23 21 -58 22q-36 -1 -58 -22q-22 -22 -23 -56q1 -34 23 -55t58 -22v0zM-131 760q35 1 58 22q22 21 23 55q-1 34 -23 56q-23 21 -58 22q-36 -1 -58 -22q-22 -22 -23 -56q1 -34 23 -55t58 -22v0z" />
    <glyph glyph-name="glyph530" 
d="M-135 760q37 1 61 23q23 23 24 58q-1 36 -24 59q-24 22 -61 23q-38 -1 -62 -23q-23 -23 -24 -59q1 -35 24 -58q24 -22 62 -23v0z" />
    <glyph glyph-name="glyph531" 
d="M-50 759l-129 148h-171l142 -148h158z" />
    <glyph glyph-name="glyph532" 
d="M-350 759h158l142 148h-171z" />
    <glyph glyph-name="glyph533" 
d="M-520 759h125l139 148h-143zM-314 759h125l139 148h-143z" />
    <glyph glyph-name="glyph534" 
d="M-511 759h155l75 82l76 -82h155l-135 148h-192z" />
    <glyph glyph-name="glyph535" 
d="M-50 907h-155l-75 -82l-76 82h-155l135 -148h192z" />
    <glyph glyph-name="glyph536" 
d="M-249 755q96 0 146 40q49 39 53 112h-109q-6 -34 -27 -50t-63 -16t-64 16t-26 50h-112q4 -73 55 -112q50 -40 147 -40v0z" />
    <glyph glyph-name="glyph537" 
d="M-189 729q63 1 100 33q38 32 39 90q-1 56 -39 89q-38 32 -100 33q-63 -1 -101 -33t-39 -89q1 -58 39 -90t101 -33v0zM-189 800q-27 0 -42 14t-15 38t15 38t42 14q26 0 41 -14t15 -38t-15 -38t-41 -14v0z" />
    <glyph glyph-name="glyph538" 
d="M-180 751q61 0 94 41q33 40 36 117h-101q-4 -29 -15 -44q-12 -15 -33 -15q-17 0 -32 8q-15 7 -34 20q-25 16 -49 26q-23 10 -53 10q-63 0 -96 -41q-34 -40 -39 -118h99q3 29 14 45q12 15 34 15q17 0 33 -8q17 -8 39 -22q21 -13 45 -23q25 -10 58 -11v0z" />
    <glyph glyph-name="glyph539" 
d="M-410 780h360v106h-360v-106z" />
    <glyph glyph-name="glyph540" 
d="M-234 421v22l-145 -86v-112l145 84v-22l234 137v114z" />
    <glyph glyph-name="glyph541" 
d="M-943 0h131l106 96h4l449 421l3 -2l210 191h-133l-115 -109l-3 3l-448 -420h-5z" />
    <glyph glyph-name="glyph542" 
d="M-311 762q33 1 54 22q20 21 21 53q-1 34 -21 55q-21 21 -54 22q-33 -1 -53 -22t-21 -55q1 -32 21 -53t53 -22v0zM-125 762q33 1 54 22q20 21 21 53q-1 33 -21 55q-21 21 -54 22q-33 -1 -53 -22q-20 -22 -21 -55q1 -32 21 -53t53 -22v0z" />
    <glyph glyph-name="glyph543" 
d="M-436 759h141l52 80l54 -80h139l-101 148h-185z" />
    <glyph glyph-name="glyph544" 
d="M-220 753q83 0 125 40q43 39 45 114h-110q-3 -35 -17 -51q-13 -16 -42 -16q-30 0 -44 16q-14 15 -17 51h-110q2 -75 45 -114q43 -40 125 -40v0z" />
    <glyph glyph-name="glyph545" 
d="M-160 756q56 1 82 40t28 110h-87q-1 -29 -7 -44q-7 -16 -25 -16q-10 0 -19 7q-10 6 -22 18q-16 16 -35 26q-20 11 -49 11q-58 -1 -83 -41q-26 -40 -29 -108h87q1 27 8 43q6 15 22 15q12 0 23 -7q10 -7 24 -19q15 -15 34 -25t48 -10v0z" />
    <glyph glyph-name="glyph546" 
d="M-347 779h297v104h-297v-104z" />
    <glyph glyph-name="glyph547" 
d="M-402 256h402v87h-402v-87z" />
    <glyph glyph-name="glyph548" 
d="M-134 562q37 1 60 22t24 57q-1 36 -24 58q-23 21 -60 22q-37 -1 -60 -22q-23 -22 -24 -58q1 -36 24 -57t60 -22v0z" />
    <glyph glyph-name="glyph549" 
d="M-299 564q34 1 54 21t20 54t-20 55t-54 22q-33 -1 -53 -22t-21 -55q1 -34 21 -54t53 -21v0zM-123 563q33 1 53 22q20 20 20 54t-20 55t-53 22q-33 -1 -53 -22t-21 -55q1 -34 21 -54q20 -21 53 -22v0z" />
    <glyph glyph-name="glyph550" 
d="M-50 553l-96 163h-159l112 -163h143z" />
    <glyph glyph-name="glyph551" 
d="M-305 553h143l112 163h-159z" />
    <glyph glyph-name="glyph552" 
d="M-387 553h121l48 93l47 -93h121l-89 164h-158z" />
    <glyph glyph-name="glyph553" 
d="M-391 717l90 -164h158l89 164h-121l-47 -94l-48 94h-121z" />
    <glyph glyph-name="glyph554" 
d="M-212 545q78 0 119 44q41 43 43 128h-103q-2 -46 -16 -66q-13 -19 -43 -19q-30 -1 -44 19q-13 19 -14 66h-104q2 -85 43 -128q41 -44 119 -44v0z" />
    <glyph glyph-name="glyph555" 
d="M-150 550q53 0 76 41t24 128h-87q-1 -37 -6 -54q-4 -17 -19 -17q-10 0 -18 8t-17 21q-15 21 -33 33q-19 12 -48 12q-54 0 -77 -41t-24 -129h87q1 38 6 55t19 17q10 0 18 -8q8 -7 18 -20q15 -21 33 -33q18 -13 48 -13v0z" />
    <glyph glyph-name="glyph556" 
d="M-333 586h283v104h-283v-104z" />
    <glyph glyph-name="glyph557" 
d="M-128 -218q22 0 41 3q19 4 36 9v83q-9 -4 -18 -6t-19 -2q-18 0 -28 8q-11 8 -11 25q0 27 18 51q18 23 52 47l-116 5q-35 -24 -57 -54q-22 -31 -23 -75q1 -47 36 -70q35 -24 89 -24v0z" />
    <glyph glyph-name="glyph558" 
d="M-167 343l135 164l-105 77l-86 -116zM-531 -85l87 114l-56 125l-134 -163z" />
    <glyph glyph-name="glyph559" 
d="M-183 512l170 182l-109 92l-122 -137zM-751 -79l136 155l-70 128l-174 -190z" />
  </font>
</defs>
</svg>
