<?xml version="1.0" standalone="no"?>
<!DOCTYPE svg PUBLIC "-//W3C//DTD SVG 1.1//EN" "http://www.w3.org/Graphics/SVG/1.1/DTD/svg11.dtd" >
<svg>
<metadata>
Created by FontForge 20090622 at Tue Dec 31 05:42:42 2019
 By deploy user
Copyright &#194;&#169; 2018 Monotype Imaging Inc. All rights reserved.
</metadata>
<defs>
<font id="NeuePlak-ExtendedExtraBlack" horiz-adv-x="0" >
  <font-face 
    font-family="Neue Plak Extended ExtraBlack"
    font-weight="900"
    font-stretch="expanded"
    units-per-em="1000"
    panose-1="2 11 11 5 3 2 2 2 2 4"
    ascent="800"
    descent="-200"
    x-height="507"
    cap-height="706"
    bbox="-990 -222.037 1210 1206"
    underline-thickness="50"
    underline-position="-50"
    unicode-range="U+000D-U+FEFF"
  />
<missing-glyph horiz-adv-x="836" 
d="M43 0h750v706h-750v-706zM275 182v342h286v-342h-286z" />
    <glyph glyph-name=".notdef" horiz-adv-x="836" 
d="M43 0h750v706h-750v-706zM275 182v342h286v-342h-286z" />
    <glyph glyph-name="glyph1" 
 />
    <glyph glyph-name="glyph1" 
 />
    <glyph glyph-name="uni000D" unicode="&#xd;" horiz-adv-x="205" 
 />
    <glyph glyph-name="space" unicode=" " horiz-adv-x="205" 
 />
    <glyph glyph-name="exclam" unicode="!" horiz-adv-x="351" 
d="M90 257h171l31 449h-232zM176 -21q52 1 84 32q31 31 32 83q-1 54 -32 85q-32 30 -84 31q-53 -1 -85 -31q-32 -31 -33 -85q1 -52 33 -83t85 -32v0z" />
    <glyph glyph-name="quotedbl" unicode="&#x22;" horiz-adv-x="565" 
d="M80 416h146l30 290h-206zM339 416h146l31 290h-207z" />
    <glyph glyph-name="numbersign" unicode="#" horiz-adv-x="933" 
d="M872 411l36 169h-123l31 149h-194l-30 -149h-160l31 149h-193l-31 -149h-119l-36 -169h121l-24 -116h-120l-36 -169h122l-31 -149h193l31 149h159l-30 -149h192l31 149h121l35 169h-121l23 116h122zM534 295h-160l24 116h159z" />
    <glyph glyph-name="dollar" unicode="$" horiz-adv-x="733" 
d="M691 304q-25 52 -80 80q-56 28 -131 48q-20 6 -39 11t-37 9v116q17 -5 29 -15q12 -9 19 -24q5 -11 6 -29h232q-1 25 -5 46q-5 21 -13 39q-29 63 -97 99t-165 43v69h-89v-68q-101 -7 -171 -43t-99 -99q-8 -19 -13 -39q-4 -20 -4 -43q0 -48 17 -85q19 -41 62 -69t120 -51
q23 -7 46 -12l46 -12v-133q-20 4 -34 14t-21 26q-4 7 -5 15q-2 8 -2 17h-240q1 -25 5 -48q5 -22 13 -42q30 -65 100 -102q71 -37 178 -44v-68h89v68q105 7 179 43q73 36 103 101q19 42 19 93q0 27 -5 49q-5 21 -13 40v0zM268 506q-5 11 -5 21t3 16q6 14 21 22q16 7 39 9
v-102q-22 7 -37 15t-21 19v0zM463 170q-6 -13 -22 -21t-39 -10v115q23 -8 38 -18q16 -10 23 -23q4 -10 4 -22t-4 -21v0z" />
    <glyph glyph-name="percent" unicode="%" horiz-adv-x="809" 
d="M195 404q61 0 104 20t62 63q8 16 11 34q4 18 4 39q0 22 -4 40q-3 17 -11 33q-19 43 -62 63q-43 21 -104 21q-60 0 -103 -21q-43 -20 -63 -63q-7 -16 -10 -33q-4 -18 -4 -40q0 -21 4 -39q3 -18 10 -34q20 -43 63 -63t103 -20v0zM55 0h146l554 706h-146zM195 506
q-16 0 -25 6q-10 5 -14 14q-3 6 -4 14t-1 20q0 10 1 19q1 8 4 16q4 10 14 15q9 5 25 5t26 -5q9 -5 13 -15q3 -7 4 -16q1 -8 1 -19q0 -12 -1 -20t-4 -14q-4 -9 -13 -14q-10 -6 -26 -6v0zM613 -10q61 0 104 20t62 63q8 16 11 34q4 17 4 39t-4 39q-3 18 -11 34q-19 43 -62 63
t-104 20q-60 0 -103 -20t-63 -63q-7 -16 -10 -34q-4 -17 -4 -39t4 -39q3 -18 10 -34q20 -43 63 -63t103 -20v0zM613 92q-16 0 -25 5q-10 5 -14 15q-3 6 -4 14q-1 7 -1 20q0 10 1 19q1 8 4 15q4 10 14 15q9 5 25 5t26 -5q9 -5 13 -15q3 -7 4 -15q1 -9 1 -19q0 -13 -1 -20
q-1 -8 -4 -14q-7 -20 -39 -20v0z" />
    <glyph glyph-name="ampersand" unicode="&#x26;" horiz-adv-x="798" 
d="M784 305l-158 75l-33 -58q-17 -28 -33 -51l-96 106q72 34 125 78q52 45 55 111q-3 87 -77 125q-74 39 -186 38q-138 -2 -200 -50q-61 -48 -60 -122q-1 -31 13 -68q14 -36 51 -86q-68 -35 -115 -87q-48 -52 -50 -129q1 -94 81 -146q79 -51 221 -52q69 0 126 12
q56 12 103 37q42 -19 96 -29q54 -9 125 -9v170q-35 0 -68 8q41 55 80 127v0zM330 561q0 24 16 38t45 14q28 0 40 -12t12 -30q-1 -25 -22 -44q-22 -20 -58 -38q-19 24 -26 41t-7 31v0zM252 208q0 21 11 39q10 17 29 33l121 -131q-27 -8 -59 -8q-49 0 -75 18q-27 17 -27 49v0z
" />
    <glyph glyph-name="quotesingle" unicode="'" horiz-adv-x="306" 
d="M80 416h146l30 290h-206z" />
    <glyph glyph-name="parenleft" unicode="(" horiz-adv-x="417" 
d="M220 -203h189q-69 114 -109 233t-41 266q1 147 41 266t109 233h-189q-69 -115 -108 -231t-40 -268q1 -152 40 -268t108 -231v0z" />
    <glyph glyph-name="parenright" unicode=")" horiz-adv-x="417" 
d="M197 -203q69 115 108 231t40 268q-1 152 -40 268t-108 231h-189q69 -114 109 -233t41 -266q-1 -147 -41 -266t-109 -233h189z" />
    <glyph glyph-name="asterisk" unicode="*" horiz-adv-x="452" 
d="M180 334l46 123l46 -123l121 88l-101 81l130 6l-47 143l-109 -72l35 126h-150l35 -126l-109 72l-47 -143l130 -6l-101 -81z" />
    <glyph glyph-name="plus" unicode="+" horiz-adv-x="613" 
d="M568 375h-181v173h-160v-173h-182v-156h182v-172h160v172h181v156z" />
    <glyph glyph-name="comma" unicode="," horiz-adv-x="321" 
d="M18 -182h153l117 343h-199z" />
    <glyph glyph-name="hyphen" unicode="-" horiz-adv-x="446" 
d="M45 214h356v167h-356v-167z" />
    <glyph glyph-name="period" unicode="." horiz-adv-x="373" 
d="M186 -21q53 1 84 32q32 31 33 83q-1 54 -33 85q-31 30 -84 31q-53 -1 -85 -31q-31 -31 -32 -85q1 -52 33 -83q31 -31 84 -32v0z" />
    <glyph glyph-name="slash" unicode="/" horiz-adv-x="619" 
d="M11 -50h212l385 779h-210z" />
    <glyph glyph-name="zero" unicode="0" horiz-adv-x="784" 
d="M392 -23q123 0 208 48q84 48 123 138q17 37 25 84q9 46 9 106t-9 106q-8 47 -25 84q-39 90 -123 138q-85 48 -208 48t-208 -48q-84 -48 -124 -138q-17 -37 -25 -84q-9 -46 -9 -106t9 -106q8 -47 25 -84q40 -90 124 -138q85 -48 208 -48v0zM392 160q-81 0 -109 59
q-9 20 -12 51q-3 32 -3 83t3 83q3 31 12 51q28 59 109 59q40 0 67 -15t41 -44q9 -20 12 -51q3 -32 3 -83t-3 -83q-3 -31 -12 -51q-14 -29 -41 -44t-67 -15v0z" />
    <glyph glyph-name="one" unicode="1" horiz-adv-x="441" 
d="M154 0h224v706h-335l-43 -191h154v-515z" />
    <glyph glyph-name="two" unicode="2" horiz-adv-x="673" 
d="M-7 0h660v185h-246q49 39 86 73q38 33 70 66q37 37 58 77q22 40 22 93q0 26 -5 50t-14 44q-33 72 -110 107q-77 34 -184 34q-110 0 -186 -37t-113 -117q-12 -27 -18 -58q-6 -32 -6 -71h228q0 19 2 35t9 30q10 23 30 34q19 11 50 11q26 0 45 -9q18 -9 26 -28q6 -12 6 -28
q0 -26 -19 -55q-20 -29 -63 -76l-328 -358v-2z" />
    <glyph glyph-name="three" unicode="3" horiz-adv-x="685" 
d="M649 278q-15 33 -45 56t-81 34q42 14 69 36t40 52q7 15 10 31q3 15 3 34q0 21 -3 39q-4 18 -12 37q-31 66 -106 99q-76 33 -182 33q-112 0 -190 -36q-79 -35 -113 -108q-9 -19 -13 -39q-5 -21 -5 -45h221q1 9 3 17q1 8 5 16q11 22 32 32q22 10 50 10q33 0 51 -10
q18 -11 26 -28q4 -8 5 -17t1 -18t-1 -15q-2 -7 -4 -13q-10 -21 -33 -30q-24 -10 -59 -10h-37v-131h34q34 0 62 -9q27 -10 39 -34q3 -8 6 -18q2 -10 2 -22q0 -10 -2 -18q-1 -9 -5 -17q-11 -23 -33 -33t-51 -10q-34 0 -54 12q-21 12 -31 35q-13 30 -13 75h-225q0 -45 6 -80
t19 -63q33 -74 112 -110q79 -35 195 -35q127 0 201 36q74 35 103 101q18 39 17 84q0 22 -3 42q-4 21 -11 38v0z" />
    <glyph glyph-name="four" unicode="4" horiz-adv-x="785" 
d="M775 309h-107v397h-414l-271 -574v-2h461v-130h224v130h107v179zM308 309l134 330h2v-330h-136z" />
    <glyph glyph-name="five" unicode="5" horiz-adv-x="674" 
d="M336 -23q115 0 191 38t109 112q11 25 17 52q6 28 6 57q0 31 -6 59q-6 29 -17 52q-27 60 -92 91q-64 32 -159 32q-57 0 -110 -13l14 74h303l40 175h-519l-67 -373l62 5q37 2 82 2q88 1 145 -15q57 -15 76 -55q4 -9 6 -19t2 -22q0 -23 -7 -41q-10 -22 -29 -34
q-19 -11 -49 -11q-31 0 -50 11t-29 33q-7 15 -10 34t-3 44h-227q0 -43 6 -78q6 -36 19 -65q34 -75 109 -110q76 -35 187 -35v0z" />
    <glyph glyph-name="six" unicode="6" horiz-adv-x="749" 
d="M709 342q-29 64 -95 94q-66 31 -158 31q-63 0 -115 -16q-51 -15 -87 -46q1 26 4 49q4 23 12 42q16 37 45 54q29 18 71 18q52 0 82 -29q7 -7 11 -15q5 -8 8 -18h228q-7 40 -24 73t-43 59q-45 44 -111 68q-66 23 -146 23q-122 0 -205 -47q-82 -47 -122 -136
q-38 -84 -38 -201q0 -55 9 -102q8 -46 25 -84q37 -89 118 -135q82 -47 220 -47q107 0 190 40t120 119q21 46 21 103q0 30 -5 56t-15 47v0zM481 192q-11 -25 -36 -37t-61 -12t-61 13q-25 12 -36 36q-4 9 -6 19t-2 21q0 24 7 40q12 26 38 38q25 12 61 12q35 0 60 -12
q25 -11 37 -36q4 -9 5 -19q2 -10 2 -22q0 -11 -2 -22q-2 -10 -6 -19v0z" />
    <glyph glyph-name="seven" unicode="7" horiz-adv-x="648" 
d="M59 0h263l344 706h-657v-191h312z" />
    <glyph glyph-name="eight" unicode="8" horiz-adv-x="718" 
d="M679 293q-16 37 -45 62q-30 24 -74 35q35 9 60 28q24 19 36 46q7 15 10 32q4 17 4 35q0 19 -4 36q-3 17 -10 32q-31 67 -110 98q-78 32 -187 32q-114 0 -191 -33q-78 -33 -107 -98q-6 -14 -9 -31q-4 -17 -4 -36q0 -18 3 -34t10 -31q12 -26 37 -46q26 -20 62 -30
q-43 -11 -74 -35q-31 -25 -48 -63q-16 -36 -16 -82q0 -25 4 -45t13 -39q30 -69 109 -109q79 -39 211 -40q130 1 210 40t111 109q8 19 12 39t4 45q0 23 -4 44q-5 20 -13 39v0zM279 549q9 20 30 30t50 10q30 0 51 -11t30 -31q4 -7 5 -15t1 -16q0 -10 -1 -18q-2 -8 -5 -15
q-10 -21 -31 -31t-49 -10q-30 0 -51 11t-31 32q-3 7 -4 14q-2 7 -2 16q0 10 2 18q1 8 5 16v0zM449 184q-12 -24 -35 -35t-53 -11q-35 0 -58 12q-24 13 -35 36q-4 8 -5 16t-1 18q0 21 7 37q11 23 34 34q22 12 54 12q35 0 59 -12q23 -13 34 -36q4 -9 5 -17q2 -8 2 -16
q0 -14 -2 -22q-2 -9 -6 -16v0z" />
    <glyph glyph-name="nine" unicode="9" horiz-adv-x="749" 
d="M689 548q-37 88 -118 134q-82 47 -220 47q-107 0 -190 -40q-83 -39 -120 -118q-21 -45 -21 -104q0 -29 5 -55t15 -48q29 -63 96 -93q66 -31 158 -31q63 0 114 16q51 15 87 46q0 -26 -4 -49t-12 -42q-16 -37 -44 -55q-29 -17 -71 -17q-54 0 -82 29q-14 14 -20 33h-227
q14 -79 67 -132q45 -44 111 -68q65 -23 146 -23q122 0 204 47t122 136q38 84 38 201q0 55 -9 102q-8 46 -25 84v0zM463 434q-12 -25 -38 -37q-25 -12 -61 -12q-35 0 -60 12q-24 11 -36 36q-4 9 -6 19t-2 22q0 11 2 22q2 10 6 19q12 24 37 37q25 12 60 12q36 0 61 -13
q25 -12 37 -37q4 -8 5 -18q2 -11 2 -22q0 -22 -7 -40v0z" />
    <glyph glyph-name="colon" unicode=":" horiz-adv-x="373" 
d="M186 292q53 1 84 32q32 31 33 84q-1 53 -33 84q-31 31 -84 32q-53 -1 -85 -32q-31 -31 -32 -84q1 -53 33 -84q31 -31 84 -32v0zM186 -21q53 1 84 32q32 31 33 83q-1 54 -33 85q-31 30 -84 31q-53 -1 -85 -31q-31 -31 -32 -85q1 -52 33 -83q31 -31 84 -32v0z" />
    <glyph glyph-name="semicolon" unicode=";" horiz-adv-x="379" 
d="M193 292q53 1 84 32q32 31 33 84q-1 53 -33 84q-31 31 -84 32q-53 -1 -85 -32q-31 -31 -32 -84q1 -53 33 -84q31 -31 84 -32v0zM18 -182h153l117 343h-199z" />
    <glyph glyph-name="less" unicode="&#x3c;" horiz-adv-x="613" 
d="M568 539l-523 -143v-196l523 -143v156l-347 85l347 84v157z" />
    <glyph glyph-name="equal" unicode="=" horiz-adv-x="613" 
d="M45 328h523v156h-523v-156zM45 112h523v156h-523v-156z" />
    <glyph glyph-name="greater" unicode="&#x3e;" horiz-adv-x="613" 
d="M45 539v-157l347 -84l-347 -85v-156l523 143v196z" />
    <glyph glyph-name="question" unicode="?" horiz-adv-x="607" 
d="M194 257h236q92 125 123 179q32 55 30 97q-1 97 -76 146q-74 50 -203 50q-103 0 -170 -31q-67 -32 -94 -91q-10 -21 -13 -44t-3 -52h213q0 12 1 20q1 9 5 17q7 15 21 23q14 7 36 7q28 0 43 -13q15 -14 15 -40q2 -29 -31 -80q-34 -52 -133 -188v0zM301 -23q52 1 84 32
q31 31 32 84q-1 53 -32 84q-32 31 -84 32q-53 -1 -85 -32t-33 -84q1 -53 33 -84t85 -32v0z" />
    <glyph glyph-name="at" unicode="@" horiz-adv-x="977" 
d="M925 489q-51 109 -164 163q-114 54 -264 54q-160 0 -271 -57t-162 -168q-18 -41 -29 -88t-11 -104q0 -54 10 -100q9 -45 27 -85q54 -116 176 -176q121 -60 290 -60q54 0 106 6v85q-52 -6 -105 -6q-132 0 -232 46t-145 140q-15 32 -22 70q-8 38 -8 85q0 45 7 82
q7 38 23 72q39 87 124 132q85 44 220 44q118 0 209 -41q90 -42 130 -126q22 -50 22 -116q0 -28 -4 -51q-4 -24 -13 -44q-14 -32 -38 -54t-61 -33v147q0 40 -4 68q-3 29 -13 49q-24 51 -82 74t-148 23q-82 1 -146 -21q-63 -23 -90 -76q-10 -24 -13 -55h189q1 6 2 10q1 5 3 9
q7 13 21 18q15 5 33 5q21 0 36 -6q14 -6 20 -19q4 -6 4 -15q1 -9 1 -25v-5h-70q-97 1 -161 -18q-64 -18 -86 -67q-6 -13 -8 -27q-3 -14 -3 -30q0 -17 3 -31q2 -13 8 -26q18 -39 59 -60q40 -22 97 -22q56 0 97 16t68 45v-61h87q107 0 179 37q71 38 105 112q13 29 20 62
q6 33 6 72q0 41 -7 78q-8 37 -22 69v0zM555 253q0 -13 -1 -22t-5 -17q-8 -16 -27 -24t-44 -8q-18 0 -33 5q-15 4 -21 16q-3 9 -3 17q0 9 3 17q8 15 27 19q18 4 39 3h65v-6z" />
    <glyph glyph-name="A" unicode="A" horiz-adv-x="863" 
d="M631 0h245l-278 706h-333l-278 -706h246l42 117h313zM334 280l96 265h2l97 -265h-195z" />
    <glyph glyph-name="B" unicode="B" horiz-adv-x="728" 
d="M692 287q-33 72 -132 97q80 24 105 81q7 15 10 31q3 17 3 37q0 22 -4 40t-12 35q-21 47 -74 73q-54 25 -135 25h-401v-706h389q93 0 158 30q65 31 92 90q8 18 13 39q4 21 4 46q0 24 -4 44q-4 21 -12 38v0zM284 568h63q69 0 85 -37q3 -7 4 -15t1 -16q0 -10 -1 -18
q-2 -8 -4 -15q-9 -19 -30 -27q-21 -9 -55 -9h-63v137zM453 182q-10 -23 -32 -33q-23 -10 -59 -10h-78v150h76q38 0 61 -9t32 -30q4 -8 5 -16q2 -8 2 -17q0 -10 -2 -18q-1 -9 -5 -17v0z" />
    <glyph glyph-name="C" unicode="C" horiz-adv-x="857" 
d="M439 -22q91 0 170 26q78 25 134 75q44 39 68 91q23 51 25 112h-246q-2 -20 -12 -39t-26 -34q-21 -19 -51 -29q-30 -9 -65 -9q-51 0 -89 19q-39 18 -58 60q-8 17 -12 42t-4 61t5 60t13 42q18 40 55 60t90 20q36 0 63 -8q27 -9 47 -27q17 -15 28 -37t15 -46h246
q-3 62 -27 116t-70 96q-54 49 -131 74t-168 25q-136 0 -236 -52t-147 -153q-16 -36 -24 -78t-8 -91q0 -51 8 -93q8 -43 24 -79q48 -103 147 -153q99 -51 236 -51v0z" />
    <glyph glyph-name="D" unicode="D" horiz-adv-x="839" 
d="M52 0h374q135 0 226 47q90 48 132 140q16 35 24 76t8 90t-8 89q-8 41 -24 76q-41 93 -132 141q-91 47 -226 47h-374v-706zM284 188v330h116q60 0 97 -18q36 -19 53 -56q8 -18 12 -40q4 -23 4 -51q0 -27 -3 -49q-4 -23 -12 -40q-17 -37 -53 -56q-37 -20 -98 -20h-116z" />
    <glyph glyph-name="E" unicode="E" horiz-adv-x="652" 
d="M52 0h563v176h-331v95h328v167h-328v92h331v176h-563v-706z" />
    <glyph glyph-name="F" unicode="F" horiz-adv-x="560" 
d="M52 0h232v267h248v171h-248v86h250v182h-482v-706z" />
    <glyph glyph-name="G" unicode="G" horiz-adv-x="873" 
d="M429 399v-147h179q-3 -12 -8 -22q-17 -36 -58 -51q-40 -16 -92 -16q-57 0 -98 21q-42 20 -62 63q-8 20 -12 45q-4 24 -4 62q0 37 4 61q3 24 13 45q19 41 59 62q40 20 97 20q35 0 66 -8q31 -7 52 -26q11 -10 18 -23q8 -12 12 -28h249q-7 49 -32 94q-26 46 -62 78
q-56 51 -134 75q-79 24 -171 24q-139 0 -239 -50q-99 -50 -147 -152q-17 -36 -26 -79t-9 -94q0 -101 33 -173q46 -100 147 -151t241 -51q133 0 227 48q93 48 139 148q20 44 29 91t9 104v30h-420z" />
    <glyph glyph-name="H" unicode="H" horiz-adv-x="855" 
d="M52 0h232v262h287v-262h232v706h-232v-262h-287v262h-232v-706z" />
    <glyph glyph-name="I" unicode="I" horiz-adv-x="337" 
d="M52 0h232v706h-232v-706z" />
    <glyph glyph-name="J" unicode="J" horiz-adv-x="404" 
d="M100 -7q143 0 206 65q63 66 62 200v448h-232v-415q1 -58 -19 -80t-69 -21q-22 0 -40 2v-192q22 -3 44 -5t48 -2v0z" />
    <glyph glyph-name="K" unicode="K" horiz-adv-x="821" 
d="M834 0l-346 386l308 320h-284l-228 -249v249h-232v-706h232v299l257 -299h293z" />
    <glyph glyph-name="L" unicode="L" horiz-adv-x="507" 
d="M52 0h446v192h-214v514h-232v-706z" />
    <glyph glyph-name="M" unicode="M" horiz-adv-x="1039" 
d="M52 0h218v386l199 -386h101l199 386v-386h218v706h-262l-205 -392l-206 392h-262v-706z" />
    <glyph glyph-name="N" unicode="N" horiz-adv-x="861" 
d="M52 0h227v396l282 -396h248v706h-227v-403l-287 403h-243v-706z" />
    <glyph glyph-name="O" unicode="O" horiz-adv-x="876" 
d="M438 -23q135 0 233 49q97 49 144 147q37 77 37 180q0 50 -9 94t-26 82q-45 98 -144 149q-98 51 -234 51q-138 0 -237 -52t-145 -153q-16 -37 -24 -79q-9 -43 -9 -92q0 -50 9 -94q8 -44 25 -81q46 -100 144 -150q98 -51 236 -51v0zM439 171q-55 0 -92 21q-38 21 -57 62
q-8 18 -12 43q-4 24 -4 57t4 58q3 24 12 42q38 81 147 81q55 0 93 -19q37 -20 56 -61q9 -19 13 -43q4 -25 4 -59q0 -33 -4 -56q-3 -24 -11 -42q-18 -41 -55 -63q-38 -21 -94 -21v0z" />
    <glyph glyph-name="P" unicode="P" horiz-adv-x="706" 
d="M52 0h232v236h143q97 0 158 32q61 31 89 93q11 26 17 54q5 29 5 57q0 34 -5 63q-6 29 -17 54q-28 61 -89 89t-158 28h-375v-706zM284 395v149h81q36 0 58 -8q21 -8 30 -25q4 -8 6 -18q2 -9 2 -22q0 -11 -2 -21t-7 -19q-9 -19 -30 -27q-21 -9 -54 -9h-84z" />
    <glyph glyph-name="Q" unicode="Q" horiz-adv-x="876" 
d="M817 529q-45 98 -144 149q-98 51 -234 51q-138 0 -237 -52t-145 -153q-16 -37 -24 -79q-9 -43 -9 -92q0 -50 9 -94q8 -44 25 -81q46 -100 144 -150q98 -51 236 -51h25l95 -153l165 103l-64 94q53 24 92 62q40 38 64 90q37 77 37 180q0 50 -9 94t-26 82v0zM507 243
l-106 -69q-40 7 -68 27t-43 53q-8 18 -12 43q-4 24 -4 57t4 58q3 24 12 42q38 81 147 81q55 0 93 -19q37 -20 56 -61q9 -19 13 -43q4 -25 4 -59q0 -33 -4 -56q-3 -24 -11 -42q-16 -38 -49 -59z" />
    <glyph glyph-name="R" unicode="R" horiz-adv-x="745" 
d="M755 0l-221 261q54 11 90 38q35 27 53 69q10 22 15 50t5 58q0 31 -5 58q-5 26 -15 48q-27 60 -89 92q-61 32 -154 32h-382v-706h232v250l198 -250h273zM367 545q32 0 55 -10t34 -32q3 -7 5 -16t2 -20q0 -12 -2 -22t-5 -17q-11 -22 -34 -31t-55 -9h-83v157h83z" />
    <glyph glyph-name="S" unicode="S" horiz-adv-x="728" 
d="M361 -23q123 0 208 37q86 36 119 108q10 21 14 44q5 23 5 50q0 26 -4 48q-5 21 -13 39q-27 57 -85 87q-57 30 -127 47q-74 17 -128 32q-54 14 -68 42q-1 4 -2 9q-1 4 -1 9q0 9 3 17q8 15 27 22q20 7 45 7q34 0 55 -10q20 -10 28 -29q4 -8 6 -16q1 -9 2 -20h241
q-1 25 -5 46q-5 20 -13 39q-33 71 -113 107q-80 37 -194 37q-117 -1 -198 -38q-80 -37 -111 -104q-8 -19 -13 -39q-4 -20 -4 -44t4 -45t12 -38q22 -47 67 -76q44 -30 113 -48q72 -17 135 -34q63 -16 82 -49l4 -10q1 -5 1 -12q1 -10 -5 -21q-7 -16 -28 -25t-54 -9
q-70 1 -90 43q-4 7 -5 16q-1 8 -2 18h-248q1 -25 5 -48q5 -22 13 -42q33 -72 115 -109q82 -38 207 -38v0z" />
    <glyph glyph-name="T" unicode="T" horiz-adv-x="589" 
d="M178 0h232v524h170v182h-572v-182h170v-524z" />
    <glyph glyph-name="U" unicode="U" horiz-adv-x="802" 
d="M401 -23q188 0 277 79t88 239v411h-232v-397q0 -70 -32 -105q-33 -35 -102 -35q-68 0 -100 35t-32 105v397h-232v-411q-1 -158 88 -238t277 -80v0z" />
    <glyph glyph-name="V" unicode="V" horiz-adv-x="835" 
d="M595 706l-177 -452l-177 452h-254l307 -706h247l306 706h-252z" />
    <glyph glyph-name="W" unicode="W" horiz-adv-x="1167" 
d="M938 706l-116 -398l-115 398h-246l-115 -398l-117 398h-242l232 -706h235l130 426l130 -426h236l230 706h-242z" />
    <glyph glyph-name="X" unicode="X" horiz-adv-x="837" 
d="M-13 0h285l147 203l146 -203h284l-291 372l259 334h-279l-119 -169l-119 169h-280l259 -332z" />
    <glyph glyph-name="Y" unicode="Y" horiz-adv-x="742" 
d="M255 0h232v309l268 397h-258l-126 -196l-126 196h-258l268 -397v-309z" />
    <glyph glyph-name="Z" unicode="Z" horiz-adv-x="710" 
d="M4 0h696v183h-314l313 523h-677v-182h304z" />
    <glyph glyph-name="bracketleft" unicode="[" horiz-adv-x="414" 
d="M89 -203h308v156h-127v685h127v157h-308v-998z" />
    <glyph glyph-name="backslash" unicode="\" horiz-adv-x="619" 
d="M608 -50l-386 779h-211l385 -779h212z" />
    <glyph glyph-name="bracketright" unicode="]" horiz-adv-x="414" 
d="M325 -203v998h-307v-157h126v-685h-126v-156h307z" />
    <glyph glyph-name="asciicircum" unicode="^" horiz-adv-x="603" 
d="M586 353l-157 353h-254l-157 -353h202l82 191l82 -191h202z" />
    <glyph glyph-name="underscore" unicode="_" horiz-adv-x="538" 
d="M0 -203h538v167h-538v-167z" />
    <glyph glyph-name="grave" unicode="`" horiz-adv-x="424" 
d="M374 553l-106 168h-218l126 -168h198z" />
    <glyph glyph-name="a" unicode="a" horiz-adv-x="650" 
d="M589 407q-28 62 -94 90q-67 28 -173 27q-97 1 -168 -25q-71 -27 -101 -89q-6 -14 -10 -31q-4 -16 -5 -35h217q0 7 1 12t4 10q7 16 23 23t41 7q27 0 43 -8t23 -24q4 -8 5 -17q1 -10 1 -27v-7h-70q-104 2 -185 -20q-80 -21 -113 -87q-6 -14 -9 -31q-4 -17 -4 -37
q0 -19 4 -35q3 -16 9 -30q22 -47 69 -69q46 -21 112 -21t111 19q46 19 78 57v-59h215v284q0 37 -6 68q-7 30 -18 55v0zM305 123q-21 0 -38 6q-16 5 -23 20q-2 5 -3 10q-1 4 -1 9q0 6 1 11q1 4 3 8q8 17 32 22t58 4h64v-7q0 -17 -2 -27q-1 -9 -5 -17q-9 -20 -31 -30
q-22 -9 -55 -9v0z" />
    <glyph glyph-name="b" unicode="b" horiz-adv-x="697" 
d="M656 387q-29 66 -86 101q-57 36 -136 36q-110 0 -176 -73v255h-215v-706h210v61q67 -79 181 -79q78 0 135 36t87 102q26 55 26 133q0 40 -7 73t-19 61v0zM446 192q-12 -25 -35 -38t-56 -13q-46 0 -72 26q-27 27 -28 77v18q1 51 28 78q26 26 72 26q33 0 56 -13t35 -39
q5 -11 8 -26q2 -15 2 -35q0 -19 -2 -34q-3 -15 -8 -27v0z" />
    <glyph glyph-name="c" unicode="c" horiz-adv-x="682" 
d="M338 -18q82 0 148 22q65 21 111 63q33 29 50 66t20 81h-233q-1 -14 -7 -27q-6 -14 -17 -24t-28 -16q-18 -6 -43 -6q-30 0 -52 13q-22 12 -33 37q-6 12 -8 27t-2 36t2 36t8 27q11 25 32 37q22 12 53 12q25 0 42 -6q17 -5 28 -15t17 -21q7 -12 8 -27h231q-3 43 -19 79
q-17 36 -48 65q-47 42 -113 63q-65 20 -147 20q-106 0 -185 -37t-114 -115q-24 -51 -24 -119q0 -67 24 -118q37 -80 117 -117q80 -36 182 -36v0z" />
    <glyph glyph-name="d" unicode="d" horiz-adv-x="697" 
d="M439 706v-255q-66 73 -176 73q-78 0 -135 -36q-57 -35 -87 -101q-12 -28 -19 -61t-7 -73q0 -78 26 -133q30 -66 87 -102t135 -36q115 0 182 81v-63h209v706h-215zM443 244q-1 -50 -28 -77q-27 -26 -73 -26q-32 0 -55 13q-24 13 -35 38q-5 12 -8 27q-2 15 -2 34q0 20 2 35
q3 15 8 26q11 26 35 39q23 13 55 13q46 0 73 -26q27 -27 28 -78v-18z" />
    <glyph glyph-name="e" unicode="e" horiz-adv-x="678" 
d="M426 143q-12 -10 -33 -15q-20 -5 -43 -5q-40 0 -69 12t-41 40q-3 6 -5 13q-2 8 -3 16h431q0 50 -6 87q-6 38 -22 72q-35 79 -112 120q-76 41 -187 41q-104 0 -183 -38t-115 -116q-11 -24 -17 -53q-6 -28 -6 -63q0 -33 5 -62q6 -29 17 -54q36 -78 118 -117t194 -39
q74 -1 140 17q65 17 112 59q23 21 38 48q15 26 20 59h-219q-1 -6 -5 -11q-3 -6 -9 -11v0zM339 388q36 0 62 -13q26 -12 38 -38q3 -7 5 -14t3 -16h-215q2 9 4 16q2 8 5 15q12 24 37 37q26 13 61 13v0z" />
    <glyph glyph-name="f" unicode="f" horiz-adv-x="439" 
d="M82 0h215v346h131v161h-131v10q1 25 20 37q19 13 51 13q19 0 34 -3q16 -2 27 -7v160q-18 5 -45 8q-28 4 -58 4q-129 0 -187 -49t-57 -151v-22h-72v-161h72v-346z" />
    <glyph glyph-name="g" unicode="g" horiz-adv-x="692" 
d="M436 507v-68q-29 38 -72 61q-44 23 -108 24q-76 0 -132 -34t-84 -97q-13 -28 -19 -60t-6 -71t6 -71t19 -60q28 -63 84 -97q56 -35 132 -35q62 1 105 22q43 22 71 58v-69q0 -12 -2 -23t-6 -20q-20 -43 -86 -43q-22 0 -38 5q-17 5 -30 15q-5 5 -8 10q-4 6 -6 12h-227
q6 -36 21 -64t40 -50q43 -39 108 -55q65 -17 144 -17q107 0 179 32t104 102q12 27 18 59t6 70v464h-213zM337 152q-32 0 -53 12q-22 12 -32 35q-6 12 -8 27t-2 36q0 19 2 33t8 26q10 23 32 35q21 12 53 12q44 0 70 -24q25 -25 26 -74v-20q-1 -49 -26 -74q-26 -24 -70 -24v0z
" />
    <glyph glyph-name="h" unicode="h" horiz-adv-x="676" 
d="M437 524q-60 0 -104 -22t-75 -60v264h-215v-706h215v264q0 50 21 76q22 26 65 26q38 0 59 -21q20 -22 20 -70v-275h215v317q0 102 -51 154q-51 53 -150 53v0z" />
    <glyph glyph-name="i" unicode="i" horiz-adv-x="301" 
d="M151 547q47 1 76 28t30 72q-1 44 -30 72q-29 27 -76 28q-47 -1 -76 -28q-29 -28 -30 -72q1 -45 30 -72t76 -28v0zM43 0h215v507h-215v-507z" />
    <glyph glyph-name="j" unicode="j" horiz-adv-x="305" 
d="M155 547q47 1 76 28t30 72q-1 44 -30 72q-29 27 -76 28q-47 -1 -76 -28q-29 -28 -30 -72q1 -45 30 -72t76 -28v0zM47 -216q115 0 166 50q51 51 50 158v515h-215v-499q0 -23 -12 -36t-37 -13q-10 0 -19 1l-20 2v-172l42 -4t45 -2v0z" />
    <glyph glyph-name="k" unicode="k" horiz-adv-x="667" 
d="M690 0l-245 280l225 227h-271l-141 -153v352h-215v-706h215v197l158 -197h274z" />
    <glyph glyph-name="l" unicode="l" horiz-adv-x="301" 
d="M43 0h215v706h-215v-706z" />
    <glyph glyph-name="m" unicode="m" horiz-adv-x="1027" 
d="M797 524q-62 0 -108 -22q-46 -21 -82 -64q-20 41 -61 64q-42 22 -103 22q-64 -1 -110 -23q-46 -23 -75 -60v66h-215v-507h215v278q0 42 19 65t58 23q73 0 73 -81v-285h215v279q0 42 19 64q19 23 59 23q73 0 73 -81v-285h215v326q0 96 -49 147q-50 51 -143 51v0z" />
    <glyph glyph-name="n" unicode="n" horiz-adv-x="676" 
d="M437 524q-60 0 -104 -22t-75 -60v65h-215v-507h215v264q0 50 21 76q22 26 65 26q38 0 59 -21q20 -22 20 -70v-275h215v317q0 102 -51 154q-51 53 -150 53v0z" />
    <glyph glyph-name="o" unicode="o" horiz-adv-x="689" 
d="M345 -18q112 0 192 40t115 117q11 25 17 53q5 28 5 61q0 34 -5 62q-6 28 -17 53q-35 77 -115 117q-80 39 -192 39t-192 -40q-81 -40 -117 -120q-11 -25 -16 -52t-5 -59q0 -31 5 -58t16 -52q36 -80 117 -121q80 -40 192 -40v0zM345 141q-35 0 -59 13q-23 13 -34 38
q-10 22 -10 61q0 20 2 36q3 15 8 26q11 25 34 38q24 13 59 13t58 -12q24 -13 35 -38q5 -11 8 -27q2 -15 2 -36q0 -20 -2 -36q-3 -15 -8 -27q-11 -25 -35 -37q-23 -12 -58 -12v0z" />
    <glyph glyph-name="p" unicode="p" horiz-adv-x="697" 
d="M656 387q-30 66 -87 101q-57 36 -135 36q-57 0 -102 -20q-46 -19 -79 -59v62h-210v-710h215v259q66 -74 176 -74q78 0 135 36t87 102q26 55 26 133q0 40 -7 73q-6 33 -19 61v0zM446 194q-24 -51 -91 -51q-46 0 -72 26q-27 27 -28 77v16q1 51 28 77q26 26 72 26
q67 0 91 -51q5 -11 8 -26q2 -15 2 -35q0 -19 -2 -33q-3 -15 -8 -26v0z" />
    <glyph glyph-name="q" unicode="q" horiz-adv-x="697" 
d="M445 507v-63q-33 40 -79 60q-45 20 -103 20q-78 0 -135 -36q-57 -35 -87 -101q-13 -28 -19 -61q-7 -33 -7 -73q0 -78 26 -133q30 -66 87 -102t135 -36q55 0 99 19q44 18 77 55v-259h215v710h-209zM342 143q-32 0 -55 13q-24 13 -35 38q-5 11 -8 26q-2 14 -2 33q0 20 2 35
q3 15 8 26q11 26 35 38q23 13 55 13q46 0 73 -26t28 -77v-16q-1 -50 -28 -77q-27 -26 -73 -26v0z" />
    <glyph glyph-name="r" unicode="r" horiz-adv-x="505" 
d="M43 0h215v295q0 28 4 39q5 11 17 15q12 -27 39 -43q27 -17 63 -17q53 1 86 33q32 32 33 85q-1 54 -33 85q-33 31 -90 32q-36 1 -66 -16q-29 -17 -55 -57v56h-213v-507z" />
    <glyph glyph-name="s" unicode="s" horiz-adv-x="579" 
d="M285 -20q95 0 165 26q70 27 98 85q7 15 10 31q3 17 3 36q0 16 -2 31q-3 14 -9 27q-17 39 -58 64q-40 24 -107 39q-43 8 -81 19q-39 10 -51 28q-3 6 -3 14q0 4 1 8t3 6q4 7 13 11q9 5 23 5q33 0 44 -24q2 -6 4 -13q1 -7 1 -16h207q0 19 -4 34q-3 16 -10 30q-26 54 -90 79
q-63 24 -148 24t-153 -25q-67 -25 -94 -80q-7 -14 -10 -29q-3 -16 -3 -33t3 -31q3 -13 9 -25q20 -41 61 -63q42 -22 90 -34q50 -12 87 -22q38 -10 48 -29q3 -5 3 -14q0 -8 -3 -14q-5 -10 -15 -14q-11 -5 -28 -5q-18 0 -31 6q-14 6 -20 22q-3 5 -4 13q-2 8 -2 17h-214
q0 -21 4 -40q4 -20 12 -37q26 -55 92 -81t159 -26v0z" />
    <glyph glyph-name="t" unicode="t" horiz-adv-x="449" 
d="M291 -12q35 0 70 4q35 3 68 10v159q-18 -4 -31 -5q-14 -2 -26 -2q-32 -1 -49 14q-18 14 -18 54v124h128v161h-128v121h-215v-121h-74v-161h74v-168q0 -100 49 -145q50 -46 152 -45v0z" />
    <glyph glyph-name="u" unicode="u" horiz-adv-x="676" 
d="M418 507v-264q0 -50 -21 -76q-22 -26 -65 -26q-38 0 -59 21q-20 22 -20 70v275h-215v-317q0 -102 51 -154q51 -53 150 -53q60 0 104 22t75 60v-65h215v507h-215z" />
    <glyph glyph-name="v" unicode="v" horiz-adv-x="644" 
d="M209 0h225l219 507h-225l-106 -277l-105 277h-226z" />
    <glyph glyph-name="w" unicode="w" horiz-adv-x="988" 
d="M766 507l-80 -267l-94 267h-198l-93 -267l-80 267h-230l196 -507h220l87 261l87 -261h219l197 507h-231z" />
    <glyph glyph-name="x" unicode="x" horiz-adv-x="673" 
d="M-15 0h259l93 122l92 -122h259l-221 260l208 247h-259l-79 -110l-79 110h-259l209 -247z" />
    <glyph glyph-name="y" unicode="y" horiz-adv-x="644" 
d="M433 507l-105 -294l-111 294h-226l224 -507l-91 -203h213l90 204l226 506h-220z" />
    <glyph glyph-name="z" unicode="z" horiz-adv-x="569" 
d="M564 507h-534v-161h214l-239 -346h548v163h-208z" />
    <glyph glyph-name="braceleft" unicode="{" horiz-adv-x="447" 
d="M307 426v125q-2 51 18 74q20 22 80 22h25v148h-91q-102 -2 -152 -54q-51 -52 -51 -137v-137q1 -50 -19 -70q-21 -21 -71 -20v-162q50 1 71 -19q20 -20 19 -70v-138q0 -85 51 -137q50 -52 152 -54h91v148h-25q-60 0 -80 23t-18 73v126q0 60 -25 91q-26 31 -76 38
q50 7 76 38q25 32 25 92v0z" />
    <glyph glyph-name="bar" unicode="|" horiz-adv-x="392" 
d="M94 -203h204v959h-204v-959z" />
    <glyph glyph-name="braceright" unicode="}" horiz-adv-x="447" 
d="M311 467v137q0 85 -50 137q-51 52 -152 54h-91v-148h25q59 0 79 -22q20 -23 18 -74v-125q0 -60 26 -92q25 -31 76 -38q-51 -7 -76 -38q-26 -31 -26 -91v-126q2 -50 -18 -73t-79 -23h-25v-148h91q101 2 152 54q50 52 50 137v138q-1 50 20 70q20 20 70 19v162
q-50 -1 -70 20q-21 20 -20 70v0z" />
    <glyph glyph-name="asciitilde" unicode="~" horiz-adv-x="613" 
d="M410 176q69 -1 106 57q38 57 42 184h-141q-2 -32 -12 -46q-11 -14 -28 -14q-15 0 -30 8q-16 7 -33 17q-22 13 -49 25q-27 11 -61 12q-69 1 -107 -57q-38 -57 -42 -184h141q2 32 13 46q10 14 28 14q15 0 30 -8q15 -7 32 -17q22 -13 50 -24q27 -12 61 -13v0z" />
    <glyph glyph-name="uni00A0" unicode="&#xa0;" horiz-adv-x="205" 
 />
    <glyph glyph-name="exclamdown" unicode="&#xa1;" horiz-adv-x="351" 
d="M176 293q52 1 84 32q31 31 32 83q-1 54 -32 85q-32 30 -84 31q-53 -1 -85 -31q-32 -31 -33 -85q1 -52 33 -83t85 -32v0zM59 -203h232l-29 449h-172z" />
    <glyph glyph-name="cent" unicode="&#xa2;" horiz-adv-x="692" 
d="M425 261q-14 -12 -35 -17v219q11 -3 19 -7q9 -4 16 -10q11 -10 17 -21q7 -12 8 -28h227q-3 44 -19 80q-17 36 -48 65q-40 35 -95 56q-56 20 -120 25v83h-89v-82q-94 -7 -164 -45t-103 -109q-24 -50 -24 -118q0 -34 6 -63t17 -54q31 -71 103 -109q71 -37 165 -44v-82h89
v83q64 6 119 27q55 20 94 55q32 30 49 67q17 36 20 82h-226q-2 -16 -8 -29q-7 -14 -18 -24v0zM250 290q-5 12 -8 26q-2 15 -2 36q0 23 3 38q2 16 8 28q9 18 25 29q15 12 36 17v-221q-21 4 -37 16t-25 31v0z" />
    <glyph glyph-name="sterling" unicode="&#xa3;" horiz-adv-x="750" 
d="M503 265q0 -36 -10 -60q-10 -25 -34 -36q-24 -12 -64 -12h-60v164h191v90h-191v45q0 23 3 40q3 18 9 31q18 40 72 40q53 0 69 -37q5 -12 8 -27q2 -14 2 -33h226q0 40 -6 73q-6 32 -18 59q-29 64 -98 96q-70 31 -182 31q-116 0 -188 -33q-71 -34 -102 -103
q-27 -58 -27 -146v-36h-84v-90h84v-164h-84v-157h443q96 0 156 29t87 89q11 27 17 63t6 84h-225z" />
    <glyph glyph-name="currency" unicode="&#xa4;" horiz-adv-x="688" 
d="M597 244q11 23 17 51q6 27 6 58t-6 58q-6 28 -17 51q-15 35 -42 63l107 121h-147l-50 -59q-54 23 -125 23q-65 0 -118 -21l-49 57h-147l103 -117q-14 -14 -26 -31q-11 -17 -20 -36q-11 -23 -16 -51q-6 -27 -6 -58t6 -58q5 -28 16 -51q8 -18 20 -35q11 -17 25 -31
l-102 -118h145l49 57q27 -10 57 -15q30 -6 63 -6q71 0 126 24l51 -60h145l-105 123q12 13 22 29q10 15 18 32v0zM242 308q-4 10 -6 21t-2 24t2 24t6 21q12 28 37 43q24 15 61 15t61 -15q25 -15 37 -43q5 -10 7 -21t2 -24t-2 -24t-7 -21q-12 -28 -37 -43q-24 -15 -61 -15
t-61 15t-37 43v0z" />
    <glyph glyph-name="yen" unicode="&#xa5;" horiz-adv-x="731" 
d="M750 706h-255l-129 -195l-122 195h-262l250 -358h-177v-79h192v-33h-192v-80h192v-156h233v156h197v80h-197v33h197v79h-183z" />
    <glyph glyph-name="brokenbar" unicode="&#xa6;" horiz-adv-x="392" 
d="M94 427h204v329h-204v-329zM94 -203h204v330h-204v-330z" />
    <glyph glyph-name="section" unicode="&#xa7;" horiz-adv-x="599" 
d="M562 43q-13 28 -33 48t-46 35q27 12 48 30t32 43q7 13 10 29t3 35q0 23 -3 42q-4 20 -12 36q-27 55 -78 84q-52 29 -109 48q-40 14 -70 28q-31 14 -42 35q-2 5 -3 10q-1 4 -1 9q0 9 3 17q5 12 17 18q12 5 27 5q16 0 28 -7q12 -6 18 -19q2 -5 4 -11q1 -7 1 -15h210
q0 23 -4 41t-10 33q-30 60 -96 86q-66 27 -150 26q-86 0 -155 -27q-70 -28 -99 -88q-7 -15 -11 -33t-4 -38q0 -19 4 -36q4 -16 10 -30q12 -27 36 -49q24 -21 55 -37q-36 -12 -64 -32q-27 -20 -41 -49q-6 -13 -9 -29q-4 -16 -4 -33q0 -42 15 -74q26 -51 79 -79
q52 -28 113 -48q42 -14 73 -28t42 -36q5 -10 5 -25q0 -10 -4 -21q-5 -13 -19 -18q-13 -6 -31 -6q-21 0 -32 7q-12 7 -18 21q-3 7 -4 17q-2 10 -2 20h-218q0 -32 4 -53t12 -36q30 -61 100 -86q69 -24 156 -23q97 0 168 27q70 27 100 87q15 32 15 74q0 20 -4 39q-4 20 -12 36
v0zM234 278q7 15 24 24q18 8 42 8t41 -8t24 -24q2 -5 3 -10q1 -6 1 -11q0 -12 -4 -22q-7 -14 -23 -23q-17 -8 -42 -8q-24 0 -42 9q-17 8 -24 23q-4 11 -4 21q0 6 1 11t3 10v0z" />
    <glyph glyph-name="dieresis" unicode="&#xa8;" horiz-adv-x="550" 
d="M151 548q45 1 73 27t29 69q-1 43 -29 70q-28 26 -73 27q-44 -1 -72 -27q-28 -27 -29 -70q1 -43 29 -69t72 -27v0zM397 547q45 1 73 27t29 69q-1 43 -29 70q-28 26 -73 27q-44 -1 -72 -27q-28 -27 -29 -70q1 -43 29 -69t72 -27v0z" />
    <glyph glyph-name="copyright" unicode="&#xa9;" horiz-adv-x="881" 
d="M443 -23q130 1 233 55q102 54 147 151q17 36 25 79q9 42 9 91q0 48 -9 92q-8 43 -24 79q-47 100 -148 152q-100 53 -233 53q-138 -1 -238 -55q-100 -55 -146 -155q-17 -37 -26 -78q-9 -42 -9 -89q0 -46 9 -89q9 -44 26 -81q44 -95 143 -150q100 -54 241 -55v0zM440 60
q-109 0 -184 42q-74 41 -110 120q-13 29 -19 63q-6 33 -6 68t6 68t19 62q35 79 111 121t185 42q106 0 181 -41t111 -119q13 -29 19 -63q7 -34 7 -72q0 -35 -6 -67t-19 -60q-36 -79 -110 -121q-75 -43 -185 -43v0zM441 118q59 0 108 16t85 48q28 25 44 59q15 33 16 73h-180
l-2 -8t-3 -9q-7 -15 -23 -25q-16 -11 -44 -11q-23 0 -41 9t-27 28q-10 24 -10 55q0 20 3 33q2 14 7 24q9 19 26 28t40 9q24 0 42 -9q17 -9 26 -28q5 -10 6 -20h180q-1 41 -17 74q-16 34 -44 59q-36 32 -85 49q-49 16 -108 16q-81 0 -144 -31t-93 -96q-10 -23 -16 -49
q-5 -27 -5 -59q0 -62 21 -107q30 -65 93 -97q62 -31 145 -31v0z" />
    <glyph glyph-name="ordfeminine" unicode="&#xaa;" horiz-adv-x="468" 
d="M425 634q-21 47 -69 66q-48 20 -124 19q-69 1 -121 -17t-73 -63q-10 -21 -12 -47h171q0 6 3 11q3 8 12 12q8 4 21 4q27 0 36 -18q2 -5 3 -11t1 -18v-2h-53q-83 1 -132 -17q-49 -17 -67 -59q-10 -22 -10 -49q0 -13 2 -24q2 -12 7 -22q15 -33 48 -48t79 -15q41 0 72 13
q30 12 54 36v-37h169v199q0 26 -4 47q-5 21 -13 40v0zM269 465q-9 -20 -45 -20q-14 0 -22 4q-9 3 -12 10q-3 5 -3 11q0 8 3 12q3 7 13 11q9 3 24 3h46v-8q0 -7 -1 -13q-1 -5 -3 -10v0z" />
    <glyph glyph-name="guillemotleft" unicode="&#xab;" horiz-adv-x="676" 
d="M173 123h202l-160 169l160 170h-202l-160 -170zM461 123h202l-160 169l160 170h-202l-160 -170z" />
    <glyph glyph-name="logicalnot" unicode="&#xac;" horiz-adv-x="613" 
d="M408 47h160v402h-523v-156h363v-246z" />
    <glyph glyph-name="uni00AD" unicode="&#xad;" horiz-adv-x="446" 
d="M45 214h356v167h-356v-167z" />
    <glyph glyph-name="registered" unicode="&#xae;" horiz-adv-x="499" 
d="M466 603q-25 55 -81 85q-56 31 -135 31q-80 0 -136 -31t-81 -87q-9 -20 -13 -41q-5 -22 -5 -48t5 -48q4 -23 13 -43q25 -55 81 -85q56 -31 136 -31q79 0 135 31q56 30 81 85q10 20 14 43q4 22 4 48t-4 49q-4 22 -14 42v0zM405 440q-34 -78 -155 -78q-61 0 -100 20
q-39 19 -56 58q-7 16 -10 33t-3 39t3 39t10 33q17 40 56 59t100 19t99 -19q39 -19 56 -59q7 -16 11 -33q3 -17 3 -39t-3 -39q-4 -17 -11 -33v0zM364 556q0 33 -23 50q-22 16 -66 16h-135v-220h93v68h11q15 0 21 -6q5 -7 5 -20v-42h92v42q0 21 -6 35q-7 14 -27 20q17 7 26 21
t9 36v0zM250 530h-17v33h17q11 0 16 -4q5 -5 5 -13t-5 -12t-16 -4v0z" />
    <glyph glyph-name="macron" unicode="&#xaf;" horiz-adv-x="471" 
d="M50 577h371v134h-371v-134z" />
    <glyph glyph-name="degree" unicode="&#xb0;" horiz-adv-x="439" 
d="M220 361q88 2 142 52q53 50 54 131q-1 82 -54 133q-54 50 -142 52q-88 -2 -142 -52q-54 -51 -55 -133q1 -81 55 -131t142 -52v0zM220 485q-27 0 -43 16q-17 15 -17 43t17 44q16 16 43 16t43 -16t16 -44t-16 -43q-16 -16 -43 -16v0z" />
    <glyph glyph-name="plusminus" unicode="&#xb1;" horiz-adv-x="613" 
d="M387 463v104h-163v-104h-179v-150h179v-104h163v104h181v150h-181zM45 28h523v151h-523v-151z" />
    <glyph glyph-name="uni00B2" unicode="&#xb2;" horiz-adv-x="430" 
d="M-5 438h419v128h-127q25 16 45 31q19 14 35 28q18 15 30 35q12 19 12 47q0 29 -11 51q-20 42 -69 62q-50 19 -116 19q-69 0 -118 -20q-48 -21 -70 -69q-7 -16 -10 -32t-3 -33h157q0 6 1 13q2 8 4 13q4 9 14 14q9 5 23 5t21 -4q8 -4 11 -10q3 -4 3 -13q0 -11 -9 -25
q-10 -14 -34 -36l-208 -197v-7z" />
    <glyph glyph-name="uni00B3" unicode="&#xb3;" horiz-adv-x="432" 
d="M407 590q-9 20 -28 32q-19 11 -46 16q23 8 40 20q16 13 24 30q6 15 6 33q0 23 -8 41q-19 40 -69 58q-50 19 -112 19q-64 0 -115 -20t-73 -65q-5 -12 -7 -25q-3 -12 -3 -28h147q1 5 1 8q1 4 3 8q5 11 15 15t23 4q15 0 24 -3q8 -4 12 -10q2 -3 3 -7t1 -8q0 -5 -1 -8
q0 -3 -1 -5q-5 -10 -17 -13q-12 -4 -27 -4h-21v-80h19q18 0 31 -4q12 -3 17 -13q2 -4 2 -7q1 -4 1 -8t-1 -8q0 -4 -2 -7q-4 -8 -14 -13t-27 -5q-16 0 -27 5t-16 16q-2 6 -4 15q-1 8 -1 19l-148 -1q0 -48 14 -81q21 -44 71 -63q50 -18 117 -18q72 0 124 19q52 18 73 60
q9 19 9 43q0 25 -9 43v0z" />
    <glyph glyph-name="acute" unicode="&#xb4;" horiz-adv-x="424" 
d="M50 553h198l126 168h-219z" />
    <glyph glyph-name="mu" unicode="&#xb5;" horiz-adv-x="681" 
d="M423 507v-264q0 -50 -21 -76q-22 -26 -67 -26q-38 0 -58 21q-19 21 -19 70v275h-215v-710h214v36q0 78 -12 152q16 -3 34 -3q47 1 83 22q36 22 61 58v-62h215v507h-215z" />
    <glyph glyph-name="paragraph" unicode="&#xb6;" horiz-adv-x="919" 
d="M358 -203h191v745h85v-745h192v745h84v164h-627q-98 0 -161 -32q-62 -32 -90 -94q-12 -26 -17 -55t-5 -65t5 -65t17 -54q28 -62 89 -95q61 -32 158 -32h79v-417z" />
    <glyph glyph-name="periodcentered" unicode="&#xb7;" horiz-adv-x="373" 
d="M186 182q53 1 84 32q32 31 33 83q-1 54 -33 85q-31 30 -84 31q-53 -1 -85 -31q-31 -31 -32 -85q1 -52 33 -83q31 -31 84 -32v0z" />
    <glyph glyph-name="cedilla" unicode="&#xb8;" horiz-adv-x="418" 
d="M252 0l9 34h-151l-27 -102h79q31 0 46 -6q15 -7 15 -22q-1 -18 -17 -24q-17 -6 -44 -6q-25 0 -46 4q-20 4 -43 12l-23 -93q31 -10 63 -14q33 -5 70 -5q84 -1 134 25q50 25 51 93q0 46 -28 74t-88 30v0z" />
    <glyph glyph-name="uni00B9" unicode="&#xb9;" horiz-adv-x="297" 
d="M89 438h158v388h-223l-24 -125h89v-263z" />
    <glyph glyph-name="ordmasculine" unicode="&#xba;" horiz-adv-x="494" 
d="M247 336q76 0 135 27q58 27 85 84q8 18 12 38t4 43t-4 43t-12 38q-27 56 -85 83q-59 27 -135 27t-134 -27q-59 -27 -86 -83q-8 -18 -12 -38t-4 -43t4 -43t12 -38q27 -57 86 -84q58 -27 134 -27v0zM247 461q-20 0 -33 7t-19 21t-6 39q0 24 6 38t19 21q13 8 33 8t34 -8
q13 -7 19 -21t6 -38q0 -25 -6 -39t-19 -21q-14 -7 -34 -7v0z" />
    <glyph glyph-name="guillemotright" unicode="&#xbb;" horiz-adv-x="676" 
d="M215 123l160 169l-160 170h-202l160 -170l-160 -169h202zM503 123l160 169l-160 170h-202l160 -170l-160 -169h202z" />
    <glyph glyph-name="onequarter" unicode="&#xbc;" horiz-adv-x="972" 
d="M89 318h158v388h-223l-24 -125h89v-263zM88 0h126l521 706h-126zM742 0h151v60h70v119h-70v209h-278l-149 -326v-2h276v-60zM677 179l65 165v-165h-65z" />
    <glyph glyph-name="onehalf" unicode="&#xbd;" horiz-adv-x="920" 
d="M89 318h158v388h-223l-24 -125h89v-263zM88 0h126l521 706h-126zM485 0h419v128h-127q25 16 45 31q19 14 35 28q18 15 30 35q12 19 12 47q0 29 -11 51q-20 42 -69 62q-50 19 -116 19q-69 0 -118 -20q-48 -21 -70 -69q-7 -16 -10 -32t-3 -33h157q0 6 1 13q2 8 4 13
q4 9 14 14q9 5 23 5t21 -4q8 -4 11 -10q3 -4 3 -13q0 -11 -9 -25q-10 -14 -34 -36l-208 -197v-7z" />
    <glyph glyph-name="threequarters" unicode="&#xbe;" horiz-adv-x="1094" 
d="M407 384q9 19 9 43q0 25 -9 43q-9 20 -28 32q-19 11 -46 16q23 8 40 20q16 13 24 30q6 15 6 33q0 23 -8 41q-19 40 -69 58q-50 19 -112 19q-64 0 -115 -20t-73 -65q-5 -12 -7 -25q-3 -12 -3 -28h147q1 5 1 8q1 4 3 8q5 11 15 15t23 4q15 0 24 -3q8 -4 12 -10q2 -3 3 -7
t1 -8q0 -5 -1 -8q0 -3 -1 -5q-5 -10 -17 -13q-12 -4 -27 -4h-21v-80h19q18 0 31 -4q12 -3 17 -13q2 -4 2 -7q1 -4 1 -8t-1 -8q0 -4 -2 -7q-4 -8 -14 -13t-27 -5q-16 0 -27 5t-16 16q-2 6 -4 15q-1 8 -1 19l-148 -1q0 -48 14 -81q21 -44 71 -63q50 -18 117 -18q72 0 124 19
q52 18 73 60v0zM731 706l-521 -706h126l521 706h-126zM1015 179v209h-278l-149 -326v-2h276v-60h151v60h70v119h-70zM864 179h-65l65 165v-165z" />
    <glyph glyph-name="questiondown" unicode="&#xbf;" horiz-adv-x="607" 
d="M310 293q52 1 84 32q31 31 32 83q-1 54 -32 85q-32 30 -84 31q-53 -1 -85 -31q-32 -31 -33 -85q1 -52 33 -83t85 -32v0zM303 -220q103 0 170 31t94 91q9 20 13 43q3 23 3 52h-214q0 -11 -1 -19q-1 -9 -4 -17q-7 -16 -21 -23q-14 -8 -36 -8q-28 0 -43 13t-15 39
q-2 28 31 79q34 50 132 184h-236q-92 -123 -123 -176q-31 -54 -29 -96q2 -95 76 -144t203 -49v0z" />
    <glyph glyph-name="Agrave" unicode="&#xc0;" horiz-adv-x="863" 
d="M558 754l-105 158h-226l126 -158h205zM631 0h245l-278 706h-333l-278 -706h246l42 117h313zM334 280l96 265h2l97 -265h-195z" />
    <glyph glyph-name="Aacute" unicode="&#xc1;" horiz-adv-x="863" 
d="M635 912h-225l-106 -158h206zM631 0h245l-278 706h-333l-278 -706h246l42 117h313zM334 280l96 265h2l97 -265h-195z" />
    <glyph glyph-name="Acircumflex" unicode="&#xc2;" horiz-adv-x="863" 
d="M431 825l56 -70h195l-121 157h-259l-121 -157h195zM631 0h245l-278 706h-333l-278 -706h246l42 117h313zM334 280l96 265h2l97 -265h-195z" />
    <glyph glyph-name="Atilde" unicode="&#xc3;" horiz-adv-x="863" 
d="M363 792q15 0 32 -6l39 -14q19 -8 41 -14q21 -7 50 -7q61 0 96 40q34 40 39 124h-125q-6 -20 -16 -28t-27 -8q-15 0 -29 4t-29 12q-23 11 -43 18q-19 6 -46 6q-64 1 -99 -39q-36 -39 -43 -125h123q3 21 13 29t24 8v0zM631 0h245l-278 706h-333l-278 -706h246l42 117h313z
M334 280l96 265h2l97 -265h-195z" />
    <glyph glyph-name="Adieresis" unicode="&#xc4;" horiz-adv-x="863" 
d="M302 746q44 1 72 26q27 26 28 68q-1 43 -28 69q-28 26 -72 27q-44 -1 -72 -27q-27 -26 -28 -69q1 -42 28 -68q28 -25 72 -26v0zM560 746q44 1 72 26q28 26 29 68q-1 43 -29 69t-72 27q-44 -1 -71 -27q-28 -26 -29 -69q1 -42 29 -68q27 -25 71 -26v0zM631 0h245l-278 706
h-333l-278 -706h246l42 117h313zM334 280l96 265h2l97 -265h-195z" />
    <glyph glyph-name="Aring" unicode="&#xc5;" horiz-adv-x="863" 
d="M431 726q71 1 114 37q44 36 45 100q-1 64 -45 100t-114 37q-71 -1 -115 -37t-45 -100q1 -64 45 -100t115 -37v0zM431 912q25 0 38 -13q14 -13 14 -36q0 -22 -14 -35t-38 -13t-38 13t-14 35q0 23 14 36t38 13v0zM631 0h245l-278 706h-333l-278 -706h246l42 117h313z
M334 280l96 265h2l97 -265h-195z" />
    <glyph glyph-name="AE" unicode="&#xc6;" horiz-adv-x="1028" 
d="M991 530v176h-710l-294 -706h250l43 117h235l22 -117h454v176h-252l-19 95h268v167h-302l-19 92h324zM339 280l95 262h2l49 -262h-146z" />
    <glyph glyph-name="Ccedilla" unicode="&#xc7;" horiz-adv-x="857" 
d="M590 282q-2 -20 -12 -39t-26 -34q-21 -19 -51 -29q-30 -9 -65 -9q-51 0 -89 19q-39 18 -58 60q-8 17 -12 42t-4 61t5 60t13 42q18 40 55 60t90 20q36 0 63 -8q27 -9 47 -27q17 -15 28 -37t15 -46h246q-3 62 -27 116t-70 96q-54 49 -131 74t-168 25q-136 0 -236 -52
t-147 -153q-16 -36 -24 -78t-8 -91q0 -51 8 -93q8 -43 24 -79q38 -83 112 -133q73 -49 174 -64l-14 -53h79q31 0 46 -6q15 -7 15 -22q-1 -18 -17 -24q-17 -6 -44 -6q-25 0 -46 4q-20 4 -43 12l-23 -93q31 -10 63 -14q33 -5 70 -5q84 -1 134 25q50 25 51 93q0 33 -14 57
t-44 37q56 11 103 34q48 22 85 55q44 39 68 91q23 51 25 112h-246z" />
    <glyph glyph-name="Egrave" unicode="&#xc8;" horiz-adv-x="652" 
d="M465 754l-105 158h-226l126 -158h205zM52 0h563v176h-331v95h328v167h-328v92h331v176h-563v-706z" />
    <glyph glyph-name="Eacute" unicode="&#xc9;" horiz-adv-x="652" 
d="M211 754h206l125 158h-225zM52 0h563v176h-331v95h328v167h-328v92h331v176h-563v-706z" />
    <glyph glyph-name="Ecircumflex" unicode="&#xca;" horiz-adv-x="652" 
d="M87 755h195l55 70l56 -70h195l-121 157h-259zM52 0h563v176h-331v95h328v167h-328v92h331v176h-563v-706z" />
    <glyph glyph-name="Edieresis" unicode="&#xcb;" horiz-adv-x="652" 
d="M209 746q44 1 72 26q27 26 28 68q-1 43 -28 69q-28 26 -72 27q-44 -1 -72 -27q-27 -26 -28 -69q1 -42 28 -68q28 -25 72 -26v0zM467 746q44 1 72 26q28 26 29 68q-1 43 -29 69t-72 27q-44 -1 -71 -27q-28 -26 -29 -69q1 -42 29 -68q27 -25 71 -26v0zM52 0h563v176h-331
v95h328v167h-328v92h331v176h-563v-706z" />
    <glyph glyph-name="Igrave" unicode="&#xcc;" horiz-adv-x="337" 
d="M295 754l-105 158h-226l126 -158h205zM52 0h232v706h-232v-706z" />
    <glyph glyph-name="Iacute" unicode="&#xcd;" horiz-adv-x="337" 
d="M42 754h206l125 158h-225zM52 0h232v706h-232v-706z" />
    <glyph glyph-name="Icircumflex" unicode="&#xce;" horiz-adv-x="337" 
d="M-61 755h188l40 67l39 -67h188l-98 157h-259zM52 0h232v706h-232v-706z" />
    <glyph glyph-name="Idieresis" unicode="&#xcf;" horiz-adv-x="337" 
d="M61 749q41 1 67 27q25 26 26 66q-1 41 -26 68q-26 27 -67 28q-41 -1 -66 -28t-26 -68q1 -40 26 -66t66 -27v0zM276 748q41 1 66 28q26 26 27 66q-1 40 -27 67q-25 27 -66 28q-41 -1 -67 -28q-25 -27 -26 -67q1 -40 26 -66q26 -27 67 -28v0zM52 0h232v706h-232v-706z" />
    <glyph glyph-name="Eth" unicode="&#xd0;" horiz-adv-x="839" 
d="M784 518q-41 93 -132 141q-91 47 -226 47h-374v-289h-55v-124h55v-293h374q135 0 226 47q90 48 132 140q16 35 24 76t8 90t-8 89q-8 41 -24 76v0zM551 264q-17 -37 -53 -56q-37 -20 -98 -20h-116v105h156v124h-156v101h116q60 0 97 -18q36 -19 53 -56q8 -18 12 -40
q4 -23 4 -51q0 -27 -3 -49q-4 -23 -12 -40v0z" />
    <glyph glyph-name="Ntilde" unicode="&#xd1;" horiz-adv-x="861" 
d="M530 751q61 0 96 40q34 40 39 124h-125q-6 -20 -16 -28t-27 -8q-15 0 -29 4t-29 12q-23 11 -43 18q-19 6 -46 6q-64 1 -99 -39q-36 -39 -43 -125h123q3 21 13 29t24 8q15 0 32 -6l39 -14q19 -8 41 -14q21 -7 50 -7v0zM52 0h227v396l282 -396h248v706h-227v-403l-287 403
h-243v-706z" />
    <glyph glyph-name="Ograve" unicode="&#xd2;" horiz-adv-x="876" 
d="M565 754l-105 158h-226l126 -158h205zM438 -23q135 0 233 49q97 49 144 147q37 77 37 180q0 50 -9 94t-26 82q-45 98 -144 149q-98 51 -234 51q-138 0 -237 -52t-145 -153q-16 -37 -24 -79q-9 -43 -9 -92q0 -50 9 -94q8 -44 25 -81q46 -100 144 -150q98 -51 236 -51v0z
M439 171q-55 0 -92 21q-38 21 -57 62q-8 18 -12 43q-4 24 -4 57t4 58q3 24 12 42q38 81 147 81q55 0 93 -19q37 -20 56 -61q9 -19 13 -43q4 -25 4 -59q0 -33 -4 -56q-3 -24 -11 -42q-18 -41 -55 -63q-38 -21 -94 -21v0z" />
    <glyph glyph-name="Oacute" unicode="&#xd3;" horiz-adv-x="876" 
d="M311 754h206l125 158h-225zM438 -23q135 0 233 49q97 49 144 147q37 77 37 180q0 50 -9 94t-26 82q-45 98 -144 149q-98 51 -234 51q-138 0 -237 -52t-145 -153q-16 -37 -24 -79q-9 -43 -9 -92q0 -50 9 -94q8 -44 25 -81q46 -100 144 -150q98 -51 236 -51v0zM439 171
q-55 0 -92 21q-38 21 -57 62q-8 18 -12 43q-4 24 -4 57t4 58q3 24 12 42q38 81 147 81q55 0 93 -19q37 -20 56 -61q9 -19 13 -43q4 -25 4 -59q0 -33 -4 -56q-3 -24 -11 -42q-18 -41 -55 -63q-38 -21 -94 -21v0z" />
    <glyph glyph-name="Ocircumflex" unicode="&#xd4;" horiz-adv-x="876" 
d="M188 755h195l55 70l56 -70h195l-121 157h-259zM438 -23q135 0 233 49q97 49 144 147q37 77 37 180q0 50 -9 94t-26 82q-45 98 -144 149q-98 51 -234 51q-138 0 -237 -52t-145 -153q-16 -37 -24 -79q-9 -43 -9 -92q0 -50 9 -94q8 -44 25 -81q46 -100 144 -150
q98 -51 236 -51v0zM439 171q-55 0 -92 21q-38 21 -57 62q-8 18 -12 43q-4 24 -4 57t4 58q3 24 12 42q38 81 147 81q55 0 93 -19q37 -20 56 -61q9 -19 13 -43q4 -25 4 -59q0 -33 -4 -56q-3 -24 -11 -42q-18 -41 -55 -63q-38 -21 -94 -21v0z" />
    <glyph glyph-name="Otilde" unicode="&#xd5;" horiz-adv-x="876" 
d="M532 751q61 0 96 40q34 40 39 124h-125q-6 -20 -16 -28t-27 -8q-15 0 -29 4t-29 12q-23 11 -43 18q-19 6 -46 6q-64 1 -99 -39q-36 -39 -43 -125h123q3 21 13 29t24 8q15 0 32 -6l39 -14q19 -8 41 -14q21 -7 50 -7v0zM438 -23q135 0 233 49q97 49 144 147q37 77 37 180
q0 50 -9 94t-26 82q-45 98 -144 149q-98 51 -234 51q-138 0 -237 -52t-145 -153q-16 -37 -24 -79q-9 -43 -9 -92q0 -50 9 -94q8 -44 25 -81q46 -100 144 -150q98 -51 236 -51v0zM439 171q-55 0 -92 21q-38 21 -57 62q-8 18 -12 43q-4 24 -4 57t4 58q3 24 12 42q38 81 147 81
q55 0 93 -19q37 -20 56 -61q9 -19 13 -43q4 -25 4 -59q0 -33 -4 -56q-3 -24 -11 -42q-18 -41 -55 -63q-38 -21 -94 -21v0z" />
    <glyph glyph-name="Odieresis" unicode="&#xd6;" horiz-adv-x="876" 
d="M309 746q44 1 72 26q27 26 28 68q-1 43 -28 69q-28 26 -72 27q-44 -1 -72 -27q-27 -26 -28 -69q1 -42 28 -68q28 -25 72 -26v0zM567 746q44 1 72 26q28 26 29 68q-1 43 -29 69t-72 27q-44 -1 -71 -27q-28 -26 -29 -69q1 -42 29 -68q27 -25 71 -26v0zM438 -23
q135 0 233 49q97 49 144 147q37 77 37 180q0 50 -9 94t-26 82q-45 98 -144 149q-98 51 -234 51q-138 0 -237 -52t-145 -153q-16 -37 -24 -79q-9 -43 -9 -92q0 -50 9 -94q8 -44 25 -81q46 -100 144 -150q98 -51 236 -51v0zM439 171q-55 0 -92 21q-38 21 -57 62q-8 18 -12 43
q-4 24 -4 57t4 58q3 24 12 42q38 81 147 81q55 0 93 -19q37 -20 56 -61q9 -19 13 -43q4 -25 4 -59q0 -33 -4 -56q-3 -24 -11 -42q-18 -41 -55 -63q-38 -21 -94 -21v0z" />
    <glyph glyph-name="multiply" unicode="&#xd7;" horiz-adv-x="613" 
d="M552 433l-110 109l-135 -135l-136 136l-109 -110l135 -135l-135 -135l109 -110l136 135l135 -135l110 110l-135 135z" />
    <glyph glyph-name="Oslash" unicode="&#xd8;" horiz-adv-x="876" 
d="M782 587l133 119h-157l-51 -48q-53 35 -120 53q-68 18 -148 18q-138 0 -237 -52t-145 -153q-16 -37 -24 -79q-9 -43 -9 -92q0 -50 9 -94q8 -44 25 -81q8 -17 17 -32q9 -16 20 -30l-130 -116h152l53 47q52 -35 120 -53q68 -17 148 -17q135 0 233 49q97 49 144 147
q37 77 37 180q0 50 -9 94t-26 82q-7 16 -16 31q-8 14 -19 27v0zM290 454q38 81 147 81q31 0 57 -6q25 -6 45 -19l-257 -233q-4 16 -6 34q-2 19 -2 43q0 33 4 58q3 24 12 42v0zM588 255q-18 -41 -55 -63q-38 -21 -94 -21q-60 1 -99 25l256 231q4 -15 5 -33q2 -18 2 -41
q0 -33 -4 -56q-3 -24 -11 -42v0z" />
    <glyph glyph-name="Ugrave" unicode="&#xd9;" horiz-adv-x="802" 
d="M528 754l-105 158h-226l126 -158h205zM401 -23q188 0 277 79t88 239v411h-232v-397q0 -70 -32 -105q-33 -35 -102 -35q-68 0 -100 35t-32 105v397h-232v-411q-1 -158 88 -238t277 -80v0z" />
    <glyph glyph-name="Uacute" unicode="&#xda;" horiz-adv-x="802" 
d="M275 754h206l125 158h-225zM401 -23q188 0 277 79t88 239v411h-232v-397q0 -70 -32 -105q-33 -35 -102 -35q-68 0 -100 35t-32 105v397h-232v-411q-1 -158 88 -238t277 -80v0z" />
    <glyph glyph-name="Ucircumflex" unicode="&#xdb;" horiz-adv-x="802" 
d="M151 755h195l55 70l56 -70h195l-121 157h-259zM401 -23q188 0 277 79t88 239v411h-232v-397q0 -70 -32 -105q-33 -35 -102 -35q-68 0 -100 35t-32 105v397h-232v-411q-1 -158 88 -238t277 -80v0z" />
    <glyph glyph-name="Udieresis" unicode="&#xdc;" horiz-adv-x="802" 
d="M272 746q44 1 72 26q27 26 28 68q-1 43 -28 69q-28 26 -72 27q-44 -1 -72 -27q-27 -26 -28 -69q1 -42 28 -68q28 -25 72 -26v0zM530 746q44 1 72 26q28 26 29 68q-1 43 -29 69t-72 27q-44 -1 -71 -27q-28 -26 -29 -69q1 -42 29 -68q27 -25 71 -26v0zM401 -23
q188 0 277 79t88 239v411h-232v-397q0 -70 -32 -105q-33 -35 -102 -35q-68 0 -100 35t-32 105v397h-232v-411q-1 -158 88 -238t277 -80v0z" />
    <glyph glyph-name="Yacute" unicode="&#xdd;" horiz-adv-x="742" 
d="M246 754h206l125 158h-225zM255 0h232v309l268 397h-258l-126 -196l-126 196h-258l268 -397v-309z" />
    <glyph glyph-name="Thorn" unicode="&#xde;" horiz-adv-x="706" 
d="M52 0h232v102h135q99 0 162 33q63 32 91 95q12 27 18 58q6 30 6 67t-6 67q-6 31 -18 58q-28 63 -91 96q-63 32 -162 32h-135v98h-232v-706zM284 268v174h78q70 0 91 -44q4 -9 6 -20t2 -23t-2 -23t-6 -20q-10 -22 -32 -33q-21 -11 -59 -11h-78z" />
    <glyph glyph-name="germandbls" unicode="&#xdf;" horiz-adv-x="681" 
d="M648 311q-16 36 -44 60q-28 23 -68 35q29 10 50 28t34 46q6 13 10 29q3 16 3 35t-4 36q-3 18 -10 33q-24 56 -92 86t-182 30q-117 0 -184 -35t-95 -102q-12 -26 -17 -57q-6 -31 -6 -68v-467h215v479q0 21 3 39q2 19 8 32q11 23 30 34q19 10 45 10t43 -9t25 -26
q2 -6 4 -13q1 -7 1 -15q0 -18 -5 -30q-8 -20 -30 -31t-66 -11h-20v-128h28q43 0 70 -12q26 -12 37 -36q4 -10 6 -22t2 -26q0 -30 -9 -51q-11 -25 -39 -38q-27 -12 -72 -12h-13t-14 1v-134l41 -2q20 -1 40 -1q111 0 179 30q68 31 96 92q18 40 18 94q0 56 -18 97v0z" />
    <glyph glyph-name="agrave" unicode="&#xe0;" horiz-adv-x="650" 
d="M456 553l-106 168h-218l126 -168h198zM589 407q-28 62 -94 90q-67 28 -173 27q-97 1 -168 -25q-71 -27 -101 -89q-6 -14 -10 -31q-4 -16 -5 -35h217q0 7 1 12t4 10q7 16 23 23t41 7q27 0 43 -8t23 -24q4 -8 5 -17q1 -10 1 -27v-7h-70q-104 2 -185 -20q-80 -21 -113 -87
q-6 -14 -9 -31q-4 -17 -4 -37q0 -19 4 -35q3 -16 9 -30q22 -47 69 -69q46 -21 112 -21t111 19q46 19 78 57v-59h215v284q0 37 -6 68q-7 30 -18 55v0zM305 123q-21 0 -38 6q-16 5 -23 20q-2 5 -3 10q-1 4 -1 9q0 6 1 11q1 4 3 8q8 17 32 22t58 4h64v-7q0 -17 -2 -27
q-1 -9 -5 -17q-9 -20 -31 -30q-22 -9 -55 -9v0z" />
    <glyph glyph-name="aacute" unicode="&#xe1;" horiz-adv-x="650" 
d="M531 721h-219l-105 -168h198zM589 407q-28 62 -94 90q-67 28 -173 27q-97 1 -168 -25q-71 -27 -101 -89q-6 -14 -10 -31q-4 -16 -5 -35h217q0 7 1 12t4 10q7 16 23 23t41 7q27 0 43 -8t23 -24q4 -8 5 -17q1 -10 1 -27v-7h-70q-104 2 -185 -20q-80 -21 -113 -87
q-6 -14 -9 -31q-4 -17 -4 -37q0 -19 4 -35q3 -16 9 -30q22 -47 69 -69q46 -21 112 -21t111 19q46 19 78 57v-59h215v284q0 37 -6 68q-7 30 -18 55v0zM305 123q-21 0 -38 6q-16 5 -23 20q-2 5 -3 10q-1 4 -1 9q0 6 1 11q1 4 3 8q8 17 32 22t58 4h64v-7q0 -17 -2 -27
q-1 -9 -5 -17q-9 -20 -31 -30q-22 -9 -55 -9v0z" />
    <glyph glyph-name="acircumflex" unicode="&#xe2;" horiz-adv-x="650" 
d="M331 629l47 -76h185l-107 168h-249l-108 -168h185zM589 407q-28 62 -94 90q-67 28 -173 27q-97 1 -168 -25q-71 -27 -101 -89q-6 -14 -10 -31q-4 -16 -5 -35h217q0 7 1 12t4 10q7 16 23 23t41 7q27 0 43 -8t23 -24q4 -8 5 -17q1 -10 1 -27v-7h-70q-104 2 -185 -20
q-80 -21 -113 -87q-6 -14 -9 -31q-4 -17 -4 -37q0 -19 4 -35q3 -16 9 -30q22 -47 69 -69q46 -21 112 -21t111 19q46 19 78 57v-59h215v284q0 37 -6 68q-7 30 -18 55v0zM305 123q-21 0 -38 6q-16 5 -23 20q-2 5 -3 10q-1 4 -1 9q0 6 1 11q1 4 3 8q8 17 32 22t58 4h64v-7
q0 -17 -2 -27q-1 -9 -5 -17q-9 -20 -31 -30q-22 -9 -55 -9v0z" />
    <glyph glyph-name="atilde" unicode="&#xe3;" horiz-adv-x="650" 
d="M269 597q14 0 30 -7l36 -17q17 -9 39 -15t49 -6q59 -1 90 40q31 42 35 136h-118q-4 -24 -13 -34q-9 -9 -25 -9t-31 7q-15 6 -31 15q-22 11 -43 18q-21 6 -45 6q-62 0 -93 -44q-30 -44 -36 -134h117q3 24 13 34t26 10v0zM589 407q-28 62 -94 90q-67 28 -173 27
q-97 1 -168 -25q-71 -27 -101 -89q-6 -14 -10 -31q-4 -16 -5 -35h217q0 7 1 12t4 10q7 16 23 23t41 7q27 0 43 -8t23 -24q4 -8 5 -17q1 -10 1 -27v-7h-70q-104 2 -185 -20q-80 -21 -113 -87q-6 -14 -9 -31q-4 -17 -4 -37q0 -19 4 -35q3 -16 9 -30q22 -47 69 -69
q46 -21 112 -21t111 19q46 19 78 57v-59h215v284q0 37 -6 68q-7 30 -18 55v0zM305 123q-21 0 -38 6q-16 5 -23 20q-2 5 -3 10q-1 4 -1 9q0 6 1 11q1 4 3 8q8 17 32 22t58 4h64v-7q0 -17 -2 -27q-1 -9 -5 -17q-9 -20 -31 -30q-22 -9 -55 -9v0z" />
    <glyph glyph-name="adieresis" unicode="&#xe4;" horiz-adv-x="650" 
d="M208 548q45 1 73 27t29 69q-1 43 -29 70q-28 26 -73 27q-44 -1 -72 -27q-28 -27 -29 -70q1 -43 29 -69t72 -27v0zM454 547q45 1 73 27t29 69q-1 43 -29 70q-28 26 -73 27q-44 -1 -72 -27q-28 -27 -29 -70q1 -43 29 -69t72 -27v0zM589 407q-28 62 -94 90q-67 28 -173 27
q-97 1 -168 -25q-71 -27 -101 -89q-6 -14 -10 -31q-4 -16 -5 -35h217q0 7 1 12t4 10q7 16 23 23t41 7q27 0 43 -8t23 -24q4 -8 5 -17q1 -10 1 -27v-7h-70q-104 2 -185 -20q-80 -21 -113 -87q-6 -14 -9 -31q-4 -17 -4 -37q0 -19 4 -35q3 -16 9 -30q22 -47 69 -69
q46 -21 112 -21t111 19q46 19 78 57v-59h215v284q0 37 -6 68q-7 30 -18 55v0zM305 123q-21 0 -38 6q-16 5 -23 20q-2 5 -3 10q-1 4 -1 9q0 6 1 11q1 4 3 8q8 17 32 22t58 4h64v-7q0 -17 -2 -27q-1 -9 -5 -17q-9 -20 -31 -30q-22 -9 -55 -9v0z" />
    <glyph glyph-name="aring" unicode="&#xe5;" horiz-adv-x="650" 
d="M331 542q71 1 114 37q44 36 45 100q-1 64 -45 100t-114 37q-71 -1 -115 -37t-45 -100q1 -64 45 -100t115 -37v0zM331 728q25 0 38 -13q14 -13 14 -36q0 -22 -14 -35t-38 -13t-38 13t-14 35q0 23 14 36t38 13v0zM589 407q-28 62 -94 90q-67 28 -173 27q-97 1 -168 -25
q-71 -27 -101 -89q-6 -14 -10 -31q-4 -16 -5 -35h217q0 7 1 12t4 10q7 16 23 23t41 7q27 0 43 -8t23 -24q4 -8 5 -17q1 -10 1 -27v-7h-70q-104 2 -185 -20q-80 -21 -113 -87q-6 -14 -9 -31q-4 -17 -4 -37q0 -19 4 -35q3 -16 9 -30q22 -47 69 -69q46 -21 112 -21t111 19
q46 19 78 57v-59h215v284q0 37 -6 68q-7 30 -18 55v0zM305 123q-21 0 -38 6q-16 5 -23 20q-2 5 -3 10q-1 4 -1 9q0 6 1 11q1 4 3 8q8 17 32 22t58 4h64v-7q0 -17 -2 -27q-1 -9 -5 -17q-9 -20 -31 -30q-22 -9 -55 -9v0z" />
    <glyph glyph-name="ae" unicode="&#xe6;" horiz-adv-x="1016" 
d="M760 140q-16 -17 -54 -17q-32 0 -52 12q-20 11 -30 34q-6 15 -9 35h386q0 49 -7 90q-6 41 -22 75q-33 73 -103 114q-70 40 -174 41q-52 0 -96 -11q-45 -11 -80 -32q-33 22 -82 33q-48 10 -115 10q-97 1 -168 -25q-71 -27 -101 -89q-6 -14 -10 -31q-4 -16 -5 -35h217
q0 7 1 12t4 10q7 16 23 23t41 7q27 0 43 -8q15 -8 22 -22q4 -9 6 -19q1 -10 1 -27v-7h-70q-104 2 -185 -19q-82 -22 -113 -88q-6 -14 -9 -31q-4 -17 -4 -37q0 -17 3 -32q4 -16 9 -29q23 -48 78 -71q55 -24 133 -24q80 0 135 23q56 22 96 64q39 -43 100 -65t139 -22
q69 0 129 17q60 16 102 53q23 22 38 50t20 63h-223q-3 -15 -14 -25v0zM698 388q28 0 46 -12t28 -33q8 -15 9 -36h-166q1 10 4 19q2 9 6 16q9 22 27 34t46 12v0zM398 206q0 -17 -2 -27q-1 -9 -5 -17q-9 -20 -31 -30q-22 -9 -55 -9q-21 0 -37 6q-16 5 -24 20q-4 9 -4 21
q0 5 1 9t3 8q9 17 33 22t57 4h64v-7z" />
    <glyph glyph-name="ccedilla" unicode="&#xe7;" horiz-adv-x="682" 
d="M434 214q-1 -14 -7 -27q-6 -14 -17 -24t-28 -16q-18 -6 -43 -6q-30 0 -52 13q-22 12 -33 37q-6 12 -8 27t-2 36t2 36t8 27q11 25 32 37q22 12 53 12q25 0 42 -6q17 -5 28 -15t17 -21q7 -12 8 -27h231q-3 43 -19 79q-17 36 -48 65q-47 42 -113 63q-65 20 -147 20
q-106 0 -185 -37t-114 -115q-24 -51 -24 -119q0 -67 24 -118q28 -61 82 -97q54 -35 125 -48l-15 -58h79q31 0 46 -6q15 -7 15 -22q-1 -18 -17 -24q-17 -6 -44 -6q-25 0 -46 4q-20 4 -43 12l-23 -93q31 -10 63 -14q33 -5 70 -5q84 -1 134 25q50 25 51 93q0 36 -16 61
q-17 25 -52 36q90 20 149 74q33 29 50 66t20 81h-233z" />
    <glyph glyph-name="egrave" unicode="&#xe8;" horiz-adv-x="678" 
d="M464 553l-106 168h-218l126 -168h198zM426 143q-12 -10 -33 -15q-20 -5 -43 -5q-40 0 -69 12t-41 40q-3 6 -5 13q-2 8 -3 16h431q0 50 -6 87q-6 38 -22 72q-35 79 -112 120q-76 41 -187 41q-104 0 -183 -38t-115 -116q-11 -24 -17 -53q-6 -28 -6 -63q0 -33 5 -62
q6 -29 17 -54q36 -78 118 -117t194 -39q74 -1 140 17q65 17 112 59q23 21 38 48q15 26 20 59h-219q-1 -6 -5 -11q-3 -6 -9 -11v0zM339 388q36 0 62 -13q26 -12 38 -38q3 -7 5 -14t3 -16h-215q2 9 4 16q2 8 5 15q12 24 37 37q26 13 61 13v0z" />
    <glyph glyph-name="eacute" unicode="&#xe9;" horiz-adv-x="678" 
d="M539 721h-219l-105 -168h198zM426 143q-12 -10 -33 -15q-20 -5 -43 -5q-40 0 -69 12t-41 40q-3 6 -5 13q-2 8 -3 16h431q0 50 -6 87q-6 38 -22 72q-35 79 -112 120q-76 41 -187 41q-104 0 -183 -38t-115 -116q-11 -24 -17 -53q-6 -28 -6 -63q0 -33 5 -62q6 -29 17 -54
q36 -78 118 -117t194 -39q74 -1 140 17q65 17 112 59q23 21 38 48q15 26 20 59h-219q-1 -6 -5 -11q-3 -6 -9 -11v0zM339 388q36 0 62 -13q26 -12 38 -38q3 -7 5 -14t3 -16h-215q2 9 4 16q2 8 5 15q12 24 37 37q26 13 61 13v0z" />
    <glyph glyph-name="ecircumflex" unicode="&#xea;" horiz-adv-x="678" 
d="M339 629l47 -76h185l-107 168h-249l-108 -168h185zM426 143q-12 -10 -33 -15q-20 -5 -43 -5q-40 0 -69 12t-41 40q-3 6 -5 13q-2 8 -3 16h431q0 50 -6 87q-6 38 -22 72q-35 79 -112 120q-76 41 -187 41q-104 0 -183 -38t-115 -116q-11 -24 -17 -53q-6 -28 -6 -63
q0 -33 5 -62q6 -29 17 -54q36 -78 118 -117t194 -39q74 -1 140 17q65 17 112 59q23 21 38 48q15 26 20 59h-219q-1 -6 -5 -11q-3 -6 -9 -11v0zM339 388q36 0 62 -13q26 -12 38 -38q3 -7 5 -14t3 -16h-215q2 9 4 16q2 8 5 15q12 24 37 37q26 13 61 13v0z" />
    <glyph glyph-name="edieresis" unicode="&#xeb;" horiz-adv-x="678" 
d="M215 548q45 1 73 27t29 69q-1 43 -29 70q-28 26 -73 27q-44 -1 -72 -27q-28 -27 -29 -70q1 -43 29 -69t72 -27v0zM461 547q45 1 73 27t29 69q-1 43 -29 70q-28 26 -73 27q-44 -1 -72 -27q-28 -27 -29 -70q1 -43 29 -69t72 -27v0zM426 143q-12 -10 -33 -15q-20 -5 -43 -5
q-40 0 -69 12t-41 40q-3 6 -5 13q-2 8 -3 16h431q0 50 -6 87q-6 38 -22 72q-35 79 -112 120q-76 41 -187 41q-104 0 -183 -38t-115 -116q-11 -24 -17 -53q-6 -28 -6 -63q0 -33 5 -62q6 -29 17 -54q36 -78 118 -117t194 -39q74 -1 140 17q65 17 112 59q23 21 38 48
q15 26 20 59h-219q-1 -6 -5 -11q-3 -6 -9 -11v0zM339 388q36 0 62 -13q26 -12 38 -38q3 -7 5 -14t3 -16h-215q2 9 4 16q2 8 5 15q12 24 37 37q26 13 61 13v0z" />
    <glyph glyph-name="igrave" unicode="&#xec;" horiz-adv-x="301" 
d="M276 553l-86 168h-218l110 -168h194zM43 0h215v507h-215v-507z" />
    <glyph glyph-name="iacute" unicode="&#xed;" horiz-adv-x="301" 
d="M26 553h194l110 168h-219zM43 0h215v507h-215v-507z" />
    <glyph glyph-name="icircumflex" unicode="&#xee;" horiz-adv-x="301" 
d="M-33 553h150l34 76l34 -76h149l-83 168h-200zM43 0h215v507h-215v-507z" />
    <glyph glyph-name="idieresis" unicode="&#xef;" horiz-adv-x="301" 
d="M56 553q39 1 62 25q23 25 24 65q-1 42 -24 67q-23 24 -62 25q-40 -1 -64 -25q-23 -25 -24 -67q1 -40 24 -65q24 -24 64 -25v0zM246 553q40 1 63 25q23 25 24 65q-1 42 -24 67q-23 24 -63 25q-40 -1 -63 -25q-23 -25 -24 -67q1 -40 24 -65q23 -24 63 -25v0zM43 0h215v507
h-215v-507z" />
    <glyph glyph-name="eth" unicode="&#xf0;" horiz-adv-x="704" 
d="M644 450q-30 66 -83 133l67 15v115l-153 -35q-13 15 -27 28h-262v-2l77 -74l-161 -36v-114l249 56q44 -51 68 -96q-28 17 -62 25t-76 8q-88 0 -151 -36q-64 -36 -94 -103q-10 -22 -16 -49q-5 -27 -5 -59q0 -31 5 -56q5 -26 15 -48q34 -72 113 -106t188 -34q124 0 206 39
q81 39 115 118q13 27 19 58q6 32 6 70q0 50 -9 94t-29 89v0zM443 185q-12 -25 -36 -37q-25 -13 -60 -13t-60 13q-24 13 -36 38q-4 10 -6 21t-2 26q0 16 2 28q3 11 7 21q11 25 36 38q24 13 59 13q34 0 58 -13q25 -12 37 -37q5 -10 7 -22t2 -28q0 -28 -8 -48v0z" />
    <glyph glyph-name="ntilde" unicode="&#xf1;" horiz-adv-x="676" 
d="M279 597q14 0 30 -7l36 -17q17 -9 39 -15t49 -6q59 -1 90 40q31 42 35 136h-118q-4 -24 -13 -34q-9 -9 -25 -9t-31 7q-15 6 -31 15q-22 11 -43 18q-21 6 -45 6q-62 0 -93 -44q-30 -44 -36 -134h117q3 24 13 34t26 10v0zM437 524q-60 0 -104 -22t-75 -60v65h-215v-507h215
v264q0 50 21 76q22 26 65 26q38 0 59 -21q20 -22 20 -70v-275h215v317q0 102 -51 154q-51 53 -150 53v0z" />
    <glyph glyph-name="ograve" unicode="&#xf2;" horiz-adv-x="689" 
d="M470 553l-106 168h-218l126 -168h198zM345 -18q112 0 192 40t115 117q11 25 17 53q5 28 5 61q0 34 -5 62q-6 28 -17 53q-35 77 -115 117q-80 39 -192 39t-192 -40q-81 -40 -117 -120q-11 -25 -16 -52t-5 -59q0 -31 5 -58t16 -52q36 -80 117 -121q80 -40 192 -40v0z
M345 141q-35 0 -59 13q-23 13 -34 38q-10 22 -10 61q0 20 2 36q3 15 8 26q11 25 34 38q24 13 59 13t58 -12q24 -13 35 -38q5 -11 8 -27q2 -15 2 -36q0 -20 -2 -36q-3 -15 -8 -27q-11 -25 -35 -37q-23 -12 -58 -12v0z" />
    <glyph glyph-name="oacute" unicode="&#xf3;" horiz-adv-x="689" 
d="M221 553h198l126 168h-219zM345 -18q112 0 192 40t115 117q11 25 17 53q5 28 5 61q0 34 -5 62q-6 28 -17 53q-35 77 -115 117q-80 39 -192 39t-192 -40q-81 -40 -117 -120q-11 -25 -16 -52t-5 -59q0 -31 5 -58t16 -52q36 -80 117 -121q80 -40 192 -40v0zM345 141
q-35 0 -59 13q-23 13 -34 38q-10 22 -10 61q0 20 2 36q3 15 8 26q11 25 34 38q24 13 59 13t58 -12q24 -13 35 -38q5 -11 8 -27q2 -15 2 -36q0 -20 -2 -36q-3 -15 -8 -27q-11 -25 -35 -37q-23 -12 -58 -12v0z" />
    <glyph glyph-name="ocircumflex" unicode="&#xf4;" horiz-adv-x="689" 
d="M113 553h185l47 76l47 -76h185l-107 168h-249zM345 -18q112 0 192 40t115 117q11 25 17 53q5 28 5 61q0 34 -5 62q-6 28 -17 53q-35 77 -115 117q-80 39 -192 39t-192 -40q-81 -40 -117 -120q-11 -25 -16 -52t-5 -59q0 -31 5 -58t16 -52q36 -80 117 -121q80 -40 192 -40
v0zM345 141q-35 0 -59 13q-23 13 -34 38q-10 22 -10 61q0 20 2 36q3 15 8 26q11 25 34 38q24 13 59 13t58 -12q24 -13 35 -38q5 -11 8 -27q2 -15 2 -36q0 -20 -2 -36q-3 -15 -8 -27q-11 -25 -35 -37q-23 -12 -58 -12v0z" />
    <glyph glyph-name="otilde" unicode="&#xf5;" horiz-adv-x="689" 
d="M437 552q59 -1 90 40q31 42 35 136h-118q-4 -24 -13 -34q-9 -9 -25 -9t-31 7q-15 6 -31 15q-22 11 -43 18q-21 6 -45 6q-62 0 -93 -44q-30 -44 -36 -134h117q3 24 13 34t26 10q14 0 30 -7l36 -17q17 -9 39 -15t49 -6v0zM345 -18q112 0 192 40t115 117q11 25 17 53
q5 28 5 61q0 34 -5 62q-6 28 -17 53q-35 77 -115 117q-80 39 -192 39t-192 -40q-81 -40 -117 -120q-11 -25 -16 -52t-5 -59q0 -31 5 -58t16 -52q36 -80 117 -121q80 -40 192 -40v0zM345 141q-35 0 -59 13q-23 13 -34 38q-10 22 -10 61q0 20 2 36q3 15 8 26q11 25 34 38
q24 13 59 13t58 -12q24 -13 35 -38q5 -11 8 -27q2 -15 2 -36q0 -20 -2 -36q-3 -15 -8 -27q-11 -25 -35 -37q-23 -12 -58 -12v0z" />
    <glyph glyph-name="odieresis" unicode="&#xf6;" horiz-adv-x="689" 
d="M222 548q45 1 73 27t29 69q-1 43 -29 70q-28 26 -73 27q-44 -1 -72 -27q-28 -27 -29 -70q1 -43 29 -69t72 -27v0zM468 547q45 1 73 27t29 69q-1 43 -29 70q-28 26 -73 27q-44 -1 -72 -27q-28 -27 -29 -70q1 -43 29 -69t72 -27v0zM345 -18q112 0 192 40t115 117
q11 25 17 53q5 28 5 61q0 34 -5 62q-6 28 -17 53q-35 77 -115 117q-80 39 -192 39t-192 -40q-81 -40 -117 -120q-11 -25 -16 -52t-5 -59q0 -31 5 -58t16 -52q36 -80 117 -121q80 -40 192 -40v0zM345 141q-35 0 -59 13q-23 13 -34 38q-10 22 -10 61q0 20 2 36q3 15 8 26
q11 25 34 38q24 13 59 13t58 -12q24 -13 35 -38q5 -11 8 -27q2 -15 2 -36q0 -20 -2 -36q-3 -15 -8 -27q-11 -25 -35 -37q-23 -12 -58 -12v0z" />
    <glyph glyph-name="divide" unicode="&#xf7;" horiz-adv-x="613" 
d="M306 408q42 1 68 25q25 25 26 67q-1 42 -26 66q-26 24 -68 24q-43 0 -68 -24t-26 -66q1 -42 26 -67q26 -24 68 -25v0zM45 220h523v156h-523v-156zM306 6q42 1 68 25q25 25 26 66q-1 42 -26 66q-26 24 -68 24q-43 0 -68 -24t-26 -66q1 -41 26 -66q26 -24 68 -25v0z" />
    <glyph glyph-name="oslash" unicode="&#xf8;" horiz-adv-x="689" 
d="M612 429l86 77h-129l-27 -24q-40 21 -89 32q-50 10 -108 10q-112 0 -192 -40q-81 -40 -117 -120q-11 -25 -16 -52t-5 -59q0 -31 5 -58t16 -52q8 -19 19 -35t24 -30l-90 -79h128l30 26q41 -21 90 -32q50 -11 108 -11q112 0 192 40t115 117q11 25 17 53q5 28 5 61
q0 34 -5 62q-6 28 -17 53q-8 17 -18 32q-10 16 -22 29v0zM252 315q11 25 34 38q24 13 59 13q16 0 30 -2q14 -3 25 -9l-156 -137q-2 15 -2 35t2 36q3 15 8 26v0zM438 190q-11 -25 -35 -37q-23 -12 -58 -12q-33 0 -55 11l156 137q2 -15 2 -36q0 -20 -2 -36q-3 -15 -8 -27v0z
" />
    <glyph glyph-name="ugrave" unicode="&#xf9;" horiz-adv-x="676" 
d="M462 553l-106 168h-218l126 -168h198zM418 507v-264q0 -50 -21 -76q-22 -26 -65 -26q-38 0 -59 21q-20 22 -20 70v275h-215v-317q0 -102 51 -154q51 -53 150 -53q60 0 104 22t75 60v-65h215v507h-215z" />
    <glyph glyph-name="uacute" unicode="&#xfa;" horiz-adv-x="676" 
d="M537 721h-219l-105 -168h198zM418 507v-264q0 -50 -21 -76q-22 -26 -65 -26q-38 0 -59 21q-20 22 -20 70v275h-215v-317q0 -102 51 -154q51 -53 150 -53q60 0 104 22t75 60v-65h215v507h-215z" />
    <glyph glyph-name="ucircumflex" unicode="&#xfb;" horiz-adv-x="676" 
d="M337 629l47 -76h185l-107 168h-249l-108 -168h185zM418 507v-264q0 -50 -21 -76q-22 -26 -65 -26q-38 0 -59 21q-20 22 -20 70v275h-215v-317q0 -102 51 -154q51 -53 150 -53q60 0 104 22t75 60v-65h215v507h-215z" />
    <glyph glyph-name="udieresis" unicode="&#xfc;" horiz-adv-x="676" 
d="M213 548q45 1 73 27t29 69q-1 43 -29 70q-28 26 -73 27q-44 -1 -72 -27q-28 -27 -29 -70q1 -43 29 -69t72 -27v0zM459 547q45 1 73 27t29 69q-1 43 -29 70q-28 26 -73 27q-44 -1 -72 -27q-28 -27 -29 -70q1 -43 29 -69t72 -27v0zM418 507v-264q0 -50 -21 -76
q-22 -26 -65 -26q-38 0 -59 21q-20 22 -20 70v275h-215v-317q0 -102 51 -154q51 -53 150 -53q60 0 104 22t75 60v-65h215v507h-215z" />
    <glyph glyph-name="yacute" unicode="&#xfd;" horiz-adv-x="644" 
d="M525 721h-219l-105 -168h198zM433 507l-105 -294l-111 294h-226l224 -507l-91 -203h213l90 204l226 506h-220z" />
    <glyph glyph-name="thorn" unicode="&#xfe;" horiz-adv-x="697" 
d="M656 385q-29 65 -86 101t-136 36q-110 0 -176 -74v258h-215v-909h215v259q66 -74 176 -74q79 1 136 36q57 36 86 101q26 55 26 133q0 40 -7 73q-6 32 -19 60v0zM446 192q-12 -25 -35 -37q-23 -13 -56 -13q-46 0 -72 26q-27 25 -28 76v17q1 51 28 77q26 25 72 25
q33 0 56 -13q23 -12 35 -37q5 -11 8 -26q2 -15 2 -35q0 -19 -2 -34q-3 -15 -8 -26v0z" />
    <glyph glyph-name="ydieresis" unicode="&#xff;" horiz-adv-x="644" 
d="M202 548q45 1 73 27t29 69q-1 43 -29 70q-28 26 -73 27q-44 -1 -72 -27q-28 -27 -29 -70q1 -43 29 -69t72 -27v0zM448 547q45 1 73 27t29 69q-1 43 -29 70q-28 26 -73 27q-44 -1 -72 -27q-28 -27 -29 -70q1 -43 29 -69t72 -27v0zM433 507l-105 -294l-111 294h-226
l224 -507l-91 -203h213l90 204l226 506h-220z" />
    <glyph glyph-name="Amacron" unicode="&#x100;" horiz-adv-x="863" 
d="M619 901h-376v-134h376v134zM631 0h245l-278 706h-333l-278 -706h246l42 117h313zM334 280l96 265h2l97 -265h-195z" />
    <glyph glyph-name="amacron" unicode="&#x101;" horiz-adv-x="650" 
d="M517 711h-371v-134h371v134zM589 407q-28 62 -94 90q-67 28 -173 27q-97 1 -168 -25q-71 -27 -101 -89q-6 -14 -10 -31q-4 -16 -5 -35h217q0 7 1 12t4 10q7 16 23 23t41 7q27 0 43 -8t23 -24q4 -8 5 -17q1 -10 1 -27v-7h-70q-104 2 -185 -20q-80 -21 -113 -87
q-6 -14 -9 -31q-4 -17 -4 -37q0 -19 4 -35q3 -16 9 -30q22 -47 69 -69q46 -21 112 -21t111 19q46 19 78 57v-59h215v284q0 37 -6 68q-7 30 -18 55v0zM305 123q-21 0 -38 6q-16 5 -23 20q-2 5 -3 10q-1 4 -1 9q0 6 1 11q1 4 3 8q8 17 32 22t58 4h64v-7q0 -17 -2 -27
q-1 -9 -5 -17q-9 -20 -31 -30q-22 -9 -55 -9v0z" />
    <glyph glyph-name="Abreve" unicode="&#x102;" horiz-adv-x="863" 
d="M433 751q101 0 156 42q54 41 59 119h-147q-6 -28 -23 -40q-16 -12 -45 -12q-28 0 -45 12t-22 40h-151q5 -78 61 -119q56 -42 157 -42v0zM631 0h245l-278 706h-333l-278 -706h246l42 117h313zM334 280l96 265h2l97 -265h-195z" />
    <glyph glyph-name="abreve" unicode="&#x103;" horiz-adv-x="650" 
d="M332 545q102 0 157 45t60 131h-143q-6 -33 -23 -48q-18 -14 -51 -14q-31 0 -50 14q-19 15 -25 48h-144q6 -86 62 -131q57 -45 157 -45v0zM589 407q-28 62 -94 90q-67 28 -173 27q-97 1 -168 -25q-71 -27 -101 -89q-6 -14 -10 -31q-4 -16 -5 -35h217q0 7 1 12t4 10
q7 16 23 23t41 7q27 0 43 -8t23 -24q4 -8 5 -17q1 -10 1 -27v-7h-70q-104 2 -185 -20q-80 -21 -113 -87q-6 -14 -9 -31q-4 -17 -4 -37q0 -19 4 -35q3 -16 9 -30q22 -47 69 -69q46 -21 112 -21t111 19q46 19 78 57v-59h215v284q0 37 -6 68q-7 30 -18 55v0zM305 123
q-21 0 -38 6q-16 5 -23 20q-2 5 -3 10q-1 4 -1 9q0 6 1 11q1 4 3 8q8 17 32 22t58 4h64v-7q0 -17 -2 -27q-1 -9 -5 -17q-9 -20 -31 -30q-22 -9 -55 -9v0z" />
    <glyph glyph-name="Aogonek" unicode="&#x104;" horiz-adv-x="863" 
d="M789 -77q0 22 23 42q23 19 64 35l-278 706h-333l-278 -706h246l42 117h313l43 -117h89q-42 -16 -69 -44q-28 -28 -29 -71q1 -53 44 -79q42 -26 110 -26q29 0 54 3t46 10v103q-10 -4 -20 -5q-10 -2 -20 -2q-21 0 -34 8q-13 9 -13 26v0zM334 280l96 265h2l97 -265h-195z
" />
    <glyph glyph-name="aogonek" unicode="&#x105;" horiz-adv-x="650" 
d="M613 0v284q0 37 -6 68q-7 30 -18 55q-28 62 -94 90q-67 28 -173 27q-97 1 -168 -25q-71 -27 -101 -89q-6 -14 -10 -31q-4 -16 -5 -35h217q0 7 1 12t4 10q7 16 23 23t41 7q27 0 43 -8t23 -24q4 -8 5 -17q1 -10 1 -27v-7h-70q-104 2 -185 -20q-80 -21 -113 -87
q-6 -14 -9 -31q-4 -17 -4 -37q0 -19 4 -35q3 -16 9 -30q22 -47 69 -69q46 -21 112 -21t111 19q46 19 78 57v-59h59q-42 -16 -69 -44q-28 -28 -29 -71q1 -53 44 -79q42 -26 110 -26q29 0 54 3t46 10v103q-10 -4 -20 -5q-10 -2 -20 -2q-21 0 -34 8q-13 9 -13 26q0 22 23 42
q23 19 64 35v0zM305 123q-21 0 -38 6q-16 5 -23 20q-2 5 -3 10q-1 4 -1 9q0 6 1 11q1 4 3 8q8 17 32 22t58 4h64v-7q0 -17 -2 -27q-1 -9 -5 -17q-9 -20 -31 -30q-22 -9 -55 -9v0z" />
    <glyph glyph-name="Cacute" unicode="&#x106;" horiz-adv-x="857" 
d="M312 754h206l125 158h-225zM439 -22q91 0 170 26q78 25 134 75q44 39 68 91q23 51 25 112h-246q-2 -20 -12 -39t-26 -34q-21 -19 -51 -29q-30 -9 -65 -9q-51 0 -89 19q-39 18 -58 60q-8 17 -12 42t-4 61t5 60t13 42q18 40 55 60t90 20q36 0 63 -8q27 -9 47 -27
q17 -15 28 -37t15 -46h246q-3 62 -27 116t-70 96q-54 49 -131 74t-168 25q-136 0 -236 -52t-147 -153q-16 -36 -24 -78t-8 -91q0 -51 8 -93q8 -43 24 -79q48 -103 147 -153q99 -51 236 -51v0z" />
    <glyph glyph-name="cacute" unicode="&#x107;" horiz-adv-x="682" 
d="M216 553h198l126 168h-219zM338 -18q82 0 148 22q65 21 111 63q33 29 50 66t20 81h-233q-1 -14 -7 -27q-6 -14 -17 -24t-28 -16q-18 -6 -43 -6q-30 0 -52 13q-22 12 -33 37q-6 12 -8 27t-2 36t2 36t8 27q11 25 32 37q22 12 53 12q25 0 42 -6q17 -5 28 -15t17 -21
q7 -12 8 -27h231q-3 43 -19 79q-17 36 -48 65q-47 42 -113 63q-65 20 -147 20q-106 0 -185 -37t-114 -115q-24 -51 -24 -119q0 -67 24 -118q37 -80 117 -117q80 -36 182 -36v0z" />
    <glyph glyph-name="Ccircumflex" unicode="&#x108;" horiz-adv-x="857" 
d="M188 755h195l55 70l56 -70h195l-121 157h-259zM439 -22q91 0 170 26q78 25 134 75q44 39 68 91q23 51 25 112h-246q-2 -20 -12 -39t-26 -34q-21 -19 -51 -29q-30 -9 -65 -9q-51 0 -89 19q-39 18 -58 60q-8 17 -12 42t-4 61t5 60t13 42q18 40 55 60t90 20q36 0 63 -8
q27 -9 47 -27q17 -15 28 -37t15 -46h246q-3 62 -27 116t-70 96q-54 49 -131 74t-168 25q-136 0 -236 -52t-147 -153q-16 -36 -24 -78t-8 -91q0 -51 8 -93q8 -43 24 -79q48 -103 147 -153q99 -51 236 -51v0z" />
    <glyph glyph-name="ccircumflex" unicode="&#x109;" horiz-adv-x="682" 
d="M108 553h185l47 76l47 -76h185l-107 168h-249zM338 -18q82 0 148 22q65 21 111 63q33 29 50 66t20 81h-233q-1 -14 -7 -27q-6 -14 -17 -24t-28 -16q-18 -6 -43 -6q-30 0 -52 13q-22 12 -33 37q-6 12 -8 27t-2 36t2 36t8 27q11 25 32 37q22 12 53 12q25 0 42 -6
q17 -5 28 -15t17 -21q7 -12 8 -27h231q-3 43 -19 79q-17 36 -48 65q-47 42 -113 63q-65 20 -147 20q-106 0 -185 -37t-114 -115q-24 -51 -24 -119q0 -67 24 -118q37 -80 117 -117q80 -36 182 -36v0z" />
    <glyph glyph-name="Cdotaccent" unicode="&#x10a;" horiz-adv-x="857" 
d="M439 746q48 1 79 30q30 29 31 74q-1 45 -31 74q-31 29 -79 30q-48 -1 -79 -30q-30 -29 -31 -74q1 -45 31 -74q31 -29 79 -30v0zM439 -22q91 0 170 26q78 25 134 75q44 39 68 91q23 51 25 112h-246q-2 -20 -12 -39t-26 -34q-21 -19 -51 -29q-30 -9 -65 -9q-51 0 -89 19
q-39 18 -58 60q-8 17 -12 42t-4 61t5 60t13 42q18 40 55 60t90 20q36 0 63 -8q27 -9 47 -27q17 -15 28 -37t15 -46h246q-3 62 -27 116t-70 96q-54 49 -131 74t-168 25q-136 0 -236 -52t-147 -153q-16 -36 -24 -78t-8 -91q0 -51 8 -93q8 -43 24 -79q48 -103 147 -153
q99 -51 236 -51v0z" />
    <glyph glyph-name="cdotaccent" unicode="&#x10b;" horiz-adv-x="682" 
d="M340 547q47 1 77 28q29 28 30 73q-1 45 -30 73q-30 27 -77 28q-47 -1 -76 -28q-29 -28 -30 -73q1 -45 30 -73q29 -27 76 -28v0zM338 -18q82 0 148 22q65 21 111 63q33 29 50 66t20 81h-233q-1 -14 -7 -27q-6 -14 -17 -24t-28 -16q-18 -6 -43 -6q-30 0 -52 13
q-22 12 -33 37q-6 12 -8 27t-2 36t2 36t8 27q11 25 32 37q22 12 53 12q25 0 42 -6q17 -5 28 -15t17 -21q7 -12 8 -27h231q-3 43 -19 79q-17 36 -48 65q-47 42 -113 63q-65 20 -147 20q-106 0 -185 -37t-114 -115q-24 -51 -24 -119q0 -67 24 -118q37 -80 117 -117
q80 -36 182 -36v0z" />
    <glyph glyph-name="Ccaron" unicode="&#x10c;" horiz-adv-x="857" 
d="M689 912h-195l-55 -70l-56 70h-195l121 -157h259zM439 -22q91 0 170 26q78 25 134 75q44 39 68 91q23 51 25 112h-246q-2 -20 -12 -39t-26 -34q-21 -19 -51 -29q-30 -9 -65 -9q-51 0 -89 19q-39 18 -58 60q-8 17 -12 42t-4 61t5 60t13 42q18 40 55 60t90 20q36 0 63 -8
q27 -9 47 -27q17 -15 28 -37t15 -46h246q-3 62 -27 116t-70 96q-54 49 -131 74t-168 25q-136 0 -236 -52t-147 -153q-16 -36 -24 -78t-8 -91q0 -51 8 -93q8 -43 24 -79q48 -103 147 -153q99 -51 236 -51v0z" />
    <glyph glyph-name="ccaron" unicode="&#x10d;" horiz-adv-x="682" 
d="M572 721h-185l-47 -76l-47 76h-185l107 -168h250zM338 -18q82 0 148 22q65 21 111 63q33 29 50 66t20 81h-233q-1 -14 -7 -27q-6 -14 -17 -24t-28 -16q-18 -6 -43 -6q-30 0 -52 13q-22 12 -33 37q-6 12 -8 27t-2 36t2 36t8 27q11 25 32 37q22 12 53 12q25 0 42 -6
q17 -5 28 -15t17 -21q7 -12 8 -27h231q-3 43 -19 79q-17 36 -48 65q-47 42 -113 63q-65 20 -147 20q-106 0 -185 -37t-114 -115q-24 -51 -24 -119q0 -67 24 -118q37 -80 117 -117q80 -36 182 -36v0z" />
    <glyph glyph-name="Dcaron" unicode="&#x10e;" horiz-adv-x="839" 
d="M666 912h-195l-55 -70l-56 70h-195l121 -157h259zM52 0h374q135 0 226 47q90 48 132 140q16 35 24 76t8 90t-8 89q-8 41 -24 76q-41 93 -132 141q-91 47 -226 47h-374v-706zM284 188v330h116q60 0 97 -18q36 -19 53 -56q8 -18 12 -40q4 -23 4 -51q0 -27 -3 -49
q-4 -23 -12 -40q-17 -37 -53 -56q-37 -20 -98 -20h-116z" />
    <glyph glyph-name="dcaron" unicode="&#x10f;" horiz-adv-x="876" 
d="M439 451q-66 73 -176 73q-78 0 -135 -36q-57 -35 -87 -101q-12 -28 -19 -61t-7 -73q0 -78 26 -133q30 -66 87 -102t135 -36q115 0 182 81v-63h209v706h-215v-255zM699 706l-23 -174h169l54 174h-200zM443 244q-1 -50 -28 -77q-27 -26 -73 -26q-32 0 -55 13q-24 13 -35 38
q-5 12 -8 27q-2 15 -2 34q0 20 2 35q3 15 8 26q11 26 35 39q23 13 55 13q46 0 73 -26q27 -27 28 -78v-18z" />
    <glyph glyph-name="Dcroat" unicode="&#x110;" horiz-adv-x="839" 
d="M784 518q-41 93 -132 141q-91 47 -226 47h-374v-289h-55v-124h55v-293h374q135 0 226 47q90 48 132 140q16 35 24 76t8 90t-8 89q-8 41 -24 76v0zM551 264q-17 -37 -53 -56q-37 -20 -98 -20h-116v105h156v124h-156v101h116q60 0 97 -18q36 -19 53 -56q8 -18 12 -40
q4 -23 4 -51q0 -27 -3 -49q-4 -23 -12 -40v0z" />
    <glyph glyph-name="dcroat" unicode="&#x111;" horiz-adv-x="697" 
d="M697 659h-43v47h-215v-47h-191v-100h191v-108q-66 73 -176 73q-78 0 -135 -36q-57 -35 -87 -101q-12 -28 -19 -61t-7 -73q0 -78 26 -133q30 -66 87 -102t135 -36q115 0 182 81v-63h209v559h43v100zM443 244q-1 -50 -28 -77q-27 -26 -73 -26q-32 0 -55 13q-24 13 -35 38
q-5 12 -8 27q-2 15 -2 34q0 20 2 35q3 15 8 26q11 26 35 39q23 13 55 13q46 0 73 -26q27 -27 28 -78v-18z" />
    <glyph glyph-name="Emacron" unicode="&#x112;" horiz-adv-x="652" 
d="M150 767h376v134h-376v-134zM52 0h563v176h-331v95h328v167h-328v92h331v176h-563v-706z" />
    <glyph glyph-name="emacron" unicode="&#x113;" horiz-adv-x="678" 
d="M525 711h-371v-134h371v134zM426 143q-12 -10 -33 -15q-20 -5 -43 -5q-40 0 -69 12t-41 40q-3 6 -5 13q-2 8 -3 16h431q0 50 -6 87q-6 38 -22 72q-35 79 -112 120q-76 41 -187 41q-104 0 -183 -38t-115 -116q-11 -24 -17 -53q-6 -28 -6 -63q0 -33 5 -62q6 -29 17 -54
q36 -78 118 -117t194 -39q74 -1 140 17q65 17 112 59q23 21 38 48q15 26 20 59h-219q-1 -6 -5 -11q-3 -6 -9 -11v0zM339 388q36 0 62 -13q26 -12 38 -38q3 -7 5 -14t3 -16h-215q2 9 4 16q2 8 5 15q12 24 37 37q26 13 61 13v0z" />
    <glyph glyph-name="Ebreve" unicode="&#x114;" horiz-adv-x="652" 
d="M340 751q101 0 156 42q54 41 59 119h-147q-6 -28 -23 -40q-16 -12 -45 -12q-28 0 -45 12t-22 40h-151q5 -78 61 -119q56 -42 157 -42v0zM52 0h563v176h-331v95h328v167h-328v92h331v176h-563v-706z" />
    <glyph glyph-name="ebreve" unicode="&#x115;" horiz-adv-x="678" 
d="M340 545q102 0 157 45t60 131h-143q-6 -33 -23 -48q-18 -14 -51 -14q-31 0 -50 14q-19 15 -25 48h-144q6 -86 62 -131q57 -45 157 -45v0zM426 143q-12 -10 -33 -15q-20 -5 -43 -5q-40 0 -69 12t-41 40q-3 6 -5 13q-2 8 -3 16h431q0 50 -6 87q-6 38 -22 72
q-35 79 -112 120q-76 41 -187 41q-104 0 -183 -38t-115 -116q-11 -24 -17 -53q-6 -28 -6 -63q0 -33 5 -62q6 -29 17 -54q36 -78 118 -117t194 -39q74 -1 140 17q65 17 112 59q23 21 38 48q15 26 20 59h-219q-1 -6 -5 -11q-3 -6 -9 -11v0zM339 388q36 0 62 -13q26 -12 38 -38
q3 -7 5 -14t3 -16h-215q2 9 4 16q2 8 5 15q12 24 37 37q26 13 61 13v0z" />
    <glyph glyph-name="Edotaccent" unicode="&#x116;" horiz-adv-x="652" 
d="M338 746q48 1 79 30q30 29 31 74q-1 45 -31 74q-31 29 -79 30q-48 -1 -79 -30q-30 -29 -31 -74q1 -45 31 -74q31 -29 79 -30v0zM52 0h563v176h-331v95h328v167h-328v92h331v176h-563v-706z" />
    <glyph glyph-name="edotaccent" unicode="&#x117;" horiz-adv-x="678" 
d="M338 547q47 1 77 28q29 28 30 73q-1 45 -30 73q-30 27 -77 28q-47 -1 -76 -28q-29 -28 -30 -73q1 -45 30 -73q29 -27 76 -28v0zM426 143q-12 -10 -33 -15q-20 -5 -43 -5q-40 0 -69 12t-41 40q-3 6 -5 13q-2 8 -3 16h431q0 50 -6 87q-6 38 -22 72q-35 79 -112 120
q-76 41 -187 41q-104 0 -183 -38t-115 -116q-11 -24 -17 -53q-6 -28 -6 -63q0 -33 5 -62q6 -29 17 -54q36 -78 118 -117t194 -39q74 -1 140 17q65 17 112 59q23 21 38 48q15 26 20 59h-219q-1 -6 -5 -11q-3 -6 -9 -11v0zM339 388q36 0 62 -13q26 -12 38 -38q3 -7 5 -14
t3 -16h-215q2 9 4 16q2 8 5 15q12 24 37 37q26 13 61 13v0z" />
    <glyph glyph-name="Eogonek" unicode="&#x118;" horiz-adv-x="652" 
d="M615 530v176h-563v-706h407q-42 -16 -69 -44q-28 -28 -29 -71q1 -53 44 -79q42 -26 110 -26q29 0 54 3t46 10v103q-10 -4 -20 -5q-10 -2 -20 -2q-21 0 -34 8q-13 9 -13 26q0 22 23 42q23 19 64 35v176h-331v95h328v167h-328v92h331z" />
    <glyph glyph-name="eogonek" unicode="&#x119;" horiz-adv-x="678" 
d="M426 143q-12 -10 -33 -15q-20 -5 -43 -5q-40 0 -69 12t-41 40q-3 6 -5 13q-2 8 -3 16h431q0 50 -6 87q-6 38 -22 72q-35 79 -112 120q-76 41 -187 41q-104 0 -183 -38t-115 -116q-11 -24 -17 -53q-6 -28 -6 -63q0 -33 5 -62q6 -29 17 -54q36 -78 118 -117t194 -39h2
q-21 -16 -34 -39t-13 -53q1 -55 44 -83q42 -27 109 -27q59 0 100 12v104q-18 -7 -38 -7q-22 0 -35 10t-13 29q0 22 19 41q19 20 58 46q49 34 76 69q28 36 35 81h-219q-1 -6 -5 -11q-3 -6 -9 -11v0zM339 388q36 0 62 -13q26 -12 38 -38q3 -7 5 -14t3 -16h-215q2 9 4 16
q2 8 5 15q12 24 37 37q26 13 61 13v0z" />
    <glyph glyph-name="Ecaron" unicode="&#x11a;" horiz-adv-x="652" 
d="M588 912h-195l-55 -70l-56 70h-195l121 -157h259zM52 0h563v176h-331v95h328v167h-328v92h331v176h-563v-706z" />
    <glyph glyph-name="ecaron" unicode="&#x11b;" horiz-adv-x="678" 
d="M464 553l107 168h-185l-47 -76l-47 76h-185l107 -168h250zM426 143q-12 -10 -33 -15q-20 -5 -43 -5q-40 0 -69 12t-41 40q-3 6 -5 13q-2 8 -3 16h431q0 50 -6 87q-6 38 -22 72q-35 79 -112 120q-76 41 -187 41q-104 0 -183 -38t-115 -116q-11 -24 -17 -53q-6 -28 -6 -63
q0 -33 5 -62q6 -29 17 -54q36 -78 118 -117t194 -39q74 -1 140 17q65 17 112 59q23 21 38 48q15 26 20 59h-219q-1 -6 -5 -11q-3 -6 -9 -11v0zM339 388q36 0 62 -13q26 -12 38 -38q3 -7 5 -14t3 -16h-215q2 9 4 16q2 8 5 15q12 24 37 37q26 13 61 13v0z" />
    <glyph glyph-name="Gcircumflex" unicode="&#x11c;" horiz-adv-x="873" 
d="M444 825l56 -70h195l-121 157h-259l-121 -157h195zM429 399v-147h179q-3 -12 -8 -22q-17 -36 -58 -51q-40 -16 -92 -16q-57 0 -98 21q-42 20 -62 63q-8 20 -12 45q-4 24 -4 62q0 37 4 61q3 24 13 45q19 41 59 62q40 20 97 20q35 0 66 -8q31 -7 52 -26q11 -10 18 -23
q8 -12 12 -28h249q-7 49 -32 94q-26 46 -62 78q-56 51 -134 75q-79 24 -171 24q-139 0 -239 -50q-99 -50 -147 -152q-17 -36 -26 -79t-9 -94q0 -101 33 -173q46 -100 147 -151t241 -51q133 0 227 48q93 48 139 148q20 44 29 91t9 104v30h-420z" />
    <glyph glyph-name="gcircumflex" unicode="&#x11d;" horiz-adv-x="692" 
d="M340 629l47 -76h185l-107 168h-249l-108 -168h185zM436 507v-68q-29 38 -72 61q-44 23 -108 24q-76 0 -132 -34t-84 -97q-13 -28 -19 -60t-6 -71t6 -71t19 -60q28 -63 84 -97q56 -35 132 -35q62 1 105 22q43 22 71 58v-69q0 -12 -2 -23t-6 -20q-20 -43 -86 -43
q-22 0 -38 5q-17 5 -30 15q-5 5 -8 10q-4 6 -6 12h-227q6 -36 21 -64t40 -50q43 -39 108 -55q65 -17 144 -17q107 0 179 32t104 102q12 27 18 59t6 70v464h-213zM337 152q-32 0 -53 12q-22 12 -32 35q-6 12 -8 27t-2 36q0 19 2 33t8 26q10 23 32 35q21 12 53 12q44 0 70 -24
q25 -25 26 -74v-20q-1 -49 -26 -74q-26 -24 -70 -24v0z" />
    <glyph glyph-name="Gbreve" unicode="&#x11e;" horiz-adv-x="873" 
d="M447 751q101 0 156 42q54 41 59 119h-147q-6 -28 -23 -40q-16 -12 -45 -12q-28 0 -45 12t-22 40h-151q5 -78 61 -119q56 -42 157 -42v0zM429 399v-147h179q-3 -12 -8 -22q-17 -36 -58 -51q-40 -16 -92 -16q-57 0 -98 21q-42 20 -62 63q-8 20 -12 45q-4 24 -4 62
q0 37 4 61q3 24 13 45q19 41 59 62q40 20 97 20q35 0 66 -8q31 -7 52 -26q11 -10 18 -23q8 -12 12 -28h249q-7 49 -32 94q-26 46 -62 78q-56 51 -134 75q-79 24 -171 24q-139 0 -239 -50q-99 -50 -147 -152q-17 -36 -26 -79t-9 -94q0 -101 33 -173q46 -100 147 -151t241 -51
q133 0 227 48q93 48 139 148q20 44 29 91t9 104v30h-420z" />
    <glyph glyph-name="gbreve" unicode="&#x11f;" horiz-adv-x="692" 
d="M341 545q102 0 157 45t60 131h-143q-6 -33 -23 -48q-18 -14 -51 -14q-31 0 -50 14q-19 15 -25 48h-144q6 -86 62 -131q57 -45 157 -45v0zM436 507v-68q-29 38 -72 61q-44 23 -108 24q-76 0 -132 -34t-84 -97q-13 -28 -19 -60t-6 -71t6 -71t19 -60q28 -63 84 -97
q56 -35 132 -35q62 1 105 22q43 22 71 58v-69q0 -12 -2 -23t-6 -20q-20 -43 -86 -43q-22 0 -38 5q-17 5 -30 15q-5 5 -8 10q-4 6 -6 12h-227q6 -36 21 -64t40 -50q43 -39 108 -55q65 -17 144 -17q107 0 179 32t104 102q12 27 18 59t6 70v464h-213zM337 152q-32 0 -53 12
q-22 12 -32 35q-6 12 -8 27t-2 36q0 19 2 33t8 26q10 23 32 35q21 12 53 12q44 0 70 -24q25 -25 26 -74v-20q-1 -49 -26 -74q-26 -24 -70 -24v0z" />
    <glyph glyph-name="Gdotaccent" unicode="&#x120;" horiz-adv-x="873" 
d="M445 746q48 1 79 30q30 29 31 74q-1 45 -31 74q-31 29 -79 30q-48 -1 -79 -30q-30 -29 -31 -74q1 -45 31 -74q31 -29 79 -30v0zM429 399v-147h179q-3 -12 -8 -22q-17 -36 -58 -51q-40 -16 -92 -16q-57 0 -98 21q-42 20 -62 63q-8 20 -12 45q-4 24 -4 62q0 37 4 61
q3 24 13 45q19 41 59 62q40 20 97 20q35 0 66 -8q31 -7 52 -26q11 -10 18 -23q8 -12 12 -28h249q-7 49 -32 94q-26 46 -62 78q-56 51 -134 75q-79 24 -171 24q-139 0 -239 -50q-99 -50 -147 -152q-17 -36 -26 -79t-9 -94q0 -101 33 -173q46 -100 147 -151t241 -51
q133 0 227 48q93 48 139 148q20 44 29 91t9 104v30h-420z" />
    <glyph glyph-name="gdotaccent" unicode="&#x121;" horiz-adv-x="692" 
d="M339 547q47 1 77 28q29 28 30 73q-1 45 -30 73q-30 27 -77 28q-47 -1 -76 -28q-29 -28 -30 -73q1 -45 30 -73q29 -27 76 -28v0zM436 507v-68q-29 38 -72 61q-44 23 -108 24q-76 0 -132 -34t-84 -97q-13 -28 -19 -60t-6 -71t6 -71t19 -60q28 -63 84 -97q56 -35 132 -35
q62 1 105 22q43 22 71 58v-69q0 -12 -2 -23t-6 -20q-20 -43 -86 -43q-22 0 -38 5q-17 5 -30 15q-5 5 -8 10q-4 6 -6 12h-227q6 -36 21 -64t40 -50q43 -39 108 -55q65 -17 144 -17q107 0 179 32t104 102q12 27 18 59t6 70v464h-213zM337 152q-32 0 -53 12q-22 12 -32 35
q-6 12 -8 27t-2 36q0 19 2 33t8 26q10 23 32 35q21 12 53 12q44 0 70 -24q25 -25 26 -74v-20q-1 -49 -26 -74q-26 -24 -70 -24v0z" />
    <glyph glyph-name="uni0122" unicode="&#x122;" horiz-adv-x="873" 
d="M429 399v-147h179q-3 -12 -8 -22q-17 -36 -58 -51q-40 -16 -92 -16q-57 0 -98 21q-42 20 -62 63q-8 20 -12 45q-4 24 -4 62q0 37 4 61q3 24 13 45q19 41 59 62q40 20 97 20q35 0 66 -8q31 -7 52 -26q11 -10 18 -23q8 -12 12 -28h249q-7 49 -32 94q-26 46 -62 78
q-56 51 -134 75q-79 24 -171 24q-139 0 -239 -50q-99 -50 -147 -152q-17 -36 -26 -79t-9 -94q0 -101 33 -173q46 -100 147 -151t241 -51q133 0 227 48q93 48 139 148q20 44 29 91t9 104v30h-420zM306 -202h193l58 148h-221z" />
    <glyph glyph-name="uni0123" unicode="&#x123;" horiz-adv-x="692" 
d="M452 717h-193l-58 -148h220zM436 507v-68q-29 38 -72 61q-44 23 -108 24q-76 0 -132 -34t-84 -97q-13 -28 -19 -60t-6 -71t6 -71t19 -60q28 -63 84 -97q56 -35 132 -35q62 1 105 22q43 22 71 58v-69q0 -12 -2 -23t-6 -20q-20 -43 -86 -43q-22 0 -38 5q-17 5 -30 15
q-5 5 -8 10q-4 6 -6 12h-227q6 -36 21 -64t40 -50q43 -39 108 -55q65 -17 144 -17q107 0 179 32t104 102q12 27 18 59t6 70v464h-213zM337 152q-32 0 -53 12q-22 12 -32 35q-6 12 -8 27t-2 36q0 19 2 33t8 26q10 23 32 35q21 12 53 12q44 0 70 -24q25 -25 26 -74v-20
q-1 -49 -26 -74q-26 -24 -70 -24v0z" />
    <glyph glyph-name="Hcircumflex" unicode="&#x124;" horiz-adv-x="855" 
d="M177 755h195l55 70l56 -70h195l-121 157h-259zM52 0h232v262h287v-262h232v706h-232v-262h-287v262h-232v-706z" />
    <glyph glyph-name="hcircumflex" unicode="&#x125;" horiz-adv-x="676" 
d="M338 825l56 -70h195l-121 157h-259l-121 -157h195zM437 524q-60 0 -104 -22t-75 -60v264h-215v-706h215v264q0 50 21 76q22 26 65 26q38 0 59 -21q20 -22 20 -70v-275h215v317q0 102 -51 154q-51 53 -150 53v0z" />
    <glyph glyph-name="Hbar" unicode="&#x126;" horiz-adv-x="855" 
d="M571 706v-76h-287v76h-232v-706h232v262h287v-262h232v706h-232zM284 444v76h287v-76h-287z" />
    <glyph glyph-name="hbar" unicode="&#x127;" horiz-adv-x="676" 
d="M437 524q-60 0 -104 -22t-75 -60v117h189v100h-189v47h-215v-47h-45v-100h45v-559h215v264q0 50 21 76q22 26 65 26q38 0 59 -21q20 -22 20 -70v-275h215v317q0 102 -51 154q-51 53 -150 53v0z" />
    <glyph glyph-name="Itilde" unicode="&#x128;" horiz-adv-x="337" 
d="M232 751q62 0 90 42q28 41 32 119h-109q-3 -20 -9 -32q-6 -11 -21 -11q-9 0 -16 4q-8 4 -20 13q-15 13 -34 21q-18 9 -47 9q-61 0 -89 -42q-29 -42 -33 -119h108q1 20 7 31t19 11q10 0 20 -5t23 -14q16 -12 34 -19q18 -8 45 -8v0zM52 0h232v706h-232v-706z" />
    <glyph glyph-name="itilde" unicode="&#x129;" horiz-adv-x="301" 
d="M218 552q57 0 83 43q25 43 28 133h-106q-2 -20 -9 -31t-21 -11q-9 0 -18 5l-20 14q-15 12 -33 19q-17 7 -40 7q-57 0 -82 -43q-25 -44 -29 -134h106q2 20 9 31q7 12 21 12q10 0 18 -6l20 -14q15 -11 33 -18q17 -7 40 -7v0zM43 0h215v507h-215v-507z" />
    <glyph glyph-name="Imacron" unicode="&#x12a;" horiz-adv-x="337" 
d="M2 767h331v134h-331v-134zM52 0h232v706h-232v-706z" />
    <glyph glyph-name="imacron" unicode="&#x12b;" horiz-adv-x="301" 
d="M-7 577h315v134h-315v-134zM43 0h215v507h-215v-507z" />
    <glyph glyph-name="Ibreve" unicode="&#x12c;" horiz-adv-x="337" 
d="M169 748q93 0 143 42t53 122h-147q-3 -29 -15 -41q-11 -12 -34 -12q-23 -1 -35 11t-15 42h-147q3 -80 54 -122q50 -42 143 -42v0zM52 0h232v706h-232v-706z" />
    <glyph glyph-name="ibreve" unicode="&#x12d;" horiz-adv-x="301" 
d="M151 543q84 0 130 46q45 45 48 132h-131q-1 -39 -13 -54q-12 -16 -34 -15q-23 -1 -35 14t-13 55h-131q3 -87 48 -132q46 -46 131 -46v0zM43 0h215v507h-215v-507z" />
    <glyph glyph-name="Iogonek" unicode="&#x12e;" horiz-adv-x="337" 
d="M218 -81q0 24 18 44q17 20 49 37h-1v706h-232v-706h77q-33 -16 -55 -45q-22 -28 -23 -73q1 -52 41 -77t103 -25q26 0 48 3q23 3 42 9v104q-16 -7 -33 -7q-15 0 -24 8q-10 7 -10 22v0z" />
    <glyph glyph-name="iogonek" unicode="&#x12f;" horiz-adv-x="301" 
d="M150 547q47 1 76 28t30 72q-1 44 -30 72q-29 27 -76 28q-46 -1 -75 -28q-29 -28 -30 -72q1 -45 30 -72t75 -28v0zM258 0v507h-215v-507h59q-33 -16 -55 -45q-22 -28 -23 -73q1 -52 41 -77t103 -25q26 0 48 3q23 3 42 9v104q-16 -7 -33 -7q-15 0 -24 8q-10 7 -10 22
q0 24 18 44q17 20 49 37v0z" />
    <glyph glyph-name="Idotaccent" unicode="&#x130;" horiz-adv-x="337" 
d="M168 746q48 1 79 30q30 29 31 74q-1 45 -31 74q-31 29 -79 30q-48 -1 -79 -30q-30 -29 -31 -74q1 -45 31 -74q31 -29 79 -30v0zM52 0h232v706h-232v-706z" />
    <glyph glyph-name="dotlessi" unicode="&#x131;" horiz-adv-x="301" 
d="M43 0h215v507h-215v-507z" />
    <glyph glyph-name="IJ" unicode="&#x132;" horiz-adv-x="741" 
d="M52 0h232v706h-232v-706zM437 -7q143 0 206 65q63 66 62 200v448h-232v-415q1 -58 -19 -80t-69 -21q-22 0 -40 2v-192q22 -3 44 -5t48 -2v0z" />
    <glyph glyph-name="ij" unicode="&#x133;" horiz-adv-x="606" 
d="M151 547q47 1 76 28t30 72q-1 44 -30 72q-29 27 -76 28q-47 -1 -76 -28q-29 -28 -30 -72q1 -45 30 -72t76 -28v0zM456 547q47 1 76 28t30 72q-1 44 -30 72q-29 27 -76 28q-47 -1 -76 -28q-29 -28 -30 -72q1 -45 30 -72t76 -28v0zM43 0h215v507h-215v-507zM348 -216
q115 0 166 50q51 51 50 158v515h-215v-499q0 -23 -12 -36t-37 -13q-10 0 -19 1l-20 2v-172l42 -4t45 -2v0z" />
    <glyph glyph-name="Jcircumflex" unicode="&#x134;" horiz-adv-x="404" 
d="M26 755h188l40 67l39 -67h188l-98 157h-259zM100 -7q143 0 206 65q63 66 62 200v448h-232v-415q1 -58 -19 -80t-69 -21q-22 0 -40 2v-192q22 -3 44 -5t48 -2v0z" />
    <glyph glyph-name="jcircumflex" unicode="&#x135;" horiz-adv-x="305" 
d="M-29 553h150l34 76l34 -76h149l-83 168h-200zM47 -216q115 0 166 50q51 51 50 158v515h-215v-499q0 -23 -12 -36t-37 -13q-10 0 -19 1l-20 2v-172l42 -4t45 -2v0z" />
    <glyph glyph-name="uni0136" unicode="&#x136;" horiz-adv-x="821" 
d="M488 386l308 320h-284l-228 -249v249h-232v-706h232v299l257 -299h293zM263 -202h193l58 148h-221z" />
    <glyph glyph-name="uni0137" unicode="&#x137;" horiz-adv-x="667" 
d="M258 197l158 -197h274l-245 280l225 227h-271l-141 -153v352h-215v-706h215v197zM195 -202h193l58 148h-221z" />
    <glyph glyph-name="kgreenlandic" unicode="&#x138;" horiz-adv-x="667" 
d="M690 0l-245 280l225 227h-271l-141 -153v153h-215v-507h215v197l158 -197h274z" />
    <glyph glyph-name="Lacute" unicode="&#x139;" horiz-adv-x="507" 
d="M55 754h206l125 158h-225zM52 0h446v192h-214v514h-232v-706z" />
    <glyph glyph-name="lacute" unicode="&#x13a;" horiz-adv-x="301" 
d="M24 754h206l125 158h-225zM43 0h215v706h-215v-706z" />
    <glyph glyph-name="uni013B" unicode="&#x13b;" horiz-adv-x="507" 
d="M52 0h446v192h-214v514h-232v-706zM140 -202h193l58 148h-221z" />
    <glyph glyph-name="uni013C" unicode="&#x13c;" horiz-adv-x="301" 
d="M43 0h215v706h-215v-706zM12 -202h193l58 148h-221z" />
    <glyph glyph-name="Lcaron" unicode="&#x13d;" horiz-adv-x="507" 
d="M52 0h446v192h-214v514h-232v-706zM310 532h169l54 174h-200z" />
    <glyph glyph-name="lcaron" unicode="&#x13e;" horiz-adv-x="479" 
d="M43 0h215v706h-215v-706zM279 532h169l54 174h-200z" />
    <glyph glyph-name="Ldot" unicode="&#x13f;" horiz-adv-x="594" 
d="M52 0h446v192h-214v514h-232v-706zM467 314q52 1 84 33q31 31 32 83q-1 54 -32 85q-32 30 -84 31q-53 -1 -85 -31q-32 -31 -33 -85q1 -52 33 -83q32 -32 85 -33v0z" />
    <glyph glyph-name="ldot" unicode="&#x140;" horiz-adv-x="545" 
d="M43 0h215v706h-215v-706zM424 253q52 1 84 33q31 31 32 83q-1 54 -32 85q-32 30 -84 31q-53 -1 -85 -31q-32 -31 -33 -85q1 -52 33 -83q32 -32 85 -33v0z" />
    <glyph glyph-name="Lslash" unicode="&#x141;" horiz-adv-x="507" 
d="M284 192v156l134 77v149l-134 -77v209h-232v-307l-58 -34v-147l58 33v-251h446v192h-214z" />
    <glyph glyph-name="lslash" unicode="&#x142;" horiz-adv-x="344" 
d="M343 554l-68 -46v198h-215v-302l-60 -39v-160l60 39v-244h215v347l68 46v161z" />
    <glyph glyph-name="Nacute" unicode="&#x143;" horiz-adv-x="861" 
d="M310 754h206l125 158h-225zM52 0h227v396l282 -396h248v706h-227v-403l-287 403h-243v-706z" />
    <glyph glyph-name="nacute" unicode="&#x144;" horiz-adv-x="676" 
d="M541 721h-219l-105 -168h198zM437 524q-60 0 -104 -22t-75 -60v65h-215v-507h215v264q0 50 21 76q22 26 65 26q38 0 59 -21q20 -22 20 -70v-275h215v317q0 102 -51 154q-51 53 -150 53v0z" />
    <glyph glyph-name="uni0145" unicode="&#x145;" horiz-adv-x="861" 
d="M52 0h227v396l282 -396h248v706h-227v-403l-287 403h-243v-706zM277 -202h193l58 148h-221z" />
    <glyph glyph-name="uni0146" unicode="&#x146;" horiz-adv-x="676" 
d="M437 524q-60 0 -104 -22t-75 -60v65h-215v-507h215v264q0 50 21 76q22 26 65 26q38 0 59 -21q20 -22 20 -70v-275h215v317q0 102 -51 154q-51 53 -150 53v0zM201 -202h193l58 148h-221z" />
    <glyph glyph-name="Ncaron" unicode="&#x147;" horiz-adv-x="861" 
d="M687 912h-195l-55 -70l-56 70h-195l121 -157h259zM52 0h227v396l282 -396h248v706h-227v-403l-287 403h-243v-706z" />
    <glyph glyph-name="ncaron" unicode="&#x148;" horiz-adv-x="676" 
d="M466 553l107 168h-185l-47 -76l-47 76h-185l107 -168h250zM437 524q-60 0 -104 -22t-75 -60v65h-215v-507h215v264q0 50 21 76q22 26 65 26q38 0 59 -21q20 -22 20 -70v-275h215v317q0 102 -51 154q-51 53 -150 53v0z" />
    <glyph glyph-name="napostrophe" unicode="&#x149;" horiz-adv-x="898" 
d="M85 706l-70 -290h156l128 290h-214zM659 524q-60 0 -104 -23q-44 -22 -75 -60v66h-215v-507h215v264q0 50 21 76q22 26 66 26q38 0 58 -21q20 -22 20 -70v-275h215v317q0 102 -51 154q-51 53 -150 53v0z" />
    <glyph glyph-name="Eng" unicode="&#x14a;" horiz-adv-x="861" 
d="M582 706v-363l-287 363h-243v-706h227v396l303 -383v-3q0 -20 -12 -32t-40 -12q-16 0 -35 3v-172q42 -6 90 -6q118 0 171 50q54 51 53 158v707h-227z" />
    <glyph glyph-name="eng" unicode="&#x14b;" horiz-adv-x="676" 
d="M435 524q-59 0 -102 -22q-44 -22 -75 -60v65h-215v-507h215v264q0 50 21 76q22 26 65 26q39 0 59 -21q20 -22 20 -70v-261q0 -23 -12 -35q-12 -13 -37 -13h-19q-9 1 -20 3v-172q42 -6 88 -6q113 0 165 50q51 51 50 158v318q0 102 -52 154q-51 53 -151 53v0z" />
    <glyph glyph-name="Omacron" unicode="&#x14c;" horiz-adv-x="876" 
d="M250 767h376v134h-376v-134zM438 -23q135 0 233 49q97 49 144 147q37 77 37 180q0 50 -9 94t-26 82q-45 98 -144 149q-98 51 -234 51q-138 0 -237 -52t-145 -153q-16 -37 -24 -79q-9 -43 -9 -92q0 -50 9 -94q8 -44 25 -81q46 -100 144 -150q98 -51 236 -51v0zM439 171
q-55 0 -92 21q-38 21 -57 62q-8 18 -12 43q-4 24 -4 57t4 58q3 24 12 42q38 81 147 81q55 0 93 -19q37 -20 56 -61q9 -19 13 -43q4 -25 4 -59q0 -33 -4 -56q-3 -24 -11 -42q-18 -41 -55 -63q-38 -21 -94 -21v0z" />
    <glyph glyph-name="omacron" unicode="&#x14d;" horiz-adv-x="689" 
d="M160 577h371v134h-371v-134zM345 -18q112 0 192 40t115 117q11 25 17 53q5 28 5 61q0 34 -5 62q-6 28 -17 53q-35 77 -115 117q-80 39 -192 39t-192 -40q-81 -40 -117 -120q-11 -25 -16 -52t-5 -59q0 -31 5 -58t16 -52q36 -80 117 -121q80 -40 192 -40v0zM345 141
q-35 0 -59 13q-23 13 -34 38q-10 22 -10 61q0 20 2 36q3 15 8 26q11 25 34 38q24 13 59 13t58 -12q24 -13 35 -38q5 -11 8 -27q2 -15 2 -36q0 -20 -2 -36q-3 -15 -8 -27q-11 -25 -35 -37q-23 -12 -58 -12v0z" />
    <glyph glyph-name="Obreve" unicode="&#x14e;" horiz-adv-x="876" 
d="M440 751q101 0 156 42q54 41 59 119h-147q-6 -28 -23 -40q-16 -12 -45 -12q-28 0 -45 12t-22 40h-151q5 -78 61 -119q56 -42 157 -42v0zM438 -23q135 0 233 49q97 49 144 147q37 77 37 180q0 50 -9 94t-26 82q-45 98 -144 149q-98 51 -234 51q-138 0 -237 -52t-145 -153
q-16 -37 -24 -79q-9 -43 -9 -92q0 -50 9 -94q8 -44 25 -81q46 -100 144 -150q98 -51 236 -51v0zM439 171q-55 0 -92 21q-38 21 -57 62q-8 18 -12 43q-4 24 -4 57t4 58q3 24 12 42q38 81 147 81q55 0 93 -19q37 -20 56 -61q9 -19 13 -43q4 -25 4 -59q0 -33 -4 -56
q-3 -24 -11 -42q-18 -41 -55 -63q-38 -21 -94 -21v0z" />
    <glyph glyph-name="obreve" unicode="&#x14f;" horiz-adv-x="689" 
d="M346 545q102 0 157 45t60 131h-143q-6 -33 -23 -48q-18 -14 -51 -14q-31 0 -50 14q-19 15 -25 48h-144q6 -86 62 -131q57 -45 157 -45v0zM345 -18q112 0 192 40t115 117q11 25 17 53q5 28 5 61q0 34 -5 62q-6 28 -17 53q-35 77 -115 117q-80 39 -192 39t-192 -40
q-81 -40 -117 -120q-11 -25 -16 -52t-5 -59q0 -31 5 -58t16 -52q36 -80 117 -121q80 -40 192 -40v0zM345 141q-35 0 -59 13q-23 13 -34 38q-10 22 -10 61q0 20 2 36q3 15 8 26q11 25 34 38q24 13 59 13t58 -12q24 -13 35 -38q5 -11 8 -27q2 -15 2 -36q0 -20 -2 -36
q-3 -15 -8 -27q-11 -25 -35 -37q-23 -12 -58 -12v0z" />
    <glyph glyph-name="Ohungarumlaut" unicode="&#x150;" horiz-adv-x="876" 
d="M218 755h164l130 157h-188zM448 755h164l131 157h-189zM438 -23q135 0 233 49q97 49 144 147q37 77 37 180q0 50 -9 94t-26 82q-45 98 -144 149q-98 51 -234 51q-138 0 -237 -52t-145 -153q-16 -37 -24 -79q-9 -43 -9 -92q0 -50 9 -94q8 -44 25 -81q46 -100 144 -150
q98 -51 236 -51v0zM439 171q-55 0 -92 21q-38 21 -57 62q-8 18 -12 43q-4 24 -4 57t4 58q3 24 12 42q38 81 147 81q55 0 93 -19q37 -20 56 -61q9 -19 13 -43q4 -25 4 -59q0 -33 -4 -56q-3 -24 -11 -42q-18 -41 -55 -63q-38 -21 -94 -21v0z" />
    <glyph glyph-name="ohungarumlaut" unicode="&#x151;" horiz-adv-x="689" 
d="M127 553h163l132 168h-188zM357 553h164l131 168h-188zM345 -18q112 0 192 40t115 117q11 25 17 53q5 28 5 61q0 34 -5 62q-6 28 -17 53q-35 77 -115 117q-80 39 -192 39t-192 -40q-81 -40 -117 -120q-11 -25 -16 -52t-5 -59q0 -31 5 -58t16 -52q36 -80 117 -121
q80 -40 192 -40v0zM345 141q-35 0 -59 13q-23 13 -34 38q-10 22 -10 61q0 20 2 36q3 15 8 26q11 25 34 38q24 13 59 13t58 -12q24 -13 35 -38q5 -11 8 -27q2 -15 2 -36q0 -20 -2 -36q-3 -15 -8 -27q-11 -25 -35 -37q-23 -12 -58 -12v0z" />
    <glyph glyph-name="OE" unicode="&#x152;" horiz-adv-x="1195" 
d="M1158 530v176h-596q-54 13 -123 13q-137 0 -236 -49q-100 -49 -146 -147q-16 -36 -24 -79q-9 -42 -9 -91t9 -91q8 -43 24 -79q46 -98 146 -147q99 -49 236 -49q69 0 123 13h596v176h-331v95h328v167h-328v92h331zM290 254q-8 18 -12 43q-4 24 -4 57t4 58q3 24 12 42
q38 81 147 81q55 0 93 -19q37 -20 56 -61q9 -19 13 -43q4 -25 4 -59q0 -33 -4 -56q-3 -24 -11 -42q-18 -41 -55 -63q-38 -22 -94 -22q-55 0 -92 22q-38 21 -57 62v0z" />
    <glyph glyph-name="oe" unicode="&#x153;" horiz-adv-x="1021" 
d="M766 140q-8 -8 -22 -13q-14 -4 -32 -4q-32 0 -52 12q-20 11 -30 34q-7 15 -9 35h385q0 49 -6 90q-7 41 -22 75q-34 73 -104 114q-70 40 -174 41q-56 0 -104 -13q-47 -12 -84 -38q-37 26 -84 38q-48 13 -105 13q-102 0 -176 -38t-108 -112q-24 -52 -24 -121q0 -67 24 -120
q34 -74 108 -113q74 -38 176 -38q58 0 106 13q48 14 85 40q38 -26 89 -40q50 -13 110 -13q70 0 129 17q60 16 102 53q23 22 38 50t21 63h-223q-3 -15 -14 -25v0zM703 388q28 0 47 -12q18 -12 28 -33q6 -15 9 -36h-167q1 10 4 19q2 9 6 16q10 22 28 34t45 12v0zM389 182
q-8 -19 -25 -30q-16 -11 -41 -11t-42 11q-16 11 -24 30q-7 14 -9 32q-3 18 -3 39q0 22 3 40q2 18 9 32q8 19 24 30q17 11 42 11t41 -11q17 -11 25 -30q12 -28 11 -72q0 -21 -2 -39q-3 -18 -9 -32v0z" />
    <glyph glyph-name="Racute" unicode="&#x154;" horiz-adv-x="745" 
d="M559 912h-225l-106 -158h206zM755 0l-221 261q54 11 90 38q35 27 53 69q10 22 15 50t5 58q0 31 -5 58q-5 26 -15 48q-27 60 -89 92q-61 32 -154 32h-382v-706h232v250l198 -250h273zM367 545q32 0 55 -10t34 -32q3 -7 5 -16t2 -20q0 -12 -2 -22t-5 -17q-11 -22 -34 -31
t-55 -9h-83v157h83z" />
    <glyph glyph-name="racute" unicode="&#x155;" horiz-adv-x="505" 
d="M138 553h198l126 168h-219zM43 0h215v295q0 28 4 39q5 11 17 15q12 -27 39 -43q27 -17 63 -17q53 1 86 33q32 32 33 85q-1 54 -33 85q-33 31 -90 32q-36 1 -66 -16q-29 -17 -55 -57v56h-213v-507z" />
    <glyph glyph-name="uni0156" unicode="&#x156;" horiz-adv-x="745" 
d="M284 250l198 -250h273l-221 261q54 11 90 38q35 27 53 69q10 22 15 50t5 58q0 31 -5 58q-5 26 -15 48q-27 60 -89 92q-61 32 -154 32h-382v-706h232v250zM367 545q32 0 55 -10t34 -32q3 -7 5 -16t2 -20q0 -12 -2 -22t-5 -17q-11 -22 -34 -31t-55 -9h-83v157h83zM241 -202
h193l58 148h-221z" />
    <glyph glyph-name="uni0157" unicode="&#x157;" horiz-adv-x="505" 
d="M43 0h215v295q0 28 4 39q5 11 17 15q12 -27 39 -43q27 -17 63 -17q53 1 86 33q32 32 33 85q-1 54 -33 85q-33 31 -90 32q-36 1 -66 -16q-29 -17 -55 -57v56h-213v-507zM9 -202h193l58 148h-221z" />
    <glyph glyph-name="Rcaron" unicode="&#x158;" horiz-adv-x="745" 
d="M484 755l121 157h-195l-55 -70l-56 70h-195l121 -157h259zM755 0l-221 261q54 11 90 38q35 27 53 69q10 22 15 50t5 58q0 31 -5 58q-5 26 -15 48q-27 60 -89 92q-61 32 -154 32h-382v-706h232v250l198 -250h273zM367 545q32 0 55 -10t34 -32q3 -7 5 -16t2 -20
q0 -12 -2 -22t-5 -17q-11 -22 -34 -31t-55 -9h-83v157h83z" />
    <glyph glyph-name="rcaron" unicode="&#x159;" horiz-adv-x="505" 
d="M494 721h-185l-47 -76l-47 76h-185l107 -168h250zM43 0h215v295q0 28 4 39q5 11 17 15q12 -27 39 -43q27 -17 63 -17q53 1 86 33q32 32 33 85q-1 54 -33 85q-33 31 -90 32q-36 1 -66 -16q-29 -17 -55 -57v56h-213v-507z" />
    <glyph glyph-name="Sacute" unicode="&#x15a;" horiz-adv-x="728" 
d="M227 754h206l125 158h-225zM361 -23q123 0 208 37q86 36 119 108q10 21 14 44q5 23 5 50q0 26 -4 48q-5 21 -13 39q-27 57 -85 87q-57 30 -127 47q-74 17 -128 32q-54 14 -68 42q-1 4 -2 9q-1 4 -1 9q0 9 3 17q8 15 27 22q20 7 45 7q34 0 55 -10q20 -10 28 -29
q4 -8 6 -16q1 -9 2 -20h241q-1 25 -5 46q-5 20 -13 39q-33 71 -113 107q-80 37 -194 37q-117 -1 -198 -38q-80 -37 -111 -104q-8 -19 -13 -39q-4 -20 -4 -44t4 -45t12 -38q22 -47 67 -76q44 -30 113 -48q72 -17 135 -34q63 -16 82 -49l4 -10q1 -5 1 -12q1 -10 -5 -21
q-7 -16 -28 -25t-54 -9q-70 1 -90 43q-4 7 -5 16q-1 8 -2 18h-248q1 -25 5 -48q5 -22 13 -42q33 -72 115 -109q82 -38 207 -38v0z" />
    <glyph glyph-name="sacute" unicode="&#x15b;" horiz-adv-x="579" 
d="M166 553h198l126 168h-219zM285 -20q95 0 165 26q70 27 98 85q7 15 10 31q3 17 3 36q0 16 -2 31q-3 14 -9 27q-17 39 -58 64q-40 24 -107 39q-43 8 -81 19q-39 10 -51 28q-3 6 -3 14q0 4 1 8t3 6q4 7 13 11q9 5 23 5q33 0 44 -24q2 -6 4 -13q1 -7 1 -16h207q0 19 -4 34
q-3 16 -10 30q-26 54 -90 79q-63 24 -148 24t-153 -25q-67 -25 -94 -80q-7 -14 -10 -29q-3 -16 -3 -33t3 -31q3 -13 9 -25q20 -41 61 -63q42 -22 90 -34q50 -12 87 -22q38 -10 48 -29q3 -5 3 -14q0 -8 -3 -14q-5 -10 -15 -14q-11 -5 -28 -5q-18 0 -31 6q-14 6 -20 22
q-3 5 -4 13q-2 8 -2 17h-214q0 -21 4 -40q4 -20 12 -37q26 -55 92 -81t159 -26v0z" />
    <glyph glyph-name="Scircumflex" unicode="&#x15c;" horiz-adv-x="728" 
d="M107 755h195l55 70l56 -70h195l-121 157h-259zM361 -23q123 0 208 37q86 36 119 108q10 21 14 44q5 23 5 50q0 26 -4 48q-5 21 -13 39q-27 57 -85 87q-57 30 -127 47q-74 17 -128 32q-54 14 -68 42q-1 4 -2 9q-1 4 -1 9q0 9 3 17q8 15 27 22q20 7 45 7q34 0 55 -10
q20 -10 28 -29q4 -8 6 -16q1 -9 2 -20h241q-1 25 -5 46q-5 20 -13 39q-33 71 -113 107q-80 37 -194 37q-117 -1 -198 -38q-80 -37 -111 -104q-8 -19 -13 -39q-4 -20 -4 -44t4 -45t12 -38q22 -47 67 -76q44 -30 113 -48q72 -17 135 -34q63 -16 82 -49l4 -10q1 -5 1 -12
q1 -10 -5 -21q-7 -16 -28 -25t-54 -9q-70 1 -90 43q-4 7 -5 16q-1 8 -2 18h-248q1 -25 5 -48q5 -22 13 -42q33 -72 115 -109q82 -38 207 -38v0z" />
    <glyph glyph-name="scircumflex" unicode="&#x15d;" horiz-adv-x="579" 
d="M58 553h185l47 76l47 -76h185l-107 168h-249zM285 -20q95 0 165 26q70 27 98 85q7 15 10 31q3 17 3 36q0 16 -2 31q-3 14 -9 27q-17 39 -58 64q-40 24 -107 39q-43 8 -81 19q-39 10 -51 28q-3 6 -3 14q0 4 1 8t3 6q4 7 13 11q9 5 23 5q33 0 44 -24q2 -6 4 -13q1 -7 1 -16
h207q0 19 -4 34q-3 16 -10 30q-26 54 -90 79q-63 24 -148 24t-153 -25q-67 -25 -94 -80q-7 -14 -10 -29q-3 -16 -3 -33t3 -31q3 -13 9 -25q20 -41 61 -63q42 -22 90 -34q50 -12 87 -22q38 -10 48 -29q3 -5 3 -14q0 -8 -3 -14q-5 -10 -15 -14q-11 -5 -28 -5q-18 0 -31 6
q-14 6 -20 22q-3 5 -4 13q-2 8 -2 17h-214q0 -21 4 -40q4 -20 12 -37q26 -55 92 -81t159 -26v0z" />
    <glyph glyph-name="Scedilla" unicode="&#x15e;" horiz-adv-x="728" 
d="M690 303q-27 57 -85 87q-57 30 -127 47q-74 17 -128 32q-54 14 -68 42q-1 4 -2 9q-1 4 -1 9q0 9 3 17q8 15 27 22q20 7 45 7q34 0 55 -10q20 -10 28 -29q4 -8 6 -16q1 -9 2 -20h241q-1 25 -5 46q-5 20 -13 39q-33 71 -113 107q-80 37 -194 37q-117 -1 -198 -38
q-80 -37 -111 -104q-8 -19 -13 -39q-4 -20 -4 -44t4 -45t12 -38q22 -47 67 -76q44 -30 113 -48q72 -17 135 -34q63 -16 82 -49l4 -10q1 -5 1 -12q1 -10 -5 -21q-7 -16 -28 -25t-54 -9q-70 1 -90 43q-4 7 -5 16q-1 8 -2 18h-248q1 -25 5 -48q5 -22 13 -42q26 -57 84 -93
q58 -35 145 -48l-14 -51h79q31 0 46 -6q15 -7 15 -22q-1 -18 -17 -24q-17 -6 -44 -6q-25 0 -46 4t-43 12l-23 -93q30 -10 62 -14q33 -5 71 -5q84 -1 134 25q50 25 51 93q0 32 -13 55q-14 24 -42 37q75 14 128 48q52 33 76 86q10 21 14 44q5 23 5 50q0 26 -4 48q-5 21 -13 39
v0z" />
    <glyph glyph-name="scedilla" unicode="&#x15f;" horiz-adv-x="579" 
d="M550 216q-17 39 -58 64q-40 24 -107 39q-43 8 -81 19q-39 10 -51 28q-3 6 -3 14q0 4 1 8t3 6q4 7 13 11q9 5 23 5q33 0 44 -24q2 -6 4 -13q1 -7 1 -16h207q0 19 -4 34q-3 16 -10 30q-26 54 -90 79q-63 24 -148 24t-153 -25q-67 -25 -94 -80q-7 -14 -10 -29q-3 -16 -3 -33
t3 -31q3 -13 9 -25q20 -41 61 -63q42 -22 90 -34q50 -12 87 -22q38 -10 48 -29q3 -5 3 -14q0 -8 -3 -14q-5 -10 -15 -14q-11 -5 -28 -5q-18 0 -31 6q-14 6 -20 22q-3 5 -4 13q-2 8 -2 17h-214q0 -21 4 -40q4 -20 12 -37q18 -41 60 -66q42 -24 102 -34l-15 -55h79q31 0 46 -6
q15 -7 15 -22q-1 -18 -17 -24q-17 -6 -44 -6q-25 0 -46 4q-20 4 -43 12l-23 -93q31 -10 63 -14q33 -5 70 -5q84 -1 134 25q50 25 51 93q0 34 -15 59q-16 25 -49 37q53 11 91 36q37 24 55 63q7 15 10 31q3 17 3 36q0 16 -2 31q-3 14 -9 27v0z" />
    <glyph glyph-name="Scaron" unicode="&#x160;" horiz-adv-x="728" 
d="M608 912h-196l-55 -70l-56 70h-194l120 -157h260zM361 -23q123 0 208 37q86 36 119 108q10 21 14 44q5 23 5 50q0 26 -4 48q-5 21 -13 39q-27 57 -85 87q-57 30 -127 47q-74 17 -128 32q-54 14 -68 42q-1 4 -2 9q-1 4 -1 9q0 9 3 17q8 15 27 22q20 7 45 7q34 0 55 -10
q20 -10 28 -29q4 -8 6 -16q1 -9 2 -20h241q-1 25 -5 46q-5 20 -13 39q-33 71 -113 107q-80 37 -194 37q-117 -1 -198 -38q-80 -37 -111 -104q-8 -19 -13 -39q-4 -20 -4 -44t4 -45t12 -38q22 -47 67 -76q44 -30 113 -48q72 -17 135 -34q63 -16 82 -49l4 -10q1 -5 1 -12
q1 -10 -5 -21q-7 -16 -28 -25t-54 -9q-70 1 -90 43q-4 7 -5 16q-1 8 -2 18h-248q1 -25 5 -48q5 -22 13 -42q33 -72 115 -109q82 -38 207 -38v0z" />
    <glyph glyph-name="scaron" unicode="&#x161;" horiz-adv-x="579" 
d="M522 721h-185l-47 -76l-47 76h-185l107 -168h250zM285 -20q95 0 165 26q70 27 98 85q7 15 10 31q3 17 3 36q0 16 -2 31q-3 14 -9 27q-17 39 -58 64q-40 24 -107 39q-43 8 -81 19q-39 10 -51 28q-3 6 -3 14q0 4 1 8t3 6q4 7 13 11q9 5 23 5q33 0 44 -24q2 -6 4 -13
q1 -7 1 -16h207q0 19 -4 34q-3 16 -10 30q-26 54 -90 79q-63 24 -148 24t-153 -25q-67 -25 -94 -80q-7 -14 -10 -29q-3 -16 -3 -33t3 -31q3 -13 9 -25q20 -41 61 -63q42 -22 90 -34q50 -12 87 -22q38 -10 48 -29q3 -5 3 -14q0 -8 -3 -14q-5 -10 -15 -14q-11 -5 -28 -5
q-18 0 -31 6q-14 6 -20 22q-3 5 -4 13q-2 8 -2 17h-214q0 -21 4 -40q4 -20 12 -37q26 -55 92 -81t159 -26v0z" />
    <glyph glyph-name="uni0162" unicode="&#x162;" horiz-adv-x="589" 
d="M410 0v524h170v182h-572v-182h170v-524h24l-18 -68h79q31 0 46 -6q15 -7 15 -22q-1 -18 -17 -24q-17 -6 -44 -6q-25 0 -46 4q-20 4 -43 12l-23 -93q31 -10 63 -14q33 -5 70 -5q84 -1 134 25q50 25 51 93q0 46 -28 74t-88 30h57z" />
    <glyph glyph-name="uni0163" unicode="&#x163;" horiz-adv-x="449" 
d="M379 -6q26 3 50 8v159q-18 -4 -31 -5q-14 -2 -26 -2q-32 -1 -49 14q-18 14 -18 54v124h128v161h-128v121h-215v-121h-74v-161h74v-168q0 -67 22 -109q21 -42 66 -61l-20 -74h79q31 0 46 -6q15 -7 15 -22q-1 -18 -17 -24q-17 -6 -44 -6q-25 0 -46 4q-20 4 -43 12l-23 -93
q31 -10 63 -14q33 -5 70 -5q84 -1 134 25q50 25 51 93q0 34 -15 59q-16 25 -49 37v0z" />
    <glyph glyph-name="Tcaron" unicode="&#x164;" horiz-adv-x="589" 
d="M545 912h-195l-55 -70l-56 70h-195l121 -157h259zM178 0h232v524h170v182h-572v-182h170v-524z" />
    <glyph glyph-name="tcaron" unicode="&#x165;" horiz-adv-x="527" 
d="M329 532h169l54 174h-200zM291 -12q35 0 70 4q35 3 68 10v159q-18 -4 -31 -5q-14 -2 -26 -2q-32 -1 -49 14q-18 14 -18 54v124h128v161h-128v121h-215v-121h-74v-161h74v-168q0 -100 49 -145q50 -46 152 -45v0z" />
    <glyph glyph-name="Tbar" unicode="&#x166;" horiz-adv-x="589" 
d="M580 524v182h-572v-182h170v-108h-121v-124h121v-292h232v292h121v124h-121v108h170z" />
    <glyph glyph-name="tbar" unicode="&#x167;" horiz-adv-x="449" 
d="M433 346v161h-128v121h-215v-121h-74v-161h74v-38h-74v-104h74v-26q0 -100 49 -145q50 -46 152 -45q35 0 70 4q35 3 68 10v159q-18 -4 -31 -5q-14 -2 -26 -2q-28 -1 -45 10t-21 40h124v104h-125v38h128z" />
    <glyph glyph-name="Utilde" unicode="&#x168;" horiz-adv-x="802" 
d="M495 751q61 0 96 40q34 40 39 124h-125q-6 -20 -16 -28t-27 -8q-15 0 -29 4t-29 12q-23 11 -43 18q-19 6 -46 6q-64 1 -99 -39q-36 -39 -43 -125h123q3 21 13 29t24 8q15 0 32 -6l39 -14q19 -8 41 -14q21 -7 50 -7v0zM401 -23q188 0 277 79t88 239v411h-232v-397
q0 -70 -32 -105q-33 -35 -102 -35q-68 0 -100 35t-32 105v397h-232v-411q-1 -158 88 -238t277 -80v0z" />
    <glyph glyph-name="utilde" unicode="&#x169;" horiz-adv-x="676" 
d="M275 597q14 0 30 -7l36 -17q17 -9 39 -15t49 -6q59 -1 90 40q31 42 35 136h-118q-4 -24 -13 -34q-9 -9 -25 -9t-31 7q-15 6 -31 15q-22 11 -43 18q-21 6 -45 6q-62 0 -93 -44q-30 -44 -36 -134h117q3 24 13 34t26 10v0zM418 507v-264q0 -50 -21 -76q-22 -26 -65 -26
q-38 0 -59 21q-20 22 -20 70v275h-215v-317q0 -102 51 -154q51 -53 150 -53q60 0 104 22t75 60v-65h215v507h-215z" />
    <glyph glyph-name="Umacron" unicode="&#x16a;" horiz-adv-x="802" 
d="M213 767h376v134h-376v-134zM401 -23q188 0 277 79t88 239v411h-232v-397q0 -70 -32 -105q-33 -35 -102 -35q-68 0 -100 35t-32 105v397h-232v-411q-1 -158 88 -238t277 -80v0z" />
    <glyph glyph-name="umacron" unicode="&#x16b;" horiz-adv-x="676" 
d="M523 711h-371v-134h371v134zM418 507v-264q0 -50 -21 -76q-22 -26 -65 -26q-38 0 -59 21q-20 22 -20 70v275h-215v-317q0 -102 51 -154q51 -53 150 -53q60 0 104 22t75 60v-65h215v507h-215z" />
    <glyph glyph-name="Ubreve" unicode="&#x16c;" horiz-adv-x="802" 
d="M403 751q101 0 156 42q54 41 59 119h-147q-6 -28 -23 -40q-16 -12 -45 -12q-28 0 -45 12t-22 40h-151q5 -78 61 -119q56 -42 157 -42v0zM401 -23q188 0 277 79t88 239v411h-232v-397q0 -70 -32 -105q-33 -35 -102 -35q-68 0 -100 35t-32 105v397h-232v-411
q-1 -158 88 -238t277 -80v0z" />
    <glyph glyph-name="ubreve" unicode="&#x16d;" horiz-adv-x="676" 
d="M338 545q102 0 157 45t60 131h-143q-6 -33 -23 -48q-18 -14 -51 -14q-31 0 -50 14q-19 15 -25 48h-144q6 -86 62 -131q57 -45 157 -45v0zM418 507v-264q0 -50 -21 -76q-22 -26 -65 -26q-38 0 -59 21q-20 22 -20 70v275h-215v-317q0 -102 51 -154q51 -53 150 -53
q60 0 104 22t75 60v-65h215v507h-215z" />
    <glyph glyph-name="Uring" unicode="&#x16e;" horiz-adv-x="802" 
d="M401 726q71 1 114 37q44 36 45 100q-1 64 -45 100t-114 37q-71 -1 -115 -37t-45 -100q1 -64 45 -100t115 -37v0zM401 815q-24 0 -38 13t-14 35q0 23 14 36t38 13q25 0 38 -13q14 -13 14 -36q0 -22 -14 -35t-38 -13v0zM401 -23q188 0 277 79t88 239v411h-232v-397
q0 -70 -32 -105q-33 -35 -102 -35q-68 0 -100 35t-32 105v397h-232v-411q-1 -158 88 -238t277 -80v0z" />
    <glyph glyph-name="uring" unicode="&#x16f;" horiz-adv-x="676" 
d="M337 542q71 1 114 37q44 36 45 100q-1 64 -45 100t-114 37q-71 -1 -115 -37t-45 -100q1 -64 45 -100t115 -37v0zM337 728q25 0 38 -13q14 -13 14 -36q0 -22 -14 -35t-38 -13t-38 13t-14 35q0 23 14 36t38 13v0zM418 507v-264q0 -50 -21 -76q-22 -26 -65 -26q-38 0 -59 21
q-20 22 -20 70v275h-215v-317q0 -102 51 -154q51 -53 150 -53q60 0 104 22t75 60v-65h215v507h-215z" />
    <glyph glyph-name="Uhungarumlaut" unicode="&#x170;" horiz-adv-x="802" 
d="M181 755h164l130 157h-188zM411 755h164l131 157h-189zM401 -23q188 0 277 79t88 239v411h-232v-397q0 -70 -32 -105q-33 -35 -102 -35q-68 0 -100 35t-32 105v397h-232v-411q-1 -158 88 -238t277 -80v0z" />
    <glyph glyph-name="uhungarumlaut" unicode="&#x171;" horiz-adv-x="676" 
d="M414 721h-188l-107 -168h163zM513 553l131 168h-188l-107 -168h164zM418 243q0 -50 -21 -76q-22 -26 -65 -26q-38 0 -59 21q-20 22 -20 70v275h-215v-317q0 -102 51 -154q51 -53 150 -53q60 0 104 22t75 60v-65h215v507h-215v-264z" />
    <glyph glyph-name="Uogonek" unicode="&#x172;" horiz-adv-x="802" 
d="M534 706v-397q0 -70 -32 -105q-33 -35 -102 -35q-68 0 -100 35t-32 105v397h-232v-411q-1 -158 88 -238t277 -80q-20 -16 -31 -37q-11 -22 -11 -50q1 -55 44 -83q42 -27 110 -27q58 0 100 12v104q-10 -4 -20 -5q-10 -2 -20 -2q-21 0 -34 10t-13 29q0 24 22 44
q21 19 64 40q63 30 108 95q44 65 46 188v411h-232z" />
    <glyph glyph-name="uogonek" unicode="&#x173;" horiz-adv-x="676" 
d="M633 0v507h-215v-264q0 -50 -21 -76q-22 -26 -65 -26q-38 0 -59 21q-20 22 -20 70v275h-215v-317q0 -102 51 -154q51 -53 150 -53q60 0 104 22t75 60v-65h59q-42 -16 -69 -44q-28 -28 -29 -71q1 -53 44 -79q42 -26 110 -26q29 0 54 3t46 10v103q-10 -4 -20 -5
q-10 -2 -20 -2q-21 0 -34 8q-13 9 -13 26q0 22 23 42q23 19 64 35v0z" />
    <glyph glyph-name="Wcircumflex" unicode="&#x174;" horiz-adv-x="1167" 
d="M584 825l56 -70h195l-121 157h-259l-121 -157h195zM938 706l-116 -398l-115 398h-246l-115 -398l-117 398h-242l232 -706h235l130 426l130 -426h236l230 706h-242z" />
    <glyph glyph-name="wcircumflex" unicode="&#x175;" horiz-adv-x="988" 
d="M492 629l47 -76h185l-107 168h-249l-108 -168h185zM766 507l-80 -267l-94 267h-198l-93 -267l-80 267h-230l196 -507h220l87 261l87 -261h219l197 507h-231z" />
    <glyph glyph-name="Ycircumflex" unicode="&#x176;" horiz-adv-x="742" 
d="M122 755h195l55 70l56 -70h195l-121 157h-259zM255 0h232v309l268 397h-258l-126 -196l-126 196h-258l268 -397v-309z" />
    <glyph glyph-name="ycircumflex" unicode="&#x177;" horiz-adv-x="644" 
d="M326 629l47 -76h185l-107 168h-249l-108 -168h185zM433 507l-105 -294l-111 294h-226l224 -507l-91 -203h213l90 204l226 506h-220z" />
    <glyph glyph-name="Ydieresis" unicode="&#x178;" horiz-adv-x="742" 
d="M243 746q44 1 72 26q27 26 28 68q-1 43 -28 69q-28 26 -72 27q-44 -1 -72 -27q-27 -26 -28 -69q1 -42 28 -68q28 -25 72 -26v0zM501 746q44 1 72 26q28 26 29 68q-1 43 -29 69t-72 27q-44 -1 -71 -27q-28 -26 -29 -69q1 -42 29 -68q27 -25 71 -26v0zM255 0h232v309
l268 397h-258l-126 -196l-126 196h-258l268 -397v-309z" />
    <glyph glyph-name="Zacute" unicode="&#x179;" horiz-adv-x="710" 
d="M224 754h206l125 158h-225zM4 0h696v183h-314l313 523h-677v-182h304z" />
    <glyph glyph-name="zacute" unicode="&#x17a;" horiz-adv-x="569" 
d="M491 721h-219l-105 -168h198zM564 507h-534v-161h214l-239 -346h548v163h-208z" />
    <glyph glyph-name="Zdotaccent" unicode="&#x17b;" horiz-adv-x="710" 
d="M351 746q48 1 79 30q30 29 31 74q-1 45 -31 74q-31 29 -79 30q-48 -1 -79 -30q-30 -29 -31 -74q1 -45 31 -74q31 -29 79 -30v0zM4 0h696v183h-314l313 523h-677v-182h304z" />
    <glyph glyph-name="zdotaccent" unicode="&#x17c;" horiz-adv-x="569" 
d="M290 547q47 1 77 28q29 28 30 73q-1 45 -30 73q-30 27 -77 28q-47 -1 -76 -28q-29 -28 -30 -73q1 -45 30 -73q29 -27 76 -28v0zM564 507h-534v-161h214l-239 -346h548v163h-208z" />
    <glyph glyph-name="Zcaron" unicode="&#x17d;" horiz-adv-x="710" 
d="M601 912h-195l-55 -70l-56 70h-195l121 -157h259zM4 0h696v183h-314l313 523h-677v-182h304z" />
    <glyph glyph-name="zcaron" unicode="&#x17e;" horiz-adv-x="569" 
d="M416 553l107 168h-185l-47 -76l-47 76h-185l107 -168h250zM564 507h-534v-161h214l-239 -346h548v163h-208z" />
    <glyph glyph-name="uni018F" unicode="&#x18f;" horiz-adv-x="873" 
d="M814 526q-48 102 -147 152q-100 50 -239 50q-92 0 -170 -24q-79 -24 -135 -75q-35 -32 -61 -78q-26 -45 -33 -94h249q5 16 12 28q8 13 18 23q21 19 52 26q31 8 66 8q57 0 97 -20q40 -21 59 -62q7 -14 11 -29q4 -14 5 -32h-574v-30q0 -57 9 -104t29 -91q46 -100 140 -148
q93 -48 226 -48q140 0 241 51q102 51 148 151q16 36 24 79t8 94t-9 94t-26 79v0zM423 163q-52 0 -92 16q-41 15 -58 51q-5 10 -8 22h320l-2 -5q-20 -43 -62 -63q-41 -21 -98 -21v0z" />
    <glyph glyph-name="florin" unicode="&#x192;" horiz-adv-x="499" 
d="M113 -12q129 0 187 51t57 158v148h132v90h-132v66q0 34 18 50q17 16 53 16q19 0 34 -3q16 -2 27 -7v160q-18 5 -45 8q-28 4 -58 4q-129 0 -187 -52t-57 -160v-82h-131v-90h131v-135q0 -30 -19 -45q-20 -15 -53 -15q-34 1 -60 10v-160q18 -5 46 -8q27 -4 57 -4v0z" />
    <glyph glyph-name="Aringacute" unicode="&#x1fa;" horiz-adv-x="863" 
d="M635 1206h-225l-106 -158h206zM431 726q71 1 114 37q44 36 45 100q-1 64 -45 100t-114 37q-71 -1 -115 -37t-45 -100q1 -64 45 -100t115 -37v0zM431 912q25 0 38 -13q14 -13 14 -36q0 -22 -14 -35t-38 -13t-38 13t-14 35q0 23 14 36t38 13v0zM631 0h245l-278 706h-333
l-278 -706h246l42 117h313zM334 280l96 265h2l97 -265h-195z" />
    <glyph glyph-name="aringacute" unicode="&#x1fb;" horiz-adv-x="650" 
d="M531 1031h-219l-105 -168h198zM331 542q71 1 114 37q44 36 45 100q-1 64 -45 100t-114 37q-71 -1 -115 -37t-45 -100q1 -64 45 -100t115 -37v0zM331 728q25 0 38 -13q14 -13 14 -36q0 -22 -14 -35t-38 -13t-38 13t-14 35q0 23 14 36t38 13v0zM589 407q-28 62 -94 90
q-67 28 -173 27q-97 1 -168 -25q-71 -27 -101 -89q-6 -14 -10 -31q-4 -16 -5 -35h217q0 7 1 12t4 10q7 16 23 23t41 7q27 0 43 -8t23 -24q4 -8 5 -17q1 -10 1 -27v-7h-70q-104 2 -185 -20q-80 -21 -113 -87q-6 -14 -9 -31q-4 -17 -4 -37q0 -19 4 -35q3 -16 9 -30
q22 -47 69 -69q46 -21 112 -21t111 19q46 19 78 57v-59h215v284q0 37 -6 68q-7 30 -18 55v0zM305 123q-21 0 -38 6q-16 5 -23 20q-2 5 -3 10q-1 4 -1 9q0 6 1 11q1 4 3 8q8 17 32 22t58 4h64v-7q0 -17 -2 -27q-1 -9 -5 -17q-9 -20 -31 -30q-22 -9 -55 -9v0z" />
    <glyph glyph-name="AEacute" unicode="&#x1fc;" horiz-adv-x="1028" 
d="M739 912h-225l-106 -158h206zM991 530v176h-710l-294 -706h250l43 117h235l22 -117h454v176h-252l-19 95h268v167h-302l-19 92h324zM339 280l95 262h2l49 -262h-146z" />
    <glyph glyph-name="aeacute" unicode="&#x1fd;" horiz-adv-x="1016" 
d="M730 721h-219l-105 -168h198zM760 140q-16 -17 -54 -17q-32 0 -52 12q-20 11 -30 34q-6 15 -9 35h386q0 49 -7 90q-6 41 -22 75q-33 73 -103 114q-70 40 -174 41q-52 0 -96 -11q-45 -11 -80 -32q-33 22 -82 33q-48 10 -115 10q-97 1 -168 -25q-71 -27 -101 -89
q-6 -14 -10 -31q-4 -16 -5 -35h217q0 7 1 12t4 10q7 16 23 23t41 7q27 0 43 -8q15 -8 22 -22q4 -9 6 -19q1 -10 1 -27v-7h-70q-104 2 -185 -19q-82 -22 -113 -88q-6 -14 -9 -31q-4 -17 -4 -37q0 -17 3 -32q4 -16 9 -29q23 -48 78 -71q55 -24 133 -24q80 0 135 23
q56 22 96 64q39 -43 100 -65t139 -22q69 0 129 17q60 16 102 53q23 22 38 50t20 63h-223q-3 -15 -14 -25v0zM698 388q28 0 46 -12t28 -33q8 -15 9 -36h-166q1 10 4 19q2 9 6 16q9 22 27 34t46 12v0zM398 206q0 -17 -2 -27q-1 -9 -5 -17q-9 -20 -31 -30q-22 -9 -55 -9
q-21 0 -37 6q-16 5 -24 20q-4 9 -4 21q0 5 1 9t3 8q9 17 33 22t57 4h64v-7z" />
    <glyph glyph-name="Oslashacute" unicode="&#x1fe;" horiz-adv-x="876" 
d="M642 912h-225l-106 -158h206zM782 587l133 119h-157l-51 -48q-53 35 -120 53q-68 18 -148 18q-138 0 -237 -52t-145 -153q-16 -37 -24 -79q-9 -43 -9 -92q0 -50 9 -94q8 -44 25 -81q8 -17 17 -32q9 -16 20 -30l-130 -116h152l53 47q52 -35 120 -53q68 -17 148 -17
q135 0 233 49q97 49 144 147q37 77 37 180q0 50 -9 94t-26 82q-7 16 -16 31q-8 14 -19 27v0zM290 454q38 81 147 81q31 0 57 -6q25 -6 45 -19l-257 -233q-4 16 -6 34q-2 19 -2 43q0 33 4 58q3 24 12 42v0zM588 255q-18 -41 -55 -63q-38 -21 -94 -21q-60 1 -99 25l256 231
q4 -15 5 -33q2 -18 2 -41q0 -33 -4 -56q-3 -24 -11 -42v0z" />
    <glyph glyph-name="oslashacute" unicode="&#x1ff;" horiz-adv-x="689" 
d="M545 721h-219l-105 -168h198zM612 429l86 77h-129l-27 -24q-40 21 -89 32q-50 10 -108 10q-112 0 -192 -40q-81 -40 -117 -120q-11 -25 -16 -52t-5 -59q0 -31 5 -58t16 -52q8 -19 19 -35t24 -30l-90 -79h128l30 26q41 -21 90 -32q50 -11 108 -11q112 0 192 40t115 117
q11 25 17 53q5 28 5 61q0 34 -5 62q-6 28 -17 53q-8 17 -18 32q-10 16 -22 29v0zM252 315q11 25 34 38q24 13 59 13q16 0 30 -2q14 -3 25 -9l-156 -137q-2 15 -2 35t2 36q3 15 8 26v0zM438 190q-11 -25 -35 -37q-23 -12 -58 -12q-33 0 -55 11l156 137q2 -15 2 -36
q0 -20 -2 -36q-3 -15 -8 -27v0z" />
    <glyph glyph-name="uni0218" unicode="&#x218;" horiz-adv-x="728" 
d="M361 -23q123 0 208 37q86 36 119 108q10 21 14 44q5 23 5 50q0 26 -4 48q-5 21 -13 39q-27 57 -85 87q-57 30 -127 47q-74 17 -128 32q-54 14 -68 42q-1 4 -2 9q-1 4 -1 9q0 9 3 17q8 15 27 22q20 7 45 7q34 0 55 -10q20 -10 28 -29q4 -8 6 -16q1 -9 2 -20h241
q-1 25 -5 46q-5 20 -13 39q-33 71 -113 107q-80 37 -194 37q-117 -1 -198 -38q-80 -37 -111 -104q-8 -19 -13 -39q-4 -20 -4 -44t4 -45t12 -38q22 -47 67 -76q44 -30 113 -48q72 -17 135 -34q63 -16 82 -49l4 -10q1 -5 1 -12q1 -10 -5 -21q-7 -16 -28 -25t-54 -9
q-70 1 -90 43q-4 7 -5 16q-1 8 -2 18h-248q1 -25 5 -48q5 -22 13 -42q33 -72 115 -109q82 -38 207 -38v0zM229 -202h193l58 148h-221z" />
    <glyph glyph-name="uni0219" unicode="&#x219;" horiz-adv-x="579" 
d="M285 -20q95 0 165 26q70 27 98 85q7 15 10 31q3 17 3 36q0 16 -2 31q-3 14 -9 27q-17 39 -58 64q-40 24 -107 39q-43 8 -81 19q-39 10 -51 28q-3 6 -3 14q0 4 1 8t3 6q4 7 13 11q9 5 23 5q33 0 44 -24q2 -6 4 -13q1 -7 1 -16h207q0 19 -4 34q-3 16 -10 30q-26 54 -90 79
q-63 24 -148 24t-153 -25q-67 -25 -94 -80q-7 -14 -10 -29q-3 -16 -3 -33t3 -31q3 -13 9 -25q20 -41 61 -63q42 -22 90 -34q50 -12 87 -22q38 -10 48 -29q3 -5 3 -14q0 -8 -3 -14q-5 -10 -15 -14q-11 -5 -28 -5q-18 0 -31 6q-14 6 -20 22q-3 5 -4 13q-2 8 -2 17h-214
q0 -21 4 -40q4 -20 12 -37q26 -55 92 -81t159 -26v0zM153 -202h193l58 148h-221z" />
    <glyph glyph-name="uni021A" unicode="&#x21a;" horiz-adv-x="589" 
d="M178 0h232v524h170v182h-572v-182h170v-524zM156 -202h193l58 148h-221z" />
    <glyph glyph-name="uni021B" unicode="&#x21b;" horiz-adv-x="449" 
d="M291 -12q35 0 70 4q35 3 68 10v159q-18 -4 -31 -5q-14 -2 -26 -2q-32 -1 -49 14q-18 14 -18 54v124h128v161h-128v121h-215v-121h-74v-161h74v-168q0 -100 49 -145q50 -46 152 -45v0zM131 -200h193l58 148h-221z" />
    <glyph glyph-name="uni0237" unicode="&#x237;" horiz-adv-x="305" 
d="M47 -216q115 0 166 50q51 51 50 158v515h-215v-499q0 -23 -12 -36t-37 -13q-10 0 -19 1l-20 2v-172l42 -4t45 -2v0z" />
    <glyph glyph-name="uni0259" unicode="&#x259;" horiz-adv-x="678" 
d="M641 369q-36 78 -118 117t-194 39q-74 1 -139 -17q-66 -17 -113 -59q-23 -21 -38 -47q-15 -27 -20 -60h219q1 6 5 11q3 6 9 11q12 10 33 15q20 5 43 5q40 0 69 -12t41 -40q3 -6 5 -13q2 -8 3 -16h-431q0 -49 6 -87q6 -37 22 -72q35 -79 112 -120q76 -41 187 -41
q104 0 183 38t115 116q11 25 17 53t6 63q0 33 -5 62q-6 29 -17 54v0zM339 119q-36 0 -62 13t-38 38q-3 7 -5 14t-3 16h215q-1 -9 -4 -16q-2 -8 -5 -15q-12 -24 -37 -37q-26 -13 -61 -13v0z" />
    <glyph glyph-name="circumflex" unicode="&#x2c6;" horiz-adv-x="564" 
d="M50 553h185l47 76l47 -76h185l-107 168h-249z" />
    <glyph glyph-name="caron" unicode="&#x2c7;" horiz-adv-x="564" 
d="M514 721h-185l-47 -76l-47 76h-185l107 -168h250z" />
    <glyph glyph-name="uni02C9" unicode="&#x2c9;" horiz-adv-x="471" 
d="M50 577h371v134h-371v-134z" />
    <glyph glyph-name="breve" unicode="&#x2d8;" horiz-adv-x="536" 
d="M269 545q102 0 157 45t60 131h-143q-6 -33 -23 -48q-18 -14 -51 -14q-31 0 -50 14q-19 15 -25 48h-144q6 -86 62 -131q57 -45 157 -45v0z" />
    <glyph glyph-name="dotaccent" unicode="&#x2d9;" horiz-adv-x="313" 
d="M156 547q47 1 77 28q29 28 30 73q-1 45 -30 73q-30 27 -77 28q-47 -1 -76 -28q-29 -28 -30 -73q1 -45 30 -73q29 -27 76 -28v0z" />
    <glyph glyph-name="ring" unicode="&#x2da;" horiz-adv-x="419" 
d="M210 542q71 1 114 37q44 36 45 100q-1 64 -45 100t-114 37q-71 -1 -115 -37t-45 -100q1 -64 45 -100t115 -37v0zM210 631q-24 0 -38 13t-14 35q0 23 14 36t38 13q25 0 38 -13q14 -13 14 -36q0 -22 -14 -35t-38 -13v0z" />
    <glyph glyph-name="ogonek" unicode="&#x2db;" horiz-adv-x="355" 
d="M204 -220q29 0 54 3t46 10v103q-10 -4 -20 -5q-10 -2 -20 -2q-21 0 -34 8q-13 9 -13 26q0 22 23 42q23 19 64 35h-156q-42 -16 -69 -44q-28 -28 -29 -71q1 -53 44 -79q42 -26 110 -26v0z" />
    <glyph glyph-name="tilde" unicode="&#x2dc;" horiz-adv-x="535" 
d="M360 552q59 -1 90 40q31 42 35 136h-118q-4 -24 -13 -34q-9 -9 -25 -9t-31 7q-15 6 -31 15q-22 11 -43 18q-21 6 -45 6q-62 0 -93 -44q-30 -44 -36 -134h117q3 24 13 34t26 10q14 0 30 -7l36 -17q17 -9 39 -15t49 -6v0z" />
    <glyph glyph-name="hungarumlaut" unicode="&#x2dd;" horiz-adv-x="625" 
d="M50 553h163l132 168h-188zM280 553h164l131 168h-188z" />
    <glyph glyph-name="gravecomb" unicode="&#x300;" 
d="M-50 553l-106 168h-218l126 -168h198z" />
    <glyph glyph-name="acutecomb" unicode="&#x301;" 
d="M-374 553h198l126 168h-219z" />
    <glyph glyph-name="uni0302" unicode="&#x302;" 
d="M-514 553h185l47 76l47 -76h185l-107 168h-249z" />
    <glyph glyph-name="tildecomb" unicode="&#x303;" 
d="M-175 552q59 -1 90 40q31 42 35 136h-118q-4 -24 -13 -34q-9 -9 -25 -9t-31 7q-15 6 -31 15q-22 11 -43 18q-21 6 -45 6q-62 0 -93 -44q-30 -44 -36 -134h117q3 24 13 34t26 10q14 0 30 -7l36 -17q17 -9 39 -15t49 -6v0z" />
    <glyph glyph-name="uni0304" unicode="&#x304;" 
d="M-421 577h371v134h-371v-134z" />
    <glyph glyph-name="uni0306" unicode="&#x306;" 
d="M-267 545q102 0 157 45t60 131h-143q-6 -33 -23 -48q-18 -14 -51 -14q-31 0 -50 14q-19 15 -25 48h-144q6 -86 62 -131q57 -45 157 -45v0z" />
    <glyph glyph-name="uni0307" unicode="&#x307;" 
d="M-157 547q47 1 77 28q29 28 30 73q-1 45 -30 73q-30 27 -77 28q-47 -1 -76 -28q-29 -28 -30 -73q1 -45 30 -73q29 -27 76 -28v0z" />
    <glyph glyph-name="uni0308" unicode="&#x308;" 
d="M-399 548q45 1 73 27t29 69q-1 43 -29 70q-28 26 -73 27q-44 -1 -72 -27q-28 -27 -29 -70q1 -43 29 -69t72 -27v0zM-153 547q45 1 73 27t29 69q-1 43 -29 70q-28 26 -73 27q-44 -1 -72 -27q-28 -27 -29 -70q1 -43 29 -69t72 -27v0z" />
    <glyph glyph-name="uni030A" unicode="&#x30a;" 
d="M-209 542q71 1 114 37q44 36 45 100q-1 64 -45 100t-114 37q-71 -1 -115 -37t-45 -100q1 -64 45 -100t115 -37v0zM-209 631q-24 0 -38 13t-14 35q0 23 14 36t38 13q25 0 38 -13q14 -13 14 -36q0 -22 -14 -35t-38 -13v0z" />
    <glyph glyph-name="uni030B" unicode="&#x30b;" 
d="M-575 553h163l132 168h-188zM-345 553h164l131 168h-188z" />
    <glyph glyph-name="uni030C" unicode="&#x30c;" 
d="M-50 721h-185l-47 -76l-47 76h-185l107 -168h250z" />
    <glyph glyph-name="uni0312" unicode="&#x312;" 
d="M-50 717h-193l-58 -148h220z" />
    <glyph glyph-name="uni0326" unicode="&#x326;" 
d="M-301 -202h193l58 148h-221z" />
    <glyph glyph-name="uni0327" unicode="&#x327;" 
d="M-166 0l9 34h-151l-27 -102h79q31 0 46 -6q15 -7 15 -22q-1 -18 -17 -24q-17 -6 -44 -6q-25 0 -46 4q-20 4 -43 12l-23 -93q31 -10 63 -14q33 -5 70 -5q84 -1 134 25q50 25 51 93q0 46 -28 74t-88 30v0z" />
    <glyph glyph-name="uni0328" unicode="&#x328;" 
d="M-151 -220q29 0 54 3t46 10v103q-10 -4 -20 -5q-10 -2 -20 -2q-21 0 -34 8q-13 9 -13 26q0 22 23 42q23 19 64 35h-156q-42 -16 -69 -44q-28 -28 -29 -71q1 -53 44 -79q42 -26 110 -26v0z" />
    <glyph glyph-name="uni0335" unicode="&#x335;" 
d="M-464 249h414v104h-414v-104z" />
    <glyph glyph-name="uni0336" unicode="&#x336;" 
d="M-389 573h389v110h-389v-110z" />
    <glyph glyph-name="uni0337" unicode="&#x337;" 
d="M-171 439v39l-172 -113v-160l172 112v-40l171 116v161z" />
    <glyph glyph-name="uni0338" unicode="&#x338;" 
d="M-749 0h128l80 71v1l310 272l2 -5l189 168h-129l-95 -86v1l-308 -272l-1 4z" />
    <glyph glyph-name="uni0394" unicode="&#x394;" horiz-adv-x="863" 
d="M598 706h-333l-278 -706h889zM292 162l138 383h2l140 -383h-280z" />
    <glyph glyph-name="uni03A9" unicode="&#x3a9;" horiz-adv-x="791" 
d="M600 196q50 20 87 52q37 33 57 78q12 26 18 55q5 30 5 64q0 36 -6 66q-6 29 -17 54q-39 82 -129 123t-219 41t-220 -41q-90 -41 -129 -123q-11 -25 -17 -54q-6 -30 -6 -66q0 -34 6 -64q5 -29 17 -55q20 -45 57 -78q37 -32 87 -52v-34h-146v-162h314v325q-32 6 -55 22
q-22 16 -33 40q-6 13 -8 27q-3 15 -3 32t2 30q3 14 8 24q13 30 45 47q31 16 81 16q49 0 81 -16q31 -17 44 -47q5 -10 8 -24q2 -13 2 -30t-2 -32q-3 -14 -9 -27q-11 -24 -33 -40t-55 -22v-325h315v162h-147v34z" />
    <glyph glyph-name="uni03BC" unicode="&#x3bc;" horiz-adv-x="681" 
d="M423 507v-264q0 -50 -21 -76q-22 -26 -67 -26q-38 0 -58 21q-19 21 -19 70v275h-215v-710h214v36q0 78 -12 152q16 -3 34 -3q47 1 83 22q36 22 61 58v-62h215v507h-215z" />
    <glyph glyph-name="pi" unicode="&#x3c0;" horiz-adv-x="840" 
d="M698 -12q24 0 49 2t48 5v159h-16q-32 -1 -49 14q-18 14 -18 54v124h83v161h-750v-161h84v-346h215v346h153v-168q0 -100 49 -145q50 -46 152 -45v0z" />
    <glyph glyph-name="Wgrave" unicode="&#x1e80;" horiz-adv-x="1167" 
d="M712 754l-105 158h-226l126 -158h205zM938 706l-116 -398l-115 398h-246l-115 -398l-117 398h-242l232 -706h235l130 426l130 -426h236l230 706h-242z" />
    <glyph glyph-name="wgrave" unicode="&#x1e81;" horiz-adv-x="988" 
d="M617 553l-106 168h-218l126 -168h198zM766 507l-80 -267l-94 267h-198l-93 -267l-80 267h-230l196 -507h220l87 261l87 -261h219l197 507h-231z" />
    <glyph glyph-name="Wacute" unicode="&#x1e82;" horiz-adv-x="1167" 
d="M789 912h-225l-106 -158h206zM938 706l-116 -398l-115 398h-246l-115 -398l-117 398h-242l232 -706h235l130 426l130 -426h236l230 706h-242z" />
    <glyph glyph-name="wacute" unicode="&#x1e83;" horiz-adv-x="988" 
d="M691 721h-219l-105 -168h198zM766 507l-80 -267l-94 267h-198l-93 -267l-80 267h-230l196 -507h220l87 261l87 -261h219l197 507h-231z" />
    <glyph glyph-name="Wdieresis" unicode="&#x1e84;" horiz-adv-x="1167" 
d="M455 746q44 1 72 26q27 26 28 68q-1 43 -28 69q-28 26 -72 27q-44 -1 -72 -27q-27 -26 -28 -69q1 -42 28 -68q28 -25 72 -26v0zM713 746q44 1 72 26q28 26 29 68q-1 43 -29 69t-72 27q-44 -1 -71 -27q-28 -26 -29 -69q1 -42 29 -68q27 -25 71 -26v0zM938 706l-116 -398
l-115 398h-246l-115 -398l-117 398h-242l232 -706h235l130 426l130 -426h236l230 706h-242z" />
    <glyph glyph-name="wdieresis" unicode="&#x1e85;" horiz-adv-x="988" 
d="M368 548q45 1 73 27t29 69q-1 43 -29 70q-28 26 -73 27q-44 -1 -72 -27q-28 -27 -29 -70q1 -43 29 -69t72 -27v0zM614 547q45 1 73 27t29 69q-1 43 -29 70q-28 26 -73 27q-44 -1 -72 -27q-28 -27 -29 -70q1 -43 29 -69t72 -27v0zM766 507l-80 -267l-94 267h-198l-93 -267
l-80 267h-230l196 -507h220l87 261l87 -261h219l197 507h-231z" />
    <glyph glyph-name="uni1E9E" unicode="&#x1e9e;" horiz-adv-x="804" 
d="M766 329q-16 35 -46 60t-77 38l114 277v2h-705v-706h231v524h184l-85 -207v-2q24 3 47 3q46 0 72 -9q26 -10 35 -30q6 -14 6 -32q0 -16 -6 -30q-9 -21 -34 -32q-26 -11 -71 -11q-23 0 -43 2q-21 2 -39 5v-177q53 -9 123 -9q119 0 192 35q72 34 101 99q20 45 20 102
q0 28 -5 52q-5 25 -14 46v0z" />
    <glyph glyph-name="Ygrave" unicode="&#x1ef2;" horiz-adv-x="742" 
d="M500 754l-105 158h-226l126 -158h205zM255 0h232v309l268 397h-258l-126 -196l-126 196h-258l268 -397v-309z" />
    <glyph glyph-name="ygrave" unicode="&#x1ef3;" horiz-adv-x="644" 
d="M451 553l-106 168h-218l126 -168h198zM433 507l-105 -294l-111 294h-226l224 -507l-91 -203h213l90 204l226 506h-220z" />
    <glyph glyph-name="uni2009" unicode="&#x2009;" horiz-adv-x="82" 
 />
    <glyph glyph-name="uni2011" unicode="&#x2011;" horiz-adv-x="446" 
d="M45 214h356v167h-356v-167z" />
    <glyph glyph-name="endash" unicode="&#x2013;" horiz-adv-x="628" 
d="M45 211h538v168h-538v-168z" />
    <glyph glyph-name="emdash" unicode="&#x2014;" horiz-adv-x="1256" 
d="M45 211h1165v168h-1165v-168z" />
    <glyph glyph-name="quoteleft" unicode="&#x2018;" horiz-adv-x="315" 
d="M299 706h-155l-129 -290h215z" />
    <glyph glyph-name="quoteright" unicode="&#x2019;" horiz-adv-x="315" 
d="M15 416h156l128 290h-214z" />
    <glyph glyph-name="quotesinglbase" unicode="&#x201a;" horiz-adv-x="315" 
d="M15 -144h156l128 290h-214z" />
    <glyph glyph-name="quotedblleft" unicode="&#x201c;" horiz-adv-x="578" 
d="M299 706h-155l-129 -290h215zM562 706h-155l-129 -290h215z" />
    <glyph glyph-name="quotedblright" unicode="&#x201d;" horiz-adv-x="578" 
d="M15 416h156l128 290h-214zM278 416h155l129 290h-215z" />
    <glyph glyph-name="quotedblbase" unicode="&#x201e;" horiz-adv-x="578" 
d="M15 -144h156l128 290h-214zM278 -144h155l129 290h-215z" />
    <glyph glyph-name="dagger" unicode="&#x2020;" horiz-adv-x="511" 
d="M501 554h-133v152h-224v-152h-134v-180h134v-374h224v374h133v180z" />
    <glyph glyph-name="daggerdbl" unicode="&#x2021;" horiz-adv-x="511" 
d="M501 410v180h-133v116h-224v-116h-134v-180h134v-114h-134v-180h134v-116h224v116h133v180h-133v114h133z" />
    <glyph glyph-name="bullet" unicode="&#x2022;" horiz-adv-x="532" 
d="M266 175q79 1 127 49t49 127q-1 81 -49 128t-127 48q-81 -1 -128 -48t-48 -128q1 -79 49 -127t127 -49v0z" />
    <glyph glyph-name="ellipsis" unicode="&#x2026;" horiz-adv-x="968" 
d="M186 -21q53 1 84 32q32 31 33 83q-1 54 -33 85q-31 30 -84 31q-53 -1 -85 -31q-31 -31 -32 -85q1 -52 33 -83q31 -31 84 -32v0zM484 -21q53 1 84 32q32 31 33 83q-1 54 -33 85q-31 30 -84 31q-53 -1 -85 -31q-31 -31 -32 -85q1 -52 33 -83q31 -31 84 -32v0zM782 -21
q52 1 84 32q31 31 32 83q-1 54 -32 85q-32 30 -84 31q-53 -1 -85 -31q-32 -31 -33 -85q1 -52 33 -83t85 -32v0z" />
    <glyph glyph-name="perthousand" unicode="&#x2030;" horiz-adv-x="1200" 
d="M195 404q61 0 104 20t62 63q8 16 11 34q4 18 4 39q0 22 -4 40q-3 17 -11 33q-19 43 -62 63q-43 21 -104 21q-60 0 -103 -21q-43 -20 -63 -63q-7 -16 -10 -33q-4 -18 -4 -40q0 -21 4 -39q3 -18 10 -34q20 -43 63 -63t103 -20v0zM55 0h146l554 706h-146zM195 506
q-16 0 -25 6q-10 5 -14 14q-3 6 -4 14t-1 20q0 10 1 19q1 8 4 16q4 10 14 15q9 5 25 5t26 -5q9 -5 13 -15q3 -7 4 -16q1 -8 1 -19q0 -12 -1 -20t-4 -14q-4 -9 -13 -14q-10 -6 -26 -6v0zM613 -10q61 0 104 20t62 63q8 16 11 34q4 17 4 39t-4 39q-3 18 -11 34q-19 43 -62 63
t-104 20q-60 0 -103 -20t-63 -63q-7 -16 -10 -34q-4 -17 -4 -39t4 -39q3 -18 10 -34q20 -43 63 -63t103 -20v0zM1004 -10q61 0 104 20t62 63q8 16 11 34q4 17 4 39t-4 39q-3 18 -11 34q-19 43 -62 63t-104 20q-60 0 -103 -20t-63 -63q-7 -16 -10 -34q-4 -17 -4 -39t4 -39
q3 -18 10 -34q20 -43 63 -63t103 -20v0zM613 92q-16 0 -25 5q-10 5 -14 15q-3 6 -4 14q-1 7 -1 20q0 10 1 19q1 8 4 15q4 10 14 15q9 5 25 5t26 -5q9 -5 13 -15q3 -7 4 -15q1 -9 1 -19q0 -13 -1 -20q-1 -8 -4 -14q-7 -20 -39 -20v0zM1004 92q-16 0 -25 5q-10 5 -14 15
q-3 6 -4 14q-1 7 -1 20q0 10 1 19q1 8 4 15q4 10 14 15q9 5 25 5t26 -5q9 -5 13 -15q3 -7 4 -15q1 -9 1 -19q0 -13 -1 -20q-1 -8 -4 -14q-7 -20 -39 -20v0z" />
    <glyph glyph-name="guilsinglleft" unicode="&#x2039;" horiz-adv-x="388" 
d="M173 123h202l-160 169l160 170h-202l-160 -170z" />
    <glyph glyph-name="guilsinglright" unicode="&#x203a;" horiz-adv-x="388" 
d="M215 123l160 169l-160 170h-202l160 -170l-160 -169h202z" />
    <glyph glyph-name="fraction" unicode="&#x2044;" horiz-adv-x="229" 
d="M-209 0h126l521 706h-126z" />
    <glyph glyph-name="uni2070" unicode="&#x2070;" horiz-adv-x="492" 
d="M246 425q76 0 129 27t76 77q10 22 15 47t5 56t-5 56t-15 47q-23 50 -76 77t-129 27t-129 -27t-76 -77q-10 -22 -15 -47t-5 -56t5 -56t15 -47q23 -50 76 -77t129 -27v0zM246 549q-19 0 -32 6q-12 7 -18 20q-4 8 -6 20q-1 13 -1 37t1 36q2 13 6 21q6 13 18 19q13 6 32 6
q20 0 33 -6q12 -6 18 -19q4 -8 5 -21q2 -12 2 -36t-2 -37q-1 -12 -5 -20q-6 -13 -18 -20q-13 -6 -33 -6v0z" />
    <glyph glyph-name="uni2074" unicode="&#x2074;" horiz-adv-x="492" 
d="M262 438h151v60h70v119h-70v209h-278l-149 -326v-2h276v-60zM197 617l65 165v-165h-65z" />
    <glyph glyph-name="uni2075" unicode="&#x2075;" horiz-adv-x="424" 
d="M212 425q68 0 118 22q49 22 71 68q11 24 11 55q0 32 -11 54q-16 35 -54 53q-39 17 -94 17q-14 0 -33 -1q-19 0 -31 -2l5 30h182l18 105h-320l-42 -212q17 1 36 1q19 1 35 1q56 1 95 -6t52 -28q2 -4 3 -8q1 -5 1 -9t-1 -8q0 -3 -2 -7q-4 -8 -14 -13q-9 -5 -24 -5
q-17 0 -28 6t-17 18q-5 12 -5 30l-151 -1q0 -42 14 -72q22 -47 70 -68q49 -20 116 -20v0z" />
    <glyph glyph-name="uni2076" unicode="&#x2076;" horiz-adv-x="475" 
d="M450 619q-18 37 -59 54t-94 17q-35 0 -65 -7t-53 -23v3q0 11 2 21t6 18q8 19 24 27q16 9 38 9q14 0 25 -4q10 -4 17 -10q3 -3 5 -6t3 -7h152q-9 44 -38 72q-30 29 -73 43q-44 13 -96 13q-75 0 -128 -27q-52 -27 -77 -82q-10 -22 -15 -48t-5 -56t5 -54q4 -24 13 -44
q25 -53 78 -78q52 -25 131 -25q75 0 128 22q52 23 74 70q5 11 8 24t3 29q0 14 -2 26t-7 23v0zM291 545q-5 -9 -18 -13q-12 -5 -28 -5t-28 5q-12 4 -18 13q-2 5 -3 10q-1 4 -1 9t1 9t3 8q5 10 16 15q12 5 30 5q37 0 46 -21q2 -4 3 -7q1 -4 1 -9t-1 -9q-1 -5 -3 -10v0z" />
    <glyph glyph-name="uni2077" unicode="&#x2077;" horiz-adv-x="405" 
d="M27 438h177l216 388h-413v-125h167z" />
    <glyph glyph-name="uni2078" unicode="&#x2078;" horiz-adv-x="449" 
d="M424 602q-8 20 -25 33q-18 13 -41 18q39 11 53 41q3 8 5 16q2 9 2 18q0 10 -2 20q-2 9 -6 18q-19 38 -70 56q-50 17 -115 17q-66 0 -116 -17q-50 -18 -69 -56q-4 -9 -6 -18q-2 -10 -2 -20q0 -18 6 -34q7 -15 21 -25q13 -11 32 -16q-23 -6 -40 -19q-17 -12 -26 -32
q-9 -19 -9 -45q0 -27 9 -48q22 -45 76 -64q54 -20 124 -20t124 20q53 19 75 64q9 21 9 48q0 26 -9 45v0zM185 730q8 18 40 18t39 -18q1 -2 1 -6q1 -3 1 -7t-1 -7q0 -4 -1 -6q-7 -18 -39 -19q-16 0 -26 5t-14 14q-1 2 -1 6q-1 3 -1 7t1 7q0 4 1 6v0zM269 550q-5 -11 -16 -16
t-28 -5t-28 6q-12 5 -17 15q-3 6 -3 16q0 9 3 15q5 12 17 17q12 4 28 4t28 -5q11 -5 16 -16q3 -6 3 -15q0 -10 -3 -16v0z" />
    <glyph glyph-name="uni2079" unicode="&#x2079;" horiz-adv-x="475" 
d="M438 736q-25 53 -77 78q-53 25 -132 25q-75 0 -128 -22q-52 -23 -74 -70q-5 -11 -8 -24t-3 -29q0 -14 2 -26q3 -12 7 -23q18 -37 59 -54t94 -17q35 0 65 7t53 23v-3q0 -11 -2 -21t-6 -18q-8 -19 -24 -27q-16 -9 -38 -9q-14 0 -25 4q-10 4 -17 10q-3 3 -5 6t-3 7h-152
q9 -43 38 -72q30 -29 73 -43q44 -13 96 -13q75 0 128 27q52 27 77 82q10 22 15 48t5 56t-4 54q-5 24 -14 44v0zM276 683q-5 -10 -16 -15q-12 -5 -30 -5q-36 0 -46 21q-2 4 -3 7q-1 4 -1 9t1 10q1 4 3 9q6 9 18 14q12 4 28 4t28 -4q13 -5 18 -14q2 -5 3 -9q1 -5 1 -10t-1 -9
t-3 -8v0z" />
    <glyph glyph-name="uni207A" unicode="&#x207a;" horiz-adv-x="371" 
d="M344 683h-104v89h-109v-89h-104v-102h104v-89h109v89h104v102z" />
    <glyph glyph-name="uni207B" unicode="&#x207b;" horiz-adv-x="371" 
d="M27 581h317v102h-317v-102z" />
    <glyph glyph-name="uni207C" unicode="&#x207c;" horiz-adv-x="367" 
d="M27 647h313v89h-313v-89zM27 528h313v90h-313v-90z" />
    <glyph glyph-name="uni207D" unicode="&#x207d;" horiz-adv-x="259" 
d="M131 356h124q-41 65 -65 130q-23 65 -24 146q1 82 24 147q24 65 65 130h-124q-41 -65 -64 -128q-24 -64 -24 -149q0 -84 24 -148q23 -64 64 -128v0z" />
    <glyph glyph-name="uni207E" unicode="&#x207e;" horiz-adv-x="259" 
d="M128 356q42 64 65 128t23 148q0 85 -23 149q-23 63 -65 128h-123q40 -65 64 -130t25 -147q-1 -81 -25 -146t-64 -130h123z" />
    <glyph glyph-name="uni207F" unicode="&#x207f;" horiz-adv-x="481" 
d="M316 719q-37 0 -66 -13q-29 -12 -54 -35v35h-169v-358h169v185q0 29 11 44q12 16 37 16q24 0 35 -13q10 -13 10 -38v-194h169v228q0 70 -37 106q-36 37 -105 37v0z" />
    <glyph glyph-name="uni2080" unicode="&#x2080;" horiz-adv-x="492" 
d="M246 -133q76 0 129 27t76 77q10 22 15 47t5 56t-5 56t-15 47q-23 50 -76 77t-129 27t-129 -27t-76 -77q-10 -22 -15 -47t-5 -56t5 -56t15 -47q23 -50 76 -77t129 -27v0zM246 -9q-19 0 -32 6q-12 7 -18 20q-4 8 -6 20q-1 13 -1 37t1 36q2 13 6 21q6 13 18 19q13 6 32 6
q20 0 33 -6q12 -6 18 -19q4 -8 5 -21q2 -12 2 -36t-2 -37q-1 -12 -5 -20q-6 -13 -18 -20q-13 -6 -33 -6v0z" />
    <glyph glyph-name="uni2081" unicode="&#x2081;" horiz-adv-x="297" 
d="M89 -120h158v388h-223l-24 -125h89v-263z" />
    <glyph glyph-name="uni2082" unicode="&#x2082;" horiz-adv-x="430" 
d="M-5 -120h419v128h-127q25 16 45 31q19 14 35 28q18 15 30 35q12 19 12 47q0 29 -11 51q-20 42 -69 62q-50 19 -116 19q-69 0 -118 -20q-48 -21 -70 -69q-7 -16 -10 -32t-3 -33h157q0 6 1 13q2 8 4 13q4 9 14 14q9 5 23 5t21 -4q8 -4 11 -10q3 -4 3 -13q0 -11 -9 -25
q-10 -14 -34 -36l-208 -197v-7z" />
    <glyph glyph-name="uni2083" unicode="&#x2083;" horiz-adv-x="432" 
d="M407 32q-9 20 -28 32q-19 11 -46 16q23 8 40 20q16 13 24 30q6 15 6 33q0 23 -8 41q-19 40 -69 58q-50 19 -112 19q-64 0 -115 -20t-73 -65q-5 -12 -7 -25q-3 -12 -3 -28h147q1 5 1 8q1 4 3 8q5 11 15 15t23 4q15 0 24 -3q8 -4 12 -10q2 -3 3 -7t1 -8q0 -5 -1 -8
q0 -3 -1 -5q-5 -10 -17 -13q-12 -4 -27 -4h-21v-80h19q18 0 31 -4q12 -3 17 -13q2 -4 2 -7q1 -4 1 -8t-1 -8q0 -4 -2 -7q-4 -8 -14 -13t-27 -5q-16 0 -27 5t-16 16q-2 6 -4 15q-1 8 -1 19l-148 -1q0 -48 14 -81q21 -44 71 -63q50 -18 117 -18q72 0 124 19q52 18 73 60
q9 19 9 43q0 25 -9 43v0z" />
    <glyph glyph-name="uni2084" unicode="&#x2084;" horiz-adv-x="492" 
d="M262 -120h151v60h70v119h-70v209h-278l-149 -326v-2h276v-60zM197 59l65 165v-165h-65z" />
    <glyph glyph-name="uni2085" unicode="&#x2085;" horiz-adv-x="424" 
d="M212 -133q68 0 118 22q49 22 71 68q11 24 11 55q0 32 -11 54q-16 35 -54 53q-39 17 -94 17q-14 0 -33 -1q-19 0 -31 -2l5 30h182l18 105h-320l-42 -212q17 1 36 1q19 1 35 1q56 1 95 -6t52 -28q2 -4 3 -8q1 -5 1 -9t-1 -8q0 -3 -2 -7q-4 -8 -14 -13q-9 -5 -24 -5
q-17 0 -28 6t-17 18q-5 12 -5 30l-151 -1q0 -42 14 -72q22 -47 70 -68q49 -20 116 -20v0z" />
    <glyph glyph-name="uni2086" unicode="&#x2086;" horiz-adv-x="475" 
d="M450 61q-18 37 -59 54t-94 17q-35 0 -65 -7t-53 -23v3q0 11 2 21t6 18q8 19 24 27q16 9 38 9q14 0 25 -4q10 -4 17 -10q3 -3 5 -6t3 -7h152q-9 44 -38 72q-30 29 -73 43q-44 13 -96 13q-75 0 -128 -27q-52 -27 -77 -82q-10 -22 -15 -48t-5 -56t5 -54q4 -24 13 -44
q25 -53 78 -78q52 -25 131 -25q75 0 128 22q52 23 74 70q5 11 8 24t3 29q0 14 -2 26t-7 23v0zM291 -13q-5 -9 -18 -13q-12 -5 -28 -5t-28 5q-12 4 -18 13q-2 5 -3 10q-1 4 -1 9t1 9t3 8q5 10 16 15q12 5 30 5q37 0 46 -21q2 -4 3 -7q1 -4 1 -9t-1 -9q-1 -5 -3 -10v0z" />
    <glyph glyph-name="uni2087" unicode="&#x2087;" horiz-adv-x="405" 
d="M27 -120h177l216 388h-413v-125h167z" />
    <glyph glyph-name="uni2088" unicode="&#x2088;" horiz-adv-x="449" 
d="M424 44q-8 20 -25 33q-18 13 -41 18q39 11 53 41q3 8 5 16q2 9 2 18q0 10 -2 20q-2 9 -6 18q-19 38 -70 56q-50 17 -115 17q-66 0 -116 -17q-50 -18 -69 -56q-4 -9 -6 -18q-2 -10 -2 -20q0 -18 6 -34q7 -15 21 -25q13 -11 32 -16q-23 -6 -40 -19q-17 -12 -26 -32
q-9 -19 -9 -45q0 -27 9 -48q22 -45 76 -64q54 -20 124 -20t124 20q53 19 75 64q9 21 9 48q0 26 -9 45v0zM185 172q8 18 40 18t39 -18q1 -2 1 -6q1 -3 1 -7t-1 -7q0 -4 -1 -6q-7 -18 -39 -19q-16 0 -26 5t-14 14q-1 2 -1 6q-1 3 -1 7t1 7q0 4 1 6v0zM269 -8q-5 -11 -16 -16
t-28 -5t-28 6q-12 5 -17 15q-3 6 -3 16q0 9 3 15q5 12 17 17q12 4 28 4t28 -5q11 -5 16 -16q3 -6 3 -15q0 -10 -3 -16v0z" />
    <glyph glyph-name="uni2089" unicode="&#x2089;" horiz-adv-x="475" 
d="M438 178q-24 53 -77 78t-132 25q-75 0 -128 -22q-52 -23 -74 -70q-5 -11 -8 -24t-3 -29q0 -14 2 -26q3 -12 7 -23q18 -37 59 -54t95 -17q35 0 65 7t52 23v-3q0 -11 -2 -21t-5 -18q-9 -19 -25 -27q-16 -9 -38 -9q-14 0 -25 4q-10 4 -17 10q-3 3 -5 6t-3 7h-152
q9 -43 38 -72q30 -29 74 -43q43 -13 95 -13q75 0 128 27q52 27 78 82q10 22 14 48q5 26 5 56t-4 54q-5 24 -14 44v0zM277 125q-11 -20 -47 -20q-17 0 -29 5q-12 6 -17 16q-2 4 -3 7q-1 4 -1 9t1 10q1 4 4 9q5 9 17 14q12 4 28 4q17 0 29 -4q12 -5 17 -14q2 -5 3 -9
q1 -5 1 -10q0 -10 -3 -17v0z" />
    <glyph glyph-name="uni208A" unicode="&#x208a;" horiz-adv-x="370" 
d="M344 125h-104v89h-109v-89h-104v-102h104v-89h109v89h104v102z" />
    <glyph glyph-name="uni208B" unicode="&#x208b;" horiz-adv-x="371" 
d="M27 23h317v102h-317v-102z" />
    <glyph glyph-name="uni208C" unicode="&#x208c;" horiz-adv-x="367" 
d="M27 89h313v89h-313v-89zM27 -30h313v90h-313v-90z" />
    <glyph glyph-name="uni208D" unicode="&#x208d;" horiz-adv-x="259" 
d="M131 -202h124q-41 65 -65 130q-23 65 -24 146q1 82 24 147q24 65 65 130h-124q-41 -65 -64 -128q-24 -64 -24 -149q0 -84 24 -148q23 -64 64 -128v0z" />
    <glyph glyph-name="uni208E" unicode="&#x208e;" horiz-adv-x="259" 
d="M128 -202q42 64 65 128t23 148q0 85 -23 149q-23 63 -65 128h-123q40 -65 64 -130t25 -147q-1 -81 -25 -146t-64 -130h123z" />
    <glyph glyph-name="uni2099" unicode="&#x2099;" horiz-adv-x="481" 
d="M316 185q-37 0 -66 -12t-54 -35v35h-169v-358h169v184q0 29 11 45q12 16 37 16q24 0 35 -13q10 -13 10 -39v-193h169v227q0 70 -37 106q-36 37 -105 37v0z" />
    <glyph glyph-name="Euro" unicode="&#x20ac;" horiz-adv-x="909" 
d="M641 282q-2 -20 -11 -39q-10 -19 -26 -34q-22 -19 -52 -29q-30 -9 -65 -9q-50 0 -88 19q-39 18 -58 60q-3 5 -4 11h205v80h-217v12v22h217v80h-200q19 40 55 60q37 20 90 20q37 0 63 -8q27 -9 47 -27q17 -15 29 -37q11 -22 14 -46h246q-2 62 -26 116t-70 96
q-55 49 -132 74t-168 25q-136 0 -236 -52q-99 -52 -146 -153q-7 -16 -12 -33q-6 -17 -10 -35h-67v-80h56v-21v-13h-56v-80h65q8 -43 24 -79q47 -103 146 -153q100 -51 236 -51q92 0 171 26q78 25 134 75q43 39 67 91q24 51 26 112h-247z" />
    <glyph glyph-name="uni20B9" unicode="&#x20b9;" horiz-adv-x="743" 
d="M733 706h-691v-150h250q37 0 61 -11t35 -36l4 -10h-350v-90h352q-1 -10 -6 -18q-11 -25 -35 -36t-61 -11h-219l302 -344h282l-204 228q55 10 94 36q39 27 60 73q14 30 18 72h108v90h-109q-2 19 -6 35t-11 31q-13 30 -36 51h162v90z" />
    <glyph glyph-name="uni20BA" unicode="&#x20ba;" horiz-adv-x="722" 
d="M486 330q0 -23 -3 -44q-4 -21 -11 -38q-13 -31 -42 -48q-28 -18 -74 -18h-21v154l207 81v94l-207 -80v37l207 81v94l-207 -80v143h-232v-222l-84 -33v-94l84 33v-38l-84 -33v-94l84 32v-257h289q115 0 185 39q71 39 103 112q16 37 24 82q8 44 8 97h-226z" />
    <glyph glyph-name="uni20BC" unicode="&#x20bc;" horiz-adv-x="1024" 
d="M920 502q-38 59 -110 89t-182 30v85h-232v-85q-103 0 -172 -27q-70 -27 -109 -80q-33 -38 -48 -91q-15 -52 -15 -122v-301h232v310q0 30 4 54q5 24 16 43q13 21 35 34q23 13 57 13v-454h232v454q35 0 58 -13q23 -12 35 -34q10 -19 15 -43q4 -24 4 -54v-310h232v301
q0 64 -12 114q-13 50 -40 87v0z" />
    <glyph glyph-name="uni2113" unicode="&#x2113;" horiz-adv-x="593" 
d="M288 198q149 29 214 101t64 192q1 112 -58 168q-59 57 -195 57q-134 1 -193 -67q-60 -67 -59 -211v-122h-48v-140q27 0 52 1q15 -94 85 -141q71 -48 193 -48q43 0 86 7q44 7 83 20v160q-31 -11 -60 -17q-29 -5 -60 -5q-42 0 -67 10q-25 11 -37 35v0zM276 506q0 41 8 57
q9 15 28 14q18 1 29 -16q10 -17 10 -70q1 -56 -15 -92q-16 -35 -60 -54v161z" />
    <glyph glyph-name="uni2117" unicode="&#x2117;" horiz-adv-x="881" 
d="M443 -23q130 1 233 55q102 54 147 151q17 36 25 79q9 42 9 91q0 48 -9 92q-8 43 -24 79q-47 100 -148 152q-100 53 -233 53q-138 -1 -238 -55q-100 -55 -146 -155q-17 -37 -26 -78q-9 -42 -9 -89q0 -46 9 -89q9 -44 26 -81q44 -95 143 -150q100 -54 241 -55v0zM440 60
q-109 0 -184 42q-74 41 -110 120q-13 29 -19 63q-6 33 -6 68t6 68t19 62q35 79 111 121t185 42q106 0 181 -41t111 -119q13 -29 19 -63q7 -34 7 -72q0 -35 -6 -67t-19 -60q-36 -79 -110 -121q-75 -43 -185 -43v0zM248 133h170v122h83q61 0 100 21t57 61q7 16 11 35
q3 19 3 42t-3 42q-4 19 -11 35q-18 40 -57 61q-39 22 -100 22h-253v-441zM418 373v82h42q13 0 23 -5q9 -5 14 -15q2 -4 3 -9t1 -12q0 -12 -4 -21q-5 -10 -14 -15q-10 -5 -23 -5h-42z" />
    <glyph glyph-name="trademark" unicode="&#x2122;" horiz-adv-x="811" 
d="M78 396h134v206h73v104h-280v-104h73v-206zM312 396h125v143l80 -143h58l80 143v-143h124v310h-147l-86 -152l-85 152h-149v-310z" />
    <glyph glyph-name="Omega" unicode="&#x2126;" horiz-adv-x="791" 
d="M600 196q50 20 87 52q37 33 57 78q12 26 18 55q5 30 5 64q0 36 -6 66q-6 29 -17 54q-39 82 -129 123t-219 41t-220 -41q-90 -41 -129 -123q-11 -25 -17 -54q-6 -30 -6 -66q0 -34 6 -64q5 -29 17 -55q20 -45 57 -78q37 -32 87 -52v-34h-146v-162h314v325q-32 6 -55 22
q-22 16 -33 40q-6 13 -8 27q-3 15 -3 32t2 30q3 14 8 24q13 30 45 47q31 16 81 16q49 0 81 -16q31 -17 44 -47q5 -10 8 -24q2 -13 2 -30t-2 -32q-3 -14 -9 -27q-11 -24 -33 -40t-55 -22v-325h315v162h-147v34z" />
    <glyph glyph-name="estimated" unicode="&#x212e;" horiz-adv-x="830" 
d="M415 -11q88 0 170 37q81 36 139 105h-57q-46 -55 -111 -88q-65 -32 -141 -33q-67 0 -129 28q-63 27 -111 78v197q0 5 2 8t8 3h608q-4 153 -112 249q-108 95 -266 98q-160 -3 -267 -97q-108 -94 -112 -244q5 -154 115 -246q110 -93 264 -95v0zM185 347q-6 0 -8 3
q-2 2 -2 8v185q44 51 107 79q62 28 133 28q68 0 131 -28t109 -80v-184q0 -6 -2 -8q-2 -3 -7 -3h-461z" />
    <glyph glyph-name="partialdiff" unicode="&#x2202;" horiz-adv-x="749" 
d="M689 556q-37 83 -115 128t-197 45q-79 0 -146 -23t-114 -70q-26 -25 -42 -57q-17 -33 -24 -73h227q3 10 8 19q5 8 12 15q14 14 34 21q19 7 42 7q38 0 64 -18t39 -48q9 -20 14 -46q4 -26 4 -56q-36 30 -87 46q-51 15 -114 15q-92 0 -158 -31q-67 -30 -96 -94
q-20 -42 -20 -100q0 -61 22 -108q34 -76 112 -113q78 -38 183 -38q128 0 216 48q88 49 131 144q39 86 39 206q0 52 -9 97q-8 46 -25 84v0zM463 193q-11 -24 -37 -37t-63 -13q-35 0 -59 12q-25 13 -36 36q-7 17 -7 38t7 37q10 23 36 37q25 13 60 13q36 0 62 -12
q26 -13 37 -36q4 -9 5 -18q2 -10 2 -21q0 -19 -7 -36v0z" />
    <glyph glyph-name="Delta" unicode="&#x2206;" horiz-adv-x="863" 
d="M598 706h-333l-278 -706h889zM292 162l138 383h2l140 -383h-280z" />
    <glyph glyph-name="product" unicode="&#x220f;" horiz-adv-x="855" 
d="M52 -203h232v718h287v-718h232v909h-751v-909z" />
    <glyph glyph-name="summation" unicode="&#x2211;" horiz-adv-x="700" 
d="M4 -203h696v182h-316l183 302l-166 243h273v182h-661l289 -425z" />
    <glyph glyph-name="minus" unicode="&#x2212;" horiz-adv-x="613" 
d="M45 220h523v156h-523v-156z" />
    <glyph glyph-name="uni2215" unicode="&#x2215;" horiz-adv-x="613" 
d="M49 0h176l340 706h-176z" />
    <glyph glyph-name="uni2219" unicode="&#x2219;" horiz-adv-x="613" 
d="M306 182q53 1 84 33q32 31 33 83q-1 54 -33 85q-31 30 -84 31q-53 -1 -85 -31q-31 -31 -32 -85q1 -52 33 -83q31 -32 84 -33v0z" />
    <glyph glyph-name="radical" unicode="&#x221a;" horiz-adv-x="807" 
d="M597 706l-181 -678l-144 404l-262 -61v-197l128 33l154 -418h259l269 917h-223z" />
    <glyph glyph-name="infinity" unicode="&#x221e;" horiz-adv-x="899" 
d="M863 355q-25 56 -78 89q-53 32 -130 33q-71 -1 -120 -28q-50 -27 -85 -67q-35 40 -85 67t-121 28q-77 -1 -130 -33q-53 -33 -78 -89q-21 -44 -21 -104q0 -58 21 -103q25 -56 78 -89q53 -32 130 -33q71 1 121 28t85 67q35 -40 85 -67q49 -27 120 -28q77 1 130 33
q53 33 78 89q21 45 21 103q0 60 -21 104v0zM261 196q-18 0 -30 8q-13 7 -19 21q-5 11 -5 26q0 9 1 15q2 7 4 12q6 14 19 21q12 8 30 8q25 0 46 -15t40 -41q-19 -25 -40 -40t-46 -15v0zM687 225q-6 -14 -18 -21q-13 -8 -31 -8q-25 0 -46 15t-40 40q19 26 40 41t46 15
q18 0 31 -8q12 -7 18 -21q3 -5 4 -12q1 -6 1 -15q0 -8 -1 -14q-1 -7 -4 -12v0z" />
    <glyph glyph-name="integral" unicode="&#x222b;" horiz-adv-x="541" 
d="M105 -210q104 -2 167 45q62 46 82 163l72 488q5 27 18 38q12 11 31 11q5 0 12 -1t14 -3l40 175q-40 8 -88 8q-104 2 -166 -46t-81 -164l-73 -491q-4 -24 -18 -36q-14 -13 -40 -13q-14 0 -35 3l-40 -170q25 -4 51 -5q27 -2 54 -2v0z" />
    <glyph glyph-name="approxequal" unicode="&#x2248;" horiz-adv-x="613" 
d="M409 310q64 -1 99 45t39 148h-131q-2 -26 -12 -38q-11 -11 -28 -11q-15 0 -30 6q-16 6 -33 14q-22 10 -49 19q-28 9 -62 10q-64 1 -99 -45t-39 -147h131q2 26 12 37q11 11 28 11q16 0 31 -6q15 -5 32 -13q22 -11 49 -20q28 -9 62 -10v0zM409 92q64 -1 99 46q35 46 39 147
h-131q-2 -26 -12 -38q-11 -11 -28 -11q-15 0 -30 6q-16 6 -33 14q-22 10 -49 20q-28 9 -62 10q-64 1 -99 -45t-39 -148h131q2 26 12 37q11 11 28 11q16 0 31 -6q15 -5 32 -13q22 -11 49 -20q28 -9 62 -10v0z" />
    <glyph glyph-name="notequal" unicode="&#x2260;" horiz-adv-x="613" 
d="M568 328v156h-103l58 93h-97l-58 -93h-323v-156h238l-38 -60h-200v-156h115l-58 -93h98l58 93h310v156h-226l38 60h188z" />
    <glyph glyph-name="lessequal" unicode="&#x2264;" horiz-adv-x="613" 
d="M568 566l-523 -77v-214l523 -77v151l-377 33l377 34v150zM45 28h523v151h-523v-151z" />
    <glyph glyph-name="greaterequal" unicode="&#x2265;" horiz-adv-x="613" 
d="M45 566v-150l377 -34l-377 -33v-151l523 77v214zM45 28h523v151h-523v-151z" />
    <glyph glyph-name="lozenge" unicode="&#x25ca;" horiz-adv-x="707" 
d="M236 -203h236l218 455l-218 454h-236l-218 -454zM354 -4l-110 256l110 255l110 -255z" />
    <glyph glyph-name="uniFB00" unicode="&#xfb00;" horiz-adv-x="886" 
d="M82 0h215v346h131v161h-131v10q1 25 20 37q19 13 51 13q19 0 34 -3q16 -2 27 -7v160q-18 5 -45 8q-28 4 -58 4q-129 0 -187 -49t-57 -151v-22h-72v-161h72v-346zM529 0h215v346h131v161h-131v10q1 25 20 37q19 13 51 13q19 0 34 -3q16 -2 27 -7v160q-18 5 -45 8
q-28 4 -58 4q-129 0 -187 -49t-57 -151v-22h-72v-161h72v-346z" />
    <glyph glyph-name="uniFB01" unicode="&#xfb01;" horiz-adv-x="740" 
d="M590 547q47 1 76 28t30 72q-1 44 -30 72q-29 27 -76 28q-47 -1 -76 -28q-29 -28 -30 -72q1 -45 30 -72t76 -28v0zM82 0h215v346h131v161h-131v10q1 25 20 37q19 13 51 13q19 0 34 -3q16 -2 27 -7v160q-18 5 -45 8q-28 4 -58 4q-129 0 -187 -49t-57 -151v-22h-72v-161h72
v-346zM482 0h215v507h-215v-507z" />
    <glyph glyph-name="uniFB02" unicode="&#xfb02;" horiz-adv-x="740" 
d="M82 0h215v346h131v161h-131v10q1 25 20 37q19 13 51 13q19 0 34 -3q16 -2 27 -7v160q-18 5 -45 8q-28 4 -58 4q-129 0 -187 -49t-57 -151v-22h-72v-161h72v-346zM482 0h215v706h-215v-706z" />
    <glyph glyph-name="uniFB03" unicode="&#xfb03;" horiz-adv-x="1187" 
d="M1037 547q47 1 76 28t30 72q-1 44 -30 72q-29 27 -76 28q-47 -1 -76 -28q-29 -28 -30 -72q1 -45 30 -72t76 -28v0zM82 0h215v346h131v161h-131v10q1 25 20 37q19 13 51 13q19 0 34 -3q16 -2 27 -7v160q-18 5 -45 8q-28 4 -58 4q-129 0 -187 -49t-57 -151v-22h-72v-161h72
v-346zM529 0h215v346h131v161h-131v10q1 25 20 37q19 13 51 13q19 0 34 -3q16 -2 27 -7v160q-18 5 -45 8q-28 4 -58 4q-129 0 -187 -49t-57 -151v-22h-72v-161h72v-346zM929 0h215v507h-215v-507z" />
    <glyph glyph-name="uniFB04" unicode="&#xfb04;" horiz-adv-x="1187" 
d="M82 0h215v346h131v161h-131v10q1 25 20 37q19 13 51 13q19 0 34 -3q16 -2 27 -7v160q-18 5 -45 8q-28 4 -58 4q-129 0 -187 -49t-57 -151v-22h-72v-161h72v-346zM529 0h215v346h131v161h-131v10q1 25 20 37q19 13 51 13q19 0 34 -3q16 -2 27 -7v160q-18 5 -45 8
q-28 4 -58 4q-129 0 -187 -49t-57 -151v-22h-72v-161h72v-346zM929 0h215v706h-215v-706z" />
    <glyph glyph-name="uniFEFF" unicode="&#xfeff;" 
 />
    <glyph glyph-name="glyph143" horiz-adv-x="404" 
d="M129 754h206l125 158h-225zM100 -7q143 0 206 65q63 66 62 200v448h-232v-415q1 -58 -19 -80t-69 -21q-22 0 -40 2v-192q22 -3 44 -5t48 -2v0z" />
    <glyph glyph-name="glyph203" horiz-adv-x="963" 
d="M52 0h218v444l161 -236h101l161 236v-444h218v706h-254l-174 -254l-177 254h-254v-706z" />
    <glyph glyph-name="glyph204" horiz-adv-x="876" 
d="M815 173q37 77 37 180q0 50 -9 94t-26 82q-45 98 -144 149q-98 51 -234 51q-138 0 -237 -52t-145 -153q-16 -37 -24 -79q-9 -43 -9 -92q0 -50 9 -94q8 -44 25 -81q46 -100 144 -150q98 -51 236 -51h19t19 1l94 -171l201 104l-78 127q40 25 71 59q31 33 51 76v0zM290 254
q-8 18 -12 43q-4 24 -4 57t4 58q3 24 12 42q38 81 147 81q55 0 93 -19q37 -20 56 -61q9 -19 13 -43q4 -25 4 -59q0 -33 -4 -56q-3 -24 -11 -42q-18 -41 -55 -63q-38 -21 -94 -21q-55 0 -92 21q-38 21 -57 62v0z" />
    <glyph glyph-name="glyph205" horiz-adv-x="732" 
d="M589 325q30 14 52 35q22 20 35 48q8 18 12 37t4 44q0 29 -5 53t-13 43q-28 62 -90 92q-63 29 -161 29h-371v-706h232v244h67q54 0 77 -25q23 -24 22 -71v-148h232v159q1 63 -19 105q-20 41 -74 61v0zM365 393h-81v162h81q34 0 55 -12q21 -11 30 -31q4 -8 5 -16
q2 -8 2 -19q0 -23 -6 -40q-9 -20 -29 -32t-57 -12v0z" />
    <glyph glyph-name="glyph206" horiz-adv-x="732" 
d="M574 912h-225l-106 -158h206zM589 325q30 14 52 35q22 20 35 48q8 18 12 37t4 44q0 29 -5 53t-13 43q-28 62 -90 92q-63 29 -161 29h-371v-706h232v244h67q54 0 77 -25q23 -24 22 -71v-148h232v159q1 63 -19 105q-20 41 -74 61v0zM365 393h-81v162h81q34 0 55 -12
q21 -11 30 -31q4 -8 5 -16q2 -8 2 -19q0 -23 -6 -40q-9 -20 -29 -32t-57 -12v0z" />
    <glyph glyph-name="glyph207" horiz-adv-x="732" 
d="M499 755l121 157h-195l-55 -70l-56 70h-195l121 -157h259zM589 325q30 14 52 35q22 20 35 48q8 18 12 37t4 44q0 29 -5 53t-13 43q-28 62 -90 92q-63 29 -161 29h-371v-706h232v244h67q54 0 77 -25q23 -24 22 -71v-148h232v159q1 63 -19 105q-20 41 -74 61v0zM365 393
h-81v162h81q34 0 55 -12q21 -11 30 -31q4 -8 5 -16q2 -8 2 -19q0 -23 -6 -40q-9 -20 -29 -32t-57 -12v0z" />
    <glyph glyph-name="glyph208" horiz-adv-x="732" 
d="M589 325q30 14 52 35q22 20 35 48q8 18 12 37t4 44q0 29 -5 53t-13 43q-28 62 -90 92q-63 29 -161 29h-371v-706h232v244h67q54 0 77 -25q23 -24 22 -71v-148h232v159q1 63 -19 105q-20 41 -74 61v0zM365 393h-81v162h81q34 0 55 -12q21 -11 30 -31q4 -8 5 -16
q2 -8 2 -19q0 -23 -6 -40q-9 -20 -29 -32t-57 -12v0zM229 -202h193l58 148h-221z" />
    <glyph glyph-name="glyph209" horiz-adv-x="876" 
d="M787 581l89 98l-149 129l-95 -111q-42 16 -90 24q-49 8 -103 8q-138 0 -237 -52t-145 -153q-16 -37 -24 -79q-9 -43 -9 -92q0 -50 9 -94q8 -44 25 -81q13 -28 31 -54l-88 -98l149 -128l93 112q42 -16 91 -25q49 -8 104 -8q135 0 233 49q97 49 144 147q37 77 37 180
q0 50 -9 94t-26 82q-12 28 -30 52v0zM588 255q-18 -41 -55 -63q-38 -21 -94 -21q-55 0 -92 21q-38 21 -57 62q-8 18 -12 43q-4 24 -4 57t4 58q3 24 12 42q38 81 147 81q55 0 93 -19q37 -20 56 -61q9 -19 13 -43q4 -25 4 -59q0 -33 -4 -56q-3 -24 -11 -42v0z" />
    <glyph glyph-name="glyph251" horiz-adv-x="301" 
d="M150 547q47 1 76 28t30 72q-1 44 -30 72q-29 27 -76 28q-46 -1 -75 -28q-29 -28 -30 -72q1 -45 30 -72t75 -28v0zM43 0h215v507h-215v-507z" />
    <glyph glyph-name="glyph258" horiz-adv-x="305" 
d="M30 553h194l110 168h-219zM47 -216q115 0 166 50q51 51 50 158v515h-215v-499q0 -23 -12 -36t-37 -13q-10 0 -19 1l-20 2v-172l42 -4t45 -2v0z" />
    <glyph glyph-name="glyph319" horiz-adv-x="689" 
d="M652 368q-8 19 -19 35t-25 30l64 77l-145 104l-74 -101q-49 11 -108 11q-112 0 -192 -40q-81 -40 -117 -120q-11 -25 -16 -52t-5 -59q0 -31 5 -58t16 -52q18 -39 46 -69l-64 -77l144 -105l75 101q51 -11 108 -11q112 0 192 40t115 117q11 25 17 53q5 28 5 61q0 34 -5 62
q-6 28 -17 53v0zM438 190q-11 -25 -35 -37q-23 -12 -58 -12t-59 13q-23 13 -34 38q-10 22 -10 61q0 20 2 36q3 15 8 26q11 25 34 38q24 13 59 13t58 -12q24 -13 35 -38q5 -11 8 -27q2 -15 2 -36q0 -20 -2 -36q-3 -15 -8 -27v0z" />
    <glyph glyph-name="glyph320" horiz-adv-x="472" 
d="M406 515q-55 -1 -92 -23t-59 -56v71h-212v-507h215v183q0 77 35 117q34 41 106 41q16 0 34 -2q17 -2 30 -5v173q-14 4 -29 6t-28 2v0z" />
    <glyph glyph-name="glyph321" horiz-adv-x="472" 
d="M430 721h-219l-85 -168h194zM406 515q-55 -1 -92 -23t-59 -56v71h-212v-507h215v183q0 77 35 117q34 41 106 41q16 0 34 -2q17 -2 30 -5v173q-14 4 -29 6t-28 2v0z" />
    <glyph glyph-name="glyph322" horiz-adv-x="472" 
d="M349 553l83 168h-149l-34 -76l-34 76h-150l84 -168h200zM406 515q-55 -1 -92 -23t-59 -56v71h-212v-507h215v183q0 77 35 117q34 41 106 41q16 0 34 -2q17 -2 30 -5v173q-14 4 -29 6t-28 2v0z" />
    <glyph glyph-name="glyph323" horiz-adv-x="472" 
d="M406 515q-55 -1 -92 -23t-59 -56v71h-212v-507h215v183q0 77 35 117q34 41 106 41q16 0 34 -2q17 -2 30 -5v173q-14 4 -29 6t-28 2v0zM7 -202h193l58 148h-221z" />
    <glyph glyph-name="glyph327" horiz-adv-x="740" 
d="M590 547q47 1 76 28t30 72q-1 44 -30 72q-29 27 -76 28q-47 -1 -76 -28q-29 -28 -30 -72q1 -45 30 -72t76 -28v0zM82 0h215v346h131v161h-131v10q1 25 20 37q19 13 51 13q19 0 34 -3q16 -2 27 -7v160q-18 5 -45 8q-28 4 -58 4q-129 0 -187 -49t-57 -151v-22h-72v-161h72
v-346zM482 0h215v507h-215v-507z" />
    <glyph glyph-name="glyph328" horiz-adv-x="740" 
d="M82 0h215v346h131v161h-131v10q1 25 20 37q19 13 51 13q19 0 34 -3q16 -2 27 -7v160q-18 5 -45 8q-28 4 -58 4q-129 0 -187 -49t-57 -151v-22h-72v-161h72v-346zM482 0h215v706h-215v-706z" />
    <glyph glyph-name="glyph339" horiz-adv-x="729" 
d="M365 -23q109 0 187 44t118 132q18 40 27 90q9 49 9 110t-9 111q-9 49 -27 89q-40 88 -118 132t-187 44t-187 -44t-118 -132q-18 -40 -27 -89q-10 -50 -10 -111t10 -110q9 -50 27 -90q40 -88 118 -132t187 -44v0zM365 160q-33 0 -53 13q-21 13 -31 36q-10 21 -13 56t-3 88
t3 88t13 56q10 23 31 36q20 13 53 13q32 0 52 -13q21 -13 31 -36q10 -21 13 -56t3 -88t-3 -88t-13 -56q-10 -23 -31 -36q-20 -13 -52 -13v0z" />
    <glyph glyph-name="glyph340" horiz-adv-x="729" 
d="M285 0h224v706h-340l-42 -191h158v-515z" />
    <glyph glyph-name="glyph341" horiz-adv-x="729" 
d="M16 0h659v185h-246q50 39 87 73q37 33 69 66q37 37 58 77q22 40 22 93q0 26 -5 50t-14 44q-33 72 -110 107q-77 34 -184 34q-110 0 -186 -37t-113 -117q-12 -27 -17 -58q-6 -32 -6 -71h227q0 19 3 35q2 16 8 30q10 23 30 34q19 11 50 11q26 0 45 -9t27 -28q5 -12 5 -28
q0 -26 -19 -55q-20 -29 -63 -76l-327 -358v-2z" />
    <glyph glyph-name="glyph342" horiz-adv-x="729" 
d="M671 278q-15 33 -45 56t-81 34q42 14 69 36t40 52q7 15 10 31q3 15 3 34q0 21 -3 39q-4 18 -12 37q-31 66 -107 99q-75 33 -182 33q-112 0 -190 -36q-78 -35 -113 -108q-9 -19 -13 -39q-4 -21 -4 -45h221q1 9 3 17q1 8 5 16q11 22 32 32t50 10q33 0 51 -10q18 -11 26 -29
q4 -8 5 -17q1 -8 1 -17t-1 -15q-2 -7 -5 -13q-9 -21 -32 -30q-24 -10 -60 -10h-36v-131h34q35 0 63 -9q27 -10 38 -34q3 -7 5 -16t2 -20t-2 -20q-1 -10 -5 -18q-11 -23 -32 -34q-20 -10 -50 -10q-34 0 -55 12t-31 35q-13 30 -13 75h-225q0 -45 6 -80t19 -63q32 -74 110 -110
q77 -35 197 -35q127 0 201 36q74 35 103 101q18 39 17 84q0 22 -3 42q-4 21 -11 38v0z" />
    <glyph glyph-name="glyph343" horiz-adv-x="729" 
d="M711 309h-94v397h-394l-231 -574v-2h407v-130h218v130h94v179zM275 309l123 330h1v-330h-124z" />
    <glyph glyph-name="glyph344" horiz-adv-x="729" 
d="M364 -23q115 0 191 38t109 112q11 25 16 52q6 28 6 57q0 31 -6 59q-5 29 -16 52q-27 60 -92 91q-64 32 -160 32q-57 0 -110 -13l15 74h302l40 175h-518l-67 -373l61 5q38 2 82 2q89 1 146 -15q57 -15 76 -55q4 -9 6 -19t2 -22q0 -11 -2 -22q-2 -10 -6 -19
q-19 -45 -77 -45q-31 0 -50 11t-29 33q-7 15 -10 34t-3 44h-228q0 -43 7 -78q6 -36 19 -65q34 -75 109 -110q76 -35 187 -35v0z" />
    <glyph glyph-name="glyph345" horiz-adv-x="729" 
d="M689 344q-28 62 -91 93q-63 30 -152 30q-60 0 -109 -16q-50 -15 -85 -46q1 27 5 52q5 24 13 43q14 32 40 50t66 18q21 0 40 -7q19 -6 33 -20t20 -35h226q-7 41 -24 74q-18 34 -44 60q-44 44 -108 67q-64 22 -138 22q-117 0 -197 -46t-119 -133q-39 -85 -39 -205
q0 -115 36 -195q39 -87 121 -130t205 -43q104 0 184 40t116 116q21 47 21 106q0 62 -20 105v0zM463 190q-11 -23 -34 -35q-24 -12 -55 -12t-55 12q-23 12 -34 35q-4 9 -6 20t-2 22q0 24 8 42q12 25 35 36q23 12 55 12t55 -11q22 -12 33 -35q4 -10 6 -20q2 -11 2 -23t-2 -23
t-6 -20v0z" />
    <glyph glyph-name="glyph346" horiz-adv-x="729" 
d="M119 0h263l344 706h-675v-191h330z" />
    <glyph glyph-name="glyph347" horiz-adv-x="729" 
d="M685 293q-16 37 -46 62q-30 24 -73 35q35 9 59 28t37 46q7 15 10 32t3 35q0 19 -4 36q-3 17 -10 32q-31 67 -109 98q-78 32 -187 32q-114 0 -192 -33t-107 -98q-6 -14 -9 -31q-4 -17 -4 -36q0 -18 3 -34t10 -31q12 -26 38 -46q25 -20 61 -30q-42 -11 -73 -35
q-31 -25 -48 -63q-17 -36 -17 -82q0 -25 4 -45q5 -20 13 -39q30 -69 109 -109q79 -39 211 -40q131 1 211 40q79 39 110 109q8 19 13 39q4 20 4 45q0 23 -4 44q-5 20 -13 39v0zM285 549q9 20 29 30q21 10 50 10q31 0 51 -11q21 -11 30 -31q4 -7 5 -15t1 -16q0 -10 -1 -18
q-2 -8 -5 -15q-10 -21 -31 -31q-20 -10 -49 -10q-30 0 -51 11t-30 32q-4 7 -5 14t-1 16q0 10 2 18q1 8 5 16v0zM455 184q-12 -24 -35 -35t-54 -11q-34 0 -58 12q-23 13 -34 36q-4 8 -6 16q-1 8 -1 18t2 20q2 9 6 17q11 23 33 34q22 12 55 12q34 0 58 -12q23 -13 34 -36
q4 -9 5 -17q2 -8 2 -16q0 -14 -2 -22q-1 -9 -5 -16v0z" />
    <glyph glyph-name="glyph348" horiz-adv-x="729" 
d="M667 556q-39 87 -121 130t-205 43q-104 0 -184 -40t-115 -116q-11 -23 -17 -50q-5 -27 -5 -56q0 -61 20 -105q29 -62 92 -93q64 -30 152 -30q59 0 109 16q49 15 84 46q-1 -27 -5 -52q-4 -24 -13 -43q-13 -32 -40 -50q-26 -18 -65 -18q-22 0 -41 7t-33 20q-14 14 -20 35
h-225q7 -41 24 -74q17 -34 43 -60q45 -44 109 -67q63 -22 138 -22q117 0 197 46t119 133q38 85 38 205q0 116 -36 195v0zM444 432q-12 -25 -35 -36q-23 -12 -55 -12t-54 11q-23 12 -34 35q-4 10 -6 20q-2 11 -2 23t2 23t6 20q11 23 34 35q24 12 55 12t55 -12q23 -12 34 -35
q4 -9 6 -20t2 -22q1 -24 -8 -42v0z" />
    <glyph glyph-name="glyph359" horiz-adv-x="492" 
d="M246 -13q76 0 129 27t76 77q10 22 15 47t5 56t-5 56t-15 47q-23 50 -76 77t-129 27t-129 -27t-76 -77q-10 -22 -15 -47t-5 -56t5 -56t15 -47q23 -50 76 -77t129 -27v0zM246 111q-19 0 -32 6q-12 7 -18 20q-4 8 -6 20q-1 13 -1 37t1 36q2 13 6 21q6 13 18 19q13 6 32 6
q20 0 33 -6q12 -6 18 -19q4 -8 5 -21q2 -12 2 -36t-2 -37q-1 -12 -5 -20q-6 -13 -18 -20q-13 -6 -33 -6v0z" />
    <glyph glyph-name="glyph360" horiz-adv-x="297" 
d="M89 0h158v388h-223l-24 -125h89v-263z" />
    <glyph glyph-name="glyph361" horiz-adv-x="430" 
d="M-5 0h419v128h-127q25 16 45 31q19 14 35 28q18 15 30 35q12 19 12 47q0 29 -11 51q-20 42 -69 62q-50 19 -116 19q-69 0 -118 -20q-48 -21 -70 -69q-7 -16 -10 -32t-3 -33h157q0 6 1 13q2 8 4 13q4 9 14 14q9 5 23 5t21 -4q8 -4 11 -10q3 -4 3 -13q0 -11 -9 -25
q-10 -14 -34 -36l-208 -197v-7z" />
    <glyph glyph-name="glyph362" horiz-adv-x="432" 
d="M407 152q-9 20 -28 32q-19 11 -46 16q23 8 40 20q16 13 24 30q6 15 6 33q0 23 -8 41q-19 40 -69 58q-50 19 -112 19q-64 0 -115 -20t-73 -65q-5 -12 -7 -25q-3 -12 -3 -28h147q1 5 1 8q1 4 3 8q5 11 15 15t23 4q15 0 24 -3q8 -4 12 -10q2 -3 3 -7t1 -8q0 -5 -1 -8
q0 -3 -1 -5q-5 -10 -17 -13q-12 -4 -27 -4h-21v-80h19q18 0 31 -4q12 -3 17 -13q2 -4 2 -7q1 -4 1 -8t-1 -8q0 -4 -2 -7q-4 -8 -14 -13t-27 -5q-16 0 -27 5t-16 16q-2 6 -4 15q-1 8 -1 19l-148 -1q0 -48 14 -81q21 -44 71 -63q50 -18 117 -18q72 0 124 19q52 18 73 60
q9 19 9 43q0 25 -9 43v0z" />
    <glyph glyph-name="glyph363" horiz-adv-x="492" 
d="M262 0h151v60h70v119h-70v209h-278l-149 -326v-2h276v-60zM197 179l65 165v-165h-65z" />
    <glyph glyph-name="glyph364" horiz-adv-x="424" 
d="M212 -13q68 0 118 22q49 22 71 68q11 24 11 55q0 32 -11 54q-16 35 -54 53q-39 17 -94 17q-14 0 -33 -1q-19 0 -31 -2l5 30h182l18 105h-320l-42 -212q17 1 36 1q19 1 35 1q56 1 95 -6t52 -28q2 -4 3 -8q1 -5 1 -9t-1 -8q0 -3 -2 -7q-4 -8 -14 -13q-9 -5 -24 -5
q-17 0 -28 6t-17 18q-5 12 -5 30l-151 -1q0 -42 14 -72q22 -47 70 -68q49 -20 116 -20v0z" />
    <glyph glyph-name="glyph365" horiz-adv-x="475" 
d="M450 181q-18 37 -59 54t-94 17q-35 0 -65 -7t-53 -23v3q0 11 2 21t6 18q8 19 24 27q16 9 38 9q14 0 25 -4q10 -4 17 -10q3 -3 5 -6t3 -7h152q-9 44 -38 72q-30 29 -73 43q-44 13 -96 13q-75 0 -128 -27q-52 -27 -77 -82q-10 -22 -15 -48t-5 -56t5 -54q4 -24 13 -44
q25 -53 78 -78q52 -25 131 -25q75 0 128 22q52 23 74 70q5 11 8 24t3 29q0 14 -2 26t-7 23v0zM291 107q-5 -9 -18 -13q-12 -5 -28 -5t-28 5q-12 4 -18 13q-2 5 -3 10q-1 4 -1 9t1 9t3 8q5 10 16 15q12 5 30 5q37 0 46 -21q2 -4 3 -7q1 -4 1 -9t-1 -9q-1 -5 -3 -10v0z" />
    <glyph glyph-name="glyph366" horiz-adv-x="405" 
d="M27 0h177l216 388h-413v-125h167z" />
    <glyph glyph-name="glyph367" horiz-adv-x="449" 
d="M424 164q-8 20 -25 33q-18 13 -41 18q39 11 53 41q3 8 5 16q2 9 2 18q0 10 -2 20q-2 9 -6 18q-19 38 -70 56q-50 17 -115 17q-66 0 -116 -17q-50 -18 -69 -56q-4 -9 -6 -18q-2 -10 -2 -20q0 -18 6 -34q7 -15 21 -25q13 -11 32 -16q-23 -6 -40 -19q-17 -12 -26 -32
q-9 -19 -9 -45q0 -27 9 -48q22 -45 76 -64q54 -20 124 -20t124 20q53 19 75 64q9 21 9 48q0 26 -9 45v0zM185 292q8 18 40 18t39 -18q1 -2 1 -6q1 -3 1 -7t-1 -7q0 -4 -1 -6q-7 -18 -39 -19q-16 0 -26 5t-14 14q-1 2 -1 6q-1 3 -1 7t1 7q0 4 1 6v0zM269 112q-5 -11 -16 -16
t-28 -5t-28 6q-12 5 -17 15q-3 6 -3 16q0 9 3 15q5 12 17 17q12 4 28 4t28 -5q11 -5 16 -16q3 -6 3 -15q0 -10 -3 -16v0z" />
    <glyph glyph-name="glyph368" horiz-adv-x="475" 
d="M438 298q-25 53 -77 78q-53 25 -132 25q-75 0 -128 -22q-52 -23 -74 -70q-5 -11 -8 -24t-3 -29q0 -14 2 -26q3 -12 7 -23q18 -37 59 -54t94 -17q35 0 65 7t53 23v-3q0 -11 -2 -21t-6 -18q-8 -19 -24 -27q-16 -9 -38 -9q-14 0 -25 4q-10 4 -17 10q-3 3 -5 6t-3 7h-152
q9 -43 38 -72q30 -29 73 -43q44 -13 96 -13q75 0 128 27q52 27 77 82q10 22 15 48t5 56t-4 54q-5 24 -14 44v0zM276 245q-5 -10 -16 -15q-12 -5 -30 -5q-36 0 -46 21q-2 4 -3 7q-1 4 -1 9t1 10q1 4 3 9q6 9 18 14q12 4 28 4t28 -4q13 -5 18 -14q2 -5 3 -9q1 -5 1 -10t-1 -9
t-3 -8v0z" />
    <glyph glyph-name="glyph369" horiz-adv-x="492" 
d="M246 305q76 0 129 27t76 77q10 22 15 47t5 56t-5 56t-15 47q-23 50 -76 77t-129 27t-129 -27t-76 -77q-10 -22 -15 -47t-5 -56t5 -56t15 -47q23 -50 76 -77t129 -27v0zM246 429q-19 0 -32 6q-12 7 -18 20q-4 8 -6 20q-1 13 -1 37t1 36q2 13 6 21q6 13 18 19q13 6 32 6
q20 0 33 -6q12 -6 18 -19q4 -8 5 -21q2 -12 2 -36t-2 -37q-1 -12 -5 -20q-6 -13 -18 -20q-13 -6 -33 -6v0z" />
    <glyph glyph-name="glyph370" horiz-adv-x="297" 
d="M89 318h158v388h-223l-24 -125h89v-263z" />
    <glyph glyph-name="glyph371" horiz-adv-x="430" 
d="M-5 318h419v128h-127q25 16 45 31q19 14 35 28q18 15 30 35q12 19 12 47q0 29 -11 51q-20 42 -69 62q-50 19 -116 19q-69 0 -118 -20q-48 -21 -70 -69q-7 -16 -10 -32t-3 -33h157q0 6 1 13q2 8 4 13q4 9 14 14q9 5 23 5t21 -4q8 -4 11 -10q3 -4 3 -13q0 -11 -9 -25
q-10 -14 -34 -36l-208 -197v-7z" />
    <glyph glyph-name="glyph372" horiz-adv-x="432" 
d="M407 470q-9 20 -28 32q-19 11 -46 16q23 8 40 20q16 13 24 30q6 15 6 33q0 23 -8 41q-19 40 -69 58q-50 19 -112 19q-64 0 -115 -20t-73 -65q-5 -12 -7 -25q-3 -12 -3 -28h147q1 5 1 8q1 4 3 8q5 11 15 15t23 4q15 0 24 -3q8 -4 12 -10q2 -3 3 -7t1 -8q0 -5 -1 -8
q0 -3 -1 -5q-5 -10 -17 -13q-12 -4 -27 -4h-21v-80h19q18 0 31 -4q12 -3 17 -13q2 -4 2 -7q1 -4 1 -8t-1 -8q0 -4 -2 -7q-4 -8 -14 -13t-27 -5q-16 0 -27 5t-16 16q-2 6 -4 15q-1 8 -1 19l-148 -1q0 -48 14 -81q21 -44 71 -63q50 -18 117 -18q72 0 124 19q52 18 73 60
q9 19 9 43q0 25 -9 43v0z" />
    <glyph glyph-name="glyph373" horiz-adv-x="492" 
d="M262 318h151v60h70v119h-70v209h-278l-149 -326v-2h276v-60zM197 497l65 165v-165h-65z" />
    <glyph glyph-name="glyph374" horiz-adv-x="424" 
d="M212 305q68 0 118 22q49 22 71 68q11 24 11 55q0 32 -11 54q-16 35 -54 53q-39 17 -94 17q-14 0 -33 -1q-19 0 -31 -2l5 30h182l18 105h-320l-42 -212q17 1 36 1q19 1 35 1q56 1 95 -6t52 -28q2 -4 3 -8q1 -5 1 -9t-1 -8q0 -3 -2 -7q-4 -8 -14 -13q-9 -5 -24 -5
q-17 0 -28 6t-17 18q-5 12 -5 30l-151 -1q0 -42 14 -72q22 -47 70 -68q49 -20 116 -20v0z" />
    <glyph glyph-name="glyph375" horiz-adv-x="475" 
d="M450 499q-18 37 -59 54t-94 17q-35 0 -65 -7t-53 -23v3q0 11 2 21t6 18q8 19 24 27q16 9 38 9q14 0 25 -4q10 -4 17 -10q3 -3 5 -6t3 -7h152q-9 44 -38 72q-30 29 -73 43q-44 13 -96 13q-75 0 -128 -27q-52 -27 -77 -82q-10 -22 -15 -48t-5 -56t5 -54q4 -24 13 -44
q25 -53 78 -78q52 -25 131 -25q75 0 128 22q52 23 74 70q5 11 8 24t3 29q0 14 -2 26t-7 23v0zM291 425q-5 -9 -18 -13q-12 -5 -28 -5t-28 5q-12 4 -18 13q-2 5 -3 10q-1 4 -1 9t1 9t3 8q5 10 16 15q12 5 30 5q37 0 46 -21q2 -4 3 -7q1 -4 1 -9t-1 -9q-1 -5 -3 -10v0z" />
    <glyph glyph-name="glyph376" horiz-adv-x="405" 
d="M27 318h177l216 388h-413v-125h167z" />
    <glyph glyph-name="glyph377" horiz-adv-x="449" 
d="M424 482q-8 20 -25 33q-18 13 -41 18q39 11 53 41q3 8 5 16q2 9 2 18q0 10 -2 20q-2 9 -6 18q-19 38 -70 56q-50 17 -115 17q-66 0 -116 -17q-50 -18 -69 -56q-4 -9 -6 -18q-2 -10 -2 -20q0 -18 6 -34q7 -15 21 -25q13 -11 32 -16q-23 -6 -40 -19q-17 -12 -26 -32
q-9 -19 -9 -45q0 -27 9 -48q22 -45 76 -64q54 -20 124 -20t124 20q53 19 75 64q9 21 9 48q0 26 -9 45v0zM185 610q8 18 40 18t39 -18q1 -2 1 -6q1 -3 1 -7t-1 -7q0 -4 -1 -6q-7 -18 -39 -19q-16 0 -26 5t-14 14q-1 2 -1 6q-1 3 -1 7t1 7q0 4 1 6v0zM269 430q-5 -11 -16 -16
t-28 -5t-28 6q-12 5 -17 15q-3 6 -3 16q0 9 3 15q5 12 17 17q12 4 28 4t28 -5q11 -5 16 -16q3 -6 3 -15q0 -10 -3 -16v0z" />
    <glyph glyph-name="glyph378" horiz-adv-x="475" 
d="M438 616q-25 53 -77 78q-53 25 -132 25q-75 0 -128 -22q-52 -23 -74 -70q-5 -11 -8 -24t-3 -29q0 -14 2 -26q3 -12 7 -23q18 -37 59 -54t94 -17q35 0 65 7t53 23v-3q0 -11 -2 -21t-6 -18q-8 -19 -24 -27q-16 -9 -38 -9q-14 0 -25 4q-10 4 -17 10q-3 3 -5 6t-3 7h-152
q9 -43 38 -72q30 -29 73 -43q44 -13 96 -13q75 0 128 27q52 27 77 82q10 22 15 48t5 56t-4 54q-5 24 -14 44v0zM276 563q-5 -10 -16 -15q-12 -5 -30 -5q-36 0 -46 21q-2 4 -3 7q-1 4 -1 9t1 10q1 4 3 9q6 9 18 14q12 4 28 4t28 -4q13 -5 18 -14q2 -5 3 -9q1 -5 1 -10t-1 -9
t-3 -8v0z" />
    <glyph glyph-name="glyph398" horiz-adv-x="373" 
d="M186 394q53 1 84 32q32 31 33 83q-1 54 -33 85q-31 30 -84 31q-53 -1 -85 -31q-31 -31 -32 -85q1 -52 33 -83q31 -31 84 -32v0zM186 81q53 1 84 32q32 31 33 83q-1 54 -33 85q-31 30 -84 31q-53 -1 -85 -31q-31 -31 -32 -85q1 -52 33 -83q31 -31 84 -32v0z" />
    <glyph glyph-name="glyph399" horiz-adv-x="379" 
d="M193 394q53 1 84 32q32 31 33 83q-1 54 -33 85q-31 30 -84 31q-53 -1 -85 -31q-31 -31 -32 -85q1 -52 33 -83q31 -31 84 -32v0zM18 -80h153l117 343h-199z" />
    <glyph glyph-name="glyph400" horiz-adv-x="351" 
d="M176 723q-53 -1 -84 -32q-32 -31 -33 -83q1 -54 33 -85q31 -30 84 -31q53 1 85 31q31 31 32 85q-1 52 -33 83q-31 31 -84 32v0zM261 445h-171l-30 -449h232z" />
    <glyph glyph-name="glyph401" horiz-adv-x="607" 
d="M306 730q-53 -1 -84 -32q-32 -31 -33 -84q1 -53 33 -84q31 -31 84 -32q53 1 85 32q31 31 32 84q-1 53 -33 84q-31 31 -84 32v0zM412 450h-236q-92 -125 -123 -179q-31 -55 -29 -97q2 -97 76 -146q74 -50 203 -50q103 0 170 31q67 32 94 91q9 21 13 44q3 23 3 52h-214
q0 -12 -1 -20q-1 -9 -4 -17q-7 -15 -21 -22q-14 -8 -36 -8q-28 0 -43 13q-15 14 -15 40q-2 29 31 80q34 52 132 188v0z" />
    <glyph glyph-name="glyph402" horiz-adv-x="373" 
d="M186 251q53 1 84 33q32 31 33 83q-1 54 -33 85q-31 30 -84 31q-53 -1 -85 -31q-31 -31 -32 -85q1 -52 33 -83q31 -32 84 -33v0z" />
    <glyph glyph-name="glyph403" horiz-adv-x="87" 
d="M-40 314q52 1 84 33q31 31 32 83q-1 54 -32 85q-32 30 -84 31q-53 -1 -85 -31q-32 -31 -33 -85q1 -52 33 -83q32 -32 85 -33v0z" />
    <glyph glyph-name="glyph404" horiz-adv-x="619" 
d="M11 -50h212l399 807h-211z" />
    <glyph glyph-name="glyph405" horiz-adv-x="245" 
d="M123 253q52 1 84 33q31 31 32 83q-1 54 -32 85q-32 30 -84 31q-53 -1 -85 -31q-32 -31 -33 -85q1 -52 33 -83q32 -32 85 -33v0z" />
    <glyph glyph-name="glyph410" horiz-adv-x="417" 
d="M220 -158h189q-69 113 -109 234t-41 277q1 151 41 275q40 123 109 238h-189q-69 -115 -108 -235q-39 -121 -40 -278q1 -161 40 -279t108 -232v0z" />
    <glyph glyph-name="glyph411" horiz-adv-x="417" 
d="M197 -158q70 114 109 232t40 279q-1 157 -40 278q-39 120 -109 235h-189q69 -115 109 -238q40 -124 41 -275q-1 -156 -41 -277t-109 -234h189z" />
    <glyph glyph-name="glyph412" horiz-adv-x="447" 
d="M307 483v133q-2 50 18 73t80 23h25v148h-91q-102 -2 -152 -54q-51 -52 -51 -137v-145q1 -50 -19 -70q-21 -21 -71 -20v-162q50 1 71 -19q20 -20 19 -70v-146q0 -85 51 -137q50 -52 152 -54h91v148h-25q-60 0 -80 23t-18 73v134q0 60 -25 91q-26 31 -76 38q50 7 76 38
q25 32 25 92v0z" />
    <glyph glyph-name="glyph413" horiz-adv-x="447" 
d="M311 524v145q0 85 -50 137q-51 52 -152 54h-91v-148h25q59 0 79 -23t18 -73v-133q0 -60 26 -92q25 -31 76 -38q-51 -7 -76 -38q-26 -31 -26 -91v-134q2 -50 -18 -73t-79 -23h-25v-148h91q101 2 152 54q50 52 50 137v146q-1 50 20 70q20 20 70 19v162q-50 -1 -70 20
q-21 20 -20 70v0z" />
    <glyph glyph-name="glyph414" horiz-adv-x="414" 
d="M89 -158h308v156h-127v710h127v158h-308v-1024z" />
    <glyph glyph-name="glyph415" horiz-adv-x="414" 
d="M325 -158v1024h-307v-158h126v-710h-126v-156h307z" />
    <glyph glyph-name="glyph420" horiz-adv-x="446" 
d="M45 283h356v168h-356v-168z" />
    <glyph glyph-name="glyph421" horiz-adv-x="446" 
d="M45 283h356v168h-356v-168z" />
    <glyph glyph-name="glyph422" horiz-adv-x="628" 
d="M45 281h538v168h-538v-168z" />
    <glyph glyph-name="glyph423" horiz-adv-x="1256" 
d="M45 281h1165v168h-1165v-168z" />
    <glyph glyph-name="glyph434" horiz-adv-x="676" 
d="M173 192h202l-160 170l160 170h-202l-160 -170zM461 192h202l-160 170l160 170h-202l-160 -170z" />
    <glyph glyph-name="glyph435" horiz-adv-x="676" 
d="M215 192l160 170l-160 170h-202l160 -170l-160 -170h202zM503 192l160 170l-160 170h-202l160 -170l-160 -170h202z" />
    <glyph glyph-name="glyph436" horiz-adv-x="388" 
d="M173 192h202l-160 170l160 170h-202l-160 -170z" />
    <glyph glyph-name="glyph437" horiz-adv-x="388" 
d="M215 192l160 170l-160 170h-202l160 -170l-160 -170h202z" />
    <glyph glyph-name="glyph450" horiz-adv-x="682" 
d="M434 314q-1 -14 -7 -28q-6 -13 -17 -24q-11 -10 -28 -15q-18 -6 -43 -6q-30 0 -52 12t-33 37q-6 12 -8 27t-2 37q0 21 2 36t8 27q11 24 32 36q22 12 53 12q25 0 42 -6q17 -5 28 -15t17 -21q7 -11 8 -27h231q-3 44 -19 80q-17 36 -48 64q-34 30 -78 50q-43 19 -96 28v88
h-160v-87q-79 -11 -138 -48q-58 -36 -87 -100q-24 -50 -24 -118t24 -118q29 -65 89 -101q59 -36 136 -47v-87h160v89q53 8 96 28q44 19 77 49t50 67q17 36 20 81h-233z" />
    <glyph glyph-name="glyph451" horiz-adv-x="733" 
d="M692 303q-27 57 -84 87q-58 30 -128 47q-74 17 -127 32q-54 14 -68 42q-2 4 -3 9q-1 4 -1 9q0 9 4 17q8 15 27 22t45 7q34 0 54 -10q21 -10 29 -29q3 -8 5 -16q1 -9 2 -20h241q-1 25 -5 46q-4 20 -13 39q-27 57 -84 92t-139 46v97h-170v-97q-84 -12 -141 -47t-82 -89
q-8 -19 -13 -39q-4 -20 -4 -44t4 -45t12 -38q22 -47 67 -76q44 -30 113 -48q73 -17 136 -34q63 -16 82 -49q2 -5 3 -10t1 -12q0 -10 -4 -21q-8 -16 -29 -25t-53 -9q-36 0 -59 11q-22 11 -32 32q-3 7 -5 16q-1 8 -2 18h-248q1 -25 5 -48q5 -22 13 -42q27 -59 87 -94
q59 -36 149 -48v-96h170v96q91 11 153 46q63 35 90 94q10 21 14 44q5 23 5 50q0 26 -4 48q-5 21 -13 39v0z" />
    <glyph glyph-name="glyph492" horiz-adv-x="919" 
d="M358 -203h191v745h85v-745h192v745h84v164h-627q-98 0 -161 -32q-62 -32 -90 -94q-12 -26 -17 -55t-5 -65t5 -65t17 -54q28 -62 89 -95q61 -32 158 -32h79v-417zM303 376q-66 0 -85 42q-4 8 -5 18q-2 11 -2 24q0 27 8 43q9 21 30 31q20 10 54 10h55v-168h-55z" />
    <glyph glyph-name="glyph499" 
d="M-200 532h169l54 174h-200z" />
    <glyph glyph-name="glyph526" 
d="M-443 293h443v124h-443v-124z" />
    <glyph glyph-name="glyph527" 
d="M-524 281h474v124h-474v-124z" />
    <glyph glyph-name="glyph528" horiz-adv-x="323" 
d="M50 532h169l54 174h-200z" />
    <glyph glyph-name="glyph529" 
d="M-410 746q44 1 72 26q27 26 28 68q-1 43 -28 69q-28 26 -72 27q-44 -1 -72 -27q-27 -26 -28 -69q1 -42 28 -68q28 -25 72 -26v0zM-152 746q44 1 72 26q28 26 29 68q-1 43 -29 69t-72 27q-44 -1 -71 -27q-28 -26 -29 -69q1 -42 29 -68q27 -25 71 -26v0z" />
    <glyph glyph-name="glyph530" 
d="M-160 746q48 1 79 30q30 29 31 74q-1 45 -31 74q-31 29 -79 30q-48 -1 -79 -30q-30 -29 -31 -74q1 -45 31 -74q31 -29 79 -30v0z" />
    <glyph glyph-name="glyph531" 
d="M-50 754l-105 158h-226l126 -158h205z" />
    <glyph glyph-name="glyph532" 
d="M-381 754h206l125 158h-225z" />
    <glyph glyph-name="glyph533" 
d="M-575 755h164l130 157h-188zM-345 755h164l131 157h-189z" />
    <glyph glyph-name="glyph534" 
d="M-551 755h195l55 70l56 -70h195l-121 157h-259z" />
    <glyph glyph-name="glyph535" 
d="M-50 912h-195l-55 -70l-56 70h-195l121 -157h259z" />
    <glyph glyph-name="glyph536" 
d="M-265 751q101 0 156 42q54 41 59 119h-147q-6 -28 -23 -40q-16 -12 -45 -12q-28 0 -45 12t-22 40h-151q5 -78 61 -119q56 -42 157 -42v0z" />
    <glyph glyph-name="glyph537" 
d="M-209 726q71 1 114 37q44 36 45 100q-1 64 -45 100t-114 37q-71 -1 -115 -37t-45 -100q1 -64 45 -100t115 -37v0zM-209 815q-24 0 -38 13t-14 35q0 23 14 36t38 13q25 0 38 -13q14 -13 14 -36q0 -22 -14 -35t-38 -13v0z" />
    <glyph glyph-name="glyph538" 
d="M-185 751q61 0 96 40q34 40 39 124h-125q-6 -20 -16 -28t-27 -8q-15 0 -29 4t-29 12q-23 11 -43 18q-19 6 -46 6q-64 1 -99 -39q-36 -39 -43 -125h123q3 21 13 29t24 8q15 0 32 -6l39 -14q19 -8 41 -14q21 -7 50 -7v0z" />
    <glyph glyph-name="glyph539" 
d="M-426 767h376v134h-376v-134z" />
    <glyph glyph-name="glyph540" 
d="M-250 428v35l-174 -101v-147l174 99v-35l250 143v149z" />
    <glyph glyph-name="glyph541" 
d="M-990 0h152l129 115l4 -1l424 384l4 -4l237 212h-157l-124 -116l-2 4l-423 -383l-5 1z" />
    <glyph glyph-name="glyph542" 
d="M-358 749q41 1 67 27q25 26 26 66q-1 41 -26 68q-26 27 -67 28q-41 -1 -66 -28t-26 -68q1 -40 26 -66t66 -27v0zM-143 748q41 1 66 28q26 26 27 66q-1 40 -27 67q-25 27 -66 28q-41 -1 -67 -28q-25 -27 -26 -67q1 -40 26 -66q26 -27 67 -28v0z" />
    <glyph glyph-name="glyph543" 
d="M-505 755h188l40 67l39 -67h188l-98 157h-259z" />
    <glyph glyph-name="glyph544" 
d="M-246 748q93 0 143 42t53 122h-147q-3 -29 -15 -41q-11 -12 -34 -12q-23 -1 -35 11t-15 42h-147q3 -80 54 -122q50 -42 143 -42v0z" />
    <glyph glyph-name="glyph545" 
d="M-172 751q62 0 90 42q28 41 32 119h-109q-3 -20 -9 -32q-6 -11 -21 -11q-9 0 -16 4q-8 4 -20 13q-15 13 -34 21q-18 9 -47 9q-61 0 -89 -42q-29 -42 -33 -119h108q1 20 7 31t19 11q10 0 20 -5t23 -14q16 -12 34 -19q18 -8 45 -8v0z" />
    <glyph glyph-name="glyph546" 
d="M-381 767h331v134h-331v-134z" />
    <glyph glyph-name="glyph547" 
d="M-449 247h449v100h-449v-100z" />
    <glyph glyph-name="glyph548" 
d="M-156 547q47 1 76 28t30 72q-1 44 -30 72q-29 27 -76 28q-46 -1 -75 -28q-29 -28 -30 -72q1 -45 30 -72t75 -28v0z" />
    <glyph glyph-name="glyph549" 
d="M-327 553q39 1 62 25q23 25 24 65q-1 42 -24 67q-23 24 -62 25q-40 -1 -64 -25q-23 -25 -24 -67q1 -40 24 -65q24 -24 64 -25v0zM-137 553q40 1 63 25q23 25 24 65q-1 42 -24 67q-23 24 -63 25q-40 -1 -63 -25q-23 -25 -24 -67q1 -40 24 -65q23 -24 63 -25v0z" />
    <glyph glyph-name="glyph550" 
d="M-50 553l-86 168h-218l110 -168h194z" />
    <glyph glyph-name="glyph551" 
d="M-354 553h194l110 168h-219z" />
    <glyph glyph-name="glyph552" 
d="M-417 553h150l34 76l34 -76h149l-83 168h-200z" />
    <glyph glyph-name="glyph553" 
d="M-421 721l84 -168h200l83 168h-149l-34 -76l-34 76h-150z" />
    <glyph glyph-name="glyph554" 
d="M-228 543q84 0 130 46q45 45 48 132h-131q-1 -39 -13 -54q-12 -16 -34 -15q-23 -1 -35 14t-13 55h-131q3 -87 48 -132q46 -46 131 -46v0z" />
    <glyph glyph-name="glyph555" 
d="M-161 552q57 0 83 43q25 43 28 133h-106q-2 -20 -9 -31t-21 -11q-9 0 -18 5l-20 14q-15 12 -33 19q-17 7 -40 7q-57 0 -82 -43q-25 -44 -29 -134h106q2 20 9 31q7 12 21 12q10 0 18 -6l20 -14q15 -11 33 -18q17 -7 40 -7v0z" />
    <glyph glyph-name="glyph556" 
d="M-365 577h315v134h-315v-134z" />
    <glyph glyph-name="glyph557" 
d="M-141 -220q26 0 48 3q23 3 42 9v104q-16 -7 -33 -7q-15 0 -24 8q-10 7 -10 22q0 24 18 44q17 20 49 37h-156q-33 -16 -55 -45q-22 -28 -23 -73q1 -52 41 -77t103 -25v0z" />
    <glyph glyph-name="glyph558" 
d="M-187 309l168 201l-145 104l-99 -135zM-529 -108l103 138l-76 171l-171 -204z" />
    <glyph glyph-name="glyph559" 
d="M-199 458l199 221l-149 129l-137 -160zM-726 -102l163 196l-107 162l-205 -230z" />
  </font>
</defs>
</svg>
