<svg xmlns="http://www.w3.org/2000/svg" width="224.682" height="25.422" viewBox="0 0 224.682 25.422">
  <g id="sc-logo-white" transform="translate(-140.5 -67.946)">
    <path id="Path_1426" data-name="Path 1426" d="M6.392-6.4a8.588,8.588,0,0,0,3.295-.569,3.568,3.568,0,0,0,1.94-1.739,3.486,3.486,0,0,0,.284-1.438,3.759,3.759,0,0,0-.067-.736,2.217,2.217,0,0,0-.184-.619,3.153,3.153,0,0,0-1.572-1.488,10.755,10.755,0,0,0-2.475-.769q-1.271-.268-2.291-.535A1.986,1.986,0,0,1,4-15.146a.709.709,0,0,1-.067-.2,1.654,1.654,0,0,1-.017-.234,1.654,1.654,0,0,1,.017-.234A.957.957,0,0,1,4-16.033a1.369,1.369,0,0,1,.836-.669,4.077,4.077,0,0,1,1.388-.217,3.7,3.7,0,0,1,1.455.251,1.622,1.622,0,0,1,.836.82,2.12,2.12,0,0,1,.134.4q.033.217.05.485h2.776a4.888,4.888,0,0,0-.067-.836,4.044,4.044,0,0,0-.234-.736,3.586,3.586,0,0,0-1.84-1.756,7.348,7.348,0,0,0-3.061-.585,7.51,7.51,0,0,0-3.094.585A3.485,3.485,0,0,0,1.358-16.6a3.4,3.4,0,0,0-.268,1.3,3.09,3.09,0,0,0,.067.669,2.4,2.4,0,0,0,.167.569A3.134,3.134,0,0,0,2.7-12.688a8.512,8.512,0,0,0,2.258.769q1.321.251,2.442.535a2.243,2.243,0,0,1,1.472.97,1.079,1.079,0,0,1,.117.518,1.445,1.445,0,0,1-.117.552,1.49,1.49,0,0,1-.886.7,4.722,4.722,0,0,1-1.522.217A4.241,4.241,0,0,1,4.8-8.707a1.639,1.639,0,0,1-.953-.87,2.185,2.185,0,0,1-.184-.92H.806a4.514,4.514,0,0,0,.084.886,3.6,3.6,0,0,0,.251.786A3.607,3.607,0,0,0,3.047-7.018,8.036,8.036,0,0,0,6.392-6.4Zm12.477,0A6.168,6.168,0,0,0,23.1-7.637a4.719,4.719,0,0,0,1.355-3.746v-7.158H21.762v6.957a2.99,2.99,0,0,1-.7,2.191,3.016,3.016,0,0,1-2.208.7,2.954,2.954,0,0,1-2.191-.7,2.99,2.99,0,0,1-.7-2.191v-6.957H13.283v7.158a4.75,4.75,0,0,0,1.355,3.746A6.168,6.168,0,0,0,18.869-6.4Zm7.493-.334h2.525v-8.145l4.131,8.145h1.2l4.131-8.145v8.145h2.525V-18.542H37.751L33.62-10.514l-4.081-8.028H26.361Zm16.624,0h2.676V-18.542H42.986Zm7.175,0h2.676v-9.6h3.278v-2.208H46.866v2.208H50.16ZM63.574-6.4a9.12,9.12,0,0,0,2.76-.4A6.078,6.078,0,0,0,68.474-8a4.462,4.462,0,0,0,1.087-1.488A4.626,4.626,0,0,0,70-11.367H67.153a2.661,2.661,0,0,1-.251,1,2.61,2.61,0,0,1-.585.769,3.176,3.176,0,0,1-1.2.669,5.413,5.413,0,0,1-1.572.217,4.633,4.633,0,0,1-2.157-.468,2.925,2.925,0,0,1-1.338-1.4,4.792,4.792,0,0,1-.268-.9,7.281,7.281,0,0,1-.084-1.154,6.966,6.966,0,0,1,.084-1.137,4.441,4.441,0,0,1,.284-.92,2.97,2.97,0,0,1,1.3-1.388,4.477,4.477,0,0,1,2.174-.485,5.079,5.079,0,0,1,1.539.217,3.174,3.174,0,0,1,1.154.652,2.429,2.429,0,0,1,.6.786,2.858,2.858,0,0,1,.284,1.037h2.843a4.714,4.714,0,0,0-.435-1.873,4.486,4.486,0,0,0-1.1-1.522,5.905,5.905,0,0,0-2.124-1.2,8.9,8.9,0,0,0-2.726-.4,8.11,8.11,0,0,0-3.88.886,5.278,5.278,0,0,0-2.325,2.459,7.05,7.05,0,0,0-.552,2.893,7.125,7.125,0,0,0,.552,2.893,5.079,5.079,0,0,0,2.308,2.475A8.022,8.022,0,0,0,63.574-6.4Zm7.978-.334h2.676v-4.833h6.038v4.833h2.693V-18.542H80.265v4.767H74.227v-4.767H71.551Zm23.18,0h2.843L92.658-18.542H88.811L83.894-6.734h2.86l1-2.542h5.954ZM88.594-11.35,90.718-16.7h.033l2.141,5.352Zm9.918,4.616h2.626v-8.245l6.1,8.245h2.944V-18.542h-2.626V-10.2l-6.171-8.346H98.511Zm13.781,0h5.636a7.85,7.85,0,0,0,3.7-.786,4.837,4.837,0,0,0,2.191-2.308,5.613,5.613,0,0,0,.4-1.288,8.14,8.14,0,0,0,.134-1.522,8.14,8.14,0,0,0-.134-1.522,5.647,5.647,0,0,0-.4-1.271,4.644,4.644,0,0,0-2.174-2.325,7.953,7.953,0,0,0-3.713-.786h-5.636Zm2.676-2.241V-16.3h2.659a4.855,4.855,0,0,1,2.241.452,2.665,2.665,0,0,1,1.271,1.321,3.507,3.507,0,0,1,.251.836,6.212,6.212,0,0,1,.084,1.054,5.919,5.919,0,0,1-.084,1.037,3.507,3.507,0,0,1-.251.836,2.745,2.745,0,0,1-1.271,1.338,4.855,4.855,0,0,1-2.241.452ZM132.195-6.4a8.277,8.277,0,0,0,3.863-.853,5.065,5.065,0,0,0,2.291-2.392,5.928,5.928,0,0,0,.452-1.4,8.089,8.089,0,0,0,.151-1.589,7.837,7.837,0,0,0-.151-1.572,6.574,6.574,0,0,0-.435-1.371,5.154,5.154,0,0,0-2.275-2.425,8.179,8.179,0,0,0-3.88-.87,8.217,8.217,0,0,0-3.9.87,5.193,5.193,0,0,0-2.291,2.475,6.636,6.636,0,0,0-.435,1.355,8.591,8.591,0,0,0-.134,1.539,7.838,7.838,0,0,0,.151,1.572,5.952,5.952,0,0,0,.418,1.371,5.121,5.121,0,0,0,2.291,2.442A8.316,8.316,0,0,0,132.195-6.4Zm.017-2.325a4.429,4.429,0,0,1-2.208-.5,2.969,2.969,0,0,1-1.3-1.388,4.441,4.441,0,0,1-.284-.92,6.543,6.543,0,0,1-.084-1.1,6.849,6.849,0,0,1,.084-1.121,4.441,4.441,0,0,1,.284-.92,2.969,2.969,0,0,1,1.3-1.388,4.515,4.515,0,0,1,2.191-.485,4.554,4.554,0,0,1,2.208.485,2.969,2.969,0,0,1,1.3,1.388,4.441,4.441,0,0,1,.284.92,6.849,6.849,0,0,1,.084,1.121,6.543,6.543,0,0,1-.084,1.1,3.845,3.845,0,0,1-.268.92,2.969,2.969,0,0,1-1.3,1.388A4.429,4.429,0,0,1,132.212-8.724Zm16.106,1.99h3.311l-4.215-4.633a4.111,4.111,0,0,0,1.89-.585,2.948,2.948,0,0,0,1.121-1.321,3.249,3.249,0,0,0,.251-.786,5.134,5.134,0,0,0,.084-.937,3.715,3.715,0,0,0-.318-1.606A2.991,2.991,0,0,0,149-18.056a5.75,5.75,0,0,0-2.509-.485h-5.937V-6.734h2.676v-4.6h1.07ZM143.233-16.5h2.542a4.324,4.324,0,0,1,1.355.184,1.274,1.274,0,0,1,.753.686,1.569,1.569,0,0,1,.151.736,2.114,2.114,0,0,1-.151.836,1.3,1.3,0,0,1-.753.652,4.134,4.134,0,0,1-1.355.184h-2.542ZM163.9-6.734l-6.138-6.472,5.436-5.335h-3.345l-4.583,4.583v-4.583H152.6V-6.734h2.676V-12.27l5.185,5.536Zm10.62,0h2.843l-4.917-11.808H168.6L163.687-6.734h2.86l1-2.542H173.5Zm-6.138-4.616,2.124-5.352h.033l2.141,5.352Zm17.678,4.616h3.311l-4.215-4.633a4.111,4.111,0,0,0,1.89-.585,2.948,2.948,0,0,0,1.121-1.321,3.248,3.248,0,0,0,.251-.786,5.137,5.137,0,0,0,.084-.937,3.715,3.715,0,0,0-.318-1.606,2.991,2.991,0,0,0-1.438-1.455,5.75,5.75,0,0,0-2.509-.485H178.3V-6.734h2.676v-4.6h1.07ZM180.981-16.5h2.542a4.324,4.324,0,0,1,1.355.184,1.275,1.275,0,0,1,.753.686,1.57,1.57,0,0,1,.151.736,2.115,2.115,0,0,1-.151.836,1.3,1.3,0,0,1-.753.652,4.134,4.134,0,0,1-1.355.184h-2.542Z" transform="translate(175.805 96.032)" fill="#fff"/>
    <g id="Group_10483" data-name="Group 10483" transform="translate(142 70)">
      <g id="Group_10482" data-name="Group 10482" transform="translate(0)">
        <path id="Path_148" data-name="Path 148" d="M358.977,184.266l-5.773,3.412s-8.922-5.948-16.708-1.706-7.173,18.851,3.5,19.9c9.622,1.487,12.6-6.823,10.585-12.509-2.974-6.211-12.421-5.161-14.171.7s6.651,9.91,9.447,4.811a3.73,3.73,0,0,0-.748-4.134" transform="translate(-324.884 -184.266)" fill="none" stroke="#fff" stroke-linecap="round" stroke-miterlimit="10" stroke-width="3"/>
        <path id="Path_149" data-name="Path 149" d="M288.2,230.381l-7.377,13.279s-1.475,1.708,1.4,1.786,14.909.932,14.909.932" transform="translate(-280.445 -224.613)" fill="none" stroke="#fff" stroke-linecap="round" stroke-miterlimit="10" stroke-width="3"/>
      </g>
    </g>
  </g>
</svg>
