<svg xmlns="http://www.w3.org/2000/svg" width="304.366" height="33.895" viewBox="0 0 304.366 33.895">
  <g id="sc-logo" transform="translate(-140.2 -67.535)">
    <path id="Path_1426" data-name="Path 1426" d="M8.379-1.962a11.643,11.643,0,0,0,4.467-.771,4.837,4.837,0,0,0,2.63-2.358,4.726,4.726,0,0,0,.385-1.95,5.1,5.1,0,0,0-.091-1,3.006,3.006,0,0,0-.249-.839,4.275,4.275,0,0,0-2.131-2.018,14.58,14.58,0,0,0-3.356-1.043q-1.723-.363-3.106-.726A2.693,2.693,0,0,1,5.137-13.82a.961.961,0,0,1-.091-.272,2.242,2.242,0,0,1-.023-.317,2.242,2.242,0,0,1,.023-.317,1.3,1.3,0,0,1,.091-.295,1.856,1.856,0,0,1,1.134-.907,5.527,5.527,0,0,1,1.882-.295,5.019,5.019,0,0,1,1.973.34,2.2,2.2,0,0,1,1.134,1.111,2.874,2.874,0,0,1,.181.544q.045.295.068.658h3.764a6.627,6.627,0,0,0-.091-1.134,5.483,5.483,0,0,0-.317-1,4.862,4.862,0,0,0-2.494-2.381,9.961,9.961,0,0,0-4.149-.794,10.182,10.182,0,0,0-4.195.794,4.724,4.724,0,0,0-2.471,2.29,4.607,4.607,0,0,0-.363,1.769,4.189,4.189,0,0,0,.091.907,3.247,3.247,0,0,0,.227.771,4.248,4.248,0,0,0,1.859,1.859A11.539,11.539,0,0,0,6.429-9.444q1.791.34,3.31.726a3.041,3.041,0,0,1,2,1.315,1.463,1.463,0,0,1,.159.7,1.959,1.959,0,0,1-.159.748,2.02,2.02,0,0,1-1.2.952,6.4,6.4,0,0,1-2.063.295,5.75,5.75,0,0,1-2.245-.385A2.222,2.222,0,0,1,4.933-6.27a2.963,2.963,0,0,1-.249-1.247H.806a6.12,6.12,0,0,0,.113,1.2,4.877,4.877,0,0,0,.34,1.066A4.89,4.89,0,0,0,3.844-2.8,10.9,10.9,0,0,0,8.379-1.962Zm16.914,0q3.877,0,5.736-1.678a6.4,6.4,0,0,0,1.837-5.079v-9.7h-3.65V-8.99a4.053,4.053,0,0,1-.952,2.97,4.088,4.088,0,0,1-2.993.952A4.005,4.005,0,0,1,22.3-6.02a4.053,4.053,0,0,1-.952-2.97v-9.432H17.72v9.7a6.439,6.439,0,0,0,1.837,5.079Q21.416-1.962,25.293-1.962Zm10.158-.453h3.424V-13.457l5.6,11.042h1.632l5.6-11.042V-2.415h3.424V-18.423h-4.24l-5.6,10.883L39.759-18.423H35.451Zm22.537,0h3.628V-18.423H57.988Zm9.727,0h3.628V-15.43h4.444v-2.993H63.249v2.993h4.467ZM85.9-1.962a12.364,12.364,0,0,0,3.741-.544,8.24,8.24,0,0,0,2.9-1.632,6.049,6.049,0,0,0,1.474-2.018,6.271,6.271,0,0,0,.59-2.539H90.752a3.608,3.608,0,0,1-.34,1.36,3.539,3.539,0,0,1-.794,1.043,4.306,4.306,0,0,1-1.632.907,7.338,7.338,0,0,1-2.131.295,6.28,6.28,0,0,1-2.925-.635,3.966,3.966,0,0,1-1.814-1.9,6.5,6.5,0,0,1-.363-1.224,9.871,9.871,0,0,1-.113-1.564,9.443,9.443,0,0,1,.113-1.542,6.021,6.021,0,0,1,.385-1.247,4.026,4.026,0,0,1,1.769-1.882,6.069,6.069,0,0,1,2.948-.658,6.885,6.885,0,0,1,2.086.295,4.3,4.3,0,0,1,1.564.884,3.293,3.293,0,0,1,.816,1.066,3.875,3.875,0,0,1,.385,1.406h3.854a6.391,6.391,0,0,0-.59-2.539,6.081,6.081,0,0,0-1.5-2.063,8.006,8.006,0,0,0-2.88-1.632,12.066,12.066,0,0,0-3.7-.544,11,11,0,0,0-5.26,1.2,7.155,7.155,0,0,0-3.152,3.333,9.558,9.558,0,0,0-.748,3.923A9.659,9.659,0,0,0,77.488-6.5a6.885,6.885,0,0,0,3.129,3.356A10.875,10.875,0,0,0,85.9-1.962Zm10.815-.453h3.628V-8.968h8.185v6.553h3.65V-18.423h-3.65v6.462h-8.185v-6.462H96.715Zm31.425,0h3.854l-6.666-16.007h-5.215L113.448-2.415h3.877l1.36-3.446h8.072Zm-8.321-6.258,2.88-7.256h.045l2.9,7.256Zm13.445,6.258h3.56V-13.593L145.1-2.415h3.991V-18.423h-3.56V-7.108l-8.367-11.314h-3.9Zm18.683,0h7.641A10.642,10.642,0,0,0,164.6-3.481a6.558,6.558,0,0,0,2.97-3.129,7.609,7.609,0,0,0,.544-1.746,11.035,11.035,0,0,0,.181-2.063,11.035,11.035,0,0,0-.181-2.063,7.656,7.656,0,0,0-.544-1.723,6.3,6.3,0,0,0-2.948-3.152,10.781,10.781,0,0,0-5.034-1.066h-7.641Zm3.628-3.038v-9.931h3.605a6.582,6.582,0,0,1,3.038.612,3.613,3.613,0,0,1,1.723,1.791,4.754,4.754,0,0,1,.34,1.134,8.421,8.421,0,0,1,.113,1.428,8.024,8.024,0,0,1-.113,1.406,4.754,4.754,0,0,1-.34,1.134,3.721,3.721,0,0,1-1.723,1.814,6.582,6.582,0,0,1-3.038.612Zm23.354,3.492a11.222,11.222,0,0,0,5.238-1.156,6.866,6.866,0,0,0,3.106-3.242,8.037,8.037,0,0,0,.612-1.9,10.968,10.968,0,0,0,.2-2.154,10.626,10.626,0,0,0-.2-2.131,8.912,8.912,0,0,0-.59-1.859,6.987,6.987,0,0,0-3.084-3.288,11.088,11.088,0,0,0-5.26-1.179,11.14,11.14,0,0,0-5.283,1.179,7.04,7.04,0,0,0-3.106,3.356,9,9,0,0,0-.59,1.837,11.646,11.646,0,0,0-.181,2.086,10.626,10.626,0,0,0,.2,2.131,8.069,8.069,0,0,0,.567,1.859,6.943,6.943,0,0,0,3.106,3.31A11.275,11.275,0,0,0,178.929-1.962Zm.023-3.152a6,6,0,0,1-2.993-.68,4.026,4.026,0,0,1-1.769-1.882,6.02,6.02,0,0,1-.385-1.247,8.87,8.87,0,0,1-.113-1.5,9.284,9.284,0,0,1,.113-1.519,6.02,6.02,0,0,1,.385-1.247,4.026,4.026,0,0,1,1.769-1.882,6.121,6.121,0,0,1,2.97-.658,6.174,6.174,0,0,1,2.993.658,4.026,4.026,0,0,1,1.769,1.882,6.021,6.021,0,0,1,.385,1.247,9.286,9.286,0,0,1,.113,1.519,8.872,8.872,0,0,1-.113,1.5,5.213,5.213,0,0,1-.363,1.247,4.026,4.026,0,0,1-1.769,1.882A6,6,0,0,1,178.951-5.113Zm21.835,2.7h4.489L199.562-8.7a5.573,5.573,0,0,0,2.562-.794,4,4,0,0,0,1.519-1.791,4.4,4.4,0,0,0,.34-1.066,6.961,6.961,0,0,0,.113-1.27,5.036,5.036,0,0,0-.431-2.177,4.054,4.054,0,0,0-1.95-1.973,7.8,7.8,0,0,0-3.4-.658h-8.049V-2.415h3.628V-8.65h1.451Zm-6.893-13.241h3.446a5.862,5.862,0,0,1,1.837.249,1.728,1.728,0,0,1,1.02.93,2.128,2.128,0,0,1,.2,1,2.866,2.866,0,0,1-.2,1.134,1.756,1.756,0,0,1-1.02.884,5.6,5.6,0,0,1-1.837.249h-3.446ZM221.918-2.415,213.6-11.19l7.369-7.233h-4.535l-6.213,6.213v-6.213H206.59V-2.415h3.628v-7.5l7.029,7.5Zm14.4,0h3.855L233.5-18.423h-5.215L221.623-2.415H225.5l1.36-3.446h8.072Zm-8.321-6.258,2.88-7.256h.045l2.9,7.256ZM251.96-2.415h4.489L250.736-8.7a5.573,5.573,0,0,0,2.562-.794,4,4,0,0,0,1.519-1.791,4.4,4.4,0,0,0,.34-1.066,6.965,6.965,0,0,0,.113-1.27,5.037,5.037,0,0,0-.431-2.177,4.054,4.054,0,0,0-1.95-1.973,7.8,7.8,0,0,0-3.4-.658H241.44V-2.415h3.628V-8.65h1.451Zm-6.893-13.241h3.446a5.862,5.862,0,0,1,1.837.249,1.728,1.728,0,0,1,1.02.93,2.128,2.128,0,0,1,.2,1,2.866,2.866,0,0,1-.2,1.134,1.756,1.756,0,0,1-1.02.884,5.6,5.6,0,0,1-1.837.249h-3.446Z" transform="translate(188.116 98.577)" fill="#3b3a39"/>
    <g id="Group_10483" data-name="Group 10483" transform="translate(142 70)">
      <g id="Group_10482" data-name="Group 10482" transform="translate(0)">
        <path id="Path_148" data-name="Path 148" d="M368.843,184.266l-7.827,4.625s-12.1-8.064-22.65-2.313-9.724,25.556,4.743,26.979c13.045,2.016,17.077-9.25,14.349-16.958-4.032-8.42-16.84-7-19.211.949s9.016,13.435,12.808,6.522c1.545-3.049-1.015-5.6-1.015-5.6" transform="translate(-322.624 -184.266)" fill="none" stroke="#3b3a39" stroke-linecap="round" stroke-miterlimit="10" stroke-width="3.6"/>
        <path id="Path_149" data-name="Path 149" d="M290.959,230.381l-10,18s-2,2.316,1.895,2.421,20.212,1.263,20.212,1.263" transform="translate(-280.445 -222.561)" fill="none" stroke="#3b3a39" stroke-linecap="round" stroke-miterlimit="10" stroke-width="3.6"/>
      </g>
    </g>
  </g>
</svg>
